<?xml version="1.0" encoding="utf-8"?>
<!-- Generator: Adobe Illustrator 16.0.0, SVG Export Plug-In . SVG Version: 6.00 Build 0)  -->
<!DOCTYPE svg PUBLIC "-//W3C//DTD SVG 1.1//EN" "http://www.w3.org/Graphics/SVG/1.1/DTD/svg11.dtd">
<svg version="1.1" id="_x30_" xmlns="http://www.w3.org/2000/svg" xmlns:xlink="http://www.w3.org/1999/xlink" x="0px" y="0px"
	 width="595.28px" height="841.89px" viewBox="0 0 595.28 841.89" enable-background="new 0 0 595.28 841.89" xml:space="preserve">
<path fill="none" stroke="#000000" stroke-width="0.7087" stroke-linecap="round" stroke-linejoin="round" stroke-miterlimit="10" d="
	M7.89,88.375v-0.567c0-3.439,2.797-6.236,6.236-6.236h77.034c0.469,0,0.85-0.381,0.85-0.85c0-0.464-0.364-0.838-0.828-0.85
	l-43.044-1.137c-4.069-0.108-7.341-3.379-7.449-7.449c-0.111-4.219,3.231-7.742,7.449-7.854l43.044-1.137
	c0.228-0.006,0.438-0.1,0.595-0.265c0.156-0.165,0.239-0.38,0.233-0.607c-0.012-0.464-0.385-0.828-0.85-0.828H14.126
	c-3.439,0-6.236-2.797-6.236-6.236v-0.567h134.334v0.567c0,7.51-5.881,13.549-13.389,13.748l-80.517,2.126
	c-0.469,0.012-0.84,0.403-0.828,0.873c0.012,0.452,0.375,0.815,0.828,0.827l80.517,2.126c7.508,0.199,13.389,6.237,13.389,13.748
	v0.567H7.89z"/>
<path fill="none" stroke="#000000" stroke-width="0.7087" stroke-linecap="round" stroke-linejoin="round" stroke-miterlimit="10" d="
	M7.89,52.811v-6.236c0-3.439,2.797-6.236,6.236-6.236h77.034c0.469,0,0.85-0.381,0.85-0.85c0-0.464-0.364-0.838-0.828-0.85
	l-43.044-1.137c-4.069-0.108-7.341-3.379-7.449-7.449c-0.111-4.219,3.231-7.742,7.449-7.854l43.044-1.137
	c0.228-0.006,0.438-0.1,0.595-0.265c0.156-0.165,0.239-0.38,0.233-0.607c-0.012-0.464-0.385-0.828-0.85-0.828H14.126
	c-3.439,0-6.236-2.797-6.236-6.236V6.89h134.334v6.236c0,7.51-5.881,13.549-13.389,13.748L48.318,29
	c-0.469,0.012-0.84,0.403-0.828,0.873c0.012,0.452,0.375,0.815,0.828,0.827l80.517,2.126c7.508,0.199,13.389,6.237,13.389,13.748
	v6.236H7.89z"/>
</svg>
