<?xml version="1.0" encoding="utf-8"?>
<!-- Generator: Adobe Illustrator 27.0.0, SVG Export Plug-In . SVG Version: 6.00 Build 0)  -->
<svg version="1.1" id="Layer_1" xmlns="http://www.w3.org/2000/svg" xmlns:xlink="http://www.w3.org/1999/xlink" x="0px" y="0px"
	 width="145px" height="104.5px" viewBox="0 0 145 104.5" style="enable-background:new 0 0 145 104.5;" xml:space="preserve">
<g>
	<g id="LINE_00000026844104665731653360000000897286760071553437_">
		
			<path style="fill:none;stroke:#000000;stroke-width:0.2835;stroke-linecap:round;stroke-linejoin:round;stroke-miterlimit:10;" d="
			M138,39.2H4.8c0-3.1,2.5-5.7,5.7-5.7h79.6c0.8,0,1.4-0.6,1.4-1.4c0-0.8-0.6-1.4-1.3-1.4c0,0-45.7-2.4-45.7-2.4
			c-3-0.2-5.3-2.5-5.5-5.5c-0.2-3.2,2.3-5.9,5.5-6.1c0,0,45.7-2.4,45.7-2.4c0.8,0,1.4-0.7,1.3-1.5c0-0.8-0.7-1.3-1.4-1.3H10.5
			c-3.1,0-5.7-2.5-5.7-5.7H138c0,5.7-4.5,10.5-10.2,10.8c0,0-83.2,4.4-83.2,4.4c-0.9,0-1.5,0.8-1.5,1.6c0,0.8,0.7,1.4,1.5,1.5
			c0,0,83.2,4.4,83.2,4.4C133.5,28.7,138,33.4,138,39.2z"/>
	</g>
</g>
<g>
	<g id="LINE_00000172419684765609615340000015199899042372487046_">
		
			<path style="fill:none;stroke:#000000;stroke-width:0.2835;stroke-linecap:round;stroke-linejoin:round;stroke-miterlimit:10;" d="
			M138,74H4.8c0-3.1,2.5-5.7,5.7-5.7h79.6c0.8,0,1.4-0.6,1.4-1.4c0-0.8-0.6-1.4-1.3-1.4c0,0-45.7-2.4-45.7-2.4
			c-3-0.2-5.3-2.5-5.5-5.5c-0.2-3.2,2.3-5.9,5.5-6.1c0,0,45.7-2.4,45.7-2.4c0.8,0,1.4-0.7,1.3-1.5c0-0.8-0.7-1.3-1.4-1.3H10.5
			c-3.1,0-5.7-2.5-5.7-5.7H138c0,5.7-4.5,10.5-10.2,10.8c0,0-83.2,4.4-83.2,4.4c-0.9,0-1.5,0.8-1.5,1.6c0,0.8,0.7,1.4,1.5,1.5
			c0,0,83.2,4.4,83.2,4.4C133.5,63.5,138,68.2,138,74z"/>
	</g>
</g>
<path style="fill:none;stroke:#000000;stroke-width:0.2835;stroke-linecap:round;stroke-linejoin:round;stroke-miterlimit:10;" d="
	M4.8,87.8v5.7c0,3.1,2.5,5.7,5.7,5.7h79.6l46.4,0c1-1.7,1.6-3.6,1.6-5.7v-5.7H4.8z"/>
<path style="fill:none;stroke:#000000;stroke-width:0.2835;stroke-linecap:round;stroke-linejoin:round;stroke-miterlimit:10;" d="
	M136.4,75.3l-46.4,0H10.5c-3.1,0-5.7,2.5-5.7,5.7v5.7H138V81C138,78.9,137.4,77,136.4,75.3z"/>
</svg>
