<?xml version="1.0" encoding="utf-8"?>
<!-- Generator: Adobe Illustrator 27.0.0, SVG Export Plug-In . SVG Version: 6.00 Build 0)  -->
<svg version="1.1" id="Layer_1" xmlns="http://www.w3.org/2000/svg" xmlns:xlink="http://www.w3.org/1999/xlink" x="0px" y="0px"
	 width="687.4px" height="566.9px" viewBox="0 0 687.4 566.9" style="enable-background:new 0 0 687.4 566.9;" xml:space="preserve"
	>
<g>
	<g>
		<g>
			<line style="fill:none;stroke:#000000;stroke-width:2.835;stroke-miterlimit:10;" x1="188.2" y1="258" x2="188.2" y2="314.4"/>
			<g>
				<path d="M184,314.4c0,2.4,1.9,4.3,4.3,4.3c2.4,0,4.3-1.9,4.3-4.3s-1.9-4.3-4.3-4.3C185.9,310.1,184,312,184,314.4z"/>
			</g>
		</g>
	</g>
	<g>
		<g>
			<line style="fill:none;stroke:#000000;stroke-width:2.835;stroke-miterlimit:10;" x1="188.2" y1="127.3" x2="188.2" y2="195.6"/>
			<g>
				<path d="M184,127.3c0-2.4,1.9-4.3,4.3-4.3c2.4,0,4.3,1.9,4.3,4.3s-1.9,4.3-4.3,4.3C185.9,131.6,184,129.7,184,127.3z"/>
			</g>
		</g>
	</g>
	
		<circle style="fill-rule:evenodd;clip-rule:evenodd;fill:none;stroke:#000000;stroke-width:2.835;stroke-miterlimit:10;" cx="188.2" cy="226.8" r="31.2"/>
	<line style="fill:none;stroke:#000000;stroke-width:2.835;stroke-miterlimit:10;" x1="192.7" y1="241.3" x2="183.7" y2="241.3"/>
	<line style="fill:none;stroke:#000000;stroke-width:2.835;stroke-miterlimit:10;" x1="188.2" y1="217.4" x2="188.2" y2="208.4"/>
	<line style="fill:none;stroke:#000000;stroke-width:2.835;stroke-miterlimit:10;" x1="188.2" y1="236.8" x2="188.2" y2="245.8"/>
</g>
<text transform="matrix(1 0 0 1 107.568 182.2516)" style="font-family:'TimesNewRomanPS-ItalicMT'; font-size:39.685px;">V</text>
<text transform="matrix(0.583 0 0 0.583 131.8092 195.4664)" style="font-family:'TimesNewRomanPS-ItalicMT'; font-size:39.685px;">th</text>
<g>
	<g>
		<polyline style="fill:none;stroke:#000000;stroke-width:2.835;stroke-miterlimit:10;" points="188.2,127.3 254.1,127.3 
			257.5,135.8 264.5,118.8 271.4,135.8 278.3,118.8 285.2,135.8 292.2,118.8 299.1,135.8 306,118.8 309.5,127.3 375.3,127.3 		"/>
		<g>
			<path d="M188.2,131.6c-2.4,0-4.3-1.9-4.3-4.3c0-2.4,1.9-4.3,4.3-4.3c2.4,0,4.3,1.9,4.3,4.3C192.5,129.7,190.6,131.6,188.2,131.6z
				"/>
		</g>
		<g>
			<circle cx="375.3" cy="127.3" r="4.3"/>
		</g>
	</g>
</g>
<text transform="matrix(1 0 0 1 262.4881 94.0868)" style="font-family:'TimesNewRomanPS-ItalicMT'; font-size:34.0157px;">R</text>
<text transform="matrix(0.583 0 0 0.583 283.2664 105.4139)" style="font-family:'TimesNewRomanPS-ItalicMT'; font-size:34.0157px;">th</text>
<g>
	<g>
		<g>
			<line style="fill:none;stroke:#000000;stroke-width:2.835;stroke-miterlimit:10;" x1="375.3" y1="127.3" x2="375.3" y2="314.4"/>
			<g>
				<path d="M371.1,127.3c0-2.4,1.9-4.3,4.3-4.3c2.4,0,4.3,1.9,4.3,4.3c0,2.4-1.9,4.3-4.3,4.3C373,131.6,371.1,129.7,371.1,127.3z"
					/>
			</g>
			<g>
				<path d="M371.1,314.4c0,2.4,1.9,4.3,4.3,4.3c2.4,0,4.3-1.9,4.3-4.3s-1.9-4.3-4.3-4.3C373,310.1,371.1,312,371.1,314.4z"/>
			</g>
		</g>
	</g>
	<polyline style="fill-rule:evenodd;clip-rule:evenodd;" points="377,235 388.1,207.7 362.6,207.7 373.7,235 	"/>
	
		<rect x="362.6" y="233.6" transform="matrix(-1 -1.224647e-16 1.224647e-16 -1 750.6352 469.9394)" style="fill-rule:evenodd;clip-rule:evenodd;" width="25.5" height="2.8"/>
</g>
<line style="fill:none;stroke:#000000;stroke-width:2.835;stroke-miterlimit:10;" x1="375.3" y1="314.4" x2="188.2" y2="314.4"/>
<path style="fill:none;stroke:#000000;stroke-width:1.4173;stroke-miterlimit:10;stroke-dasharray:8.5039;" d="M327.6,357.4H75.8
	c-8,0-14.6-6.6-14.6-14.6V68c0-8,6.6-14.6,14.6-14.6h251.8c8,0,14.6,6.6,14.6,14.6v274.8C342.2,350.8,335.6,357.4,327.6,357.4z"/>
<text transform="matrix(0.583 0 0 0.583 70.1691 343.4395)" style="font-family:'TimesNewRomanPSMT'; font-size:39.685px;">Thevenin equivalent circuit</text>
</svg>
