<?xml version="1.0" encoding="utf-8"?>
<!-- Generator: Adobe Illustrator 27.0.0, SVG Export Plug-In . SVG Version: 6.00 Build 0)  -->
<svg version="1.1" id="Layer_1" xmlns="http://www.w3.org/2000/svg" xmlns:xlink="http://www.w3.org/1999/xlink" x="0px" y="0px"
	 width="485.7px" height="252.7px" viewBox="0 0 485.7 252.7" style="enable-background:new 0 0 485.7 252.7;" xml:space="preserve"
	>
<polyline style="fill-rule:evenodd;clip-rule:evenodd;fill:#FF8D6E;stroke:#000000;stroke-width:2.8346;stroke-linecap:round;stroke-linejoin:round;stroke-miterlimit:10;" points="
	270.3,223.8 81.7,223.8 81.7,92.9 270.3,92.9 "/>
<polyline style="fill-rule:evenodd;clip-rule:evenodd;fill:#97DD97;stroke:#000000;stroke-width:2.8346;stroke-linecap:round;stroke-linejoin:round;stroke-miterlimit:10;" points="
	270.3,92.9 459,92.9 459,223.8 270.3,223.8 "/>
<polyline style="fill:#EF9275;stroke:#000000;stroke-width:2.8346;stroke-linecap:round;stroke-linejoin:round;stroke-miterlimit:10;" points="
	81.7,92.9 81.7,223.8 24.7,202.8 24.7,71.9 81.7,92.9 "/>
<polygon style="fill:#BFEFBF;stroke:#000000;stroke-width:2.8346;stroke-linecap:round;stroke-linejoin:round;stroke-miterlimit:10;" points="
	270.3,92.9 459,92.9 402,71.9 213.3,71.9 "/>
<polyline style="fill:#FFB199;stroke:#000000;stroke-width:2.8346;stroke-linecap:round;stroke-linejoin:round;stroke-miterlimit:10;" points="
	270.3,92.9 81.7,92.9 24.7,71.9 213.3,71.9 270.3,92.9 270.3,223.8 "/>
<text transform="matrix(1 0 0 1 39.1936 153.9837)" style="font-family:'TimesNewRomanPS-ItalicMT'; font-size:34.0157px;">A</text>
<text transform="matrix(1 0 0 1 278.8031 49.0995)" style="font-family:'TimesNewRomanPS-ItalicMT'; font-size:39.685px;">n-type</text>
<text transform="matrix(1 0 0 1 87.0793 49.0995)" style="font-family:'TimesNewRomanPS-ItalicMT'; font-size:39.685px;">p-type</text>
<text transform="matrix(1 0 0 1 155.7034 167.2871)" style="font-family:'TimesNewRomanPS-ItalicMT'; font-size:39.685px;">N</text>
<text transform="matrix(0.583 0 0 0.583 182.1731 180.5024)" style="font-family:'TimesNewRomanPS-ItalicMT'; font-size:39.685px;">A</text>
<text transform="matrix(1 0 0 1 349.2615 167.2871)" style="font-family:'TimesNewRomanPS-ItalicMT'; font-size:39.685px;">N</text>
<text transform="matrix(0.583 0 0 0.583 375.7312 180.5024)" style="font-family:'TimesNewRomanPS-ItalicMT'; font-size:39.685px;">D</text>
</svg>
