<?xml version="1.0" encoding="utf-8"?>
<!-- Generator: Adobe Illustrator 27.0.0, SVG Export Plug-In . SVG Version: 6.00 Build 0)  -->
<svg version="1.1" id="Layer_1" xmlns="http://www.w3.org/2000/svg" xmlns:xlink="http://www.w3.org/1999/xlink" x="0px" y="0px"
	 width="210.6px" height="304.2px" viewBox="0 0 210.6 304.2" style="enable-background:new 0 0 210.6 304.2;" xml:space="preserve"
	>
<g>
	<g>
		<g>
			<g>
				
					<line style="fill:none;stroke:#000000;stroke-width:2.8346;stroke-miterlimit:10;" x1="124.4" y1="178.9" x2="124.4" y2="229.4"/>
				<g>
					<circle cx="124.4" cy="229.4" r="4.3"/>
				</g>
			</g>
		</g>
		<g>
			<g>
				
					<line style="fill:none;stroke:#000000;stroke-width:2.8346;stroke-miterlimit:10;" x1="124.4" y1="119.9" x2="124.4" y2="170.4"/>
				<g>
					<circle cx="124.4" cy="119.9" r="4.3"/>
				</g>
			</g>
		</g>
		
			<rect x="107.4" y="169" transform="matrix(-1 -1.224647e-16 1.224647e-16 -1 248.878 340.8439)" style="fill-rule:evenodd;clip-rule:evenodd;" width="34" height="2.8"/>
		
			<rect x="107.4" y="177.5" transform="matrix(-1 -1.224647e-16 1.224647e-16 -1 248.878 357.8518)" style="fill-rule:evenodd;clip-rule:evenodd;" width="34" height="2.8"/>
	</g>
</g>
<g>
	<g>
		<line style="fill:none;stroke:#000000;stroke-width:2.8346;stroke-miterlimit:10;" x1="124.4" y1="119.9" x2="124.4" y2="2"/>
		<g>
			<path d="M128.7,119.9c0,2.4-1.9,4.3-4.3,4.3s-4.3-1.9-4.3-4.3c0-2.4,1.9-4.3,4.3-4.3S128.7,117.6,128.7,119.9z"/>
		</g>
	</g>
</g>
<g>
	<g>
		<line style="fill:none;stroke:#000000;stroke-width:2.8346;stroke-miterlimit:10;" x1="124.4" y1="229.4" x2="124.4" y2="302.1"/>
		<g>
			<path d="M120.2,229.4c0-2.4,1.9-4.3,4.3-4.3s4.3,1.9,4.3,4.3c0,2.4-1.9,4.3-4.3,4.3S120.2,231.8,120.2,229.4z"/>
		</g>
	</g>
</g>
<text transform="matrix(1 0 0 1 149.0798 184.1035)" style="font-family:'TimesNewRomanPS-ItalicMT'; font-size:34.0157px;">C</text>
<g>
	<g>
		<line style="fill:none;stroke:#F15A24;stroke-width:2.8346;stroke-miterlimit:10;" x1="124.4" y1="35.8" x2="124.4" y2="80.9"/>
		<g>
			<polygon style="fill:#F15A24;" points="115,73.8 124.4,77.8 133.9,73.8 124.4,96.2 			"/>
		</g>
	</g>
</g>
<g>
	<text transform="matrix(1 0 0 1 6.9462 183.593)" style="font-family:'TimesNewRomanPS-ItalicMT'; font-size:34.0157px;">v(ω)</text>
</g>
<g>
	<line style="fill:none;stroke:#2189F9;stroke-width:2.8346;stroke-miterlimit:10;" x1="22.6" y1="115.7" x2="22.6" y2="124.2"/>
	<line style="fill:none;stroke:#2189F9;stroke-width:2.8346;stroke-miterlimit:10;" x1="18.4" y1="119.9" x2="26.9" y2="119.9"/>
</g>
<text transform="matrix(1 0 0 1 146.5559 72.3589)" style="font-family:'TimesNewRomanPS-ItalicMT'; font-size:34.0157px;">i(ω)</text>
<g>
	<g>
		<line style="fill:none;stroke:#2189F9;stroke-width:2.8346;stroke-miterlimit:10;" x1="37.8" y1="119.9" x2="124.4" y2="119.9"/>
		<g>
			<rect x="32.2" y="114.3" style="fill:#2189F9;" width="11.2" height="11.2"/>
		</g>
		<g>
			<path style="fill:#2189F9;" d="M124.4,124.2c2.4,0,4.3-1.9,4.3-4.3c0-2.4-1.9-4.3-4.3-4.3c-2.4,0-4.3,1.9-4.3,4.3
				C120.2,122.3,122.1,124.2,124.4,124.2z"/>
		</g>
	</g>
</g>
<g>
	<g>
		<line style="fill:none;stroke:#2189F9;stroke-width:2.8346;stroke-miterlimit:10;" x1="37.8" y1="229.4" x2="124.4" y2="229.4"/>
		<g>
			<rect x="32.2" y="223.8" style="fill:#2189F9;" width="11.2" height="11.2"/>
		</g>
		<g>
			<path style="fill:#2189F9;" d="M124.4,233.7c2.4,0,4.3-1.9,4.3-4.3s-1.9-4.3-4.3-4.3c-2.4,0-4.3,1.9-4.3,4.3
				S122.1,233.7,124.4,233.7z"/>
		</g>
	</g>
</g>
</svg>
