<?xml version="1.0" encoding="utf-8"?>
<!-- Generator: Adobe Illustrator 27.0.0, SVG Export Plug-In . SVG Version: 6.00 Build 0)  -->
<svg version="1.1" id="Layer_1" xmlns="http://www.w3.org/2000/svg" xmlns:xlink="http://www.w3.org/1999/xlink" x="0px" y="0px"
	 width="359.4px" height="238.2px" viewBox="0 0 359.4 238.2" style="enable-background:new 0 0 359.4 238.2;" xml:space="preserve"
	>
<polyline style="fill:#F2F2F2;stroke:#000000;stroke-width:2.835;stroke-linecap:round;stroke-linejoin:round;stroke-miterlimit:10;" points="
	54,85 54,179.5 9,162.9 9,68.4 54,85 "/>
<polygon style="fill:#F2F2F2;stroke:#000000;stroke-width:2.835;stroke-linecap:round;stroke-linejoin:round;stroke-miterlimit:10;" points="
	351.6,85 306.6,68.4 9,68.4 54,85 "/>
<text transform="matrix(1 0 0 1 100.8146 214.6298)" style="font-family:'TimesNewRomanPS-ItalicMT'; font-size:34.0157px;">x</text>
<text transform="matrix(1 0 0 1 153.3676 29.2201)" style="font-family:'TimesNewRomanPS-ItalicMT'; font-size:34.0157px;">I = AJ</text>
<text transform="matrix(0.583 0 0 0.583 240.5331 40.5472)" style="font-family:'TimesNewRomanPS-ItalicMT'; font-size:34.0157px;">n diff</text>
<text transform="matrix(1 0 0 1 18.6463 135.7633)" style="font-family:'TimesNewRomanPS-ItalicMT'; font-size:34.0157px;">A</text>
<rect x="54" y="85" style="fill-rule:evenodd;clip-rule:evenodd;fill:#F2F2F2;stroke:#000000;stroke-width:2.835;stroke-linecap:round;stroke-linejoin:round;stroke-miterlimit:10;" width="297.6" height="94.5"/>
<g>
	<g>
		<line style="fill:none;stroke:#000000;stroke-width:2.835;stroke-miterlimit:10;" x1="55.4" y1="225.1" x2="145.8" y2="225.1"/>
		<g>
			<rect x="54" y="215.9" width="2.8" height="18.4"/>
		</g>
		<g>
			<polygon points="137.8,235.6 142.3,225.1 137.8,214.6 162.7,225.1 			"/>
		</g>
	</g>
</g>
<g>
	<g>
		<line style="fill:none;stroke:#F15A24;stroke-width:2.8346;stroke-miterlimit:10;" x1="146.3" y1="47.7" x2="222.4" y2="47.7"/>
		<g>
			<polygon style="fill:#F15A24;" points="215.3,57.2 219.3,47.7 215.3,38.3 237.7,47.7 			"/>
		</g>
	</g>
</g>
<g>
	<circle style="fill:#00D814;" cx="336.7" cy="99.9" r="9"/>
	<g>
		<path style="fill:#FFFFFF;" d="M333,100.8c0,0.3-0.1,0.5-0.1,0.7c0,0.5,0.2,1,0.6,1.3c0.4,0.4,0.8,0.6,1.4,0.6
			c0.4,0,0.8-0.1,1.2-0.3c0.4-0.2,1-0.6,1.7-1.2l0.2,0.3c-1.4,1.4-2.7,2.1-4,2.1c-0.9,0-1.5-0.3-1.9-0.8c-0.4-0.5-0.7-1.1-0.7-1.8
			c0-0.9,0.3-1.8,0.8-2.7c0.5-0.9,1.2-1.6,2-2.1c0.8-0.5,1.7-0.8,2.5-0.8c0.6,0,1.1,0.1,1.4,0.4c0.3,0.3,0.5,0.6,0.5,0.9
			c0,0.5-0.2,1-0.6,1.4c-0.5,0.6-1.3,1.1-2.3,1.4C335.1,100.5,334.2,100.6,333,100.8z M333,100.3c0.9-0.1,1.6-0.3,2.1-0.5
			c0.7-0.3,1.3-0.7,1.6-1.2c0.4-0.5,0.5-0.9,0.5-1.3c0-0.2-0.1-0.4-0.2-0.6c-0.2-0.2-0.4-0.2-0.7-0.2c-0.6,0-1.2,0.3-1.9,1
			C333.9,98.2,333.4,99.1,333,100.3z"/>
		<path style="fill:#FFFFFF;" d="M342,95.5l-0.2,0.7h-2.7l0.2-0.7H342z"/>
	</g>
</g>
<g>
	<circle style="fill:#00D814;" cx="323.5" cy="120" r="9"/>
	<g>
		<path style="fill:#FFFFFF;" d="M319.8,120.9c0,0.3-0.1,0.5-0.1,0.7c0,0.5,0.2,1,0.6,1.3c0.4,0.4,0.8,0.6,1.4,0.6
			c0.4,0,0.8-0.1,1.2-0.3c0.4-0.2,1-0.6,1.7-1.2l0.2,0.3c-1.4,1.4-2.7,2.1-4,2.1c-0.9,0-1.5-0.3-1.9-0.8c-0.4-0.5-0.7-1.1-0.7-1.8
			c0-0.9,0.3-1.8,0.8-2.7c0.5-0.9,1.2-1.6,2-2.1c0.8-0.5,1.7-0.8,2.5-0.8c0.6,0,1.1,0.1,1.4,0.4c0.3,0.3,0.5,0.6,0.5,0.9
			c0,0.5-0.2,1-0.6,1.4c-0.5,0.6-1.3,1.1-2.3,1.4C321.9,120.6,320.9,120.7,319.8,120.9z M319.8,120.4c0.9-0.1,1.6-0.3,2.1-0.5
			c0.7-0.3,1.3-0.7,1.6-1.2c0.4-0.5,0.5-0.9,0.5-1.3c0-0.2-0.1-0.4-0.2-0.6c-0.2-0.2-0.4-0.2-0.7-0.2c-0.6,0-1.2,0.3-1.9,1
			C320.6,118.3,320.1,119.2,319.8,120.4z"/>
		<path style="fill:#FFFFFF;" d="M328.8,115.6l-0.2,0.7h-2.7l0.2-0.7H328.8z"/>
	</g>
</g>
<g>
	<circle style="fill:#00D814;" cx="302.7" cy="99.4" r="9"/>
	<g>
		<path style="fill:#FFFFFF;" d="M299,100.3c0,0.3-0.1,0.5-0.1,0.7c0,0.5,0.2,1,0.6,1.3c0.4,0.4,0.8,0.6,1.4,0.6
			c0.4,0,0.8-0.1,1.2-0.3c0.4-0.2,1-0.6,1.7-1.2l0.2,0.3c-1.4,1.4-2.7,2.1-4,2.1c-0.9,0-1.5-0.3-1.9-0.8c-0.4-0.5-0.7-1.1-0.7-1.8
			c0-0.9,0.3-1.8,0.8-2.7c0.5-0.9,1.2-1.6,2-2.1c0.8-0.5,1.7-0.8,2.5-0.8c0.6,0,1.1,0.1,1.4,0.4c0.3,0.3,0.5,0.6,0.5,0.9
			c0,0.5-0.2,1-0.6,1.4c-0.5,0.6-1.3,1.1-2.3,1.4C301.1,100,300.2,100.2,299,100.3z M299.1,99.9c0.9-0.1,1.6-0.3,2.1-0.5
			c0.7-0.3,1.3-0.7,1.6-1.2c0.4-0.5,0.5-0.9,0.5-1.3c0-0.2-0.1-0.4-0.2-0.6c-0.2-0.2-0.4-0.2-0.7-0.2c-0.6,0-1.2,0.3-1.9,1
			C299.9,97.7,299.4,98.6,299.1,99.9z"/>
		<path style="fill:#FFFFFF;" d="M308,95l-0.2,0.7h-2.7l0.2-0.7H308z"/>
	</g>
</g>
<g>
	<circle style="fill:#00D814;" cx="338.2" cy="141.2" r="9"/>
	<g>
		<path style="fill:#FFFFFF;" d="M334.5,142.1c0,0.3-0.1,0.5-0.1,0.7c0,0.5,0.2,1,0.6,1.3c0.4,0.4,0.8,0.6,1.4,0.6
			c0.4,0,0.8-0.1,1.2-0.3c0.4-0.2,1-0.6,1.7-1.2l0.2,0.3c-1.4,1.4-2.7,2.1-4,2.1c-0.9,0-1.5-0.3-1.9-0.8c-0.4-0.5-0.7-1.1-0.7-1.8
			c0-0.9,0.3-1.8,0.8-2.7c0.5-0.9,1.2-1.6,2-2.1c0.8-0.5,1.7-0.8,2.5-0.8c0.6,0,1.1,0.1,1.4,0.4c0.3,0.3,0.5,0.6,0.5,0.9
			c0,0.5-0.2,1-0.6,1.4c-0.5,0.6-1.3,1.1-2.3,1.4C336.6,141.8,335.7,142,334.5,142.1z M334.6,141.7c0.9-0.1,1.6-0.3,2.1-0.5
			c0.7-0.3,1.3-0.7,1.6-1.2c0.4-0.5,0.5-0.9,0.5-1.3c0-0.2-0.1-0.4-0.2-0.6c-0.2-0.2-0.4-0.2-0.7-0.2c-0.6,0-1.2,0.3-1.9,1
			C335.4,139.5,334.9,140.4,334.6,141.7z"/>
		<path style="fill:#FFFFFF;" d="M343.6,136.8l-0.2,0.7h-2.7l0.2-0.7H343.6z"/>
	</g>
</g>
<g>
	<circle style="fill:#00D814;" cx="336.7" cy="162.8" r="9"/>
	<g>
		<path style="fill:#FFFFFF;" d="M333,163.7c0,0.3-0.1,0.5-0.1,0.7c0,0.5,0.2,1,0.6,1.3c0.4,0.4,0.8,0.6,1.4,0.6
			c0.4,0,0.8-0.1,1.2-0.3c0.4-0.2,1-0.6,1.7-1.2l0.2,0.3c-1.4,1.4-2.7,2.1-4,2.1c-0.9,0-1.5-0.3-1.9-0.8c-0.4-0.5-0.7-1.1-0.7-1.8
			c0-0.9,0.3-1.8,0.8-2.7c0.5-0.9,1.2-1.6,2-2.1c0.8-0.5,1.7-0.8,2.5-0.8c0.6,0,1.1,0.1,1.4,0.4c0.3,0.3,0.5,0.6,0.5,0.9
			c0,0.5-0.2,1-0.6,1.4c-0.5,0.6-1.3,1.1-2.3,1.4C335.1,163.4,334.2,163.6,333,163.7z M333,163.3c0.9-0.1,1.6-0.3,2.1-0.5
			c0.7-0.3,1.3-0.7,1.6-1.2c0.4-0.5,0.5-0.9,0.5-1.3c0-0.2-0.1-0.4-0.2-0.6c-0.2-0.2-0.4-0.2-0.7-0.2c-0.6,0-1.2,0.3-1.9,1
			C333.9,161.1,333.4,162,333,163.3z"/>
		<path style="fill:#FFFFFF;" d="M342,158.4l-0.2,0.7h-2.7l0.2-0.7H342z"/>
	</g>
</g>
<g>
	<circle style="fill:#00D814;" cx="310" cy="166.2" r="9"/>
	<g>
		<path style="fill:#FFFFFF;" d="M306.3,167.1c0,0.3-0.1,0.5-0.1,0.7c0,0.5,0.2,1,0.6,1.3c0.4,0.4,0.8,0.6,1.4,0.6
			c0.4,0,0.8-0.1,1.2-0.3c0.4-0.2,1-0.6,1.7-1.2l0.2,0.3c-1.4,1.4-2.7,2.1-4,2.1c-0.9,0-1.5-0.3-1.9-0.8c-0.4-0.5-0.7-1.1-0.7-1.8
			c0-0.9,0.3-1.8,0.8-2.7c0.5-0.9,1.2-1.6,2-2.1c0.8-0.5,1.7-0.8,2.5-0.8c0.6,0,1.1,0.1,1.4,0.4c0.3,0.3,0.5,0.6,0.5,0.9
			c0,0.5-0.2,1-0.6,1.4c-0.5,0.6-1.3,1.1-2.3,1.4C308.4,166.7,307.5,166.9,306.3,167.1z M306.3,166.6c0.9-0.1,1.6-0.3,2.1-0.5
			c0.7-0.3,1.3-0.7,1.6-1.2c0.4-0.5,0.5-0.9,0.5-1.3c0-0.2-0.1-0.4-0.2-0.6c-0.2-0.2-0.4-0.2-0.7-0.2c-0.6,0-1.2,0.3-1.9,1
			C307.1,164.4,306.7,165.4,306.3,166.6z"/>
		<path style="fill:#FFFFFF;" d="M315.3,161.7l-0.2,0.7h-2.7l0.2-0.7H315.3z"/>
	</g>
</g>
<g>
	<circle style="fill:#00D814;" cx="313.9" cy="145.4" r="9"/>
	<g>
		<path style="fill:#FFFFFF;" d="M310.1,146.2c0,0.3-0.1,0.5-0.1,0.7c0,0.5,0.2,1,0.6,1.3c0.4,0.4,0.8,0.6,1.4,0.6
			c0.4,0,0.8-0.1,1.2-0.3c0.4-0.2,1-0.6,1.7-1.2l0.2,0.3c-1.4,1.4-2.7,2.1-4,2.1c-0.9,0-1.5-0.3-1.9-0.8c-0.4-0.5-0.7-1.1-0.7-1.8
			c0-0.9,0.3-1.8,0.8-2.7c0.5-0.9,1.2-1.6,2-2.1c0.8-0.5,1.7-0.8,2.5-0.8c0.6,0,1.1,0.1,1.4,0.4c0.3,0.3,0.5,0.6,0.5,0.9
			c0,0.5-0.2,1-0.6,1.4c-0.5,0.6-1.3,1.1-2.3,1.4C312.3,145.9,311.3,146.1,310.1,146.2z M310.2,145.8c0.9-0.1,1.6-0.3,2.1-0.5
			c0.7-0.3,1.3-0.7,1.6-1.2c0.4-0.5,0.5-0.9,0.5-1.3c0-0.2-0.1-0.4-0.2-0.6c-0.2-0.2-0.4-0.2-0.7-0.2c-0.6,0-1.2,0.3-1.9,1
			C311,143.6,310.5,144.6,310.2,145.8z"/>
		<path style="fill:#FFFFFF;" d="M319.2,140.9l-0.2,0.7h-2.7l0.2-0.7H319.2z"/>
	</g>
</g>
<g>
	<circle style="fill:#00D814;" cx="286.7" cy="121.8" r="9"/>
	<g>
		<path style="fill:#FFFFFF;" d="M282.9,122.7c0,0.3-0.1,0.5-0.1,0.7c0,0.5,0.2,1,0.6,1.3c0.4,0.4,0.8,0.6,1.4,0.6
			c0.4,0,0.8-0.1,1.2-0.3c0.4-0.2,1-0.6,1.7-1.2l0.2,0.3c-1.4,1.4-2.7,2.1-4,2.1c-0.9,0-1.5-0.3-1.9-0.8c-0.4-0.5-0.7-1.1-0.7-1.8
			c0-0.9,0.3-1.8,0.8-2.7c0.5-0.9,1.2-1.6,2-2.1c0.8-0.5,1.7-0.8,2.5-0.8c0.6,0,1.1,0.1,1.4,0.4c0.3,0.3,0.5,0.6,0.5,0.9
			c0,0.5-0.2,1-0.6,1.4c-0.5,0.6-1.3,1.1-2.3,1.4C285.1,122.3,284.1,122.5,282.9,122.7z M283,122.2c0.9-0.1,1.6-0.3,2.1-0.5
			c0.7-0.3,1.3-0.7,1.6-1.2c0.4-0.5,0.5-0.9,0.5-1.3c0-0.2-0.1-0.4-0.2-0.6c-0.2-0.2-0.4-0.2-0.7-0.2c-0.6,0-1.2,0.3-1.9,1
			C283.8,120,283.3,121,283,122.2z"/>
		<path style="fill:#FFFFFF;" d="M292,117.3l-0.2,0.7h-2.7l0.2-0.7H292z"/>
	</g>
</g>
<g>
	<circle style="fill:#00D814;" cx="254.9" cy="101.3" r="9"/>
	<g>
		<path style="fill:#FFFFFF;" d="M251.2,102.2c0,0.3-0.1,0.5-0.1,0.7c0,0.5,0.2,1,0.6,1.3c0.4,0.4,0.8,0.6,1.4,0.6
			c0.4,0,0.8-0.1,1.2-0.3c0.4-0.2,1-0.6,1.7-1.2l0.2,0.3c-1.4,1.4-2.7,2.1-4,2.1c-0.9,0-1.5-0.3-1.9-0.8c-0.4-0.5-0.7-1.1-0.7-1.8
			c0-0.9,0.3-1.8,0.8-2.7c0.5-0.9,1.2-1.6,2-2.1c0.8-0.5,1.7-0.8,2.5-0.8c0.6,0,1.1,0.1,1.4,0.4c0.3,0.3,0.5,0.6,0.5,0.9
			c0,0.5-0.2,1-0.6,1.4c-0.5,0.6-1.3,1.1-2.3,1.4C253.3,101.9,252.4,102.1,251.2,102.2z M251.2,101.8c0.9-0.1,1.6-0.3,2.1-0.5
			c0.7-0.3,1.3-0.7,1.6-1.2c0.4-0.5,0.5-0.9,0.5-1.3c0-0.2-0.1-0.4-0.2-0.6c-0.2-0.2-0.4-0.2-0.7-0.2c-0.6,0-1.2,0.3-1.9,1
			C252,99.6,251.5,100.5,251.2,101.8z"/>
		<path style="fill:#FFFFFF;" d="M260.2,96.9l-0.2,0.7h-2.7l0.2-0.7H260.2z"/>
	</g>
</g>
<g>
	<circle style="fill:#00D814;" cx="202.8" cy="112.8" r="9"/>
	<g>
		<path style="fill:#FFFFFF;" d="M199,113.7c0,0.3-0.1,0.5-0.1,0.7c0,0.5,0.2,1,0.6,1.3c0.4,0.4,0.8,0.6,1.4,0.6
			c0.4,0,0.8-0.1,1.2-0.3c0.4-0.2,1-0.6,1.7-1.2l0.2,0.3c-1.4,1.4-2.7,2.1-4,2.1c-0.9,0-1.5-0.3-1.9-0.8c-0.4-0.5-0.7-1.1-0.7-1.8
			c0-0.9,0.3-1.8,0.8-2.7c0.5-0.9,1.2-1.6,2-2.1c0.8-0.5,1.7-0.8,2.5-0.8c0.6,0,1.1,0.1,1.4,0.4c0.3,0.3,0.5,0.6,0.5,0.9
			c0,0.5-0.2,1-0.6,1.4c-0.5,0.6-1.3,1.1-2.3,1.4C201.2,113.4,200.2,113.6,199,113.7z M199.1,113.3c0.9-0.1,1.6-0.3,2.1-0.5
			c0.7-0.3,1.3-0.7,1.6-1.2c0.4-0.5,0.5-0.9,0.5-1.3c0-0.2-0.1-0.4-0.2-0.6c-0.2-0.2-0.4-0.2-0.7-0.2c-0.6,0-1.2,0.3-1.9,1
			C199.9,111.1,199.4,112,199.1,113.3z"/>
		<path style="fill:#FFFFFF;" d="M208.1,108.4l-0.2,0.7h-2.7l0.2-0.7H208.1z"/>
	</g>
</g>
<g>
	<circle style="fill:#00D814;" cx="178.3" cy="152.9" r="9"/>
	<g>
		<path style="fill:#FFFFFF;" d="M174.6,153.8c0,0.3-0.1,0.5-0.1,0.7c0,0.5,0.2,1,0.6,1.3c0.4,0.4,0.8,0.6,1.4,0.6
			c0.4,0,0.8-0.1,1.2-0.3c0.4-0.2,1-0.6,1.7-1.2l0.2,0.3c-1.4,1.4-2.7,2.1-4,2.1c-0.9,0-1.5-0.3-1.9-0.8c-0.4-0.5-0.7-1.1-0.7-1.8
			c0-0.9,0.3-1.8,0.8-2.7c0.5-0.9,1.2-1.6,2-2.1c0.8-0.5,1.7-0.8,2.5-0.8c0.6,0,1.1,0.1,1.4,0.4c0.3,0.3,0.5,0.6,0.5,0.9
			c0,0.5-0.2,1-0.6,1.4c-0.5,0.6-1.3,1.1-2.3,1.4C176.8,153.5,175.8,153.6,174.6,153.8z M174.7,153.4c0.9-0.1,1.6-0.3,2.1-0.5
			c0.7-0.3,1.3-0.7,1.6-1.2c0.4-0.5,0.5-0.9,0.5-1.3c0-0.2-0.1-0.4-0.2-0.6c-0.2-0.2-0.4-0.2-0.7-0.2c-0.6,0-1.2,0.3-1.9,1
			C175.5,151.2,175,152.1,174.7,153.4z"/>
		<path style="fill:#FFFFFF;" d="M183.7,148.5l-0.2,0.7h-2.7l0.2-0.7H183.7z"/>
	</g>
</g>
<g>
	<circle style="fill:#00D814;" cx="141.6" cy="120.3" r="9"/>
	<g>
		<path style="fill:#FFFFFF;" d="M137.9,121.2c0,0.3-0.1,0.5-0.1,0.7c0,0.5,0.2,1,0.6,1.3c0.4,0.4,0.8,0.6,1.4,0.6
			c0.4,0,0.8-0.1,1.2-0.3c0.4-0.2,1-0.6,1.7-1.2l0.2,0.3c-1.4,1.4-2.7,2.1-4,2.1c-0.9,0-1.5-0.3-1.9-0.8c-0.4-0.5-0.7-1.1-0.7-1.8
			c0-0.9,0.3-1.8,0.8-2.7c0.5-0.9,1.2-1.6,2-2.1c0.8-0.5,1.7-0.8,2.5-0.8c0.6,0,1.1,0.1,1.4,0.4c0.3,0.3,0.5,0.6,0.5,0.9
			c0,0.5-0.2,1-0.6,1.4c-0.5,0.6-1.3,1.1-2.3,1.4C140,120.9,139,121.1,137.9,121.2z M137.9,120.8c0.9-0.1,1.6-0.3,2.1-0.5
			c0.7-0.3,1.3-0.7,1.6-1.2c0.4-0.5,0.5-0.9,0.5-1.3c0-0.2-0.1-0.4-0.2-0.6c-0.2-0.2-0.4-0.2-0.7-0.2c-0.6,0-1.2,0.3-1.9,1
			C138.7,118.6,138.2,119.6,137.9,120.8z"/>
		<path style="fill:#FFFFFF;" d="M146.9,115.9l-0.2,0.7H144l0.2-0.7H146.9z"/>
	</g>
</g>
<g>
	<circle style="fill:#00D814;" cx="105.6" cy="159.3" r="9"/>
	<g>
		<path style="fill:#FFFFFF;" d="M101.8,160.2c0,0.3-0.1,0.5-0.1,0.7c0,0.5,0.2,1,0.6,1.3c0.4,0.4,0.8,0.6,1.4,0.6
			c0.4,0,0.8-0.1,1.2-0.3c0.4-0.2,1-0.6,1.7-1.2l0.2,0.3c-1.4,1.4-2.7,2.1-4,2.1c-0.9,0-1.5-0.3-1.9-0.8c-0.4-0.5-0.7-1.1-0.7-1.8
			c0-0.9,0.3-1.8,0.8-2.7c0.5-0.9,1.2-1.6,2-2.1c0.8-0.5,1.7-0.8,2.5-0.8c0.6,0,1.1,0.1,1.4,0.4c0.3,0.3,0.5,0.6,0.5,0.9
			c0,0.5-0.2,1-0.6,1.4c-0.5,0.6-1.3,1.1-2.3,1.4C104,159.9,103,160.1,101.8,160.2z M101.9,159.8c0.9-0.1,1.6-0.3,2.1-0.5
			c0.7-0.3,1.3-0.7,1.6-1.2c0.4-0.5,0.5-0.9,0.5-1.3c0-0.2-0.1-0.4-0.2-0.6c-0.2-0.2-0.4-0.2-0.7-0.2c-0.6,0-1.2,0.3-1.9,1
			C102.7,157.6,102.2,158.5,101.9,159.8z"/>
		<path style="fill:#FFFFFF;" d="M110.9,154.9l-0.2,0.7H108l0.2-0.7H110.9z"/>
	</g>
</g>
<g>
	<circle style="fill:#00D814;" cx="69.7" cy="102.8" r="9"/>
	<g>
		<path style="fill:#FFFFFF;" d="M66,103.7c0,0.3-0.1,0.5-0.1,0.7c0,0.5,0.2,1,0.6,1.3c0.4,0.4,0.8,0.6,1.4,0.6
			c0.4,0,0.8-0.1,1.2-0.3c0.4-0.2,1-0.6,1.7-1.2l0.2,0.3c-1.4,1.4-2.7,2.1-4,2.1c-0.9,0-1.5-0.3-1.9-0.8c-0.4-0.5-0.7-1.1-0.7-1.8
			c0-0.9,0.3-1.8,0.8-2.7c0.5-0.9,1.2-1.6,2-2.1c0.8-0.5,1.7-0.8,2.5-0.8c0.6,0,1.1,0.1,1.4,0.4c0.3,0.3,0.5,0.6,0.5,0.9
			c0,0.5-0.2,1-0.6,1.4c-0.5,0.6-1.3,1.1-2.3,1.4C68.1,103.3,67.2,103.5,66,103.7z M66,103.2c0.9-0.1,1.6-0.3,2.1-0.5
			c0.7-0.3,1.3-0.7,1.6-1.2c0.4-0.5,0.5-0.9,0.5-1.3c0-0.2-0.1-0.4-0.2-0.6c-0.2-0.2-0.4-0.2-0.7-0.2c-0.6,0-1.2,0.3-1.9,1
			C66.8,101,66.3,102,66,103.2z"/>
		<path style="fill:#FFFFFF;" d="M75,98.3L74.8,99h-2.7l0.2-0.7H75z"/>
	</g>
</g>
<g>
	<circle style="fill:#00D814;" cx="251.2" cy="134.5" r="9"/>
	<g>
		<path style="fill:#FFFFFF;" d="M247.5,135.4c0,0.3-0.1,0.5-0.1,0.7c0,0.5,0.2,1,0.6,1.3c0.4,0.4,0.8,0.6,1.4,0.6
			c0.4,0,0.8-0.1,1.2-0.3c0.4-0.2,1-0.6,1.7-1.2l0.2,0.3c-1.4,1.4-2.7,2.1-4,2.1c-0.9,0-1.5-0.3-1.9-0.8c-0.4-0.5-0.7-1.1-0.7-1.8
			c0-0.9,0.3-1.8,0.8-2.7c0.5-0.9,1.2-1.6,2-2.1c0.8-0.5,1.7-0.8,2.5-0.8c0.6,0,1.1,0.1,1.4,0.4c0.3,0.3,0.5,0.6,0.5,0.9
			c0,0.5-0.2,1-0.6,1.4c-0.5,0.6-1.3,1.1-2.3,1.4C249.6,135.1,248.7,135.3,247.5,135.4z M247.6,135c0.9-0.1,1.6-0.3,2.1-0.5
			c0.7-0.3,1.3-0.7,1.6-1.2c0.4-0.5,0.5-0.9,0.5-1.3c0-0.2-0.1-0.4-0.2-0.6c-0.2-0.2-0.4-0.2-0.7-0.2c-0.6,0-1.2,0.3-1.9,1
			C248.4,132.8,247.9,133.7,247.6,135z"/>
		<path style="fill:#FFFFFF;" d="M256.5,130.1l-0.2,0.7h-2.7l0.2-0.7H256.5z"/>
	</g>
</g>
<g>
	<circle style="fill:#00D814;" cx="233.3" cy="163.8" r="9"/>
	<g>
		<path style="fill:#FFFFFF;" d="M229.6,164.6c0,0.3-0.1,0.5-0.1,0.7c0,0.5,0.2,1,0.6,1.3c0.4,0.4,0.8,0.6,1.4,0.6
			c0.4,0,0.8-0.1,1.2-0.3c0.4-0.2,1-0.6,1.7-1.2l0.2,0.3c-1.4,1.4-2.7,2.1-4,2.1c-0.9,0-1.5-0.3-1.9-0.8c-0.4-0.5-0.7-1.1-0.7-1.8
			c0-0.9,0.3-1.8,0.8-2.7c0.5-0.9,1.2-1.6,2-2.1c0.8-0.5,1.7-0.8,2.5-0.8c0.6,0,1.1,0.1,1.4,0.4c0.3,0.3,0.5,0.6,0.5,0.9
			c0,0.5-0.2,1-0.6,1.4c-0.5,0.6-1.3,1.1-2.3,1.4C231.7,164.3,230.8,164.5,229.6,164.6z M229.6,164.2c0.9-0.1,1.6-0.3,2.1-0.5
			c0.7-0.3,1.3-0.7,1.6-1.2c0.4-0.5,0.5-0.9,0.5-1.3c0-0.2-0.1-0.4-0.2-0.6c-0.2-0.2-0.4-0.2-0.7-0.2c-0.6,0-1.2,0.3-1.9,1
			C230.4,162,229.9,163,229.6,164.2z"/>
		<path style="fill:#FFFFFF;" d="M238.6,159.3l-0.2,0.7h-2.7l0.2-0.7H238.6z"/>
	</g>
</g>
<g>
	<circle style="fill:#00D814;" cx="281.4" cy="154.3" r="9"/>
	<g>
		<path style="fill:#FFFFFF;" d="M277.6,155.2c0,0.3-0.1,0.5-0.1,0.7c0,0.5,0.2,1,0.6,1.3c0.4,0.4,0.8,0.6,1.4,0.6
			c0.4,0,0.8-0.1,1.2-0.3c0.4-0.2,1-0.6,1.7-1.2l0.2,0.3c-1.4,1.4-2.7,2.1-4,2.1c-0.9,0-1.5-0.3-1.9-0.8c-0.4-0.5-0.7-1.1-0.7-1.8
			c0-0.9,0.3-1.8,0.8-2.7c0.5-0.9,1.2-1.6,2-2.1c0.8-0.5,1.7-0.8,2.5-0.8c0.6,0,1.1,0.1,1.4,0.4c0.3,0.3,0.5,0.6,0.5,0.9
			c0,0.5-0.2,1-0.6,1.4c-0.5,0.6-1.3,1.1-2.3,1.4C279.8,154.9,278.8,155.1,277.6,155.2z M277.7,154.8c0.9-0.1,1.6-0.3,2.1-0.5
			c0.7-0.3,1.3-0.7,1.6-1.2c0.4-0.5,0.5-0.9,0.5-1.3c0-0.2-0.1-0.4-0.2-0.6c-0.2-0.2-0.4-0.2-0.7-0.2c-0.6,0-1.2,0.3-1.9,1
			C278.5,152.6,278,153.5,277.7,154.8z"/>
		<path style="fill:#FFFFFF;" d="M286.7,149.9l-0.2,0.7h-2.7l0.2-0.7H286.7z"/>
	</g>
</g>
</svg>
