<?xml version="1.0" encoding="utf-8"?>
<!-- Generator: Adobe Illustrator 27.0.0, SVG Export Plug-In . SVG Version: 6.00 Build 0)  -->
<svg version="1.1" id="Layer_1" xmlns="http://www.w3.org/2000/svg" xmlns:xlink="http://www.w3.org/1999/xlink" x="0px" y="0px"
	 width="365.4px" height="251.2px" viewBox="0 0 365.4 251.2" style="enable-background:new 0 0 365.4 251.2;" xml:space="preserve"
	>
<text transform="matrix(1 0 0 1 171.6651 29.0769)" style="font-family:'TimesNewRomanPS-ItalicMT'; font-size:34.0157px;">E</text>
<rect x="33.2" y="60" style="fill-rule:evenodd;clip-rule:evenodd;fill:#F2F2F2;stroke:#000000;stroke-width:2.835;stroke-miterlimit:10;" width="297.6" height="94.5"/>
<g>
	<g>
		<g>
			<line style="fill:none;stroke:#000000;stroke-width:2.835;stroke-miterlimit:10;" x1="144.9" y1="213.6" x2="88.5" y2="213.6"/>
			<g>
				<path d="M88.5,209.3c-2.4,0-4.3,1.9-4.3,4.3c0,2.4,1.9,4.3,4.3,4.3s4.3-1.9,4.3-4.3C92.8,211.3,90.8,209.3,88.5,209.3z"/>
			</g>
		</g>
	</g>
	<g>
		<g>
			<line style="fill:none;stroke:#000000;stroke-width:2.835;stroke-miterlimit:10;" x1="275.6" y1="213.6" x2="207.2" y2="213.6"/>
			<g>
				<path d="M275.6,209.3c2.4,0,4.3,1.9,4.3,4.3c0,2.4-1.9,4.3-4.3,4.3c-2.4,0-4.3-1.9-4.3-4.3C271.3,211.3,273.2,209.3,275.6,209.3
					z"/>
			</g>
		</g>
	</g>
	
		<circle style="fill-rule:evenodd;clip-rule:evenodd;fill:none;stroke:#000000;stroke-width:2.835;stroke-miterlimit:10;" cx="176.1" cy="213.6" r="31.2"/>
	<line style="fill:none;stroke:#000000;stroke-width:2.835;stroke-miterlimit:10;" x1="161.5" y1="218.1" x2="161.5" y2="209.1"/>
	<line style="fill:none;stroke:#000000;stroke-width:2.835;stroke-miterlimit:10;" x1="190" y1="218.1" x2="190" y2="209.1"/>
	<line style="fill:none;stroke:#000000;stroke-width:2.835;stroke-miterlimit:10;" x1="166" y1="213.6" x2="157" y2="213.6"/>
</g>
<polyline style="fill-rule:evenodd;clip-rule:evenodd;fill:none;stroke:#000000;stroke-width:2.835;stroke-miterlimit:10;" points="
	330.8,107.2 358.5,107.2 358.5,213.6 275.6,213.6 "/>
<polyline style="fill-rule:evenodd;clip-rule:evenodd;fill:none;stroke:#000000;stroke-width:2.835;stroke-miterlimit:10;" points="
	33.2,107.2 5.6,107.2 5.6,213.6 88.5,213.6 "/>
<g>
	<g>
		<line style="fill:none;stroke:#2189F9;stroke-width:2.8346;stroke-miterlimit:10;" x1="127.7" y1="39.5" x2="219.5" y2="39.5"/>
		<g>
			<polygon style="fill:#2189F9;" points="211.5,50 216,39.5 211.5,29 236.4,39.5 			"/>
		</g>
	</g>
</g>
<g>
	<g>
		<line style="fill:none;stroke:#00D814;stroke-width:2.8346;stroke-miterlimit:10;" x1="153.5" y1="134.8" x2="191.8" y2="134.8"/>
		<g>
			<polygon style="fill:#00D814;" points="184.7,144.3 188.7,134.8 184.7,125.4 207.1,134.8 			"/>
		</g>
	</g>
</g>
<g>
	<circle style="fill:#00D814;" cx="116.7" cy="84.4" r="9"/>
	<g>
		<path style="fill:#FFFFFF;" d="M113,85.3c0,0.3-0.1,0.5-0.1,0.7c0,0.5,0.2,1,0.6,1.3c0.4,0.4,0.8,0.6,1.4,0.6
			c0.4,0,0.8-0.1,1.2-0.3c0.4-0.2,1-0.6,1.7-1.2l0.2,0.3c-1.4,1.4-2.7,2.1-4,2.1c-0.9,0-1.5-0.3-1.9-0.8c-0.4-0.5-0.7-1.1-0.7-1.8
			c0-0.9,0.3-1.8,0.8-2.7c0.5-0.9,1.2-1.6,2-2.1c0.8-0.5,1.7-0.8,2.5-0.8c0.6,0,1.1,0.1,1.4,0.4c0.3,0.3,0.5,0.6,0.5,0.9
			c0,0.5-0.2,1-0.6,1.4c-0.5,0.6-1.3,1.1-2.3,1.4C115.1,85,114.2,85.2,113,85.3z M113,84.9c0.9-0.1,1.6-0.3,2.1-0.5
			c0.7-0.3,1.3-0.7,1.6-1.2c0.4-0.5,0.5-0.9,0.5-1.3c0-0.2-0.1-0.4-0.2-0.6c-0.2-0.2-0.4-0.2-0.7-0.2c-0.6,0-1.2,0.3-1.9,1
			C113.8,82.7,113.3,83.6,113,84.9z"/>
		<path style="fill:#FFFFFF;" d="M122,80l-0.2,0.7h-2.7l0.2-0.7H122z"/>
	</g>
</g>
<g>
	<circle style="fill:#00D814;" cx="144.5" cy="134.8" r="9"/>
	<g>
		<path style="fill:#FFFFFF;" d="M140.8,135.7c0,0.3-0.1,0.5-0.1,0.7c0,0.5,0.2,1,0.6,1.3c0.4,0.4,0.8,0.6,1.4,0.6
			c0.4,0,0.8-0.1,1.2-0.3c0.4-0.2,1-0.6,1.7-1.2l0.2,0.3c-1.4,1.4-2.7,2.1-4,2.1c-0.9,0-1.5-0.3-1.9-0.8c-0.4-0.5-0.7-1.1-0.7-1.8
			c0-0.9,0.3-1.8,0.8-2.7c0.5-0.9,1.2-1.6,2-2.1c0.8-0.5,1.7-0.8,2.5-0.8c0.6,0,1.1,0.1,1.4,0.4c0.3,0.3,0.5,0.6,0.5,0.9
			c0,0.5-0.2,1-0.6,1.4c-0.5,0.6-1.3,1.1-2.3,1.4C142.9,135.4,142,135.6,140.8,135.7z M140.9,135.3c0.9-0.1,1.6-0.3,2.1-0.5
			c0.7-0.3,1.3-0.7,1.6-1.2c0.4-0.5,0.5-0.9,0.5-1.3c0-0.2-0.1-0.4-0.2-0.6c-0.2-0.2-0.4-0.2-0.7-0.2c-0.6,0-1.2,0.3-1.9,1
			C141.7,133.1,141.2,134,140.9,135.3z"/>
		<path style="fill:#FFFFFF;" d="M149.8,130.4l-0.2,0.7h-2.7l0.2-0.7H149.8z"/>
	</g>
</g>
<g>
	<circle style="fill:#00D814;" cx="259.7" cy="101.4" r="9"/>
	<g>
		<path style="fill:#FFFFFF;" d="M255.9,102.3c0,0.3-0.1,0.5-0.1,0.7c0,0.5,0.2,1,0.6,1.3c0.4,0.4,0.8,0.6,1.4,0.6
			c0.4,0,0.8-0.1,1.2-0.3c0.4-0.2,1-0.6,1.7-1.2l0.2,0.3c-1.4,1.4-2.7,2.1-4,2.1c-0.9,0-1.5-0.3-1.9-0.8c-0.4-0.5-0.7-1.1-0.7-1.8
			c0-0.9,0.3-1.8,0.8-2.7c0.5-0.9,1.2-1.6,2-2.1c0.8-0.5,1.7-0.8,2.5-0.8c0.6,0,1.1,0.1,1.4,0.4c0.3,0.3,0.5,0.6,0.5,0.9
			c0,0.5-0.2,1-0.6,1.4c-0.5,0.6-1.3,1.1-2.3,1.4C258.1,101.9,257.1,102.1,255.9,102.3z M256,101.8c0.9-0.1,1.6-0.3,2.1-0.5
			c0.7-0.3,1.3-0.7,1.6-1.2c0.4-0.5,0.5-0.9,0.5-1.3c0-0.2-0.1-0.4-0.2-0.6c-0.2-0.2-0.4-0.2-0.7-0.2c-0.6,0-1.2,0.3-1.9,1
			C256.8,99.6,256.3,100.6,256,101.8z"/>
		<path style="fill:#FFFFFF;" d="M265,96.9l-0.2,0.7h-2.7l0.2-0.7H265z"/>
	</g>
</g>
<g>
	<circle style="fill:#00D814;" cx="307.8" cy="83" r="9"/>
	<g>
		<path style="fill:#FFFFFF;" d="M304.1,83.9c0,0.3-0.1,0.5-0.1,0.7c0,0.5,0.2,1,0.6,1.3c0.4,0.4,0.8,0.6,1.4,0.6
			c0.4,0,0.8-0.1,1.2-0.3c0.4-0.2,1-0.6,1.7-1.2l0.2,0.3c-1.4,1.4-2.7,2.1-4,2.1c-0.9,0-1.5-0.3-1.9-0.8c-0.4-0.5-0.7-1.1-0.7-1.8
			c0-0.9,0.3-1.8,0.8-2.7c0.5-0.9,1.2-1.6,2-2.1c0.8-0.5,1.7-0.8,2.5-0.8c0.6,0,1.1,0.1,1.4,0.4c0.3,0.3,0.5,0.6,0.5,0.9
			c0,0.5-0.2,1-0.6,1.4c-0.5,0.6-1.3,1.1-2.3,1.4C306.2,83.6,305.3,83.8,304.1,83.9z M304.1,83.5c0.9-0.1,1.6-0.3,2.1-0.5
			c0.7-0.3,1.3-0.7,1.6-1.2c0.4-0.5,0.5-0.9,0.5-1.3c0-0.2-0.1-0.4-0.2-0.6c-0.2-0.2-0.4-0.2-0.7-0.2c-0.6,0-1.2,0.3-1.9,1
			C304.9,81.3,304.4,82.2,304.1,83.5z"/>
		<path style="fill:#FFFFFF;" d="M313.1,78.6l-0.2,0.7h-2.7l0.2-0.7H313.1z"/>
	</g>
</g>
<g>
	<circle style="fill:#00D814;" cx="56" cy="107.2" r="9"/>
	<g>
		<path style="fill:#FFFFFF;" d="M52.3,108.1c0,0.3-0.1,0.5-0.1,0.7c0,0.5,0.2,1,0.6,1.3c0.4,0.4,0.8,0.6,1.4,0.6
			c0.4,0,0.8-0.1,1.2-0.3c0.4-0.2,1-0.6,1.7-1.2l0.2,0.3c-1.4,1.4-2.7,2.1-4,2.1c-0.9,0-1.5-0.3-1.9-0.8c-0.4-0.5-0.7-1.1-0.7-1.8
			c0-0.9,0.3-1.8,0.8-2.7c0.5-0.9,1.2-1.6,2-2.1c0.8-0.5,1.7-0.8,2.5-0.8c0.6,0,1.1,0.1,1.4,0.4c0.3,0.3,0.5,0.6,0.5,0.9
			c0,0.5-0.2,1-0.6,1.4c-0.5,0.6-1.3,1.1-2.3,1.4C54.4,107.8,53.5,108,52.3,108.1z M52.4,107.7c0.9-0.1,1.6-0.3,2.1-0.5
			c0.7-0.3,1.3-0.7,1.6-1.2c0.4-0.5,0.5-0.9,0.5-1.3c0-0.2-0.1-0.4-0.2-0.6c-0.2-0.2-0.4-0.2-0.7-0.2c-0.6,0-1.2,0.3-1.9,1
			C53.2,105.5,52.7,106.5,52.4,107.7z"/>
		<path style="fill:#FFFFFF;" d="M61.3,102.8l-0.2,0.7h-2.7l0.2-0.7H61.3z"/>
	</g>
</g>
<g>
	<circle style="fill:#00D814;" cx="303.9" cy="131.5" r="9"/>
	<g>
		<path style="fill:#FFFFFF;" d="M300.2,132.4c0,0.3-0.1,0.5-0.1,0.7c0,0.5,0.2,1,0.6,1.3c0.4,0.4,0.8,0.6,1.4,0.6
			c0.4,0,0.8-0.1,1.2-0.3c0.4-0.2,1-0.6,1.7-1.2l0.2,0.3c-1.4,1.4-2.7,2.1-4,2.1c-0.9,0-1.5-0.3-1.9-0.8c-0.4-0.5-0.7-1.1-0.7-1.8
			c0-0.9,0.3-1.8,0.8-2.7c0.5-0.9,1.2-1.6,2-2.1c0.8-0.5,1.7-0.8,2.5-0.8c0.6,0,1.1,0.1,1.4,0.4c0.3,0.3,0.5,0.6,0.5,0.9
			c0,0.5-0.2,1-0.6,1.4c-0.5,0.6-1.3,1.1-2.3,1.4C302.3,132,301.4,132.2,300.2,132.4z M300.2,131.9c0.9-0.1,1.6-0.3,2.1-0.5
			c0.7-0.3,1.3-0.7,1.6-1.2c0.4-0.5,0.5-0.9,0.5-1.3c0-0.2-0.1-0.4-0.2-0.6c-0.2-0.2-0.4-0.2-0.7-0.2c-0.6,0-1.2,0.3-1.9,1
			C301.1,129.7,300.6,130.7,300.2,131.9z"/>
		<path style="fill:#FFFFFF;" d="M309.2,127l-0.2,0.7h-2.7l0.2-0.7H309.2z"/>
	</g>
</g>
<text transform="matrix(1 0 0 1 199.2319 125.8552)" style="font-family:'TimesNewRomanPS-ItalicMT'; font-size:34.0157px;">v</text>
<text transform="matrix(0.583 0 0 0.583 214.3296 137.1824)" style="font-family:'TimesNewRomanPS-ItalicMT'; font-size:34.0157px;">n</text>
</svg>
