<?xml version="1.0" encoding="utf-8"?>
<!-- Generator: Adobe Illustrator 27.0.0, SVG Export Plug-In . SVG Version: 6.00 Build 0)  -->
<svg version="1.1" id="Layer_1" xmlns="http://www.w3.org/2000/svg" xmlns:xlink="http://www.w3.org/1999/xlink" x="0px" y="0px"
	 width="231.5px" height="329.9px" viewBox="0 0 231.5 329.9" style="enable-background:new 0 0 231.5 329.9;" xml:space="preserve"
	>
<g>
	<g>
		<g>
			<polyline style="fill:none;stroke:#000000;stroke-width:2.835;stroke-miterlimit:10;" points="67.3,258.5 67.3,192.7 75.8,189.2 
				58.8,182.3 75.8,175.4 58.8,168.4 75.8,161.5 58.8,154.6 75.8,147.6 58.8,140.7 67.3,137.3 67.3,71.4 			"/>
			<g>
				<path d="M71.6,258.5c0,2.4-1.9,4.3-4.3,4.3c-2.4,0-4.3-1.9-4.3-4.3c0-2.4,1.9-4.3,4.3-4.3C69.7,254.2,71.6,256.2,71.6,258.5z"/>
			</g>
			<g>
				<path d="M71.6,71.4c0-2.4-1.9-4.3-4.3-4.3c-2.4,0-4.3,1.9-4.3,4.3c0,2.4,1.9,4.3,4.3,4.3C69.7,75.7,71.6,73.8,71.6,71.4z"/>
			</g>
		</g>
	</g>
	<g>
		<g>
			<polyline style="fill:none;stroke:#000000;stroke-width:2.835;stroke-miterlimit:10;" points="167.3,258.5 167.3,192.7 
				175.8,189.2 158.8,182.3 175.8,175.4 158.8,168.4 175.8,161.5 158.8,154.6 175.8,147.6 158.8,140.7 167.3,137.3 167.3,71.4 			
				"/>
			<g>
				<path d="M171.6,258.5c0,2.4-1.9,4.3-4.3,4.3c-2.4,0-4.3-1.9-4.3-4.3c0-2.4,1.9-4.3,4.3-4.3C169.7,254.2,171.6,256.2,171.6,258.5
					z"/>
			</g>
			<g>
				<path d="M171.6,71.4c0-2.4-1.9-4.3-4.3-4.3c-2.4,0-4.3,1.9-4.3,4.3c0,2.4,1.9,4.3,4.3,4.3C169.7,75.7,171.6,73.8,171.6,71.4z"/>
			</g>
		</g>
	</g>
	<line style="fill:none;stroke:#000000;stroke-width:2.8346;stroke-miterlimit:10;" x1="67.3" y1="258.5" x2="167.3" y2="258.5"/>
	<g>
		<g>
			
				<line style="fill:none;stroke:#000000;stroke-width:2.8346;stroke-miterlimit:10;" x1="117.3" y1="258.5" x2="117.3" y2="329.9"/>
			<g>
				<path d="M113.1,258.5c0-2.4,1.9-4.3,4.3-4.3c2.4,0,4.3,1.9,4.3,4.3c0,2.4-1.9,4.3-4.3,4.3C115,262.8,113.1,260.9,113.1,258.5z"
					/>
			</g>
		</g>
	</g>
	<g>
		<g>
			<line style="fill:none;stroke:#000000;stroke-width:2.8346;stroke-miterlimit:10;" x1="117.3" y1="71.4" x2="117.3" y2="0"/>
			<g>
				<path d="M121.6,71.4c0,2.4-1.9,4.3-4.3,4.3c-2.4,0-4.3-1.9-4.3-4.3c0-2.4,1.9-4.3,4.3-4.3C119.7,67.2,121.6,69.1,121.6,71.4z"/>
			</g>
		</g>
	</g>
	<line style="fill:none;stroke:#000000;stroke-width:2.8346;stroke-miterlimit:10;" x1="67.3" y1="71.4" x2="167.3" y2="71.4"/>
	<text transform="matrix(1 0 0 1 13.1099 172.2608)" style="font-family:'TimesNewRomanPS-ItalicMT'; font-size:34.0157px;">R</text>
	
		<text transform="matrix(0.583 0 0 0.583 33.8882 183.5879)" style="font-family:'TimesNewRomanPS-ItalicMT'; font-size:34.0157px;">1</text>
	<text transform="matrix(1 0 0 1 190.9136 172.2611)" style="font-family:'TimesNewRomanPS-ItalicMT'; font-size:34.0157px;">R</text>
	
		<text transform="matrix(0.583 0 0 0.583 211.6919 183.5883)" style="font-family:'TimesNewRomanPS-ItalicMT'; font-size:34.0157px;">2</text>
</g>
</svg>
