<?xml version="1.0" encoding="utf-8"?>
<!-- Generator: Adobe Illustrator 27.0.0, SVG Export Plug-In . SVG Version: 6.00 Build 0)  -->
<svg version="1.1" id="Layer_1" xmlns="http://www.w3.org/2000/svg" xmlns:xlink="http://www.w3.org/1999/xlink" x="0px" y="0px"
	 width="229.9px" height="329.9px" viewBox="0 0 229.9 329.9" style="enable-background:new 0 0 229.9 329.9;" xml:space="preserve"
	>
<g>
	<line style="fill:none;stroke:#000000;stroke-width:2.8346;stroke-miterlimit:10;" x1="62.3" y1="258.5" x2="162.3" y2="258.5"/>
	<g>
		<g>
			
				<line style="fill:none;stroke:#000000;stroke-width:2.8346;stroke-miterlimit:10;" x1="112.3" y1="258.5" x2="112.3" y2="329.9"/>
			<g>
				<path d="M108,258.5c0-2.4,1.9-4.3,4.3-4.3c2.4,0,4.3,1.9,4.3,4.3c0,2.4-1.9,4.3-4.3,4.3C110,262.8,108,260.9,108,258.5z"/>
			</g>
		</g>
	</g>
	<g>
		<g>
			<line style="fill:none;stroke:#000000;stroke-width:2.8346;stroke-miterlimit:10;" x1="112.3" y1="71.4" x2="112.3" y2="0"/>
			<g>
				<path d="M116.6,71.4c0,2.4-1.9,4.3-4.3,4.3c-2.4,0-4.3-1.9-4.3-4.3c0-2.4,1.9-4.3,4.3-4.3C114.7,67.2,116.6,69.1,116.6,71.4z"/>
			</g>
		</g>
	</g>
	<line style="fill:none;stroke:#000000;stroke-width:2.8346;stroke-miterlimit:10;" x1="62.3" y1="71.4" x2="162.3" y2="71.4"/>
	<text transform="matrix(1 0 0 1 8.0934 172.2608)" style="font-family:'TimesNewRomanPS-ItalicMT'; font-size:34.0157px;">C</text>
	<text transform="matrix(0.583 0 0 0.583 30.7818 183.588)" style="font-family:'TimesNewRomanPS-ItalicMT'; font-size:34.0157px;">1</text>
	<text transform="matrix(1 0 0 1 185.897 172.2611)" style="font-family:'TimesNewRomanPS-ItalicMT'; font-size:34.0157px;">C</text>
	
		<text transform="matrix(0.583 0 0 0.583 208.5855 183.5883)" style="font-family:'TimesNewRomanPS-ItalicMT'; font-size:34.0157px;">2</text>
	<g>
		<g>
			<g>
				<g>
					<line style="fill:none;stroke:#000000;stroke-width:2.8346;stroke-miterlimit:10;" x1="62.3" y1="160.7" x2="62.3" y2="71.4"/>
					<g>
						<path d="M66.6,71.4c0-2.4-1.9-4.3-4.3-4.3c-2.4,0-4.3,1.9-4.3,4.3c0,2.4,1.9,4.3,4.3,4.3C64.7,75.7,66.6,73.8,66.6,71.4z"/>
					</g>
				</g>
			</g>
			<g>
				<g>
					
						<line style="fill:none;stroke:#000000;stroke-width:2.8346;stroke-miterlimit:10;" x1="62.3" y1="258.5" x2="62.3" y2="169.2"/>
					<g>
						<path d="M66.6,258.5c0,2.4-1.9,4.3-4.3,4.3c-2.4,0-4.3-1.9-4.3-4.3c0-2.4,1.9-4.3,4.3-4.3C64.7,254.2,66.6,256.2,66.6,258.5z"
							/>
					</g>
				</g>
			</g>
			<rect x="45.3" y="167.8" style="fill-rule:evenodd;clip-rule:evenodd;" width="34" height="2.8"/>
			<rect x="45.3" y="159.3" style="fill-rule:evenodd;clip-rule:evenodd;" width="34" height="2.8"/>
		</g>
	</g>
	<g>
		<g>
			<g>
				<g>
					
						<line style="fill:none;stroke:#000000;stroke-width:2.8346;stroke-miterlimit:10;" x1="162.3" y1="160.7" x2="162.3" y2="71.4"/>
					<g>
						<path d="M166.6,71.4c0-2.4-1.9-4.3-4.3-4.3c-2.4,0-4.3,1.9-4.3,4.3c0,2.4,1.9,4.3,4.3,4.3C164.7,75.7,166.6,73.8,166.6,71.4z"
							/>
					</g>
				</g>
			</g>
			<g>
				<g>
					
						<line style="fill:none;stroke:#000000;stroke-width:2.8346;stroke-miterlimit:10;" x1="162.3" y1="258.5" x2="162.3" y2="169.2"/>
					<g>
						<path d="M166.6,258.5c0,2.4-1.9,4.3-4.3,4.3c-2.4,0-4.3-1.9-4.3-4.3c0-2.4,1.9-4.3,4.3-4.3
							C164.7,254.2,166.6,256.2,166.6,258.5z"/>
					</g>
				</g>
			</g>
			<rect x="145.3" y="167.8" style="fill-rule:evenodd;clip-rule:evenodd;" width="34" height="2.8"/>
			<rect x="145.3" y="159.3" style="fill-rule:evenodd;clip-rule:evenodd;" width="34" height="2.8"/>
		</g>
	</g>
</g>
</svg>
