<?xml version="1.0" encoding="utf-8"?>
<!-- Generator: Adobe Illustrator 27.0.0, SVG Export Plug-In . SVG Version: 6.00 Build 0)  -->
<svg version="1.1" id="Layer_1" xmlns="http://www.w3.org/2000/svg" xmlns:xlink="http://www.w3.org/1999/xlink" x="0px" y="0px"
	 width="540.4px" height="318.7px" viewBox="0 0 540.4 318.7" style="enable-background:new 0 0 540.4 318.7;" xml:space="preserve"
	>
<rect x="101.9" y="158.9" style="fill-rule:evenodd;clip-rule:evenodd;fill:#F2F2F2;stroke:#000000;stroke-width:2.835;stroke-linecap:round;stroke-linejoin:round;stroke-miterlimit:10;" width="377.3" height="130.9"/>
<polyline style="fill:#E6E6E6;stroke:#000000;stroke-width:2.835;stroke-linecap:round;stroke-linejoin:round;stroke-miterlimit:10;" points="
	101.9,158.9 101.9,289.8 44.9,268.8 44.9,137.9 101.9,158.9 "/>
<polyline style="stroke:#000000;stroke-width:2.835;stroke-linecap:round;stroke-linejoin:round;stroke-miterlimit:10;" points="
	80.6,200 66.3,194.7 61.8,194.7 61.8,227.6 76.1,232.9 80.6,232.9 80.6,200 "/>
<polygon style="fill:#F2F2F2;stroke:#000000;stroke-width:2.835;stroke-linecap:round;stroke-linejoin:round;stroke-miterlimit:10;" points="
	479.2,158.9 422.2,137.9 44.9,137.9 101.9,158.9 "/>
<g>
	<g>
		<polyline style="fill:none;stroke:#000000;stroke-width:2.835;stroke-linecap:round;stroke-linejoin:round;" points="290.6,164.9 
			290.6,158.9 284.9,156.8 		"/>
		
			<polyline style="fill:none;stroke:#000000;stroke-width:2.835;stroke-linecap:round;stroke-linejoin:round;stroke-dasharray:11.9854,11.9854;" points="
			273.7,152.7 233.3,137.9 186.4,137.9 		"/>
		<polyline style="fill:none;stroke:#000000;stroke-width:2.835;stroke-linecap:round;stroke-linejoin:round;" points="180.4,137.9 
			174.4,137.9 180.1,139.9 		"/>
		
			<line style="fill:none;stroke:#000000;stroke-width:2.835;stroke-linecap:round;stroke-linejoin:round;stroke-dasharray:9.749,9.749;" x1="189.2" y1="143.3" x2="221.2" y2="155.1"/>
		<polyline style="fill:none;stroke:#000000;stroke-width:2.835;stroke-linecap:round;stroke-linejoin:round;" points="225.8,156.8 
			231.4,158.9 231.4,164.9 		"/>
		
			<line style="fill:none;stroke:#000000;stroke-width:2.835;stroke-linecap:round;stroke-linejoin:round;stroke-dasharray:13.211,13.211;" x1="231.4" y1="178.1" x2="231.4" y2="277.2"/>
		<polyline style="fill:none;stroke:#000000;stroke-width:2.835;stroke-linecap:round;stroke-linejoin:round;" points="231.4,283.8 
			231.4,289.8 237.4,289.8 		"/>
		
			<line style="fill:none;stroke:#000000;stroke-width:2.835;stroke-linecap:round;stroke-linejoin:round;stroke-dasharray:9.4286,9.4286;" x1="246.9" y1="289.8" x2="279.9" y2="289.8"/>
		<polyline style="fill:none;stroke:#000000;stroke-width:2.835;stroke-linecap:round;stroke-linejoin:round;" points="284.6,289.8 
			290.6,289.8 290.6,283.8 		"/>
		
			<line style="fill:none;stroke:#000000;stroke-width:2.835;stroke-linecap:round;stroke-linejoin:round;stroke-dasharray:13.211,13.211;" x1="290.6" y1="270.6" x2="290.6" y2="171.5"/>
	</g>
</g>
<g>
	<g>
		<polyline style="fill:none;stroke:#000000;stroke-width:2.835;stroke-linecap:round;stroke-linejoin:round;" points="349.7,164.9 
			349.7,158.9 344.1,156.8 		"/>
		
			<polyline style="fill:none;stroke:#000000;stroke-width:2.835;stroke-linecap:round;stroke-linejoin:round;stroke-dasharray:11.9854,11.9854;" points="
			332.8,152.7 292.4,137.9 245.6,137.9 		"/>
		<polyline style="fill:none;stroke:#000000;stroke-width:2.835;stroke-linecap:round;stroke-linejoin:round;" points="239.6,137.9 
			233.6,137.9 239.2,139.9 		"/>
		
			<line style="fill:none;stroke:#000000;stroke-width:2.835;stroke-linecap:round;stroke-linejoin:round;stroke-dasharray:9.749,9.749;" x1="248.4" y1="143.3" x2="280.4" y2="155.1"/>
		<polyline style="fill:none;stroke:#000000;stroke-width:2.835;stroke-linecap:round;stroke-linejoin:round;" points="285,156.8 
			290.6,158.9 290.6,164.9 		"/>
		
			<line style="fill:none;stroke:#000000;stroke-width:2.835;stroke-linecap:round;stroke-linejoin:round;stroke-dasharray:13.211,13.211;" x1="290.6" y1="178.1" x2="290.6" y2="277.2"/>
		<polyline style="fill:none;stroke:#000000;stroke-width:2.835;stroke-linecap:round;stroke-linejoin:round;" points="290.6,283.8 
			290.6,289.8 296.6,289.8 		"/>
		
			<line style="fill:none;stroke:#000000;stroke-width:2.835;stroke-linecap:round;stroke-linejoin:round;stroke-dasharray:9.4286,9.4286;" x1="306" y1="289.8" x2="339" y2="289.8"/>
		<polyline style="fill:none;stroke:#000000;stroke-width:2.835;stroke-linecap:round;stroke-linejoin:round;" points="343.7,289.8 
			349.7,289.8 349.7,283.8 		"/>
		
			<line style="fill:none;stroke:#000000;stroke-width:2.835;stroke-linecap:round;stroke-linejoin:round;stroke-dasharray:13.211,13.211;" x1="349.7" y1="270.6" x2="349.7" y2="171.5"/>
	</g>
</g>
<g>
	<g>
		<g>
			<g>
				<g>
					<circle style="fill:#F15A24;" cx="218" cy="274.4" r="9"/>
					<g>
						<path style="fill:#FFFFFF;" d="M222,274.9h-3.5v3.5h-1v-3.5h-3.5v-1h3.5v-3.5h1v3.5h3.5V274.9z"/>
					</g>
				</g>
			</g>
		</g>
		<g>
			<g>
				<g>
					<circle style="fill:#F15A24;" cx="193" cy="274.4" r="9"/>
					<g>
						<path style="fill:#FFFFFF;" d="M197,274.9h-3.5v3.5h-1v-3.5h-3.5v-1h3.5v-3.5h1v3.5h3.5V274.9z"/>
					</g>
				</g>
			</g>
		</g>
		<g>
			<g>
				<g>
					<circle style="fill:#F15A24;" cx="168" cy="274.4" r="9"/>
					<g>
						<path style="fill:#FFFFFF;" d="M172,274.9h-3.5v3.5h-1v-3.5h-3.5v-1h3.5v-3.5h1v3.5h3.5V274.9z"/>
					</g>
				</g>
			</g>
		</g>
		<g>
			<g>
				<g>
					<circle style="fill:#F15A24;" cx="143" cy="274.4" r="9"/>
					<g>
						<path style="fill:#FFFFFF;" d="M147,274.9h-3.5v3.5h-1v-3.5h-3.5v-1h3.5v-3.5h1v3.5h3.5V274.9z"/>
					</g>
				</g>
			</g>
		</g>
		<g>
			<g>
				<g>
					<circle style="fill:#F15A24;" cx="118" cy="274.4" r="9"/>
					<g>
						<path style="fill:#FFFFFF;" d="M122,274.9h-3.5v3.5h-1v-3.5h-3.5v-1h3.5v-3.5h1v3.5h3.5V274.9z"/>
					</g>
				</g>
			</g>
		</g>
	</g>
	<g>
		<g>
			<g>
				<g>
					<circle style="fill:#F15A24;" cx="218" cy="249.4" r="9"/>
					<g>
						<path style="fill:#FFFFFF;" d="M222,249.9h-3.5v3.5h-1v-3.5h-3.5v-1h3.5v-3.5h1v3.5h3.5V249.9z"/>
					</g>
				</g>
			</g>
		</g>
		<g>
			<g>
				<g>
					<circle style="fill:#F15A24;" cx="193" cy="249.4" r="9"/>
					<g>
						<path style="fill:#FFFFFF;" d="M197,249.9h-3.5v3.5h-1v-3.5h-3.5v-1h3.5v-3.5h1v3.5h3.5V249.9z"/>
					</g>
				</g>
			</g>
		</g>
		<g>
			<g>
				<g>
					<circle style="fill:#F15A24;" cx="168" cy="249.4" r="9"/>
					<g>
						<path style="fill:#FFFFFF;" d="M172,249.9h-3.5v3.5h-1v-3.5h-3.5v-1h3.5v-3.5h1v3.5h3.5V249.9z"/>
					</g>
				</g>
			</g>
		</g>
		<g>
			<g>
				<g>
					<circle style="fill:#F15A24;" cx="143" cy="249.4" r="9"/>
					<g>
						<path style="fill:#FFFFFF;" d="M147,249.9h-3.5v3.5h-1v-3.5h-3.5v-1h3.5v-3.5h1v3.5h3.5V249.9z"/>
					</g>
				</g>
			</g>
		</g>
		<g>
			<g>
				<g>
					<circle style="fill:#F15A24;" cx="118" cy="249.4" r="9"/>
					<g>
						<path style="fill:#FFFFFF;" d="M122,249.9h-3.5v3.5h-1v-3.5h-3.5v-1h3.5v-3.5h1v3.5h3.5V249.9z"/>
					</g>
				</g>
			</g>
		</g>
	</g>
	<g>
		<g>
			<g>
				<g>
					<circle style="fill:#F15A24;" cx="218" cy="224.4" r="9"/>
					<g>
						<path style="fill:#FFFFFF;" d="M222,224.9h-3.5v3.5h-1v-3.5h-3.5v-1h3.5v-3.5h1v3.5h3.5V224.9z"/>
					</g>
				</g>
			</g>
		</g>
		<g>
			<g>
				<g>
					<circle style="fill:#F15A24;" cx="193" cy="224.4" r="9"/>
					<g>
						<path style="fill:#FFFFFF;" d="M197,224.9h-3.5v3.5h-1v-3.5h-3.5v-1h3.5v-3.5h1v3.5h3.5V224.9z"/>
					</g>
				</g>
			</g>
		</g>
		<g>
			<g>
				<g>
					<circle style="fill:#F15A24;" cx="168" cy="224.4" r="9"/>
					<g>
						<path style="fill:#FFFFFF;" d="M172,224.9h-3.5v3.5h-1v-3.5h-3.5v-1h3.5v-3.5h1v3.5h3.5V224.9z"/>
					</g>
				</g>
			</g>
		</g>
		<g>
			<g>
				<g>
					<circle style="fill:#F15A24;" cx="143" cy="224.4" r="9"/>
					<g>
						<path style="fill:#FFFFFF;" d="M147,224.9h-3.5v3.5h-1v-3.5h-3.5v-1h3.5v-3.5h1v3.5h3.5V224.9z"/>
					</g>
				</g>
			</g>
		</g>
		<g>
			<g>
				<g>
					<circle style="fill:#F15A24;" cx="118" cy="224.4" r="9"/>
					<g>
						<path style="fill:#FFFFFF;" d="M122,224.9h-3.5v3.5h-1v-3.5h-3.5v-1h3.5v-3.5h1v3.5h3.5V224.9z"/>
					</g>
				</g>
			</g>
		</g>
	</g>
	<g>
		<g>
			<g>
				<g>
					<circle style="fill:#F15A24;" cx="218" cy="199.4" r="9"/>
					<g>
						<path style="fill:#FFFFFF;" d="M222,199.9h-3.5v3.5h-1v-3.5h-3.5v-1h3.5v-3.5h1v3.5h3.5V199.9z"/>
					</g>
				</g>
			</g>
		</g>
		<g>
			<g>
				<g>
					<circle style="fill:#F15A24;" cx="193" cy="199.4" r="9"/>
					<g>
						<path style="fill:#FFFFFF;" d="M197,199.9h-3.5v3.5h-1v-3.5h-3.5v-1h3.5v-3.5h1v3.5h3.5V199.9z"/>
					</g>
				</g>
			</g>
		</g>
		<g>
			<g>
				<g>
					<circle style="fill:#F15A24;" cx="168" cy="199.4" r="9"/>
					<g>
						<path style="fill:#FFFFFF;" d="M172,199.9h-3.5v3.5h-1v-3.5h-3.5v-1h3.5v-3.5h1v3.5h3.5V199.9z"/>
					</g>
				</g>
			</g>
		</g>
		<g>
			<g>
				<g>
					<circle style="fill:#F15A24;" cx="143" cy="199.4" r="9"/>
					<g>
						<path style="fill:#FFFFFF;" d="M147,199.9h-3.5v3.5h-1v-3.5h-3.5v-1h3.5v-3.5h1v3.5h3.5V199.9z"/>
					</g>
				</g>
			</g>
		</g>
		<g>
			<g>
				<g>
					<circle style="fill:#F15A24;" cx="118" cy="199.4" r="9"/>
					<g>
						<path style="fill:#FFFFFF;" d="M122,199.9h-3.5v3.5h-1v-3.5h-3.5v-1h3.5v-3.5h1v3.5h3.5V199.9z"/>
					</g>
				</g>
			</g>
		</g>
	</g>
	<g>
		<g>
			<g>
				<g>
					<circle style="fill:#F15A24;" cx="218" cy="174.4" r="9"/>
					<g>
						<path style="fill:#FFFFFF;" d="M222,174.9h-3.5v3.5h-1v-3.5h-3.5v-1h3.5v-3.5h1v3.5h3.5V174.9z"/>
					</g>
				</g>
			</g>
		</g>
		<g>
			<g>
				<g>
					<circle style="fill:#F15A24;" cx="193" cy="174.4" r="9"/>
					<g>
						<path style="fill:#FFFFFF;" d="M197,174.9h-3.5v3.5h-1v-3.5h-3.5v-1h3.5v-3.5h1v3.5h3.5V174.9z"/>
					</g>
				</g>
			</g>
		</g>
		<g>
			<g>
				<g>
					<circle style="fill:#F15A24;" cx="168" cy="174.4" r="9"/>
					<g>
						<path style="fill:#FFFFFF;" d="M172,174.9h-3.5v3.5h-1v-3.5h-3.5v-1h3.5v-3.5h1v3.5h3.5V174.9z"/>
					</g>
				</g>
			</g>
		</g>
		<g>
			<g>
				<g>
					<circle style="fill:#F15A24;" cx="143" cy="174.4" r="9"/>
					<g>
						<path style="fill:#FFFFFF;" d="M147,174.9h-3.5v3.5h-1v-3.5h-3.5v-1h3.5v-3.5h1v3.5h3.5V174.9z"/>
					</g>
				</g>
			</g>
		</g>
		<g>
			<g>
				<g>
					<circle style="fill:#F15A24;" cx="118" cy="174.4" r="9"/>
					<g>
						<path style="fill:#FFFFFF;" d="M122,174.9h-3.5v3.5h-1v-3.5h-3.5v-1h3.5v-3.5h1v3.5h3.5V174.9z"/>
					</g>
				</g>
			</g>
		</g>
	</g>
</g>
<line style="fill:none;stroke:#000000;stroke-width:2.835;stroke-linecap:round;stroke-linejoin:round;stroke-miterlimit:10;" x1="290.6" y1="289.8" x2="290.6" y2="158.9"/>
<line style="fill:none;stroke:#000000;stroke-width:2.835;stroke-linecap:round;stroke-linejoin:round;stroke-miterlimit:10;" x1="290.6" y1="158.9" x2="233.6" y2="137.9"/>
<g>
	<g>
		<g>
			<g>
				<circle style="fill:#00D814;" cx="464.5" cy="273.6" r="9"/>
				<g>
					<path style="fill:#FFFFFF;" d="M460.8,274.5c0,0.3-0.1,0.5-0.1,0.7c0,0.5,0.2,1,0.6,1.3c0.4,0.4,0.8,0.6,1.4,0.6
						c0.4,0,0.8-0.1,1.2-0.3c0.4-0.2,1-0.6,1.7-1.2l0.2,0.3c-1.4,1.4-2.7,2.1-4,2.1c-0.9,0-1.5-0.3-1.9-0.8
						c-0.4-0.5-0.7-1.1-0.7-1.8c0-0.9,0.3-1.8,0.8-2.7c0.5-0.9,1.2-1.6,2-2.1c0.8-0.5,1.7-0.8,2.5-0.8c0.6,0,1.1,0.1,1.4,0.4
						c0.3,0.3,0.5,0.6,0.5,0.9c0,0.5-0.2,1-0.6,1.4c-0.5,0.6-1.3,1.1-2.3,1.4C462.9,274.2,462,274.4,460.8,274.5z M460.9,274.1
						c0.9-0.1,1.6-0.3,2.1-0.5c0.7-0.3,1.3-0.7,1.6-1.2c0.4-0.5,0.5-0.9,0.5-1.3c0-0.2-0.1-0.4-0.2-0.6c-0.2-0.2-0.4-0.2-0.7-0.2
						c-0.6,0-1.2,0.3-1.9,1C461.7,271.9,461.2,272.8,460.9,274.1z"/>
					<path style="fill:#FFFFFF;" d="M469.8,269.2l-0.2,0.7H467l0.2-0.7H469.8z"/>
				</g>
			</g>
		</g>
		<g>
			<g>
				<circle style="fill:#00D814;" cx="439.5" cy="273.6" r="9"/>
				<g>
					<path style="fill:#FFFFFF;" d="M435.8,274.5c0,0.3-0.1,0.5-0.1,0.7c0,0.5,0.2,1,0.6,1.3c0.4,0.4,0.8,0.6,1.4,0.6
						c0.4,0,0.8-0.1,1.2-0.3c0.4-0.2,1-0.6,1.7-1.2l0.2,0.3c-1.4,1.4-2.7,2.1-4,2.1c-0.9,0-1.5-0.3-1.9-0.8
						c-0.4-0.5-0.7-1.1-0.7-1.8c0-0.9,0.3-1.8,0.8-2.7c0.5-0.9,1.2-1.6,2-2.1c0.8-0.5,1.7-0.8,2.5-0.8c0.6,0,1.1,0.1,1.4,0.4
						c0.3,0.3,0.5,0.6,0.5,0.9c0,0.5-0.2,1-0.6,1.4c-0.5,0.6-1.3,1.1-2.3,1.4C437.9,274.2,437,274.4,435.8,274.5z M435.9,274.1
						c0.9-0.1,1.6-0.3,2.1-0.5c0.7-0.3,1.3-0.7,1.6-1.2c0.4-0.5,0.5-0.9,0.5-1.3c0-0.2-0.1-0.4-0.2-0.6c-0.2-0.2-0.4-0.2-0.7-0.2
						c-0.6,0-1.2,0.3-1.9,1C436.7,271.9,436.2,272.8,435.9,274.1z"/>
					<path style="fill:#FFFFFF;" d="M444.8,269.2l-0.2,0.7H442l0.2-0.7H444.8z"/>
				</g>
			</g>
		</g>
		<g>
			<g>
				<circle style="fill:#00D814;" cx="414.5" cy="273.6" r="9"/>
				<g>
					<path style="fill:#FFFFFF;" d="M410.8,274.5c0,0.3-0.1,0.5-0.1,0.7c0,0.5,0.2,1,0.6,1.3c0.4,0.4,0.8,0.6,1.4,0.6
						c0.4,0,0.8-0.1,1.2-0.3c0.4-0.2,1-0.6,1.7-1.2l0.2,0.3c-1.4,1.4-2.7,2.1-4,2.1c-0.9,0-1.5-0.3-1.9-0.8
						c-0.4-0.5-0.7-1.1-0.7-1.8c0-0.9,0.3-1.8,0.8-2.7c0.5-0.9,1.2-1.6,2-2.1c0.8-0.5,1.7-0.8,2.5-0.8c0.6,0,1.1,0.1,1.4,0.4
						c0.3,0.3,0.5,0.6,0.5,0.9c0,0.5-0.2,1-0.6,1.4c-0.5,0.6-1.3,1.1-2.3,1.4C412.9,274.2,412,274.4,410.8,274.5z M410.9,274.1
						c0.9-0.1,1.6-0.3,2.1-0.5c0.7-0.3,1.3-0.7,1.6-1.2c0.4-0.5,0.5-0.9,0.5-1.3c0-0.2-0.1-0.4-0.2-0.6c-0.2-0.2-0.4-0.2-0.7-0.2
						c-0.6,0-1.2,0.3-1.9,1C411.7,271.9,411.2,272.8,410.9,274.1z"/>
					<path style="fill:#FFFFFF;" d="M419.8,269.2l-0.2,0.7H417l0.2-0.7H419.8z"/>
				</g>
			</g>
		</g>
		<g>
			<g>
				<circle style="fill:#00D814;" cx="389.5" cy="273.6" r="9"/>
				<g>
					<path style="fill:#FFFFFF;" d="M385.8,274.5c0,0.3-0.1,0.5-0.1,0.7c0,0.5,0.2,1,0.6,1.3c0.4,0.4,0.8,0.6,1.4,0.6
						c0.4,0,0.8-0.1,1.2-0.3c0.4-0.2,1-0.6,1.7-1.2l0.2,0.3c-1.4,1.4-2.7,2.1-4,2.1c-0.9,0-1.5-0.3-1.9-0.8
						c-0.4-0.5-0.7-1.1-0.7-1.8c0-0.9,0.3-1.8,0.8-2.7c0.5-0.9,1.2-1.6,2-2.1c0.8-0.5,1.7-0.8,2.5-0.8c0.6,0,1.1,0.1,1.4,0.4
						c0.3,0.3,0.5,0.6,0.5,0.9c0,0.5-0.2,1-0.6,1.4c-0.5,0.6-1.3,1.1-2.3,1.4C387.9,274.2,387,274.4,385.8,274.5z M385.9,274.1
						c0.9-0.1,1.6-0.3,2.1-0.5c0.7-0.3,1.3-0.7,1.6-1.2c0.4-0.5,0.5-0.9,0.5-1.3c0-0.2-0.1-0.4-0.2-0.6c-0.2-0.2-0.4-0.2-0.7-0.2
						c-0.6,0-1.2,0.3-1.9,1C386.7,271.9,386.2,272.8,385.9,274.1z"/>
					<path style="fill:#FFFFFF;" d="M394.8,269.2l-0.2,0.7H392l0.2-0.7H394.8z"/>
				</g>
			</g>
		</g>
		<g>
			<g>
				<circle style="fill:#00D814;" cx="364.5" cy="273.6" r="9"/>
				<g>
					<path style="fill:#FFFFFF;" d="M360.8,274.5c0,0.3-0.1,0.5-0.1,0.7c0,0.5,0.2,1,0.6,1.3c0.4,0.4,0.8,0.6,1.4,0.6
						c0.4,0,0.8-0.1,1.2-0.3c0.4-0.2,1-0.6,1.7-1.2l0.2,0.3c-1.4,1.4-2.7,2.1-4,2.1c-0.9,0-1.5-0.3-1.9-0.8
						c-0.4-0.5-0.7-1.1-0.7-1.8c0-0.9,0.3-1.8,0.8-2.7c0.5-0.9,1.2-1.6,2-2.1c0.8-0.5,1.7-0.8,2.5-0.8c0.6,0,1.1,0.1,1.4,0.4
						c0.3,0.3,0.5,0.6,0.5,0.9c0,0.5-0.2,1-0.6,1.4c-0.5,0.6-1.3,1.1-2.3,1.4C362.9,274.2,362,274.4,360.8,274.5z M360.9,274.1
						c0.9-0.1,1.6-0.3,2.1-0.5c0.7-0.3,1.3-0.7,1.6-1.2c0.4-0.5,0.5-0.9,0.5-1.3c0-0.2-0.1-0.4-0.2-0.6c-0.2-0.2-0.4-0.2-0.7-0.2
						c-0.6,0-1.2,0.3-1.9,1C361.7,271.9,361.2,272.8,360.9,274.1z"/>
					<path style="fill:#FFFFFF;" d="M369.8,269.2l-0.2,0.7H367l0.2-0.7H369.8z"/>
				</g>
			</g>
		</g>
	</g>
	<g>
		<g>
			<g>
				<circle style="fill:#00D814;" cx="464.5" cy="248.6" r="9"/>
				<g>
					<path style="fill:#FFFFFF;" d="M460.8,249.5c0,0.3-0.1,0.5-0.1,0.7c0,0.5,0.2,1,0.6,1.3c0.4,0.4,0.8,0.6,1.4,0.6
						c0.4,0,0.8-0.1,1.2-0.3c0.4-0.2,1-0.6,1.7-1.2l0.2,0.3c-1.4,1.4-2.7,2.1-4,2.1c-0.9,0-1.5-0.3-1.9-0.8
						c-0.4-0.5-0.7-1.1-0.7-1.8c0-0.9,0.3-1.8,0.8-2.7c0.5-0.9,1.2-1.6,2-2.1c0.8-0.5,1.7-0.8,2.5-0.8c0.6,0,1.1,0.1,1.4,0.4
						c0.3,0.3,0.5,0.6,0.5,0.9c0,0.5-0.2,1-0.6,1.4c-0.5,0.6-1.3,1.1-2.3,1.4C462.9,249.2,462,249.4,460.8,249.5z M460.9,249.1
						c0.9-0.1,1.6-0.3,2.1-0.5c0.7-0.3,1.3-0.7,1.6-1.2c0.4-0.5,0.5-0.9,0.5-1.3c0-0.2-0.1-0.4-0.2-0.6c-0.2-0.2-0.4-0.2-0.7-0.2
						c-0.6,0-1.2,0.3-1.9,1C461.7,246.9,461.2,247.8,460.9,249.1z"/>
					<path style="fill:#FFFFFF;" d="M469.8,244.2l-0.2,0.7H467l0.2-0.7H469.8z"/>
				</g>
			</g>
		</g>
		<g>
			<g>
				<circle style="fill:#00D814;" cx="439.5" cy="248.6" r="9"/>
				<g>
					<path style="fill:#FFFFFF;" d="M435.8,249.5c0,0.3-0.1,0.5-0.1,0.7c0,0.5,0.2,1,0.6,1.3c0.4,0.4,0.8,0.6,1.4,0.6
						c0.4,0,0.8-0.1,1.2-0.3c0.4-0.2,1-0.6,1.7-1.2l0.2,0.3c-1.4,1.4-2.7,2.1-4,2.1c-0.9,0-1.5-0.3-1.9-0.8
						c-0.4-0.5-0.7-1.1-0.7-1.8c0-0.9,0.3-1.8,0.8-2.7c0.5-0.9,1.2-1.6,2-2.1c0.8-0.5,1.7-0.8,2.5-0.8c0.6,0,1.1,0.1,1.4,0.4
						c0.3,0.3,0.5,0.6,0.5,0.9c0,0.5-0.2,1-0.6,1.4c-0.5,0.6-1.3,1.1-2.3,1.4C437.9,249.2,437,249.4,435.8,249.5z M435.9,249.1
						c0.9-0.1,1.6-0.3,2.1-0.5c0.7-0.3,1.3-0.7,1.6-1.2c0.4-0.5,0.5-0.9,0.5-1.3c0-0.2-0.1-0.4-0.2-0.6c-0.2-0.2-0.4-0.2-0.7-0.2
						c-0.6,0-1.2,0.3-1.9,1C436.7,246.9,436.2,247.8,435.9,249.1z"/>
					<path style="fill:#FFFFFF;" d="M444.8,244.2l-0.2,0.7H442l0.2-0.7H444.8z"/>
				</g>
			</g>
		</g>
		<g>
			<g>
				<circle style="fill:#00D814;" cx="414.5" cy="248.6" r="9"/>
				<g>
					<path style="fill:#FFFFFF;" d="M410.8,249.5c0,0.3-0.1,0.5-0.1,0.7c0,0.5,0.2,1,0.6,1.3c0.4,0.4,0.8,0.6,1.4,0.6
						c0.4,0,0.8-0.1,1.2-0.3c0.4-0.2,1-0.6,1.7-1.2l0.2,0.3c-1.4,1.4-2.7,2.1-4,2.1c-0.9,0-1.5-0.3-1.9-0.8
						c-0.4-0.5-0.7-1.1-0.7-1.8c0-0.9,0.3-1.8,0.8-2.7c0.5-0.9,1.2-1.6,2-2.1c0.8-0.5,1.7-0.8,2.5-0.8c0.6,0,1.1,0.1,1.4,0.4
						c0.3,0.3,0.5,0.6,0.5,0.9c0,0.5-0.2,1-0.6,1.4c-0.5,0.6-1.3,1.1-2.3,1.4C412.9,249.2,412,249.4,410.8,249.5z M410.9,249.1
						c0.9-0.1,1.6-0.3,2.1-0.5c0.7-0.3,1.3-0.7,1.6-1.2c0.4-0.5,0.5-0.9,0.5-1.3c0-0.2-0.1-0.4-0.2-0.6c-0.2-0.2-0.4-0.2-0.7-0.2
						c-0.6,0-1.2,0.3-1.9,1C411.7,246.9,411.2,247.8,410.9,249.1z"/>
					<path style="fill:#FFFFFF;" d="M419.8,244.2l-0.2,0.7H417l0.2-0.7H419.8z"/>
				</g>
			</g>
		</g>
		<g>
			<g>
				<circle style="fill:#00D814;" cx="389.5" cy="248.6" r="9"/>
				<g>
					<path style="fill:#FFFFFF;" d="M385.8,249.5c0,0.3-0.1,0.5-0.1,0.7c0,0.5,0.2,1,0.6,1.3c0.4,0.4,0.8,0.6,1.4,0.6
						c0.4,0,0.8-0.1,1.2-0.3c0.4-0.2,1-0.6,1.7-1.2l0.2,0.3c-1.4,1.4-2.7,2.1-4,2.1c-0.9,0-1.5-0.3-1.9-0.8
						c-0.4-0.5-0.7-1.1-0.7-1.8c0-0.9,0.3-1.8,0.8-2.7c0.5-0.9,1.2-1.6,2-2.1c0.8-0.5,1.7-0.8,2.5-0.8c0.6,0,1.1,0.1,1.4,0.4
						c0.3,0.3,0.5,0.6,0.5,0.9c0,0.5-0.2,1-0.6,1.4c-0.5,0.6-1.3,1.1-2.3,1.4C387.9,249.2,387,249.4,385.8,249.5z M385.9,249.1
						c0.9-0.1,1.6-0.3,2.1-0.5c0.7-0.3,1.3-0.7,1.6-1.2c0.4-0.5,0.5-0.9,0.5-1.3c0-0.2-0.1-0.4-0.2-0.6c-0.2-0.2-0.4-0.2-0.7-0.2
						c-0.6,0-1.2,0.3-1.9,1C386.7,246.9,386.2,247.8,385.9,249.1z"/>
					<path style="fill:#FFFFFF;" d="M394.8,244.2l-0.2,0.7H392l0.2-0.7H394.8z"/>
				</g>
			</g>
		</g>
		<g>
			<g>
				<circle style="fill:#00D814;" cx="364.5" cy="248.6" r="9"/>
				<g>
					<path style="fill:#FFFFFF;" d="M360.8,249.5c0,0.3-0.1,0.5-0.1,0.7c0,0.5,0.2,1,0.6,1.3c0.4,0.4,0.8,0.6,1.4,0.6
						c0.4,0,0.8-0.1,1.2-0.3c0.4-0.2,1-0.6,1.7-1.2l0.2,0.3c-1.4,1.4-2.7,2.1-4,2.1c-0.9,0-1.5-0.3-1.9-0.8
						c-0.4-0.5-0.7-1.1-0.7-1.8c0-0.9,0.3-1.8,0.8-2.7c0.5-0.9,1.2-1.6,2-2.1c0.8-0.5,1.7-0.8,2.5-0.8c0.6,0,1.1,0.1,1.4,0.4
						c0.3,0.3,0.5,0.6,0.5,0.9c0,0.5-0.2,1-0.6,1.4c-0.5,0.6-1.3,1.1-2.3,1.4C362.9,249.2,362,249.4,360.8,249.5z M360.9,249.1
						c0.9-0.1,1.6-0.3,2.1-0.5c0.7-0.3,1.3-0.7,1.6-1.2c0.4-0.5,0.5-0.9,0.5-1.3c0-0.2-0.1-0.4-0.2-0.6c-0.2-0.2-0.4-0.2-0.7-0.2
						c-0.6,0-1.2,0.3-1.9,1C361.7,246.9,361.2,247.8,360.9,249.1z"/>
					<path style="fill:#FFFFFF;" d="M369.8,244.2l-0.2,0.7H367l0.2-0.7H369.8z"/>
				</g>
			</g>
		</g>
	</g>
	<g>
		<g>
			<g>
				<circle style="fill:#00D814;" cx="464.5" cy="223.6" r="9"/>
				<g>
					<path style="fill:#FFFFFF;" d="M460.8,224.5c0,0.3-0.1,0.5-0.1,0.7c0,0.5,0.2,1,0.6,1.3c0.4,0.4,0.8,0.6,1.4,0.6
						c0.4,0,0.8-0.1,1.2-0.3c0.4-0.2,1-0.6,1.7-1.2l0.2,0.3c-1.4,1.4-2.7,2.1-4,2.1c-0.9,0-1.5-0.3-1.9-0.8
						c-0.4-0.5-0.7-1.1-0.7-1.8c0-0.9,0.3-1.8,0.8-2.7c0.5-0.9,1.2-1.6,2-2.1c0.8-0.5,1.7-0.8,2.5-0.8c0.6,0,1.1,0.1,1.4,0.4
						c0.3,0.3,0.5,0.6,0.5,0.9c0,0.5-0.2,1-0.6,1.4c-0.5,0.6-1.3,1.1-2.3,1.4C462.9,224.2,462,224.4,460.8,224.5z M460.9,224.1
						c0.9-0.1,1.6-0.3,2.1-0.5c0.7-0.3,1.3-0.7,1.6-1.2c0.4-0.5,0.5-0.9,0.5-1.3c0-0.2-0.1-0.4-0.2-0.6c-0.2-0.2-0.4-0.2-0.7-0.2
						c-0.6,0-1.2,0.3-1.9,1C461.7,221.9,461.2,222.8,460.9,224.1z"/>
					<path style="fill:#FFFFFF;" d="M469.8,219.2l-0.2,0.7H467l0.2-0.7H469.8z"/>
				</g>
			</g>
		</g>
		<g>
			<g>
				<circle style="fill:#00D814;" cx="439.5" cy="223.6" r="9"/>
				<g>
					<path style="fill:#FFFFFF;" d="M435.8,224.5c0,0.3-0.1,0.5-0.1,0.7c0,0.5,0.2,1,0.6,1.3c0.4,0.4,0.8,0.6,1.4,0.6
						c0.4,0,0.8-0.1,1.2-0.3c0.4-0.2,1-0.6,1.7-1.2l0.2,0.3c-1.4,1.4-2.7,2.1-4,2.1c-0.9,0-1.5-0.3-1.9-0.8
						c-0.4-0.5-0.7-1.1-0.7-1.8c0-0.9,0.3-1.8,0.8-2.7c0.5-0.9,1.2-1.6,2-2.1c0.8-0.5,1.7-0.8,2.5-0.8c0.6,0,1.1,0.1,1.4,0.4
						c0.3,0.3,0.5,0.6,0.5,0.9c0,0.5-0.2,1-0.6,1.4c-0.5,0.6-1.3,1.1-2.3,1.4C437.9,224.2,437,224.4,435.8,224.5z M435.9,224.1
						c0.9-0.1,1.6-0.3,2.1-0.5c0.7-0.3,1.3-0.7,1.6-1.2c0.4-0.5,0.5-0.9,0.5-1.3c0-0.2-0.1-0.4-0.2-0.6c-0.2-0.2-0.4-0.2-0.7-0.2
						c-0.6,0-1.2,0.3-1.9,1C436.7,221.9,436.2,222.8,435.9,224.1z"/>
					<path style="fill:#FFFFFF;" d="M444.8,219.2l-0.2,0.7H442l0.2-0.7H444.8z"/>
				</g>
			</g>
		</g>
		<g>
			<g>
				<circle style="fill:#00D814;" cx="414.5" cy="223.6" r="9"/>
				<g>
					<path style="fill:#FFFFFF;" d="M410.8,224.5c0,0.3-0.1,0.5-0.1,0.7c0,0.5,0.2,1,0.6,1.3c0.4,0.4,0.8,0.6,1.4,0.6
						c0.4,0,0.8-0.1,1.2-0.3c0.4-0.2,1-0.6,1.7-1.2l0.2,0.3c-1.4,1.4-2.7,2.1-4,2.1c-0.9,0-1.5-0.3-1.9-0.8
						c-0.4-0.5-0.7-1.1-0.7-1.8c0-0.9,0.3-1.8,0.8-2.7c0.5-0.9,1.2-1.6,2-2.1c0.8-0.5,1.7-0.8,2.5-0.8c0.6,0,1.1,0.1,1.4,0.4
						c0.3,0.3,0.5,0.6,0.5,0.9c0,0.5-0.2,1-0.6,1.4c-0.5,0.6-1.3,1.1-2.3,1.4C412.9,224.2,412,224.4,410.8,224.5z M410.9,224.1
						c0.9-0.1,1.6-0.3,2.1-0.5c0.7-0.3,1.3-0.7,1.6-1.2c0.4-0.5,0.5-0.9,0.5-1.3c0-0.2-0.1-0.4-0.2-0.6c-0.2-0.2-0.4-0.2-0.7-0.2
						c-0.6,0-1.2,0.3-1.9,1C411.7,221.9,411.2,222.8,410.9,224.1z"/>
					<path style="fill:#FFFFFF;" d="M419.8,219.2l-0.2,0.7H417l0.2-0.7H419.8z"/>
				</g>
			</g>
		</g>
		<g>
			<g>
				<circle style="fill:#00D814;" cx="389.5" cy="223.6" r="9"/>
				<g>
					<path style="fill:#FFFFFF;" d="M385.8,224.5c0,0.3-0.1,0.5-0.1,0.7c0,0.5,0.2,1,0.6,1.3c0.4,0.4,0.8,0.6,1.4,0.6
						c0.4,0,0.8-0.1,1.2-0.3c0.4-0.2,1-0.6,1.7-1.2l0.2,0.3c-1.4,1.4-2.7,2.1-4,2.1c-0.9,0-1.5-0.3-1.9-0.8
						c-0.4-0.5-0.7-1.1-0.7-1.8c0-0.9,0.3-1.8,0.8-2.7c0.5-0.9,1.2-1.6,2-2.1c0.8-0.5,1.7-0.8,2.5-0.8c0.6,0,1.1,0.1,1.4,0.4
						c0.3,0.3,0.5,0.6,0.5,0.9c0,0.5-0.2,1-0.6,1.4c-0.5,0.6-1.3,1.1-2.3,1.4C387.9,224.2,387,224.4,385.8,224.5z M385.9,224.1
						c0.9-0.1,1.6-0.3,2.1-0.5c0.7-0.3,1.3-0.7,1.6-1.2c0.4-0.5,0.5-0.9,0.5-1.3c0-0.2-0.1-0.4-0.2-0.6c-0.2-0.2-0.4-0.2-0.7-0.2
						c-0.6,0-1.2,0.3-1.9,1C386.7,221.9,386.2,222.8,385.9,224.1z"/>
					<path style="fill:#FFFFFF;" d="M394.8,219.2l-0.2,0.7H392l0.2-0.7H394.8z"/>
				</g>
			</g>
		</g>
		<g>
			<g>
				<circle style="fill:#00D814;" cx="364.5" cy="223.6" r="9"/>
				<g>
					<path style="fill:#FFFFFF;" d="M360.8,224.5c0,0.3-0.1,0.5-0.1,0.7c0,0.5,0.2,1,0.6,1.3c0.4,0.4,0.8,0.6,1.4,0.6
						c0.4,0,0.8-0.1,1.2-0.3c0.4-0.2,1-0.6,1.7-1.2l0.2,0.3c-1.4,1.4-2.7,2.1-4,2.1c-0.9,0-1.5-0.3-1.9-0.8
						c-0.4-0.5-0.7-1.1-0.7-1.8c0-0.9,0.3-1.8,0.8-2.7c0.5-0.9,1.2-1.6,2-2.1c0.8-0.5,1.7-0.8,2.5-0.8c0.6,0,1.1,0.1,1.4,0.4
						c0.3,0.3,0.5,0.6,0.5,0.9c0,0.5-0.2,1-0.6,1.4c-0.5,0.6-1.3,1.1-2.3,1.4C362.9,224.2,362,224.4,360.8,224.5z M360.9,224.1
						c0.9-0.1,1.6-0.3,2.1-0.5c0.7-0.3,1.3-0.7,1.6-1.2c0.4-0.5,0.5-0.9,0.5-1.3c0-0.2-0.1-0.4-0.2-0.6c-0.2-0.2-0.4-0.2-0.7-0.2
						c-0.6,0-1.2,0.3-1.9,1C361.7,221.9,361.2,222.8,360.9,224.1z"/>
					<path style="fill:#FFFFFF;" d="M369.8,219.2l-0.2,0.7H367l0.2-0.7H369.8z"/>
				</g>
			</g>
		</g>
	</g>
	<g>
		<g>
			<g>
				<circle style="fill:#00D814;" cx="464.5" cy="198.6" r="9"/>
				<g>
					<path style="fill:#FFFFFF;" d="M460.8,199.5c0,0.3-0.1,0.5-0.1,0.7c0,0.5,0.2,1,0.6,1.3c0.4,0.4,0.8,0.6,1.4,0.6
						c0.4,0,0.8-0.1,1.2-0.3c0.4-0.2,1-0.6,1.7-1.2l0.2,0.3c-1.4,1.4-2.7,2.1-4,2.1c-0.9,0-1.5-0.3-1.9-0.8
						c-0.4-0.5-0.7-1.1-0.7-1.8c0-0.9,0.3-1.8,0.8-2.7c0.5-0.9,1.2-1.6,2-2.1c0.8-0.5,1.7-0.8,2.5-0.8c0.6,0,1.1,0.1,1.4,0.4
						c0.3,0.3,0.5,0.6,0.5,0.9c0,0.5-0.2,1-0.6,1.4c-0.5,0.6-1.3,1.1-2.3,1.4C462.9,199.2,462,199.4,460.8,199.5z M460.9,199.1
						c0.9-0.1,1.6-0.3,2.1-0.5c0.7-0.3,1.3-0.7,1.6-1.2c0.4-0.5,0.5-0.9,0.5-1.3c0-0.2-0.1-0.4-0.2-0.6c-0.2-0.2-0.4-0.2-0.7-0.2
						c-0.6,0-1.2,0.3-1.9,1C461.7,196.9,461.2,197.8,460.9,199.1z"/>
					<path style="fill:#FFFFFF;" d="M469.8,194.2l-0.2,0.7H467l0.2-0.7H469.8z"/>
				</g>
			</g>
		</g>
		<g>
			<g>
				<circle style="fill:#00D814;" cx="439.5" cy="198.6" r="9"/>
				<g>
					<path style="fill:#FFFFFF;" d="M435.8,199.5c0,0.3-0.1,0.5-0.1,0.7c0,0.5,0.2,1,0.6,1.3c0.4,0.4,0.8,0.6,1.4,0.6
						c0.4,0,0.8-0.1,1.2-0.3c0.4-0.2,1-0.6,1.7-1.2l0.2,0.3c-1.4,1.4-2.7,2.1-4,2.1c-0.9,0-1.5-0.3-1.9-0.8
						c-0.4-0.5-0.7-1.1-0.7-1.8c0-0.9,0.3-1.8,0.8-2.7c0.5-0.9,1.2-1.6,2-2.1c0.8-0.5,1.7-0.8,2.5-0.8c0.6,0,1.1,0.1,1.4,0.4
						c0.3,0.3,0.5,0.6,0.5,0.9c0,0.5-0.2,1-0.6,1.4c-0.5,0.6-1.3,1.1-2.3,1.4C437.9,199.2,437,199.4,435.8,199.5z M435.9,199.1
						c0.9-0.1,1.6-0.3,2.1-0.5c0.7-0.3,1.3-0.7,1.6-1.2c0.4-0.5,0.5-0.9,0.5-1.3c0-0.2-0.1-0.4-0.2-0.6c-0.2-0.2-0.4-0.2-0.7-0.2
						c-0.6,0-1.2,0.3-1.9,1C436.7,196.9,436.2,197.8,435.9,199.1z"/>
					<path style="fill:#FFFFFF;" d="M444.8,194.2l-0.2,0.7H442l0.2-0.7H444.8z"/>
				</g>
			</g>
		</g>
		<g>
			<g>
				<circle style="fill:#00D814;" cx="414.5" cy="198.6" r="9"/>
				<g>
					<path style="fill:#FFFFFF;" d="M410.8,199.5c0,0.3-0.1,0.5-0.1,0.7c0,0.5,0.2,1,0.6,1.3c0.4,0.4,0.8,0.6,1.4,0.6
						c0.4,0,0.8-0.1,1.2-0.3c0.4-0.2,1-0.6,1.7-1.2l0.2,0.3c-1.4,1.4-2.7,2.1-4,2.1c-0.9,0-1.5-0.3-1.9-0.8
						c-0.4-0.5-0.7-1.1-0.7-1.8c0-0.9,0.3-1.8,0.8-2.7c0.5-0.9,1.2-1.6,2-2.1c0.8-0.5,1.7-0.8,2.5-0.8c0.6,0,1.1,0.1,1.4,0.4
						c0.3,0.3,0.5,0.6,0.5,0.9c0,0.5-0.2,1-0.6,1.4c-0.5,0.6-1.3,1.1-2.3,1.4C412.9,199.2,412,199.4,410.8,199.5z M410.9,199.1
						c0.9-0.1,1.6-0.3,2.1-0.5c0.7-0.3,1.3-0.7,1.6-1.2c0.4-0.5,0.5-0.9,0.5-1.3c0-0.2-0.1-0.4-0.2-0.6c-0.2-0.2-0.4-0.2-0.7-0.2
						c-0.6,0-1.2,0.3-1.9,1C411.7,196.9,411.2,197.8,410.9,199.1z"/>
					<path style="fill:#FFFFFF;" d="M419.8,194.2l-0.2,0.7H417l0.2-0.7H419.8z"/>
				</g>
			</g>
		</g>
		<g>
			<g>
				<circle style="fill:#00D814;" cx="389.5" cy="198.6" r="9"/>
				<g>
					<path style="fill:#FFFFFF;" d="M385.8,199.5c0,0.3-0.1,0.5-0.1,0.7c0,0.5,0.2,1,0.6,1.3c0.4,0.4,0.8,0.6,1.4,0.6
						c0.4,0,0.8-0.1,1.2-0.3c0.4-0.2,1-0.6,1.7-1.2l0.2,0.3c-1.4,1.4-2.7,2.1-4,2.1c-0.9,0-1.5-0.3-1.9-0.8
						c-0.4-0.5-0.7-1.1-0.7-1.8c0-0.9,0.3-1.8,0.8-2.7c0.5-0.9,1.2-1.6,2-2.1c0.8-0.5,1.7-0.8,2.5-0.8c0.6,0,1.1,0.1,1.4,0.4
						c0.3,0.3,0.5,0.6,0.5,0.9c0,0.5-0.2,1-0.6,1.4c-0.5,0.6-1.3,1.1-2.3,1.4C387.9,199.2,387,199.4,385.8,199.5z M385.9,199.1
						c0.9-0.1,1.6-0.3,2.1-0.5c0.7-0.3,1.3-0.7,1.6-1.2c0.4-0.5,0.5-0.9,0.5-1.3c0-0.2-0.1-0.4-0.2-0.6c-0.2-0.2-0.4-0.2-0.7-0.2
						c-0.6,0-1.2,0.3-1.9,1C386.7,196.9,386.2,197.8,385.9,199.1z"/>
					<path style="fill:#FFFFFF;" d="M394.8,194.2l-0.2,0.7H392l0.2-0.7H394.8z"/>
				</g>
			</g>
		</g>
		<g>
			<g>
				<circle style="fill:#00D814;" cx="364.5" cy="198.6" r="9"/>
				<g>
					<path style="fill:#FFFFFF;" d="M360.8,199.5c0,0.3-0.1,0.5-0.1,0.7c0,0.5,0.2,1,0.6,1.3c0.4,0.4,0.8,0.6,1.4,0.6
						c0.4,0,0.8-0.1,1.2-0.3c0.4-0.2,1-0.6,1.7-1.2l0.2,0.3c-1.4,1.4-2.7,2.1-4,2.1c-0.9,0-1.5-0.3-1.9-0.8
						c-0.4-0.5-0.7-1.1-0.7-1.8c0-0.9,0.3-1.8,0.8-2.7c0.5-0.9,1.2-1.6,2-2.1c0.8-0.5,1.7-0.8,2.5-0.8c0.6,0,1.1,0.1,1.4,0.4
						c0.3,0.3,0.5,0.6,0.5,0.9c0,0.5-0.2,1-0.6,1.4c-0.5,0.6-1.3,1.1-2.3,1.4C362.9,199.2,362,199.4,360.8,199.5z M360.9,199.1
						c0.9-0.1,1.6-0.3,2.1-0.5c0.7-0.3,1.3-0.7,1.6-1.2c0.4-0.5,0.5-0.9,0.5-1.3c0-0.2-0.1-0.4-0.2-0.6c-0.2-0.2-0.4-0.2-0.7-0.2
						c-0.6,0-1.2,0.3-1.9,1C361.7,196.9,361.2,197.8,360.9,199.1z"/>
					<path style="fill:#FFFFFF;" d="M369.8,194.2l-0.2,0.7H367l0.2-0.7H369.8z"/>
				</g>
			</g>
		</g>
	</g>
	<g>
		<g>
			<g>
				<circle style="fill:#00D814;" cx="464.5" cy="173.6" r="9"/>
				<g>
					<path style="fill:#FFFFFF;" d="M460.8,174.5c0,0.3-0.1,0.5-0.1,0.7c0,0.5,0.2,1,0.6,1.3c0.4,0.4,0.8,0.6,1.4,0.6
						c0.4,0,0.8-0.1,1.2-0.3c0.4-0.2,1-0.6,1.7-1.2l0.2,0.3c-1.4,1.4-2.7,2.1-4,2.1c-0.9,0-1.5-0.3-1.9-0.8
						c-0.4-0.5-0.7-1.1-0.7-1.8c0-0.9,0.3-1.8,0.8-2.7c0.5-0.9,1.2-1.6,2-2.1c0.8-0.5,1.7-0.8,2.5-0.8c0.6,0,1.1,0.1,1.4,0.4
						c0.3,0.3,0.5,0.6,0.5,0.9c0,0.5-0.2,1-0.6,1.4c-0.5,0.6-1.3,1.1-2.3,1.4C462.9,174.2,462,174.4,460.8,174.5z M460.9,174.1
						c0.9-0.1,1.6-0.3,2.1-0.5c0.7-0.3,1.3-0.7,1.6-1.2c0.4-0.5,0.5-0.9,0.5-1.3c0-0.2-0.1-0.4-0.2-0.6c-0.2-0.2-0.4-0.2-0.7-0.2
						c-0.6,0-1.2,0.3-1.9,1C461.7,171.9,461.2,172.8,460.9,174.1z"/>
					<path style="fill:#FFFFFF;" d="M469.8,169.2l-0.2,0.7H467l0.2-0.7H469.8z"/>
				</g>
			</g>
		</g>
		<g>
			<g>
				<circle style="fill:#00D814;" cx="439.5" cy="173.6" r="9"/>
				<g>
					<path style="fill:#FFFFFF;" d="M435.8,174.5c0,0.3-0.1,0.5-0.1,0.7c0,0.5,0.2,1,0.6,1.3c0.4,0.4,0.8,0.6,1.4,0.6
						c0.4,0,0.8-0.1,1.2-0.3c0.4-0.2,1-0.6,1.7-1.2l0.2,0.3c-1.4,1.4-2.7,2.1-4,2.1c-0.9,0-1.5-0.3-1.9-0.8
						c-0.4-0.5-0.7-1.1-0.7-1.8c0-0.9,0.3-1.8,0.8-2.7c0.5-0.9,1.2-1.6,2-2.1c0.8-0.5,1.7-0.8,2.5-0.8c0.6,0,1.1,0.1,1.4,0.4
						c0.3,0.3,0.5,0.6,0.5,0.9c0,0.5-0.2,1-0.6,1.4c-0.5,0.6-1.3,1.1-2.3,1.4C437.9,174.2,437,174.4,435.8,174.5z M435.9,174.1
						c0.9-0.1,1.6-0.3,2.1-0.5c0.7-0.3,1.3-0.7,1.6-1.2c0.4-0.5,0.5-0.9,0.5-1.3c0-0.2-0.1-0.4-0.2-0.6c-0.2-0.2-0.4-0.2-0.7-0.2
						c-0.6,0-1.2,0.3-1.9,1C436.7,171.9,436.2,172.8,435.9,174.1z"/>
					<path style="fill:#FFFFFF;" d="M444.8,169.2l-0.2,0.7H442l0.2-0.7H444.8z"/>
				</g>
			</g>
		</g>
		<g>
			<g>
				<circle style="fill:#00D814;" cx="414.5" cy="173.6" r="9"/>
				<g>
					<path style="fill:#FFFFFF;" d="M410.8,174.5c0,0.3-0.1,0.5-0.1,0.7c0,0.5,0.2,1,0.6,1.3c0.4,0.4,0.8,0.6,1.4,0.6
						c0.4,0,0.8-0.1,1.2-0.3c0.4-0.2,1-0.6,1.7-1.2l0.2,0.3c-1.4,1.4-2.7,2.1-4,2.1c-0.9,0-1.5-0.3-1.9-0.8
						c-0.4-0.5-0.7-1.1-0.7-1.8c0-0.9,0.3-1.8,0.8-2.7c0.5-0.9,1.2-1.6,2-2.1c0.8-0.5,1.7-0.8,2.5-0.8c0.6,0,1.1,0.1,1.4,0.4
						c0.3,0.3,0.5,0.6,0.5,0.9c0,0.5-0.2,1-0.6,1.4c-0.5,0.6-1.3,1.1-2.3,1.4C412.9,174.2,412,174.4,410.8,174.5z M410.9,174.1
						c0.9-0.1,1.6-0.3,2.1-0.5c0.7-0.3,1.3-0.7,1.6-1.2c0.4-0.5,0.5-0.9,0.5-1.3c0-0.2-0.1-0.4-0.2-0.6c-0.2-0.2-0.4-0.2-0.7-0.2
						c-0.6,0-1.2,0.3-1.9,1C411.7,171.9,411.2,172.8,410.9,174.1z"/>
					<path style="fill:#FFFFFF;" d="M419.8,169.2l-0.2,0.7H417l0.2-0.7H419.8z"/>
				</g>
			</g>
		</g>
		<g>
			<g>
				<circle style="fill:#00D814;" cx="389.5" cy="173.6" r="9"/>
				<g>
					<path style="fill:#FFFFFF;" d="M385.8,174.5c0,0.3-0.1,0.5-0.1,0.7c0,0.5,0.2,1,0.6,1.3c0.4,0.4,0.8,0.6,1.4,0.6
						c0.4,0,0.8-0.1,1.2-0.3c0.4-0.2,1-0.6,1.7-1.2l0.2,0.3c-1.4,1.4-2.7,2.1-4,2.1c-0.9,0-1.5-0.3-1.9-0.8
						c-0.4-0.5-0.7-1.1-0.7-1.8c0-0.9,0.3-1.8,0.8-2.7c0.5-0.9,1.2-1.6,2-2.1c0.8-0.5,1.7-0.8,2.5-0.8c0.6,0,1.1,0.1,1.4,0.4
						c0.3,0.3,0.5,0.6,0.5,0.9c0,0.5-0.2,1-0.6,1.4c-0.5,0.6-1.3,1.1-2.3,1.4C387.9,174.2,387,174.4,385.8,174.5z M385.9,174.1
						c0.9-0.1,1.6-0.3,2.1-0.5c0.7-0.3,1.3-0.7,1.6-1.2c0.4-0.5,0.5-0.9,0.5-1.3c0-0.2-0.1-0.4-0.2-0.6c-0.2-0.2-0.4-0.2-0.7-0.2
						c-0.6,0-1.2,0.3-1.9,1C386.7,171.9,386.2,172.8,385.9,174.1z"/>
					<path style="fill:#FFFFFF;" d="M394.8,169.2l-0.2,0.7H392l0.2-0.7H394.8z"/>
				</g>
			</g>
		</g>
		<g>
			<g>
				<circle style="fill:#00D814;" cx="364.5" cy="173.6" r="9"/>
				<g>
					<path style="fill:#FFFFFF;" d="M360.8,174.5c0,0.3-0.1,0.5-0.1,0.7c0,0.5,0.2,1,0.6,1.3c0.4,0.4,0.8,0.6,1.4,0.6
						c0.4,0,0.8-0.1,1.2-0.3c0.4-0.2,1-0.6,1.7-1.2l0.2,0.3c-1.4,1.4-2.7,2.1-4,2.1c-0.9,0-1.5-0.3-1.9-0.8
						c-0.4-0.5-0.7-1.1-0.7-1.8c0-0.9,0.3-1.8,0.8-2.7c0.5-0.9,1.2-1.6,2-2.1c0.8-0.5,1.7-0.8,2.5-0.8c0.6,0,1.1,0.1,1.4,0.4
						c0.3,0.3,0.5,0.6,0.5,0.9c0,0.5-0.2,1-0.6,1.4c-0.5,0.6-1.3,1.1-2.3,1.4C362.9,174.2,362,174.4,360.8,174.5z M360.9,174.1
						c0.9-0.1,1.6-0.3,2.1-0.5c0.7-0.3,1.3-0.7,1.6-1.2c0.4-0.5,0.5-0.9,0.5-1.3c0-0.2-0.1-0.4-0.2-0.6c-0.2-0.2-0.4-0.2-0.7-0.2
						c-0.6,0-1.2,0.3-1.9,1C361.7,171.9,361.2,172.8,360.9,174.1z"/>
					<path style="fill:#FFFFFF;" d="M369.8,169.2l-0.2,0.7H367l0.2-0.7H369.8z"/>
				</g>
			</g>
		</g>
	</g>
</g>
<g>
	<g>
		<g>
			<g>
				<circle style="fill:none;stroke:#A34141;stroke-miterlimit:10;" cx="334.7" cy="274" r="9"/>
				<g>
					<path style="fill:#A34141;" d="M338.7,274.5h-3.5v3.5h-1v-3.5h-3.5v-1h3.5V270h1v3.5h3.5V274.5z"/>
				</g>
			</g>
		</g>
		<g>
			<g>
				<circle style="fill:none;stroke:#A34141;stroke-miterlimit:10;" cx="309.7" cy="274" r="9"/>
				<g>
					<path style="fill:#A34141;" d="M313.7,274.5h-3.5v3.5h-1v-3.5h-3.5v-1h3.5V270h1v3.5h3.5V274.5z"/>
				</g>
			</g>
		</g>
	</g>
	<g>
		<g>
			<g>
				<circle style="fill:none;stroke:#A34141;stroke-miterlimit:10;" cx="334.7" cy="249" r="9"/>
				<g>
					<path style="fill:#A34141;" d="M338.7,249.5h-3.5v3.5h-1v-3.5h-3.5v-1h3.5V245h1v3.5h3.5V249.5z"/>
				</g>
			</g>
		</g>
		<g>
			<g>
				<circle style="fill:none;stroke:#A34141;stroke-miterlimit:10;" cx="309.7" cy="249" r="9"/>
				<g>
					<path style="fill:#A34141;" d="M313.7,249.5h-3.5v3.5h-1v-3.5h-3.5v-1h3.5V245h1v3.5h3.5V249.5z"/>
				</g>
			</g>
		</g>
	</g>
	<g>
		<g>
			<g>
				<circle style="fill:none;stroke:#A34141;stroke-miterlimit:10;" cx="334.7" cy="224" r="9"/>
				<g>
					<path style="fill:#A34141;" d="M338.7,224.5h-3.5v3.5h-1v-3.5h-3.5v-1h3.5V220h1v3.5h3.5V224.5z"/>
				</g>
			</g>
		</g>
		<g>
			<g>
				<circle style="fill:none;stroke:#A34141;stroke-miterlimit:10;" cx="309.7" cy="224" r="9"/>
				<g>
					<path style="fill:#A34141;" d="M313.7,224.5h-3.5v3.5h-1v-3.5h-3.5v-1h3.5V220h1v3.5h3.5V224.5z"/>
				</g>
			</g>
		</g>
	</g>
	<g>
		<g>
			<g>
				<circle style="fill:none;stroke:#A34141;stroke-miterlimit:10;" cx="334.7" cy="199" r="9"/>
				<g>
					<path style="fill:#A34141;" d="M338.7,199.5h-3.5v3.5h-1v-3.5h-3.5v-1h3.5V195h1v3.5h3.5V199.5z"/>
				</g>
			</g>
		</g>
		<g>
			<g>
				<circle style="fill:none;stroke:#A34141;stroke-miterlimit:10;" cx="309.7" cy="199" r="9"/>
				<g>
					<path style="fill:#A34141;" d="M313.7,199.5h-3.5v3.5h-1v-3.5h-3.5v-1h3.5V195h1v3.5h3.5V199.5z"/>
				</g>
			</g>
		</g>
	</g>
	<g>
		<g>
			<g>
				<circle style="fill:none;stroke:#A34141;stroke-miterlimit:10;" cx="334.7" cy="174" r="9"/>
				<g>
					<path style="fill:#A34141;" d="M338.7,174.5h-3.5v3.5h-1v-3.5h-3.5v-1h3.5V170h1v3.5h3.5V174.5z"/>
				</g>
			</g>
		</g>
		<g>
			<g>
				<circle style="fill:none;stroke:#A34141;stroke-miterlimit:10;" cx="309.7" cy="174" r="9"/>
				<g>
					<path style="fill:#A34141;" d="M313.7,174.5h-3.5v3.5h-1v-3.5h-3.5v-1h3.5V170h1v3.5h3.5V174.5z"/>
				</g>
			</g>
		</g>
	</g>
</g>
<g>
	<g>
		<g>
			<g>
				<circle style="fill:none;stroke:#86A040;stroke-miterlimit:10;" cx="270.2" cy="274.4" r="9"/>
				<g>
					<path style="fill:#86A040;" d="M274.1,274.9h-7.9v-1h7.9V274.9z"/>
				</g>
			</g>
		</g>
		<g>
			<g>
				<circle style="fill:none;stroke:#86A040;stroke-miterlimit:10;" cx="245.2" cy="274.4" r="9"/>
				<g>
					<path style="fill:#86A040;" d="M249.1,274.9h-7.9v-1h7.9V274.9z"/>
				</g>
			</g>
		</g>
	</g>
	<g>
		<g>
			<g>
				<circle style="fill:none;stroke:#86A040;stroke-miterlimit:10;" cx="270.2" cy="249.4" r="9"/>
				<g>
					<path style="fill:#86A040;" d="M274.1,249.9h-7.9v-1h7.9V249.9z"/>
				</g>
			</g>
		</g>
		<g>
			<g>
				<circle style="fill:none;stroke:#86A040;stroke-miterlimit:10;" cx="245.2" cy="249.4" r="9"/>
				<g>
					<path style="fill:#86A040;" d="M249.1,249.9h-7.9v-1h7.9V249.9z"/>
				</g>
			</g>
		</g>
	</g>
	<g>
		<g>
			<g>
				<circle style="fill:none;stroke:#86A040;stroke-miterlimit:10;" cx="270.2" cy="224.4" r="9"/>
				<g>
					<path style="fill:#86A040;" d="M274.1,224.9h-7.9v-1h7.9V224.9z"/>
				</g>
			</g>
		</g>
		<g>
			<g>
				<circle style="fill:none;stroke:#86A040;stroke-miterlimit:10;" cx="245.2" cy="224.4" r="9"/>
				<g>
					<path style="fill:#86A040;" d="M249.1,224.9h-7.9v-1h7.9V224.9z"/>
				</g>
			</g>
		</g>
	</g>
	<g>
		<g>
			<g>
				<circle style="fill:none;stroke:#86A040;stroke-miterlimit:10;" cx="270.2" cy="199.4" r="9"/>
				<g>
					<path style="fill:#86A040;" d="M274.1,199.9h-7.9v-1h7.9V199.9z"/>
				</g>
			</g>
		</g>
		<g>
			<g>
				<circle style="fill:none;stroke:#86A040;stroke-miterlimit:10;" cx="245.2" cy="199.4" r="9"/>
				<g>
					<path style="fill:#86A040;" d="M249.1,199.9h-7.9v-1h7.9V199.9z"/>
				</g>
			</g>
		</g>
	</g>
	<g>
		<g>
			<g>
				<circle style="fill:none;stroke:#86A040;stroke-miterlimit:10;" cx="270.2" cy="174.4" r="9"/>
				<g>
					<path style="fill:#86A040;" d="M274.1,174.9h-7.9v-1h7.9V174.9z"/>
				</g>
			</g>
		</g>
		<g>
			<g>
				<circle style="fill:none;stroke:#86A040;stroke-miterlimit:10;" cx="245.2" cy="174.4" r="9"/>
				<g>
					<path style="fill:#86A040;" d="M249.1,174.9h-7.9v-1h7.9V174.9z"/>
				</g>
			</g>
		</g>
	</g>
</g>
<rect x="479.2" y="200.4" style="stroke:#000000;stroke-width:2.835;stroke-linecap:round;stroke-linejoin:round;stroke-miterlimit:10;" width="1.8" height="35.5"/>
<polyline style="fill:none;stroke:#000000;stroke-width:2.835;stroke-linecap:round;stroke-linejoin:round;stroke-miterlimit:10;" points="
	69.4,213.8 18.5,213.8 18.5,73.9 197,73.9 "/>
<polyline style="fill:none;stroke:#000000;stroke-width:2.835;stroke-linecap:round;stroke-linejoin:round;stroke-miterlimit:10;" points="
	483.4,213.8 534.4,213.8 534.4,73.9 384.1,73.9 "/>
<g>
	<g>
		<g>
			<line style="fill:none;stroke:#000000;stroke-width:2.835;stroke-miterlimit:10;" x1="253.4" y1="73.9" x2="197" y2="73.9"/>
			<g>
				<circle cx="197" cy="73.9" r="4.3"/>
			</g>
		</g>
	</g>
	<g>
		<g>
			<line style="fill:none;stroke:#000000;stroke-width:2.835;stroke-miterlimit:10;" x1="384.1" y1="73.9" x2="315.8" y2="73.9"/>
			<g>
				<circle cx="384.1" cy="73.9" r="4.3"/>
			</g>
		</g>
	</g>
	
		<circle style="fill-rule:evenodd;clip-rule:evenodd;fill:none;stroke:#000000;stroke-width:2.835;stroke-miterlimit:10;" cx="284.6" cy="73.9" r="31.2"/>
	<line style="fill:none;stroke:#000000;stroke-width:2.835;stroke-miterlimit:10;" x1="270.1" y1="78.4" x2="270.1" y2="69.4"/>
	<line style="fill:none;stroke:#000000;stroke-width:2.835;stroke-miterlimit:10;" x1="294" y1="73.9" x2="303" y2="73.9"/>
	<line style="fill:none;stroke:#000000;stroke-width:2.835;stroke-miterlimit:10;" x1="274.6" y1="73.9" x2="265.6" y2="73.9"/>
</g>
<text transform="matrix(1 0 0 1 290.5611 29.9144)" style="font-family:'TimesNewRomanPS-ItalicMT'; font-size:39.685px;">V</text>
<text transform="matrix(0.583 0 0 0.583 314.8023 43.1292)" style="font-family:'TimesNewRomanPS-ItalicMT'; font-size:39.685px;">F</text>
<text transform="matrix(1 0 0 1 8.0951 304.2524)" style="font-family:'TimesNewRomanPS-ItalicMT'; font-size:34.0157px;">A</text>
<g>
	<line style="fill:#F2F2F2;" x1="34.8" y1="289.8" x2="80.6" y2="248.7"/>
	<g>
		
			<line style="fill:none;stroke:#000000;stroke-width:2.835;stroke-linecap:round;stroke-linejoin:round;" x1="34.8" y1="289.8" x2="65.6" y2="262.1"/>
		<g>
			<polygon points="66.7,270 80.6,248.7 57.9,260.2 			"/>
		</g>
	</g>
</g>
<g>
	<g>
		<line style="fill:none;stroke:#F15A24;stroke-width:2.8346;stroke-miterlimit:10;" x1="139.3" y1="73.9" x2="63.1" y2="73.9"/>
		<g>
			<polygon style="fill:#F15A24;" points="70.3,64.5 66.3,73.9 70.3,83.4 47.9,73.9 			"/>
		</g>
	</g>
</g>
<text transform="matrix(1 0 0 1 83.1091 47.494)" style="font-family:'TimesNewRomanPS-ItalicMT'; font-size:39.685px;">I</text>
<text transform="matrix(0.583 0 0 0.583 96.3249 60.7089)" style="font-family:'TimesNewRomanPS-ItalicMT'; font-size:39.685px;">tot</text>
</svg>
