<?xml version="1.0" encoding="utf-8"?>
<!-- Generator: Adobe Illustrator 27.0.0, SVG Export Plug-In . SVG Version: 6.00 Build 0)  -->
<svg version="1.1" id="Layer_1" xmlns="http://www.w3.org/2000/svg" xmlns:xlink="http://www.w3.org/1999/xlink" x="0px" y="0px"
	 width="365.4px" height="248.2px" viewBox="0 0 365.4 248.2" style="enable-background:new 0 0 365.4 248.2;" xml:space="preserve"
	>
<text transform="matrix(1 0 0 1 171.6651 27.1809)" style="font-family:'TimesNewRomanPS-ItalicMT'; font-size:34.0157px;">E</text>
<rect x="33.2" y="58.1" style="fill-rule:evenodd;clip-rule:evenodd;fill:#F2F2F2;stroke:#000000;stroke-width:2.835;stroke-miterlimit:10;" width="297.6" height="94.5"/>
<g>
	<g>
		<g>
			<line style="fill:none;stroke:#000000;stroke-width:2.835;stroke-miterlimit:10;" x1="144.9" y1="211.7" x2="88.5" y2="211.7"/>
			<g>
				<path d="M88.5,207.5c-2.4,0-4.3,1.9-4.3,4.3c0,2.4,1.9,4.3,4.3,4.3s4.3-1.9,4.3-4.3C92.8,209.4,90.8,207.5,88.5,207.5z"/>
			</g>
		</g>
	</g>
	<g>
		<g>
			<line style="fill:none;stroke:#000000;stroke-width:2.835;stroke-miterlimit:10;" x1="275.6" y1="211.7" x2="207.2" y2="211.7"/>
			<g>
				<path d="M275.6,207.5c2.4,0,4.3,1.9,4.3,4.3c0,2.4-1.9,4.3-4.3,4.3c-2.4,0-4.3-1.9-4.3-4.3C271.3,209.4,273.2,207.5,275.6,207.5
					z"/>
			</g>
		</g>
	</g>
	
		<circle style="fill-rule:evenodd;clip-rule:evenodd;fill:none;stroke:#000000;stroke-width:2.835;stroke-miterlimit:10;" cx="176.1" cy="211.7" r="31.2"/>
	<line style="fill:none;stroke:#000000;stroke-width:2.835;stroke-miterlimit:10;" x1="161.5" y1="216.2" x2="161.5" y2="207.2"/>
	<line style="fill:none;stroke:#000000;stroke-width:2.835;stroke-miterlimit:10;" x1="190" y1="216.2" x2="190" y2="207.2"/>
	<line style="fill:none;stroke:#000000;stroke-width:2.835;stroke-miterlimit:10;" x1="166" y1="211.7" x2="157" y2="211.7"/>
</g>
<polyline style="fill-rule:evenodd;clip-rule:evenodd;fill:none;stroke:#000000;stroke-width:2.835;stroke-miterlimit:10;" points="
	330.8,105.4 358.5,105.4 358.5,211.7 275.6,211.7 "/>
<polyline style="fill-rule:evenodd;clip-rule:evenodd;fill:none;stroke:#000000;stroke-width:2.835;stroke-miterlimit:10;" points="
	33.2,105.4 5.6,105.4 5.6,211.7 88.5,211.7 "/>
<g>
	<g>
		<line style="fill:none;stroke:#2189F9;stroke-width:2.8346;stroke-miterlimit:10;" x1="127.7" y1="37.6" x2="219.5" y2="37.6"/>
		<g>
			<polygon style="fill:#2189F9;" points="211.5,48.1 216,37.6 211.5,27.1 236.4,37.6 			"/>
		</g>
	</g>
</g>
<g>
	<g>
		<line style="fill:none;stroke:#F15A24;stroke-width:2.8346;stroke-miterlimit:10;" x1="159.9" y1="108.9" x2="198.3" y2="108.9"/>
		<g>
			<polygon style="fill:#F15A24;" points="191.1,118.4 195.2,108.9 191.1,99.5 213.5,108.9 			"/>
		</g>
	</g>
</g>
<g>
	<circle style="fill:#F15A24;" cx="56" cy="80.9" r="9"/>
	<g>
		<path style="fill:#FFFFFF;" d="M52.1,80.4h3.5v-3.5h1v3.5H60v1h-3.5v3.5h-1v-3.5h-3.5V80.4z"/>
	</g>
</g>
<g>
	<circle style="fill:#F15A24;" cx="84.5" cy="132.9" r="9"/>
	<g>
		<path style="fill:#FFFFFF;" d="M80.5,132.5H84V129h1v3.5h3.5v1H85v3.5h-1v-3.5h-3.5V132.5z"/>
	</g>
</g>
<g>
	<circle style="fill:#F15A24;" cx="152.6" cy="108.9" r="9"/>
	<g>
		<path style="fill:#FFFFFF;" d="M148.6,108.5h3.5V105h1v3.5h3.5v1h-3.5v3.5h-1v-3.5h-3.5V108.5z"/>
	</g>
</g>
<g>
	<circle style="fill:#F15A24;" cx="255.4" cy="84.8" r="9"/>
	<g>
		<path style="fill:#FFFFFF;" d="M251.4,84.4h3.5v-3.5h1v3.5h3.5v1h-3.5v3.5h-1v-3.5h-3.5V84.4z"/>
	</g>
</g>
<g>
	<circle style="fill:#F15A24;" cx="309.8" cy="132.9" r="9"/>
	<g>
		<path style="fill:#FFFFFF;" d="M305.8,132.5h3.5V129h1v3.5h3.5v1h-3.5v3.5h-1v-3.5h-3.5V132.5z"/>
	</g>
</g>
<text transform="matrix(1 0 0 1 204.0528 99.9534)" style="font-family:'TimesNewRomanPS-ItalicMT'; font-size:34.0157px;">v</text>
<text transform="matrix(0.583 0 0 0.583 219.1505 111.2806)" style="font-family:'TimesNewRomanPS-ItalicMT'; font-size:34.0157px;">p</text>
</svg>
