<?xml version="1.0" encoding="utf-8"?>
<!-- Generator: Adobe Illustrator 27.0.0, SVG Export Plug-In . SVG Version: 6.00 Build 0)  -->
<svg version="1.1" id="Layer_1" xmlns="http://www.w3.org/2000/svg" xmlns:xlink="http://www.w3.org/1999/xlink" x="0px" y="0px"
	 width="187.6px" height="298.5px" viewBox="0 0 187.6 298.5" style="enable-background:new 0 0 187.6 298.5;" xml:space="preserve"
	>
<g>
	<g>
		<g>
			<g>
				
					<line style="fill:none;stroke:#000000;stroke-width:2.8346;stroke-miterlimit:10;" x1="117.5" y1="176.9" x2="117.5" y2="227.4"/>
				<g>
					<circle cx="117.5" cy="227.4" r="4.3"/>
				</g>
			</g>
		</g>
		<g>
			<g>
				
					<line style="fill:none;stroke:#000000;stroke-width:2.8346;stroke-miterlimit:10;" x1="117.5" y1="117.9" x2="117.5" y2="168.4"/>
				<g>
					<circle cx="117.5" cy="117.9" r="4.3"/>
				</g>
			</g>
		</g>
		
			<rect x="100.5" y="167" transform="matrix(-1 -1.224647e-16 1.224647e-16 -1 234.9281 336.7598)" style="fill-rule:evenodd;clip-rule:evenodd;" width="34" height="2.8"/>
		
			<rect x="100.5" y="175.5" transform="matrix(-1 -1.224647e-16 1.224647e-16 -1 234.9281 353.7677)" style="fill-rule:evenodd;clip-rule:evenodd;" width="34" height="2.8"/>
	</g>
</g>
<g>
	<g>
		<line style="fill:none;stroke:#000000;stroke-width:2.8346;stroke-miterlimit:10;" x1="117.5" y1="117.9" x2="117.5" y2="0"/>
		<g>
			<path d="M121.7,117.9c0,2.4-1.9,4.3-4.3,4.3s-4.3-1.9-4.3-4.3c0-2.4,1.9-4.3,4.3-4.3S121.7,115.5,121.7,117.9z"/>
		</g>
	</g>
</g>
<g>
	<g>
		<line style="fill:none;stroke:#000000;stroke-width:2.8346;stroke-miterlimit:10;" x1="117.5" y1="227.4" x2="117.5" y2="300.1"/>
		<g>
			<path d="M113.2,227.4c0-2.4,1.9-4.3,4.3-4.3s4.3,1.9,4.3,4.3c0,2.4-1.9,4.3-4.3,4.3S113.2,229.7,113.2,227.4z"/>
		</g>
	</g>
</g>
<text transform="matrix(1 0 0 1 142.1049 182.0612)" style="font-family:'TimesNewRomanPS-ItalicMT'; font-size:34.0157px;">C</text>
<g>
	<g>
		<line style="fill:none;stroke:#F15A24;stroke-width:2.8346;stroke-miterlimit:10;" x1="117.5" y1="33.7" x2="117.5" y2="78.9"/>
		<g>
			<polygon style="fill:#F15A24;" points="108,71.7 117.5,75.8 126.9,71.7 117.5,94.1 			"/>
		</g>
	</g>
</g>
<g>
	<text transform="matrix(1 0 0 1 7.2546 181.5511)" style="font-family:'TimesNewRomanPS-ItalicMT'; font-size:34.0157px;">v(t)</text>
</g>
<g>
	<line style="fill:none;stroke:#2189F9;stroke-width:2.8346;stroke-miterlimit:10;" x1="15.7" y1="113.6" x2="15.7" y2="122.1"/>
	<line style="fill:none;stroke:#2189F9;stroke-width:2.8346;stroke-miterlimit:10;" x1="11.4" y1="117.9" x2="19.9" y2="117.9"/>
</g>
<text transform="matrix(1 0 0 1 139.5811 70.317)" style="font-family:'TimesNewRomanPS-ItalicMT'; font-size:34.0157px;">i(t)</text>
<g>
	<g>
		<line style="fill:none;stroke:#2189F9;stroke-width:2.8346;stroke-miterlimit:10;" x1="30.9" y1="117.9" x2="117.5" y2="117.9"/>
		<g>
			<rect x="25.2" y="112.3" style="fill:#2189F9;" width="11.2" height="11.2"/>
		</g>
		<g>
			<path style="fill:#2189F9;" d="M117.5,122.1c2.4,0,4.3-1.9,4.3-4.3s-1.9-4.3-4.3-4.3c-2.4,0-4.3,1.9-4.3,4.3
				S115.1,122.1,117.5,122.1z"/>
		</g>
	</g>
</g>
<g>
	<g>
		<line style="fill:none;stroke:#2189F9;stroke-width:2.8346;stroke-miterlimit:10;" x1="30.9" y1="227.4" x2="117.5" y2="227.4"/>
		<g>
			<rect x="25.2" y="221.8" style="fill:#2189F9;" width="11.2" height="11.2"/>
		</g>
		<g>
			<path style="fill:#2189F9;" d="M117.5,231.6c2.4,0,4.3-1.9,4.3-4.3c0-2.4-1.9-4.3-4.3-4.3c-2.4,0-4.3,1.9-4.3,4.3
				C113.2,229.7,115.1,231.6,117.5,231.6z"/>
		</g>
	</g>
</g>
</svg>
