<?xml version="1.0" encoding="utf-8"?>
<!-- Generator: Adobe Illustrator 27.0.0, SVG Export Plug-In . SVG Version: 6.00 Build 0)  -->
<svg version="1.1" id="Layer_1" xmlns="http://www.w3.org/2000/svg" xmlns:xlink="http://www.w3.org/1999/xlink" x="0px" y="0px"
	 width="163.1px" height="300.1px" viewBox="0 0 163.1 300.1" style="enable-background:new 0 0 163.1 300.1;" xml:space="preserve"
	>
<g>
	<g>
		<line style="fill:none;stroke:#000000;stroke-width:2.8346;stroke-miterlimit:10;" x1="114.6" y1="117.9" x2="114.6" y2="0"/>
		<g>
			<path d="M118.8,117.9c0,2.4-1.9,4.3-4.3,4.3s-4.3-1.9-4.3-4.3c0-2.4,1.9-4.3,4.3-4.3S118.8,115.5,118.8,117.9z"/>
		</g>
	</g>
</g>
<g>
	<g>
		<line style="fill:none;stroke:#000000;stroke-width:2.8346;stroke-miterlimit:10;" x1="114.6" y1="227.4" x2="114.6" y2="300.1"/>
		<g>
			<path d="M110.3,227.4c0-2.4,1.9-4.3,4.3-4.3s4.3,1.9,4.3,4.3c0,2.4-1.9,4.3-4.3,4.3S110.3,229.7,110.3,227.4z"/>
		</g>
	</g>
</g>
<text transform="matrix(1 0 0 1 132.4725 182.0607)" style="font-family:'TimesNewRomanPS-ItalicMT'; font-size:34.0157px;">R</text>
<g>
	<g>
		<line style="fill:none;stroke:#F15A24;stroke-width:2.8346;stroke-miterlimit:10;" x1="114.6" y1="33.7" x2="114.6" y2="78.9"/>
		<g>
			<polygon style="fill:#F15A24;" points="105.1,71.7 114.6,75.8 124,71.7 114.6,94.1 			"/>
		</g>
	</g>
</g>
<g>
	<text transform="matrix(1 0 0 1 17.5812 181.5511)" style="font-family:'TimesNewRomanPS-ItalicMT'; font-size:34.0157px;">V</text>
</g>
<g>
	<line style="fill:none;stroke:#2189F9;stroke-width:2.8346;stroke-miterlimit:10;" x1="12.8" y1="113.6" x2="12.8" y2="122.1"/>
	<line style="fill:none;stroke:#2189F9;stroke-width:2.8346;stroke-miterlimit:10;" x1="8.5" y1="117.9" x2="17" y2="117.9"/>
</g>
<text transform="matrix(1 0 0 1 131.6945 70.317)" style="font-family:'TimesNewRomanPS-ItalicMT'; font-size:34.0157px;">I</text>
<g>
	<g>
		<polyline style="fill:none;stroke:#000000;stroke-width:2.835;stroke-miterlimit:10;" points="114.6,117.9 114.6,144.9 
			106.1,148.4 123.1,155.3 106.1,162.2 123.1,169.2 106.1,176.1 123.1,183 106.1,190 123.1,196.9 114.6,200.3 114.6,227.4 		"/>
		<g>
			<path d="M110.3,117.9c0-2.4,1.9-4.3,4.3-4.3s4.3,1.9,4.3,4.3s-1.9,4.3-4.3,4.3S110.3,120.2,110.3,117.9z"/>
		</g>
		<g>
			<path d="M110.3,227.4c0,2.4,1.9,4.3,4.3,4.3s4.3-1.9,4.3-4.3s-1.9-4.3-4.3-4.3S110.3,225,110.3,227.4z"/>
		</g>
	</g>
</g>
<g>
	<g>
		<line style="fill:none;stroke:#2189F9;stroke-width:2.8346;stroke-miterlimit:10;" x1="28" y1="117.9" x2="114.6" y2="117.9"/>
		<g>
			<rect x="22.4" y="112.3" style="fill:#2189F9;" width="11.2" height="11.2"/>
		</g>
		<g>
			<path style="fill:#2189F9;" d="M114.6,122.1c2.4,0,4.3-1.9,4.3-4.3s-1.9-4.3-4.3-4.3c-2.4,0-4.3,1.9-4.3,4.3
				S112.2,122.1,114.6,122.1z"/>
		</g>
	</g>
</g>
<g>
	<g>
		<line style="fill:none;stroke:#2189F9;stroke-width:2.8346;stroke-miterlimit:10;" x1="28" y1="227.4" x2="114.6" y2="227.4"/>
		<g>
			<rect x="22.4" y="221.8" style="fill:#2189F9;" width="11.2" height="11.2"/>
		</g>
		<g>
			<path style="fill:#2189F9;" d="M114.6,231.6c2.4,0,4.3-1.9,4.3-4.3c0-2.4-1.9-4.3-4.3-4.3c-2.4,0-4.3,1.9-4.3,4.3
				C110.3,229.7,112.2,231.6,114.6,231.6z"/>
		</g>
	</g>
</g>
</svg>
