<?xml version="1.0" encoding="utf-8"?>
<!-- Generator: Adobe Illustrator 27.0.0, SVG Export Plug-In . SVG Version: 6.00 Build 0)  -->
<svg version="1.1" id="Layer_1" xmlns="http://www.w3.org/2000/svg" xmlns:xlink="http://www.w3.org/1999/xlink" x="0px" y="0px"
	 width="397.2px" height="464px" viewBox="0 0 397.2 464" style="enable-background:new 0 0 397.2 464;" xml:space="preserve">
<text transform="matrix(1 0 0 1 281.3248 152.3737)" style="font-family:'TimesNewRomanPS-ItalicMT'; font-size:39.685px;">p-type</text>
<text transform="matrix(1 0 0 1 278.9203 330.0487)" style="font-family:'TimesNewRomanPS-ItalicMT'; font-size:39.685px;">n-type</text>
<text transform="matrix(1 0 0 1 49.8876 242.126)" style="font-family:'TimesNewRomanPS-ItalicMT'; font-size:39.685px;">V</text>
<text transform="matrix(0.583 0 0 0.583 74.1288 255.3409)" style="font-family:'TimesNewRomanPS-ItalicMT'; font-size:39.685px;">bi</text>
<rect x="183" y="39.1" transform="matrix(-1.836970e-16 1 -1 -1.836970e-16 239.9522 -127.4925)" style="fill-rule:evenodd;clip-rule:evenodd;fill:none;stroke:#000000;stroke-width:1.4173;stroke-linecap:round;stroke-linejoin:round;stroke-miterlimit:10;" width="1.4" height="34.2"/>
<rect x="183" y="393.8" transform="matrix(6.123234e-17 -1 1 6.123234e-17 -227.1879 594.6326)" style="fill-rule:evenodd;clip-rule:evenodd;fill:none;stroke:#000000;stroke-width:1.4173;stroke-linecap:round;stroke-linejoin:round;stroke-miterlimit:10;" width="1.4" height="34.2"/>
<g>
	<g>
		<g>
			<g>
				<g>
					<circle style="fill:#F15A24;" cx="233.1" cy="171.1" r="9"/>
					<g>
						<path style="fill:#FFFFFF;" d="M237,171.6h-3.5v3.5h-1v-3.5h-3.5v-1h3.5v-3.5h1v3.5h3.5V171.6z"/>
					</g>
				</g>
				<g>
					<circle style="fill:#F15A24;" cx="208.1" cy="171.1" r="9"/>
					<g>
						<path style="fill:#FFFFFF;" d="M212,171.6h-3.5v3.5h-1v-3.5h-3.5v-1h3.5v-3.5h1v3.5h3.5V171.6z"/>
					</g>
				</g>
				<g>
					<circle style="fill:#F15A24;" cx="183.1" cy="171.1" r="9"/>
					<g>
						<path style="fill:#FFFFFF;" d="M187,171.6h-3.5v3.5h-1v-3.5h-3.5v-1h3.5v-3.5h1v3.5h3.5V171.6z"/>
					</g>
				</g>
				<g>
					<circle style="fill:#F15A24;" cx="158.1" cy="171.1" r="9"/>
					<g>
						<path style="fill:#FFFFFF;" d="M162,171.6h-3.5v3.5h-1v-3.5h-3.5v-1h3.5v-3.5h1v3.5h3.5V171.6z"/>
					</g>
				</g>
				<g>
					<circle style="fill:#F15A24;" cx="133.1" cy="171.1" r="9"/>
					<g>
						<path style="fill:#FFFFFF;" d="M137,171.6h-3.5v3.5h-1v-3.5h-3.5v-1h3.5v-3.5h1v3.5h3.5V171.6z"/>
					</g>
				</g>
			</g>
			<g>
				<g>
					<circle style="fill:#F15A24;" cx="233.1" cy="146.1" r="9"/>
					<g>
						<path style="fill:#FFFFFF;" d="M237,146.6h-3.5v3.5h-1v-3.5h-3.5v-1h3.5v-3.5h1v3.5h3.5V146.6z"/>
					</g>
				</g>
				<g>
					<circle style="fill:#F15A24;" cx="208.1" cy="146.1" r="9"/>
					<g>
						<path style="fill:#FFFFFF;" d="M212,146.6h-3.5v3.5h-1v-3.5h-3.5v-1h3.5v-3.5h1v3.5h3.5V146.6z"/>
					</g>
				</g>
				<g>
					<circle style="fill:#F15A24;" cx="183.1" cy="146.1" r="9"/>
					<g>
						<path style="fill:#FFFFFF;" d="M187,146.6h-3.5v3.5h-1v-3.5h-3.5v-1h3.5v-3.5h1v3.5h3.5V146.6z"/>
					</g>
				</g>
				<g>
					<circle style="fill:#F15A24;" cx="158.1" cy="146.1" r="9"/>
					<g>
						<path style="fill:#FFFFFF;" d="M162,146.6h-3.5v3.5h-1v-3.5h-3.5v-1h3.5v-3.5h1v3.5h3.5V146.6z"/>
					</g>
				</g>
				<g>
					<circle style="fill:#F15A24;" cx="133.1" cy="146.1" r="9"/>
					<g>
						<path style="fill:#FFFFFF;" d="M137,146.6h-3.5v3.5h-1v-3.5h-3.5v-1h3.5v-3.5h1v3.5h3.5V146.6z"/>
					</g>
				</g>
			</g>
			<g>
				<g>
					<circle style="fill:#F15A24;" cx="233.1" cy="121.1" r="9"/>
					<g>
						<path style="fill:#FFFFFF;" d="M237,121.6h-3.5v3.5h-1v-3.5h-3.5v-1h3.5v-3.5h1v3.5h3.5V121.6z"/>
					</g>
				</g>
				<g>
					<circle style="fill:#F15A24;" cx="208.1" cy="121.1" r="9"/>
					<g>
						<path style="fill:#FFFFFF;" d="M212,121.6h-3.5v3.5h-1v-3.5h-3.5v-1h3.5v-3.5h1v3.5h3.5V121.6z"/>
					</g>
				</g>
				<g>
					<circle style="fill:#F15A24;" cx="183.1" cy="121.1" r="9"/>
					<g>
						<path style="fill:#FFFFFF;" d="M187,121.6h-3.5v3.5h-1v-3.5h-3.5v-1h3.5v-3.5h1v3.5h3.5V121.6z"/>
					</g>
				</g>
				<g>
					<circle style="fill:#F15A24;" cx="158.1" cy="121.1" r="9"/>
					<g>
						<path style="fill:#FFFFFF;" d="M162,121.6h-3.5v3.5h-1v-3.5h-3.5v-1h3.5v-3.5h1v3.5h3.5V121.6z"/>
					</g>
				</g>
				<g>
					<circle style="fill:#F15A24;" cx="133.1" cy="121.1" r="9"/>
					<g>
						<path style="fill:#FFFFFF;" d="M137,121.6h-3.5v3.5h-1v-3.5h-3.5v-1h3.5v-3.5h1v3.5h3.5V121.6z"/>
					</g>
				</g>
			</g>
			<g>
				<g>
					<circle style="fill:#F15A24;" cx="233.1" cy="96.1" r="9"/>
					<g>
						<path style="fill:#FFFFFF;" d="M237,96.6h-3.5v3.5h-1v-3.5h-3.5v-1h3.5v-3.5h1v3.5h3.5V96.6z"/>
					</g>
				</g>
				<g>
					<circle style="fill:#F15A24;" cx="208.1" cy="96.1" r="9"/>
					<g>
						<path style="fill:#FFFFFF;" d="M212,96.6h-3.5v3.5h-1v-3.5h-3.5v-1h3.5v-3.5h1v3.5h3.5V96.6z"/>
					</g>
				</g>
				<g>
					<circle style="fill:#F15A24;" cx="183.1" cy="96.1" r="9"/>
					<g>
						<path style="fill:#FFFFFF;" d="M187,96.6h-3.5v3.5h-1v-3.5h-3.5v-1h3.5v-3.5h1v3.5h3.5V96.6z"/>
					</g>
				</g>
				<g>
					<circle style="fill:#F15A24;" cx="158.1" cy="96.1" r="9"/>
					<g>
						<path style="fill:#FFFFFF;" d="M162,96.6h-3.5v3.5h-1v-3.5h-3.5v-1h3.5v-3.5h1v3.5h3.5V96.6z"/>
					</g>
				</g>
				<g>
					<circle style="fill:#F15A24;" cx="133.1" cy="96.1" r="9"/>
					<g>
						<path style="fill:#FFFFFF;" d="M137,96.6h-3.5v3.5h-1v-3.5h-3.5v-1h3.5v-3.5h1v3.5h3.5V96.6z"/>
					</g>
				</g>
			</g>
			<g>
				<g>
					<circle style="fill:#F15A24;" cx="233.1" cy="71.1" r="9"/>
					<g>
						<path style="fill:#FFFFFF;" d="M237,71.6h-3.5V75h-1v-3.5h-3.5v-1h3.5v-3.5h1v3.5h3.5V71.6z"/>
					</g>
				</g>
				<g>
					<circle style="fill:#F15A24;" cx="208.1" cy="71.1" r="9"/>
					<g>
						<path style="fill:#FFFFFF;" d="M212,71.6h-3.5V75h-1v-3.5h-3.5v-1h3.5v-3.5h1v3.5h3.5V71.6z"/>
					</g>
				</g>
				<g>
					<circle style="fill:#F15A24;" cx="183.1" cy="71.1" r="9"/>
					<g>
						<path style="fill:#FFFFFF;" d="M187,71.6h-3.5V75h-1v-3.5h-3.5v-1h3.5v-3.5h1v3.5h3.5V71.6z"/>
					</g>
				</g>
				<g>
					<circle style="fill:#F15A24;" cx="158.1" cy="71.1" r="9"/>
					<g>
						<path style="fill:#FFFFFF;" d="M162,71.6h-3.5V75h-1v-3.5h-3.5v-1h3.5v-3.5h1v3.5h3.5V71.6z"/>
					</g>
				</g>
				<g>
					<circle style="fill:#F15A24;" cx="133.1" cy="71.1" r="9"/>
					<g>
						<path style="fill:#FFFFFF;" d="M137,71.6h-3.5V75h-1v-3.5h-3.5v-1h3.5v-3.5h1v3.5h3.5V71.6z"/>
					</g>
				</g>
			</g>
		</g>
		<g>
			<g>
				<g>
					<circle style="fill:#00D814;" cx="233.1" cy="396.1" r="9"/>
					<g>
						<path style="fill:#FFFFFF;" d="M229.3,397c0,0.3-0.1,0.5-0.1,0.7c0,0.5,0.2,1,0.6,1.3c0.4,0.4,0.8,0.6,1.4,0.6
							c0.4,0,0.8-0.1,1.2-0.3c0.4-0.2,1-0.6,1.7-1.2l0.2,0.3c-1.4,1.4-2.7,2.1-4,2.1c-0.9,0-1.5-0.3-1.9-0.8
							c-0.4-0.5-0.7-1.1-0.7-1.8c0-0.9,0.3-1.8,0.8-2.7c0.5-0.9,1.2-1.6,2-2.1c0.8-0.5,1.7-0.8,2.5-0.8c0.6,0,1.1,0.1,1.4,0.4
							c0.3,0.3,0.5,0.6,0.5,0.9c0,0.5-0.2,1-0.6,1.4c-0.5,0.6-1.3,1.1-2.3,1.4C231.5,396.6,230.5,396.8,229.3,397z M229.4,396.5
							c0.9-0.1,1.6-0.3,2.1-0.5c0.7-0.3,1.3-0.7,1.6-1.2c0.4-0.5,0.5-0.9,0.5-1.3c0-0.2-0.1-0.4-0.2-0.6c-0.2-0.2-0.4-0.2-0.7-0.2
							c-0.6,0-1.2,0.3-1.9,1C230.2,394.3,229.7,395.3,229.4,396.5z"/>
						<path style="fill:#FFFFFF;" d="M238.4,391.6l-0.2,0.7h-2.7l0.2-0.7H238.4z"/>
					</g>
				</g>
				<g>
					<circle style="fill:#00D814;" cx="208.1" cy="396.1" r="9"/>
					<g>
						<path style="fill:#FFFFFF;" d="M204.3,397c0,0.3-0.1,0.5-0.1,0.7c0,0.5,0.2,1,0.6,1.3c0.4,0.4,0.8,0.6,1.4,0.6
							c0.4,0,0.8-0.1,1.2-0.3c0.4-0.2,1-0.6,1.7-1.2l0.2,0.3c-1.4,1.4-2.7,2.1-4,2.1c-0.9,0-1.5-0.3-1.9-0.8
							c-0.4-0.5-0.7-1.1-0.7-1.8c0-0.9,0.3-1.8,0.8-2.7c0.5-0.9,1.2-1.6,2-2.1c0.8-0.5,1.7-0.8,2.5-0.8c0.6,0,1.1,0.1,1.4,0.4
							c0.3,0.3,0.5,0.6,0.5,0.9c0,0.5-0.2,1-0.6,1.4c-0.5,0.6-1.3,1.1-2.3,1.4C206.5,396.6,205.5,396.8,204.3,397z M204.4,396.5
							c0.9-0.1,1.6-0.3,2.1-0.5c0.7-0.3,1.3-0.7,1.6-1.2c0.4-0.5,0.5-0.9,0.5-1.3c0-0.2-0.1-0.4-0.2-0.6c-0.2-0.2-0.4-0.2-0.7-0.2
							c-0.6,0-1.2,0.3-1.9,1C205.2,394.3,204.7,395.3,204.4,396.5z"/>
						<path style="fill:#FFFFFF;" d="M213.4,391.6l-0.2,0.7h-2.7l0.2-0.7H213.4z"/>
					</g>
				</g>
				<g>
					<circle style="fill:#00D814;" cx="183.1" cy="396.1" r="9"/>
					<g>
						<path style="fill:#FFFFFF;" d="M179.3,397c0,0.3-0.1,0.5-0.1,0.7c0,0.5,0.2,1,0.6,1.3c0.4,0.4,0.8,0.6,1.4,0.6
							c0.4,0,0.8-0.1,1.2-0.3c0.4-0.2,1-0.6,1.7-1.2l0.2,0.3c-1.4,1.4-2.7,2.1-4,2.1c-0.9,0-1.5-0.3-1.9-0.8
							c-0.4-0.5-0.7-1.1-0.7-1.8c0-0.9,0.3-1.8,0.8-2.7c0.5-0.9,1.2-1.6,2-2.1c0.8-0.5,1.7-0.8,2.5-0.8c0.6,0,1.1,0.1,1.4,0.4
							c0.3,0.3,0.5,0.6,0.5,0.9c0,0.5-0.2,1-0.6,1.4c-0.5,0.6-1.3,1.1-2.3,1.4C181.5,396.6,180.5,396.8,179.3,397z M179.4,396.5
							c0.9-0.1,1.6-0.3,2.1-0.5c0.7-0.3,1.3-0.7,1.6-1.2c0.4-0.5,0.5-0.9,0.5-1.3c0-0.2-0.1-0.4-0.2-0.6c-0.2-0.2-0.4-0.2-0.7-0.2
							c-0.6,0-1.2,0.3-1.9,1C180.2,394.3,179.7,395.3,179.4,396.5z"/>
						<path style="fill:#FFFFFF;" d="M188.4,391.6l-0.2,0.7h-2.7l0.2-0.7H188.4z"/>
					</g>
				</g>
				<g>
					<circle style="fill:#00D814;" cx="158.1" cy="396.1" r="9"/>
					<g>
						<path style="fill:#FFFFFF;" d="M154.3,397c0,0.3-0.1,0.5-0.1,0.7c0,0.5,0.2,1,0.6,1.3c0.4,0.4,0.8,0.6,1.4,0.6
							c0.4,0,0.8-0.1,1.2-0.3c0.4-0.2,1-0.6,1.7-1.2l0.2,0.3c-1.4,1.4-2.7,2.1-4,2.1c-0.9,0-1.5-0.3-1.9-0.8
							c-0.4-0.5-0.7-1.1-0.7-1.8c0-0.9,0.3-1.8,0.8-2.7c0.5-0.9,1.2-1.6,2-2.1c0.8-0.5,1.7-0.8,2.5-0.8c0.6,0,1.1,0.1,1.4,0.4
							c0.3,0.3,0.5,0.6,0.5,0.9c0,0.5-0.2,1-0.6,1.4c-0.5,0.6-1.3,1.1-2.3,1.4C156.5,396.6,155.5,396.8,154.3,397z M154.4,396.5
							c0.9-0.1,1.6-0.3,2.1-0.5c0.7-0.3,1.3-0.7,1.6-1.2c0.4-0.5,0.5-0.9,0.5-1.3c0-0.2-0.1-0.4-0.2-0.6c-0.2-0.2-0.4-0.2-0.7-0.2
							c-0.6,0-1.2,0.3-1.9,1C155.2,394.3,154.7,395.3,154.4,396.5z"/>
						<path style="fill:#FFFFFF;" d="M163.4,391.6l-0.2,0.7h-2.7l0.2-0.7H163.4z"/>
					</g>
				</g>
				<g>
					<circle style="fill:#00D814;" cx="133.1" cy="396.1" r="9"/>
					<g>
						<path style="fill:#FFFFFF;" d="M129.3,397c0,0.3-0.1,0.5-0.1,0.7c0,0.5,0.2,1,0.6,1.3c0.4,0.4,0.8,0.6,1.4,0.6
							c0.4,0,0.8-0.1,1.2-0.3c0.4-0.2,1-0.6,1.7-1.2l0.2,0.3c-1.4,1.4-2.7,2.1-4,2.1c-0.9,0-1.5-0.3-1.9-0.8
							c-0.4-0.5-0.7-1.1-0.7-1.8c0-0.9,0.3-1.8,0.8-2.7c0.5-0.9,1.2-1.6,2-2.1c0.8-0.5,1.7-0.8,2.5-0.8c0.6,0,1.1,0.1,1.4,0.4
							c0.3,0.3,0.5,0.6,0.5,0.9c0,0.5-0.2,1-0.6,1.4c-0.5,0.6-1.3,1.1-2.3,1.4C131.5,396.6,130.5,396.8,129.3,397z M129.4,396.5
							c0.9-0.1,1.6-0.3,2.1-0.5c0.7-0.3,1.3-0.7,1.6-1.2c0.4-0.5,0.5-0.9,0.5-1.3c0-0.2-0.1-0.4-0.2-0.6c-0.2-0.2-0.4-0.2-0.7-0.2
							c-0.6,0-1.2,0.3-1.9,1C130.2,394.3,129.7,395.3,129.4,396.5z"/>
						<path style="fill:#FFFFFF;" d="M138.4,391.6l-0.2,0.7h-2.7l0.2-0.7H138.4z"/>
					</g>
				</g>
			</g>
			<g>
				<g>
					<circle style="fill:#00D814;" cx="233.1" cy="371.1" r="9"/>
					<g>
						<path style="fill:#FFFFFF;" d="M229.3,372c0,0.3-0.1,0.5-0.1,0.7c0,0.5,0.2,1,0.6,1.3c0.4,0.4,0.8,0.6,1.4,0.6
							c0.4,0,0.8-0.1,1.2-0.3c0.4-0.2,1-0.6,1.7-1.2l0.2,0.3c-1.4,1.4-2.7,2.1-4,2.1c-0.9,0-1.5-0.3-1.9-0.8
							c-0.4-0.5-0.7-1.1-0.7-1.8c0-0.9,0.3-1.8,0.8-2.7c0.5-0.9,1.2-1.6,2-2.1c0.8-0.5,1.7-0.8,2.5-0.8c0.6,0,1.1,0.1,1.4,0.4
							c0.3,0.3,0.5,0.6,0.5,0.9c0,0.5-0.2,1-0.6,1.4c-0.5,0.6-1.3,1.1-2.3,1.4C231.5,371.6,230.5,371.8,229.3,372z M229.4,371.5
							c0.9-0.1,1.6-0.3,2.1-0.5c0.7-0.3,1.3-0.7,1.6-1.2c0.4-0.5,0.5-0.9,0.5-1.3c0-0.2-0.1-0.4-0.2-0.6c-0.2-0.2-0.4-0.2-0.7-0.2
							c-0.6,0-1.2,0.3-1.9,1C230.2,369.3,229.7,370.3,229.4,371.5z"/>
						<path style="fill:#FFFFFF;" d="M238.4,366.6l-0.2,0.7h-2.7l0.2-0.7H238.4z"/>
					</g>
				</g>
				<g>
					<circle style="fill:#00D814;" cx="208.1" cy="371.1" r="9"/>
					<g>
						<path style="fill:#FFFFFF;" d="M204.3,372c0,0.3-0.1,0.5-0.1,0.7c0,0.5,0.2,1,0.6,1.3c0.4,0.4,0.8,0.6,1.4,0.6
							c0.4,0,0.8-0.1,1.2-0.3c0.4-0.2,1-0.6,1.7-1.2l0.2,0.3c-1.4,1.4-2.7,2.1-4,2.1c-0.9,0-1.5-0.3-1.9-0.8
							c-0.4-0.5-0.7-1.1-0.7-1.8c0-0.9,0.3-1.8,0.8-2.7c0.5-0.9,1.2-1.6,2-2.1c0.8-0.5,1.7-0.8,2.5-0.8c0.6,0,1.1,0.1,1.4,0.4
							c0.3,0.3,0.5,0.6,0.5,0.9c0,0.5-0.2,1-0.6,1.4c-0.5,0.6-1.3,1.1-2.3,1.4C206.5,371.6,205.5,371.8,204.3,372z M204.4,371.5
							c0.9-0.1,1.6-0.3,2.1-0.5c0.7-0.3,1.3-0.7,1.6-1.2c0.4-0.5,0.5-0.9,0.5-1.3c0-0.2-0.1-0.4-0.2-0.6c-0.2-0.2-0.4-0.2-0.7-0.2
							c-0.6,0-1.2,0.3-1.9,1C205.2,369.3,204.7,370.3,204.4,371.5z"/>
						<path style="fill:#FFFFFF;" d="M213.4,366.6l-0.2,0.7h-2.7l0.2-0.7H213.4z"/>
					</g>
				</g>
				<g>
					<circle style="fill:#00D814;" cx="183.1" cy="371.1" r="9"/>
					<g>
						<path style="fill:#FFFFFF;" d="M179.3,372c0,0.3-0.1,0.5-0.1,0.7c0,0.5,0.2,1,0.6,1.3c0.4,0.4,0.8,0.6,1.4,0.6
							c0.4,0,0.8-0.1,1.2-0.3c0.4-0.2,1-0.6,1.7-1.2l0.2,0.3c-1.4,1.4-2.7,2.1-4,2.1c-0.9,0-1.5-0.3-1.9-0.8
							c-0.4-0.5-0.7-1.1-0.7-1.8c0-0.9,0.3-1.8,0.8-2.7c0.5-0.9,1.2-1.6,2-2.1c0.8-0.5,1.7-0.8,2.5-0.8c0.6,0,1.1,0.1,1.4,0.4
							c0.3,0.3,0.5,0.6,0.5,0.9c0,0.5-0.2,1-0.6,1.4c-0.5,0.6-1.3,1.1-2.3,1.4C181.5,371.6,180.5,371.8,179.3,372z M179.4,371.5
							c0.9-0.1,1.6-0.3,2.1-0.5c0.7-0.3,1.3-0.7,1.6-1.2c0.4-0.5,0.5-0.9,0.5-1.3c0-0.2-0.1-0.4-0.2-0.6c-0.2-0.2-0.4-0.2-0.7-0.2
							c-0.6,0-1.2,0.3-1.9,1C180.2,369.3,179.7,370.3,179.4,371.5z"/>
						<path style="fill:#FFFFFF;" d="M188.4,366.6l-0.2,0.7h-2.7l0.2-0.7H188.4z"/>
					</g>
				</g>
				<g>
					<circle style="fill:#00D814;" cx="158.1" cy="371.1" r="9"/>
					<g>
						<path style="fill:#FFFFFF;" d="M154.3,372c0,0.3-0.1,0.5-0.1,0.7c0,0.5,0.2,1,0.6,1.3c0.4,0.4,0.8,0.6,1.4,0.6
							c0.4,0,0.8-0.1,1.2-0.3c0.4-0.2,1-0.6,1.7-1.2l0.2,0.3c-1.4,1.4-2.7,2.1-4,2.1c-0.9,0-1.5-0.3-1.9-0.8
							c-0.4-0.5-0.7-1.1-0.7-1.8c0-0.9,0.3-1.8,0.8-2.7c0.5-0.9,1.2-1.6,2-2.1c0.8-0.5,1.7-0.8,2.5-0.8c0.6,0,1.1,0.1,1.4,0.4
							c0.3,0.3,0.5,0.6,0.5,0.9c0,0.5-0.2,1-0.6,1.4c-0.5,0.6-1.3,1.1-2.3,1.4C156.5,371.6,155.5,371.8,154.3,372z M154.4,371.5
							c0.9-0.1,1.6-0.3,2.1-0.5c0.7-0.3,1.3-0.7,1.6-1.2c0.4-0.5,0.5-0.9,0.5-1.3c0-0.2-0.1-0.4-0.2-0.6c-0.2-0.2-0.4-0.2-0.7-0.2
							c-0.6,0-1.2,0.3-1.9,1C155.2,369.3,154.7,370.3,154.4,371.5z"/>
						<path style="fill:#FFFFFF;" d="M163.4,366.6l-0.2,0.7h-2.7l0.2-0.7H163.4z"/>
					</g>
				</g>
				<g>
					<circle style="fill:#00D814;" cx="133.1" cy="371.1" r="9"/>
					<g>
						<path style="fill:#FFFFFF;" d="M129.3,372c0,0.3-0.1,0.5-0.1,0.7c0,0.5,0.2,1,0.6,1.3c0.4,0.4,0.8,0.6,1.4,0.6
							c0.4,0,0.8-0.1,1.2-0.3c0.4-0.2,1-0.6,1.7-1.2l0.2,0.3c-1.4,1.4-2.7,2.1-4,2.1c-0.9,0-1.5-0.3-1.9-0.8
							c-0.4-0.5-0.7-1.1-0.7-1.8c0-0.9,0.3-1.8,0.8-2.7c0.5-0.9,1.2-1.6,2-2.1c0.8-0.5,1.7-0.8,2.5-0.8c0.6,0,1.1,0.1,1.4,0.4
							c0.3,0.3,0.5,0.6,0.5,0.9c0,0.5-0.2,1-0.6,1.4c-0.5,0.6-1.3,1.1-2.3,1.4C131.5,371.6,130.5,371.8,129.3,372z M129.4,371.5
							c0.9-0.1,1.6-0.3,2.1-0.5c0.7-0.3,1.3-0.7,1.6-1.2c0.4-0.5,0.5-0.9,0.5-1.3c0-0.2-0.1-0.4-0.2-0.6c-0.2-0.2-0.4-0.2-0.7-0.2
							c-0.6,0-1.2,0.3-1.9,1C130.2,369.3,129.7,370.3,129.4,371.5z"/>
						<path style="fill:#FFFFFF;" d="M138.4,366.6l-0.2,0.7h-2.7l0.2-0.7H138.4z"/>
					</g>
				</g>
			</g>
			<g>
				<g>
					<circle style="fill:#00D814;" cx="233.1" cy="346.1" r="9"/>
					<g>
						<path style="fill:#FFFFFF;" d="M229.3,347c0,0.3-0.1,0.5-0.1,0.7c0,0.5,0.2,1,0.6,1.3c0.4,0.4,0.8,0.6,1.4,0.6
							c0.4,0,0.8-0.1,1.2-0.3c0.4-0.2,1-0.6,1.7-1.2l0.2,0.3c-1.4,1.4-2.7,2.1-4,2.1c-0.9,0-1.5-0.3-1.9-0.8
							c-0.4-0.5-0.7-1.1-0.7-1.8c0-0.9,0.3-1.8,0.8-2.7c0.5-0.9,1.2-1.6,2-2.1c0.8-0.5,1.7-0.8,2.5-0.8c0.6,0,1.1,0.1,1.4,0.4
							c0.3,0.3,0.5,0.6,0.5,0.9c0,0.5-0.2,1-0.6,1.4c-0.5,0.6-1.3,1.1-2.3,1.4C231.5,346.6,230.5,346.8,229.3,347z M229.4,346.5
							c0.9-0.1,1.6-0.3,2.1-0.5c0.7-0.3,1.3-0.7,1.6-1.2c0.4-0.5,0.5-0.9,0.5-1.3c0-0.2-0.1-0.4-0.2-0.6c-0.2-0.2-0.4-0.2-0.7-0.2
							c-0.6,0-1.2,0.3-1.9,1C230.2,344.3,229.7,345.3,229.4,346.5z"/>
						<path style="fill:#FFFFFF;" d="M238.4,341.6l-0.2,0.7h-2.7l0.2-0.7H238.4z"/>
					</g>
				</g>
				<g>
					<circle style="fill:#00D814;" cx="208.1" cy="346.1" r="9"/>
					<g>
						<path style="fill:#FFFFFF;" d="M204.3,347c0,0.3-0.1,0.5-0.1,0.7c0,0.5,0.2,1,0.6,1.3c0.4,0.4,0.8,0.6,1.4,0.6
							c0.4,0,0.8-0.1,1.2-0.3c0.4-0.2,1-0.6,1.7-1.2l0.2,0.3c-1.4,1.4-2.7,2.1-4,2.1c-0.9,0-1.5-0.3-1.9-0.8
							c-0.4-0.5-0.7-1.1-0.7-1.8c0-0.9,0.3-1.8,0.8-2.7c0.5-0.9,1.2-1.6,2-2.1c0.8-0.5,1.7-0.8,2.5-0.8c0.6,0,1.1,0.1,1.4,0.4
							c0.3,0.3,0.5,0.6,0.5,0.9c0,0.5-0.2,1-0.6,1.4c-0.5,0.6-1.3,1.1-2.3,1.4C206.5,346.6,205.5,346.8,204.3,347z M204.4,346.5
							c0.9-0.1,1.6-0.3,2.1-0.5c0.7-0.3,1.3-0.7,1.6-1.2c0.4-0.5,0.5-0.9,0.5-1.3c0-0.2-0.1-0.4-0.2-0.6c-0.2-0.2-0.4-0.2-0.7-0.2
							c-0.6,0-1.2,0.3-1.9,1C205.2,344.3,204.7,345.3,204.4,346.5z"/>
						<path style="fill:#FFFFFF;" d="M213.4,341.6l-0.2,0.7h-2.7l0.2-0.7H213.4z"/>
					</g>
				</g>
				<g>
					<circle style="fill:#00D814;" cx="183.1" cy="346.1" r="9"/>
					<g>
						<path style="fill:#FFFFFF;" d="M179.3,347c0,0.3-0.1,0.5-0.1,0.7c0,0.5,0.2,1,0.6,1.3c0.4,0.4,0.8,0.6,1.4,0.6
							c0.4,0,0.8-0.1,1.2-0.3c0.4-0.2,1-0.6,1.7-1.2l0.2,0.3c-1.4,1.4-2.7,2.1-4,2.1c-0.9,0-1.5-0.3-1.9-0.8
							c-0.4-0.5-0.7-1.1-0.7-1.8c0-0.9,0.3-1.8,0.8-2.7c0.5-0.9,1.2-1.6,2-2.1c0.8-0.5,1.7-0.8,2.5-0.8c0.6,0,1.1,0.1,1.4,0.4
							c0.3,0.3,0.5,0.6,0.5,0.9c0,0.5-0.2,1-0.6,1.4c-0.5,0.6-1.3,1.1-2.3,1.4C181.5,346.6,180.5,346.8,179.3,347z M179.4,346.5
							c0.9-0.1,1.6-0.3,2.1-0.5c0.7-0.3,1.3-0.7,1.6-1.2c0.4-0.5,0.5-0.9,0.5-1.3c0-0.2-0.1-0.4-0.2-0.6c-0.2-0.2-0.4-0.2-0.7-0.2
							c-0.6,0-1.2,0.3-1.9,1C180.2,344.3,179.7,345.3,179.4,346.5z"/>
						<path style="fill:#FFFFFF;" d="M188.4,341.6l-0.2,0.7h-2.7l0.2-0.7H188.4z"/>
					</g>
				</g>
				<g>
					<circle style="fill:#00D814;" cx="158.1" cy="346.1" r="9"/>
					<g>
						<path style="fill:#FFFFFF;" d="M154.3,347c0,0.3-0.1,0.5-0.1,0.7c0,0.5,0.2,1,0.6,1.3c0.4,0.4,0.8,0.6,1.4,0.6
							c0.4,0,0.8-0.1,1.2-0.3c0.4-0.2,1-0.6,1.7-1.2l0.2,0.3c-1.4,1.4-2.7,2.1-4,2.1c-0.9,0-1.5-0.3-1.9-0.8
							c-0.4-0.5-0.7-1.1-0.7-1.8c0-0.9,0.3-1.8,0.8-2.7c0.5-0.9,1.2-1.6,2-2.1c0.8-0.5,1.7-0.8,2.5-0.8c0.6,0,1.1,0.1,1.4,0.4
							c0.3,0.3,0.5,0.6,0.5,0.9c0,0.5-0.2,1-0.6,1.4c-0.5,0.6-1.3,1.1-2.3,1.4C156.5,346.6,155.5,346.8,154.3,347z M154.4,346.5
							c0.9-0.1,1.6-0.3,2.1-0.5c0.7-0.3,1.3-0.7,1.6-1.2c0.4-0.5,0.5-0.9,0.5-1.3c0-0.2-0.1-0.4-0.2-0.6c-0.2-0.2-0.4-0.2-0.7-0.2
							c-0.6,0-1.2,0.3-1.9,1C155.2,344.3,154.7,345.3,154.4,346.5z"/>
						<path style="fill:#FFFFFF;" d="M163.4,341.6l-0.2,0.7h-2.7l0.2-0.7H163.4z"/>
					</g>
				</g>
				<g>
					<circle style="fill:#00D814;" cx="133.1" cy="346.1" r="9"/>
					<g>
						<path style="fill:#FFFFFF;" d="M129.3,347c0,0.3-0.1,0.5-0.1,0.7c0,0.5,0.2,1,0.6,1.3c0.4,0.4,0.8,0.6,1.4,0.6
							c0.4,0,0.8-0.1,1.2-0.3c0.4-0.2,1-0.6,1.7-1.2l0.2,0.3c-1.4,1.4-2.7,2.1-4,2.1c-0.9,0-1.5-0.3-1.9-0.8
							c-0.4-0.5-0.7-1.1-0.7-1.8c0-0.9,0.3-1.8,0.8-2.7c0.5-0.9,1.2-1.6,2-2.1c0.8-0.5,1.7-0.8,2.5-0.8c0.6,0,1.1,0.1,1.4,0.4
							c0.3,0.3,0.5,0.6,0.5,0.9c0,0.5-0.2,1-0.6,1.4c-0.5,0.6-1.3,1.1-2.3,1.4C131.5,346.6,130.5,346.8,129.3,347z M129.4,346.5
							c0.9-0.1,1.6-0.3,2.1-0.5c0.7-0.3,1.3-0.7,1.6-1.2c0.4-0.5,0.5-0.9,0.5-1.3c0-0.2-0.1-0.4-0.2-0.6c-0.2-0.2-0.4-0.2-0.7-0.2
							c-0.6,0-1.2,0.3-1.9,1C130.2,344.3,129.7,345.3,129.4,346.5z"/>
						<path style="fill:#FFFFFF;" d="M138.4,341.6l-0.2,0.7h-2.7l0.2-0.7H138.4z"/>
					</g>
				</g>
			</g>
			<g>
				<g>
					<circle style="fill:#00D814;" cx="233.1" cy="321.1" r="9"/>
					<g>
						<path style="fill:#FFFFFF;" d="M229.3,322c0,0.3-0.1,0.5-0.1,0.7c0,0.5,0.2,1,0.6,1.3c0.4,0.4,0.8,0.6,1.4,0.6
							c0.4,0,0.8-0.1,1.2-0.3c0.4-0.2,1-0.6,1.7-1.2l0.2,0.3c-1.4,1.4-2.7,2.1-4,2.1c-0.9,0-1.5-0.3-1.9-0.8
							c-0.4-0.5-0.7-1.1-0.7-1.8c0-0.9,0.3-1.8,0.8-2.7c0.5-0.9,1.2-1.6,2-2.1c0.8-0.5,1.7-0.8,2.5-0.8c0.6,0,1.1,0.1,1.4,0.4
							c0.3,0.3,0.5,0.6,0.5,0.9c0,0.5-0.2,1-0.6,1.4c-0.5,0.6-1.3,1.1-2.3,1.4C231.5,321.6,230.5,321.8,229.3,322z M229.4,321.5
							c0.9-0.1,1.6-0.3,2.1-0.5c0.7-0.3,1.3-0.7,1.6-1.2c0.4-0.5,0.5-0.9,0.5-1.3c0-0.2-0.1-0.4-0.2-0.6c-0.2-0.2-0.4-0.2-0.7-0.2
							c-0.6,0-1.2,0.3-1.9,1C230.2,319.3,229.7,320.3,229.4,321.5z"/>
						<path style="fill:#FFFFFF;" d="M238.4,316.6l-0.2,0.7h-2.7l0.2-0.7H238.4z"/>
					</g>
				</g>
				<g>
					<circle style="fill:#00D814;" cx="208.1" cy="321.1" r="9"/>
					<g>
						<path style="fill:#FFFFFF;" d="M204.3,322c0,0.3-0.1,0.5-0.1,0.7c0,0.5,0.2,1,0.6,1.3c0.4,0.4,0.8,0.6,1.4,0.6
							c0.4,0,0.8-0.1,1.2-0.3c0.4-0.2,1-0.6,1.7-1.2l0.2,0.3c-1.4,1.4-2.7,2.1-4,2.1c-0.9,0-1.5-0.3-1.9-0.8
							c-0.4-0.5-0.7-1.1-0.7-1.8c0-0.9,0.3-1.8,0.8-2.7c0.5-0.9,1.2-1.6,2-2.1c0.8-0.5,1.7-0.8,2.5-0.8c0.6,0,1.1,0.1,1.4,0.4
							c0.3,0.3,0.5,0.6,0.5,0.9c0,0.5-0.2,1-0.6,1.4c-0.5,0.6-1.3,1.1-2.3,1.4C206.5,321.6,205.5,321.8,204.3,322z M204.4,321.5
							c0.9-0.1,1.6-0.3,2.1-0.5c0.7-0.3,1.3-0.7,1.6-1.2c0.4-0.5,0.5-0.9,0.5-1.3c0-0.2-0.1-0.4-0.2-0.6c-0.2-0.2-0.4-0.2-0.7-0.2
							c-0.6,0-1.2,0.3-1.9,1C205.2,319.3,204.7,320.3,204.4,321.5z"/>
						<path style="fill:#FFFFFF;" d="M213.4,316.6l-0.2,0.7h-2.7l0.2-0.7H213.4z"/>
					</g>
				</g>
				<g>
					<circle style="fill:#00D814;" cx="183.1" cy="321.1" r="9"/>
					<g>
						<path style="fill:#FFFFFF;" d="M179.3,322c0,0.3-0.1,0.5-0.1,0.7c0,0.5,0.2,1,0.6,1.3c0.4,0.4,0.8,0.6,1.4,0.6
							c0.4,0,0.8-0.1,1.2-0.3c0.4-0.2,1-0.6,1.7-1.2l0.2,0.3c-1.4,1.4-2.7,2.1-4,2.1c-0.9,0-1.5-0.3-1.9-0.8
							c-0.4-0.5-0.7-1.1-0.7-1.8c0-0.9,0.3-1.8,0.8-2.7c0.5-0.9,1.2-1.6,2-2.1c0.8-0.5,1.7-0.8,2.5-0.8c0.6,0,1.1,0.1,1.4,0.4
							c0.3,0.3,0.5,0.6,0.5,0.9c0,0.5-0.2,1-0.6,1.4c-0.5,0.6-1.3,1.1-2.3,1.4C181.5,321.6,180.5,321.8,179.3,322z M179.4,321.5
							c0.9-0.1,1.6-0.3,2.1-0.5c0.7-0.3,1.3-0.7,1.6-1.2c0.4-0.5,0.5-0.9,0.5-1.3c0-0.2-0.1-0.4-0.2-0.6c-0.2-0.2-0.4-0.2-0.7-0.2
							c-0.6,0-1.2,0.3-1.9,1C180.2,319.3,179.7,320.3,179.4,321.5z"/>
						<path style="fill:#FFFFFF;" d="M188.4,316.6l-0.2,0.7h-2.7l0.2-0.7H188.4z"/>
					</g>
				</g>
				<g>
					<circle style="fill:#00D814;" cx="158.1" cy="321.1" r="9"/>
					<g>
						<path style="fill:#FFFFFF;" d="M154.3,322c0,0.3-0.1,0.5-0.1,0.7c0,0.5,0.2,1,0.6,1.3c0.4,0.4,0.8,0.6,1.4,0.6
							c0.4,0,0.8-0.1,1.2-0.3c0.4-0.2,1-0.6,1.7-1.2l0.2,0.3c-1.4,1.4-2.7,2.1-4,2.1c-0.9,0-1.5-0.3-1.9-0.8
							c-0.4-0.5-0.7-1.1-0.7-1.8c0-0.9,0.3-1.8,0.8-2.7c0.5-0.9,1.2-1.6,2-2.1c0.8-0.5,1.7-0.8,2.5-0.8c0.6,0,1.1,0.1,1.4,0.4
							c0.3,0.3,0.5,0.6,0.5,0.9c0,0.5-0.2,1-0.6,1.4c-0.5,0.6-1.3,1.1-2.3,1.4C156.5,321.6,155.5,321.8,154.3,322z M154.4,321.5
							c0.9-0.1,1.6-0.3,2.1-0.5c0.7-0.3,1.3-0.7,1.6-1.2c0.4-0.5,0.5-0.9,0.5-1.3c0-0.2-0.1-0.4-0.2-0.6c-0.2-0.2-0.4-0.2-0.7-0.2
							c-0.6,0-1.2,0.3-1.9,1C155.2,319.3,154.7,320.3,154.4,321.5z"/>
						<path style="fill:#FFFFFF;" d="M163.4,316.6l-0.2,0.7h-2.7l0.2-0.7H163.4z"/>
					</g>
				</g>
				<g>
					<circle style="fill:#00D814;" cx="133.1" cy="321.1" r="9"/>
					<g>
						<path style="fill:#FFFFFF;" d="M129.3,322c0,0.3-0.1,0.5-0.1,0.7c0,0.5,0.2,1,0.6,1.3c0.4,0.4,0.8,0.6,1.4,0.6
							c0.4,0,0.8-0.1,1.2-0.3c0.4-0.2,1-0.6,1.7-1.2l0.2,0.3c-1.4,1.4-2.7,2.1-4,2.1c-0.9,0-1.5-0.3-1.9-0.8
							c-0.4-0.5-0.7-1.1-0.7-1.8c0-0.9,0.3-1.8,0.8-2.7c0.5-0.9,1.2-1.6,2-2.1c0.8-0.5,1.7-0.8,2.5-0.8c0.6,0,1.1,0.1,1.4,0.4
							c0.3,0.3,0.5,0.6,0.5,0.9c0,0.5-0.2,1-0.6,1.4c-0.5,0.6-1.3,1.1-2.3,1.4C131.5,321.6,130.5,321.8,129.3,322z M129.4,321.5
							c0.9-0.1,1.6-0.3,2.1-0.5c0.7-0.3,1.3-0.7,1.6-1.2c0.4-0.5,0.5-0.9,0.5-1.3c0-0.2-0.1-0.4-0.2-0.6c-0.2-0.2-0.4-0.2-0.7-0.2
							c-0.6,0-1.2,0.3-1.9,1C130.2,319.3,129.7,320.3,129.4,321.5z"/>
						<path style="fill:#FFFFFF;" d="M138.4,316.6l-0.2,0.7h-2.7l0.2-0.7H138.4z"/>
					</g>
				</g>
			</g>
			<g>
				<g>
					<circle style="fill:#00D814;" cx="233.1" cy="296.1" r="9"/>
					<g>
						<path style="fill:#FFFFFF;" d="M229.3,297c0,0.3-0.1,0.5-0.1,0.7c0,0.5,0.2,1,0.6,1.3c0.4,0.4,0.8,0.6,1.4,0.6
							c0.4,0,0.8-0.1,1.2-0.3c0.4-0.2,1-0.6,1.7-1.2l0.2,0.3c-1.4,1.4-2.7,2.1-4,2.1c-0.9,0-1.5-0.3-1.9-0.8
							c-0.4-0.5-0.7-1.1-0.7-1.8c0-0.9,0.3-1.8,0.8-2.7c0.5-0.9,1.2-1.6,2-2.1c0.8-0.5,1.7-0.8,2.5-0.8c0.6,0,1.1,0.1,1.4,0.4
							c0.3,0.3,0.5,0.6,0.5,0.9c0,0.5-0.2,1-0.6,1.4c-0.5,0.6-1.3,1.1-2.3,1.4C231.5,296.6,230.5,296.8,229.3,297z M229.4,296.5
							c0.9-0.1,1.6-0.3,2.1-0.5c0.7-0.3,1.3-0.7,1.6-1.2c0.4-0.5,0.5-0.9,0.5-1.3c0-0.2-0.1-0.4-0.2-0.6c-0.2-0.2-0.4-0.2-0.7-0.2
							c-0.6,0-1.2,0.3-1.9,1C230.2,294.3,229.7,295.3,229.4,296.5z"/>
						<path style="fill:#FFFFFF;" d="M238.4,291.6l-0.2,0.7h-2.7l0.2-0.7H238.4z"/>
					</g>
				</g>
				<g>
					<circle style="fill:#00D814;" cx="208.1" cy="296.1" r="9"/>
					<g>
						<path style="fill:#FFFFFF;" d="M204.3,297c0,0.3-0.1,0.5-0.1,0.7c0,0.5,0.2,1,0.6,1.3c0.4,0.4,0.8,0.6,1.4,0.6
							c0.4,0,0.8-0.1,1.2-0.3c0.4-0.2,1-0.6,1.7-1.2l0.2,0.3c-1.4,1.4-2.7,2.1-4,2.1c-0.9,0-1.5-0.3-1.9-0.8
							c-0.4-0.5-0.7-1.1-0.7-1.8c0-0.9,0.3-1.8,0.8-2.7c0.5-0.9,1.2-1.6,2-2.1c0.8-0.5,1.7-0.8,2.5-0.8c0.6,0,1.1,0.1,1.4,0.4
							c0.3,0.3,0.5,0.6,0.5,0.9c0,0.5-0.2,1-0.6,1.4c-0.5,0.6-1.3,1.1-2.3,1.4C206.5,296.6,205.5,296.8,204.3,297z M204.4,296.5
							c0.9-0.1,1.6-0.3,2.1-0.5c0.7-0.3,1.3-0.7,1.6-1.2c0.4-0.5,0.5-0.9,0.5-1.3c0-0.2-0.1-0.4-0.2-0.6c-0.2-0.2-0.4-0.2-0.7-0.2
							c-0.6,0-1.2,0.3-1.9,1C205.2,294.3,204.7,295.3,204.4,296.5z"/>
						<path style="fill:#FFFFFF;" d="M213.4,291.6l-0.2,0.7h-2.7l0.2-0.7H213.4z"/>
					</g>
				</g>
				<g>
					<circle style="fill:#00D814;" cx="183.1" cy="296.1" r="9"/>
					<g>
						<path style="fill:#FFFFFF;" d="M179.3,297c0,0.3-0.1,0.5-0.1,0.7c0,0.5,0.2,1,0.6,1.3c0.4,0.4,0.8,0.6,1.4,0.6
							c0.4,0,0.8-0.1,1.2-0.3c0.4-0.2,1-0.6,1.7-1.2l0.2,0.3c-1.4,1.4-2.7,2.1-4,2.1c-0.9,0-1.5-0.3-1.9-0.8
							c-0.4-0.5-0.7-1.1-0.7-1.8c0-0.9,0.3-1.8,0.8-2.7c0.5-0.9,1.2-1.6,2-2.1c0.8-0.5,1.7-0.8,2.5-0.8c0.6,0,1.1,0.1,1.4,0.4
							c0.3,0.3,0.5,0.6,0.5,0.9c0,0.5-0.2,1-0.6,1.4c-0.5,0.6-1.3,1.1-2.3,1.4C181.5,296.6,180.5,296.8,179.3,297z M179.4,296.5
							c0.9-0.1,1.6-0.3,2.1-0.5c0.7-0.3,1.3-0.7,1.6-1.2c0.4-0.5,0.5-0.9,0.5-1.3c0-0.2-0.1-0.4-0.2-0.6c-0.2-0.2-0.4-0.2-0.7-0.2
							c-0.6,0-1.2,0.3-1.9,1C180.2,294.3,179.7,295.3,179.4,296.5z"/>
						<path style="fill:#FFFFFF;" d="M188.4,291.6l-0.2,0.7h-2.7l0.2-0.7H188.4z"/>
					</g>
				</g>
				<g>
					<circle style="fill:#00D814;" cx="158.1" cy="296.1" r="9"/>
					<g>
						<path style="fill:#FFFFFF;" d="M154.3,297c0,0.3-0.1,0.5-0.1,0.7c0,0.5,0.2,1,0.6,1.3c0.4,0.4,0.8,0.6,1.4,0.6
							c0.4,0,0.8-0.1,1.2-0.3c0.4-0.2,1-0.6,1.7-1.2l0.2,0.3c-1.4,1.4-2.7,2.1-4,2.1c-0.9,0-1.5-0.3-1.9-0.8
							c-0.4-0.5-0.7-1.1-0.7-1.8c0-0.9,0.3-1.8,0.8-2.7c0.5-0.9,1.2-1.6,2-2.1c0.8-0.5,1.7-0.8,2.5-0.8c0.6,0,1.1,0.1,1.4,0.4
							c0.3,0.3,0.5,0.6,0.5,0.9c0,0.5-0.2,1-0.6,1.4c-0.5,0.6-1.3,1.1-2.3,1.4C156.5,296.6,155.5,296.8,154.3,297z M154.4,296.5
							c0.9-0.1,1.6-0.3,2.1-0.5c0.7-0.3,1.3-0.7,1.6-1.2c0.4-0.5,0.5-0.9,0.5-1.3c0-0.2-0.1-0.4-0.2-0.6c-0.2-0.2-0.4-0.2-0.7-0.2
							c-0.6,0-1.2,0.3-1.9,1C155.2,294.3,154.7,295.3,154.4,296.5z"/>
						<path style="fill:#FFFFFF;" d="M163.4,291.6l-0.2,0.7h-2.7l0.2-0.7H163.4z"/>
					</g>
				</g>
				<g>
					<circle style="fill:#00D814;" cx="133.1" cy="296.1" r="9"/>
					<g>
						<path style="fill:#FFFFFF;" d="M129.3,297c0,0.3-0.1,0.5-0.1,0.7c0,0.5,0.2,1,0.6,1.3c0.4,0.4,0.8,0.6,1.4,0.6
							c0.4,0,0.8-0.1,1.2-0.3c0.4-0.2,1-0.6,1.7-1.2l0.2,0.3c-1.4,1.4-2.7,2.1-4,2.1c-0.9,0-1.5-0.3-1.9-0.8
							c-0.4-0.5-0.7-1.1-0.7-1.8c0-0.9,0.3-1.8,0.8-2.7c0.5-0.9,1.2-1.6,2-2.1c0.8-0.5,1.7-0.8,2.5-0.8c0.6,0,1.1,0.1,1.4,0.4
							c0.3,0.3,0.5,0.6,0.5,0.9c0,0.5-0.2,1-0.6,1.4c-0.5,0.6-1.3,1.1-2.3,1.4C131.5,296.6,130.5,296.8,129.3,297z M129.4,296.5
							c0.9-0.1,1.6-0.3,2.1-0.5c0.7-0.3,1.3-0.7,1.6-1.2c0.4-0.5,0.5-0.9,0.5-1.3c0-0.2-0.1-0.4-0.2-0.6c-0.2-0.2-0.4-0.2-0.7-0.2
							c-0.6,0-1.2,0.3-1.9,1C130.2,294.3,129.7,295.3,129.4,296.5z"/>
						<path style="fill:#FFFFFF;" d="M138.4,291.6l-0.2,0.7h-2.7l0.2-0.7H138.4z"/>
					</g>
				</g>
			</g>
		</g>
		<g>
			<g>
				<g>
					<circle style="fill:none;stroke:#A34141;stroke-miterlimit:10;" cx="233.1" cy="271.1" r="9"/>
					<g>
						<path style="fill:#A34141;" d="M237,271.6h-3.5v3.5h-1v-3.5h-3.5v-1h3.5v-3.5h1v3.5h3.5V271.6z"/>
					</g>
				</g>
				<g>
					<circle style="fill:none;stroke:#A34141;stroke-miterlimit:10;" cx="208.1" cy="271.1" r="9"/>
					<g>
						<path style="fill:#A34141;" d="M212,271.6h-3.5v3.5h-1v-3.5h-3.5v-1h3.5v-3.5h1v3.5h3.5V271.6z"/>
					</g>
				</g>
				<g>
					<circle style="fill:none;stroke:#A34141;stroke-miterlimit:10;" cx="183.1" cy="271.1" r="9"/>
					<g>
						<path style="fill:#A34141;" d="M187,271.6h-3.5v3.5h-1v-3.5h-3.5v-1h3.5v-3.5h1v3.5h3.5V271.6z"/>
					</g>
				</g>
				<g>
					<circle style="fill:none;stroke:#A34141;stroke-miterlimit:10;" cx="158.1" cy="271.1" r="9"/>
					<g>
						<path style="fill:#A34141;" d="M162,271.6h-3.5v3.5h-1v-3.5h-3.5v-1h3.5v-3.5h1v3.5h3.5V271.6z"/>
					</g>
				</g>
				<g>
					<circle style="fill:none;stroke:#A34141;stroke-miterlimit:10;" cx="133.1" cy="271.1" r="9"/>
					<g>
						<path style="fill:#A34141;" d="M137,271.6h-3.5v3.5h-1v-3.5h-3.5v-1h3.5v-3.5h1v3.5h3.5V271.6z"/>
					</g>
				</g>
			</g>
			<g>
				<g>
					<circle style="fill:none;stroke:#A34141;stroke-miterlimit:10;" cx="233.1" cy="246.1" r="9"/>
					<g>
						<path style="fill:#A34141;" d="M237,246.6h-3.5v3.5h-1v-3.5h-3.5v-1h3.5v-3.5h1v3.5h3.5V246.6z"/>
					</g>
				</g>
				<g>
					<circle style="fill:none;stroke:#A34141;stroke-miterlimit:10;" cx="208.1" cy="246.1" r="9"/>
					<g>
						<path style="fill:#A34141;" d="M212,246.6h-3.5v3.5h-1v-3.5h-3.5v-1h3.5v-3.5h1v3.5h3.5V246.6z"/>
					</g>
				</g>
				<g>
					<circle style="fill:none;stroke:#A34141;stroke-miterlimit:10;" cx="183.1" cy="246.1" r="9"/>
					<g>
						<path style="fill:#A34141;" d="M187,246.6h-3.5v3.5h-1v-3.5h-3.5v-1h3.5v-3.5h1v3.5h3.5V246.6z"/>
					</g>
				</g>
				<g>
					<circle style="fill:none;stroke:#A34141;stroke-miterlimit:10;" cx="158.1" cy="246.1" r="9"/>
					<g>
						<path style="fill:#A34141;" d="M162,246.6h-3.5v3.5h-1v-3.5h-3.5v-1h3.5v-3.5h1v3.5h3.5V246.6z"/>
					</g>
				</g>
				<g>
					<circle style="fill:none;stroke:#A34141;stroke-miterlimit:10;" cx="133.1" cy="246.1" r="9"/>
					<g>
						<path style="fill:#A34141;" d="M137,246.6h-3.5v3.5h-1v-3.5h-3.5v-1h3.5v-3.5h1v3.5h3.5V246.6z"/>
					</g>
				</g>
			</g>
		</g>
		<g>
			<g>
				<g>
					<circle style="fill:none;stroke:#86A040;stroke-miterlimit:10;" cx="233.1" cy="221.1" r="9"/>
					<g>
						<path style="fill:#86A040;" d="M237,221.6h-7.9v-1h7.9V221.6z"/>
					</g>
				</g>
				<g>
					<circle style="fill:none;stroke:#86A040;stroke-miterlimit:10;" cx="208.1" cy="221.1" r="9"/>
					<g>
						<path style="fill:#86A040;" d="M212,221.6h-7.9v-1h7.9V221.6z"/>
					</g>
				</g>
				<g>
					<circle style="fill:none;stroke:#86A040;stroke-miterlimit:10;" cx="183.1" cy="221.1" r="9"/>
					<g>
						<path style="fill:#86A040;" d="M187,221.6h-7.9v-1h7.9V221.6z"/>
					</g>
				</g>
				<g>
					<circle style="fill:none;stroke:#86A040;stroke-miterlimit:10;" cx="158.1" cy="221.1" r="9"/>
					<g>
						<path style="fill:#86A040;" d="M162,221.6h-7.9v-1h7.9V221.6z"/>
					</g>
				</g>
				<g>
					<circle style="fill:none;stroke:#86A040;stroke-miterlimit:10;" cx="133.1" cy="221.1" r="9"/>
					<g>
						<path style="fill:#86A040;" d="M137,221.6h-7.9v-1h7.9V221.6z"/>
					</g>
				</g>
			</g>
			<g>
				<g>
					<circle style="fill:none;stroke:#86A040;stroke-miterlimit:10;" cx="233.1" cy="196.1" r="9"/>
					<g>
						<path style="fill:#86A040;" d="M237,196.6h-7.9v-1h7.9V196.6z"/>
					</g>
				</g>
				<g>
					<circle style="fill:none;stroke:#86A040;stroke-miterlimit:10;" cx="208.1" cy="196.1" r="9"/>
					<g>
						<path style="fill:#86A040;" d="M212,196.6h-7.9v-1h7.9V196.6z"/>
					</g>
				</g>
				<g>
					<circle style="fill:none;stroke:#86A040;stroke-miterlimit:10;" cx="183.1" cy="196.1" r="9"/>
					<g>
						<path style="fill:#86A040;" d="M187,196.6h-7.9v-1h7.9V196.6z"/>
					</g>
				</g>
				<g>
					<circle style="fill:none;stroke:#86A040;stroke-miterlimit:10;" cx="158.1" cy="196.1" r="9"/>
					<g>
						<path style="fill:#86A040;" d="M162,196.6h-7.9v-1h7.9V196.6z"/>
					</g>
				</g>
				<g>
					<circle style="fill:none;stroke:#86A040;stroke-miterlimit:10;" cx="133.1" cy="196.1" r="9"/>
					<g>
						<path style="fill:#86A040;" d="M137,196.6h-7.9v-1h7.9V196.6z"/>
					</g>
				</g>
			</g>
		</g>
	</g>
	
		<rect x="6.6" y="169.6" transform="matrix(-1.836970e-16 1 -1 -1.836970e-16 416.6396 50.5004)" style="fill:none;stroke:#000000;stroke-width:1.4173;stroke-linecap:round;stroke-linejoin:round;stroke-miterlimit:10;" width="353" height="127.9"/>
	
		<line style="fill:none;stroke:#000000;stroke-width:1.4173;stroke-linecap:round;stroke-linejoin:round;stroke-miterlimit:10;" x1="247" y1="233.6" x2="119.1" y2="233.6"/>
</g>
<polyline style="fill:none;stroke:#000000;stroke-width:2.835;stroke-miterlimit:10;" points="183.7,56.2 183.7,31 67.2,31 
	67.2,93.8 "/>
<g>
	<line style="fill:none;stroke:#2189F9;stroke-width:2.8346;stroke-miterlimit:10;" x1="40.6" y1="180.4" x2="54" y2="180.4"/>
	<line style="fill:none;stroke:#2189F9;stroke-width:2.8346;stroke-miterlimit:10;" x1="47.3" y1="187.1" x2="47.3" y2="173.7"/>
</g>
<g>
	<g>
		<line style="fill:none;stroke:#2189F9;stroke-width:2.8346;stroke-miterlimit:10;" x1="67.2" y1="180.4" x2="67.2" y2="93.8"/>
		<g>
			<rect x="61.6" y="174.8" style="fill:#2189F9;" width="11.2" height="11.2"/>
		</g>
		<g>
			<path style="fill:#2189F9;" d="M71.4,93.8c0-2.4-1.9-4.3-4.3-4.3s-4.3,1.9-4.3,4.3c0,2.4,1.9,4.3,4.3,4.3S71.4,96.1,71.4,93.8z"
				/>
		</g>
	</g>
</g>
<polyline style="fill:none;stroke:#000000;stroke-width:2.835;stroke-miterlimit:10;" points="183.7,410.9 183.7,436.1 67.2,436.1 
	67.2,373.4 "/>
<g>
	<g>
		<line style="fill:none;stroke:#2189F9;stroke-width:2.8346;stroke-miterlimit:10;" x1="67.2" y1="286.7" x2="67.2" y2="373.4"/>
		<g>
			<rect x="61.6" y="281.1" style="fill:#2189F9;" width="11.2" height="11.2"/>
		</g>
		<g>
			<circle style="fill:#2189F9;" cx="67.2" cy="373.4" r="4.3"/>
		</g>
	</g>
</g>
</svg>
