<?xml version="1.0" encoding="utf-8"?>
<!-- Generator: Adobe Illustrator 27.0.0, SVG Export Plug-In . SVG Version: 6.00 Build 0)  -->
<svg version="1.1" id="Layer_1" xmlns="http://www.w3.org/2000/svg" xmlns:xlink="http://www.w3.org/1999/xlink" x="0px" y="0px"
	 width="412.1px" height="352.3px" viewBox="0 0 412.1 352.3" style="enable-background:new 0 0 412.1 352.3;" xml:space="preserve"
	>
<text transform="matrix(1 0 0 1 252.022 217.9699)" style="font-family:'TimesNewRomanPS-ItalicMT'; font-size:34.0157px;">V</text>
<text transform="matrix(0.583 0 0 0.583 272.8004 229.297)" style="font-family:'TimesNewRomanPS-ItalicMT'; font-size:34.0157px;">D</text>
<text transform="matrix(1 0 0 1 287.1216 217.9699)" style="font-family:'TimesNewRomanPS-ItalicMT'; font-size:34.0157px;"> &gt; V</text>
<text transform="matrix(0.583 0 0 0.583 347.8619 229.297)" style="font-family:'TimesNewRomanPS-ItalicMT'; font-size:34.0157px;">D,on</text>
<text transform="matrix(1 0 0 1 24.6738 215.6045)" style="font-family:'TimesNewRomanPS-ItalicMT'; font-size:34.0157px;">V</text>
<text transform="matrix(0.583 0 0 0.583 45.4521 226.9317)" style="font-family:'TimesNewRomanPS-ItalicMT'; font-size:34.0157px;">D</text>
<text transform="matrix(1 0 0 1 59.7734 215.6045)" style="font-family:'TimesNewRomanPS-ItalicMT'; font-size:34.0157px;"> &lt; V</text>
<text transform="matrix(0.583 0 0 0.583 120.5136 226.9317)" style="font-family:'TimesNewRomanPS-ItalicMT'; font-size:34.0157px;">D,on</text>
<g>
	<line style="fill:none;stroke:#000000;stroke-width:2.835;stroke-miterlimit:10;" x1="295.5" y1="182.6" x2="295.5" y2="130.6"/>
	<line style="fill:none;stroke:#000000;stroke-width:2.835;stroke-miterlimit:10;" x1="307" y1="169.1" x2="307" y2="144.1"/>
	<line style="fill:none;stroke:#000000;stroke-width:2.835;stroke-miterlimit:10;" x1="307" y1="156.6" x2="354.6" y2="156.6"/>
	<line style="fill:none;stroke:#000000;stroke-width:2.835;stroke-miterlimit:10;" x1="247.8" y1="156.6" x2="295.5" y2="156.6"/>
	<g>
		<line style="fill:none;stroke:#000000;stroke-width:2.835;stroke-miterlimit:10;" x1="278.5" y1="135.5" x2="289" y2="135.5"/>
		<line style="fill:none;stroke:#000000;stroke-width:2.835;stroke-miterlimit:10;" x1="283.7" y1="140.7" x2="283.7" y2="130.2"/>
	</g>
	<text transform="matrix(1 0 0 1 285.5453 120.1354)" style="font-family:'TimesNewRomanPS-ItalicMT'; font-size:39.685px;">V</text>
	
		<text transform="matrix(0.583 0 0 0.583 309.7865 133.3503)" style="font-family:'TimesNewRomanPS-ItalicMT'; font-size:39.685px;">D,on</text>
</g>
<text transform="matrix(1 0 0 1 132.7796 43.8321)" style="font-family:'TimesNewRomanPS-ItalicMT'; font-size:39.685px;">I</text>
<text transform="matrix(0.583 0 0 0.583 145.9954 57.047)" style="font-family:'TimesNewRomanPS-ItalicMT'; font-size:39.685px;">D</text>
<text transform="matrix(1 0 0 1 369.2558 325.7614)" style="font-family:'TimesNewRomanPS-ItalicMT'; font-size:39.685px;">V</text>
<text transform="matrix(0.583 0 0 0.583 393.497 338.9763)" style="font-family:'TimesNewRomanPS-ItalicMT'; font-size:39.685px;">D</text>
<text transform="matrix(1 0 0 1 202.8712 313.3485)" style="font-family:'TimesNewRomanPS-ItalicMT'; font-size:39.685px;">V</text>
<text transform="matrix(0.583 0 0 0.583 227.1124 326.5634)" style="font-family:'TimesNewRomanPS-ItalicMT'; font-size:39.685px;">D,on</text>
<g>
	<g>
		<line style="fill:none;stroke:#000000;stroke-width:2.835;stroke-miterlimit:10;" x1="182.7" y1="47.2" x2="182.7" y2="352.3"/>
		<g>
			<path d="M169.1,66.6c0.7,0.4,1.5,0.2,2-0.4l11.7-18.3l11.7,18.3c0.4,0.7,1.3,0.9,2,0.4c0.7-0.4,0.8-1.3,0.4-2l-12.8-20.2
				c-0.3-0.4-0.7-0.7-1.2-0.7c-0.5,0-0.9,0.2-1.2,0.7l-12.8,20.2c-0.1,0.2-0.2,0.5-0.2,0.8C168.4,65.9,168.6,66.3,169.1,66.6z"/>
		</g>
	</g>
</g>
<g>
	<g>
		<line style="fill:none;stroke:#000000;stroke-width:2.835;stroke-miterlimit:10;" x1="0" y1="276.1" x2="380.3" y2="276.1"/>
		<g>
			<path d="M360.9,289.7c-0.4-0.7-0.2-1.5,0.4-2l18.3-11.7l-18.3-11.7c-0.7-0.4-0.9-1.3-0.4-2c0.4-0.7,1.3-0.8,2-0.4l20.2,12.8
				c0.4,0.3,0.7,0.7,0.7,1.2s-0.2,0.9-0.7,1.2l-20.2,12.8c-0.2,0.1-0.5,0.2-0.8,0.2C361.7,290.4,361.2,290.1,360.9,289.7z"/>
		</g>
	</g>
</g>
<polyline style="fill:none;stroke:#00B6FF;stroke-width:2.835;stroke-miterlimit:10;" points="0,276.1 218.3,276.1 218.3,55 "/>
<g>
	<line style="fill:none;stroke:#000000;stroke-width:2.835;stroke-miterlimit:10;" x1="20.7" y1="156.6" x2="62.7" y2="156.6"/>
	<g>
		<g>
			<line style="fill:none;stroke:#000000;stroke-width:2.835;stroke-miterlimit:10;" x1="62.7" y1="156.6" x2="97.2" y2="135.1"/>
			<g>
				<path d="M64.9,160.2c-2,1.2-4.6,0.6-5.9-1.4s-0.6-4.6,1.4-5.9c2-1.2,4.6-0.6,5.9,1.4S66.9,158.9,64.9,160.2z"/>
			</g>
		</g>
	</g>
	<g>
		<g>
			<line style="fill:none;stroke:#000000;stroke-width:2.835;stroke-miterlimit:10;" x1="103.3" y1="156.6" x2="145.3" y2="156.6"/>
			<g>
				<circle cx="103.3" cy="156.6" r="4.3"/>
			</g>
		</g>
	</g>
</g>
</svg>
