<?xml version="1.0" encoding="utf-8"?>
<!-- Generator: Adobe Illustrator 27.0.0, SVG Export Plug-In . SVG Version: 6.00 Build 0)  -->
<svg version="1.1" id="Layer_1" xmlns="http://www.w3.org/2000/svg" xmlns:xlink="http://www.w3.org/1999/xlink" x="0px" y="0px"
	 width="432.6px" height="464px" viewBox="0 0 432.6 464" style="enable-background:new 0 0 432.6 464;" xml:space="preserve">
<g>
	<g>
		<g>
			<line style="fill:none;stroke:#000000;stroke-width:2.835;stroke-miterlimit:10;" x1="90.5" y1="267.2" x2="90.5" y2="323.6"/>
			<g>
				<path d="M86.3,323.6c0,2.4,1.9,4.3,4.3,4.3s4.3-1.9,4.3-4.3s-1.9-4.3-4.3-4.3S86.3,321.2,86.3,323.6z"/>
			</g>
		</g>
	</g>
	<g>
		<g>
			<line style="fill:none;stroke:#000000;stroke-width:2.835;stroke-miterlimit:10;" x1="90.5" y1="136.5" x2="90.5" y2="204.9"/>
			<g>
				<path d="M86.3,136.5c0-2.4,1.9-4.3,4.3-4.3s4.3,1.9,4.3,4.3c0,2.4-1.9,4.3-4.3,4.3S86.3,138.9,86.3,136.5z"/>
			</g>
		</g>
	</g>
	
		<circle style="fill-rule:evenodd;clip-rule:evenodd;fill:none;stroke:#000000;stroke-width:2.835;stroke-miterlimit:10;" cx="90.5" cy="236" r="31.2"/>
	<line style="fill:none;stroke:#000000;stroke-width:2.835;stroke-miterlimit:10;" x1="95" y1="250.5" x2="86" y2="250.5"/>
	<line style="fill:none;stroke:#000000;stroke-width:2.835;stroke-miterlimit:10;" x1="95" y1="222.1" x2="86" y2="222.1"/>
	<line style="fill:none;stroke:#000000;stroke-width:2.835;stroke-miterlimit:10;" x1="90.5" y1="246" x2="90.5" y2="255"/>
</g>
<text transform="matrix(1 0 0 1 9.4942 237.1171)" style="font-family:'TimesNewRomanPS-ItalicMT'; font-size:39.685px;">V</text>
<text transform="matrix(0.583 0 0 0.583 33.7354 250.3319)" style="font-family:'TimesNewRomanPS-ItalicMT'; font-size:39.685px;">R</text>
<rect x="206.4" y="35.6" transform="matrix(-1.836970e-16 1 -1 -1.836970e-16 259.7776 -154.3605)" style="fill-rule:evenodd;clip-rule:evenodd;fill:none;stroke:#000000;stroke-width:1.4173;stroke-linecap:round;stroke-linejoin:round;stroke-miterlimit:10;" width="1.4" height="34.2"/>
<rect x="206.4" y="390.3" transform="matrix(6.123234e-17 -1 1 6.123234e-17 -200.3198 614.4579)" style="fill-rule:evenodd;clip-rule:evenodd;fill:none;stroke:#000000;stroke-width:1.4173;stroke-linecap:round;stroke-linejoin:round;stroke-miterlimit:10;" width="1.4" height="34.2"/>
<g>
	
		<rect x="29.9" y="166.1" transform="matrix(-1.836970e-16 1 -1 -1.836970e-16 436.465 23.6324)" style="fill:none;stroke:#000000;stroke-width:1.4173;stroke-linecap:round;stroke-linejoin:round;stroke-miterlimit:10;" width="353" height="127.9"/>
	
		<line style="fill:none;stroke:#000000;stroke-width:1.4173;stroke-linecap:round;stroke-linejoin:round;stroke-miterlimit:10;" x1="270.4" y1="230" x2="142.4" y2="230"/>
	<g>
		<g>
			<g>
				<g>
					<circle style="fill:#F15A24;" cx="256.4" cy="142.5" r="9"/>
					<g>
						<path style="fill:#FFFFFF;" d="M260.4,143h-3.5v3.5h-1V143h-3.5v-1h3.5v-3.5h1v3.5h3.5V143z"/>
					</g>
				</g>
				<g>
					<circle style="fill:#F15A24;" cx="231.4" cy="142.5" r="9"/>
					<g>
						<path style="fill:#FFFFFF;" d="M235.4,143h-3.5v3.5h-1V143h-3.5v-1h3.5v-3.5h1v3.5h3.5V143z"/>
					</g>
				</g>
				<g>
					<circle style="fill:#F15A24;" cx="206.4" cy="142.5" r="9"/>
					<g>
						<path style="fill:#FFFFFF;" d="M210.4,143h-3.5v3.5h-1V143h-3.5v-1h3.5v-3.5h1v3.5h3.5V143z"/>
					</g>
				</g>
				<g>
					<circle style="fill:#F15A24;" cx="181.4" cy="142.5" r="9"/>
					<g>
						<path style="fill:#FFFFFF;" d="M185.4,143h-3.5v3.5h-1V143h-3.5v-1h3.5v-3.5h1v3.5h3.5V143z"/>
					</g>
				</g>
				<g>
					<circle style="fill:#F15A24;" cx="156.4" cy="142.5" r="9"/>
					<g>
						<path style="fill:#FFFFFF;" d="M160.4,143h-3.5v3.5h-1V143h-3.5v-1h3.5v-3.5h1v3.5h3.5V143z"/>
					</g>
				</g>
			</g>
			<g>
				<g>
					<circle style="fill:#F15A24;" cx="256.4" cy="117.5" r="9"/>
					<g>
						<path style="fill:#FFFFFF;" d="M260.4,118h-3.5v3.5h-1V118h-3.5v-1h3.5v-3.5h1v3.5h3.5V118z"/>
					</g>
				</g>
				<g>
					<circle style="fill:#F15A24;" cx="231.4" cy="117.5" r="9"/>
					<g>
						<path style="fill:#FFFFFF;" d="M235.4,118h-3.5v3.5h-1V118h-3.5v-1h3.5v-3.5h1v3.5h3.5V118z"/>
					</g>
				</g>
				<g>
					<circle style="fill:#F15A24;" cx="206.4" cy="117.5" r="9"/>
					<g>
						<path style="fill:#FFFFFF;" d="M210.4,118h-3.5v3.5h-1V118h-3.5v-1h3.5v-3.5h1v3.5h3.5V118z"/>
					</g>
				</g>
				<g>
					<circle style="fill:#F15A24;" cx="181.4" cy="117.5" r="9"/>
					<g>
						<path style="fill:#FFFFFF;" d="M185.4,118h-3.5v3.5h-1V118h-3.5v-1h3.5v-3.5h1v3.5h3.5V118z"/>
					</g>
				</g>
				<g>
					<circle style="fill:#F15A24;" cx="156.4" cy="117.5" r="9"/>
					<g>
						<path style="fill:#FFFFFF;" d="M160.4,118h-3.5v3.5h-1V118h-3.5v-1h3.5v-3.5h1v3.5h3.5V118z"/>
					</g>
				</g>
			</g>
			<g>
				<g>
					<circle style="fill:#F15A24;" cx="256.4" cy="92.5" r="9"/>
					<g>
						<path style="fill:#FFFFFF;" d="M260.4,93h-3.5v3.5h-1V93h-3.5v-1h3.5v-3.5h1v3.5h3.5V93z"/>
					</g>
				</g>
				<g>
					<circle style="fill:#F15A24;" cx="231.4" cy="92.5" r="9"/>
					<g>
						<path style="fill:#FFFFFF;" d="M235.4,93h-3.5v3.5h-1V93h-3.5v-1h3.5v-3.5h1v3.5h3.5V93z"/>
					</g>
				</g>
				<g>
					<circle style="fill:#F15A24;" cx="206.4" cy="92.5" r="9"/>
					<g>
						<path style="fill:#FFFFFF;" d="M210.4,93h-3.5v3.5h-1V93h-3.5v-1h3.5v-3.5h1v3.5h3.5V93z"/>
					</g>
				</g>
				<g>
					<circle style="fill:#F15A24;" cx="181.4" cy="92.5" r="9"/>
					<g>
						<path style="fill:#FFFFFF;" d="M185.4,93h-3.5v3.5h-1V93h-3.5v-1h3.5v-3.5h1v3.5h3.5V93z"/>
					</g>
				</g>
				<g>
					<circle style="fill:#F15A24;" cx="156.4" cy="92.5" r="9"/>
					<g>
						<path style="fill:#FFFFFF;" d="M160.4,93h-3.5v3.5h-1V93h-3.5v-1h3.5v-3.5h1v3.5h3.5V93z"/>
					</g>
				</g>
			</g>
			<g>
				<g>
					<circle style="fill:#F15A24;" cx="256.4" cy="67.5" r="9"/>
					<g>
						<path style="fill:#FFFFFF;" d="M260.4,68h-3.5v3.5h-1V68h-3.5v-1h3.5v-3.5h1v3.5h3.5V68z"/>
					</g>
				</g>
				<g>
					<circle style="fill:#F15A24;" cx="231.4" cy="67.5" r="9"/>
					<g>
						<path style="fill:#FFFFFF;" d="M235.4,68h-3.5v3.5h-1V68h-3.5v-1h3.5v-3.5h1v3.5h3.5V68z"/>
					</g>
				</g>
				<g>
					<circle style="fill:#F15A24;" cx="206.4" cy="67.5" r="9"/>
					<g>
						<path style="fill:#FFFFFF;" d="M210.4,68h-3.5v3.5h-1V68h-3.5v-1h3.5v-3.5h1v3.5h3.5V68z"/>
					</g>
				</g>
				<g>
					<circle style="fill:#F15A24;" cx="181.4" cy="67.5" r="9"/>
					<g>
						<path style="fill:#FFFFFF;" d="M185.4,68h-3.5v3.5h-1V68h-3.5v-1h3.5v-3.5h1v3.5h3.5V68z"/>
					</g>
				</g>
				<g>
					<circle style="fill:#F15A24;" cx="156.4" cy="67.5" r="9"/>
					<g>
						<path style="fill:#FFFFFF;" d="M160.4,68h-3.5v3.5h-1V68h-3.5v-1h3.5v-3.5h1v3.5h3.5V68z"/>
					</g>
				</g>
			</g>
		</g>
		<g>
			<g>
				<g>
					<circle style="fill:#00D814;" cx="256.4" cy="392.6" r="9"/>
					<g>
						<path style="fill:#FFFFFF;" d="M252.7,393.4c0,0.3-0.1,0.5-0.1,0.7c0,0.5,0.2,1,0.6,1.3c0.4,0.4,0.8,0.6,1.4,0.6
							c0.4,0,0.8-0.1,1.2-0.3c0.4-0.2,1-0.6,1.7-1.2l0.2,0.3c-1.4,1.4-2.7,2.1-4,2.1c-0.9,0-1.5-0.3-1.9-0.8
							c-0.4-0.5-0.7-1.1-0.7-1.8c0-0.9,0.3-1.8,0.8-2.7c0.5-0.9,1.2-1.6,2-2.1c0.8-0.5,1.7-0.8,2.5-0.8c0.6,0,1.1,0.1,1.4,0.4
							c0.3,0.3,0.5,0.6,0.5,0.9c0,0.5-0.2,1-0.6,1.4c-0.5,0.6-1.3,1.1-2.3,1.4C254.8,393.1,253.9,393.3,252.7,393.4z M252.8,393
							c0.9-0.1,1.6-0.3,2.1-0.5c0.7-0.3,1.3-0.7,1.6-1.2c0.4-0.5,0.5-0.9,0.5-1.3c0-0.2-0.1-0.4-0.2-0.6c-0.2-0.2-0.4-0.2-0.7-0.2
							c-0.6,0-1.2,0.3-1.9,1C253.6,390.8,253.1,391.8,252.8,393z"/>
						<path style="fill:#FFFFFF;" d="M261.7,388.1l-0.2,0.7h-2.7l0.2-0.7H261.7z"/>
					</g>
				</g>
				<g>
					<circle style="fill:#00D814;" cx="231.4" cy="392.6" r="9"/>
					<g>
						<path style="fill:#FFFFFF;" d="M227.7,393.4c0,0.3-0.1,0.5-0.1,0.7c0,0.5,0.2,1,0.6,1.3c0.4,0.4,0.8,0.6,1.4,0.6
							c0.4,0,0.8-0.1,1.2-0.3c0.4-0.2,1-0.6,1.7-1.2l0.2,0.3c-1.4,1.4-2.7,2.1-4,2.1c-0.9,0-1.5-0.3-1.9-0.8
							c-0.4-0.5-0.7-1.1-0.7-1.8c0-0.9,0.3-1.8,0.8-2.7c0.5-0.9,1.2-1.6,2-2.1c0.8-0.5,1.7-0.8,2.5-0.8c0.6,0,1.1,0.1,1.4,0.4
							c0.3,0.3,0.5,0.6,0.5,0.9c0,0.5-0.2,1-0.6,1.4c-0.5,0.6-1.3,1.1-2.3,1.4C229.8,393.1,228.9,393.3,227.7,393.4z M227.8,393
							c0.9-0.1,1.6-0.3,2.1-0.5c0.7-0.3,1.3-0.7,1.6-1.2c0.4-0.5,0.5-0.9,0.5-1.3c0-0.2-0.1-0.4-0.2-0.6c-0.2-0.2-0.4-0.2-0.7-0.2
							c-0.6,0-1.2,0.3-1.9,1C228.6,390.8,228.1,391.8,227.8,393z"/>
						<path style="fill:#FFFFFF;" d="M236.7,388.1l-0.2,0.7h-2.7l0.2-0.7H236.7z"/>
					</g>
				</g>
				<g>
					<circle style="fill:#00D814;" cx="206.4" cy="392.6" r="9"/>
					<g>
						<path style="fill:#FFFFFF;" d="M202.7,393.4c0,0.3-0.1,0.5-0.1,0.7c0,0.5,0.2,1,0.6,1.3c0.4,0.4,0.8,0.6,1.4,0.6
							c0.4,0,0.8-0.1,1.2-0.3c0.4-0.2,1-0.6,1.7-1.2l0.2,0.3c-1.4,1.4-2.7,2.1-4,2.1c-0.9,0-1.5-0.3-1.9-0.8
							c-0.4-0.5-0.7-1.1-0.7-1.8c0-0.9,0.3-1.8,0.8-2.7c0.5-0.9,1.2-1.6,2-2.1c0.8-0.5,1.7-0.8,2.5-0.8c0.6,0,1.1,0.1,1.4,0.4
							c0.3,0.3,0.5,0.6,0.5,0.9c0,0.5-0.2,1-0.6,1.4c-0.5,0.6-1.3,1.1-2.3,1.4C204.8,393.1,203.9,393.3,202.7,393.4z M202.8,393
							c0.9-0.1,1.6-0.3,2.1-0.5c0.7-0.3,1.3-0.7,1.6-1.2c0.4-0.5,0.5-0.9,0.5-1.3c0-0.2-0.1-0.4-0.2-0.6c-0.2-0.2-0.4-0.2-0.7-0.2
							c-0.6,0-1.2,0.3-1.9,1C203.6,390.8,203.1,391.8,202.8,393z"/>
						<path style="fill:#FFFFFF;" d="M211.7,388.1l-0.2,0.7h-2.7l0.2-0.7H211.7z"/>
					</g>
				</g>
				<g>
					<circle style="fill:#00D814;" cx="181.4" cy="392.6" r="9"/>
					<g>
						<path style="fill:#FFFFFF;" d="M177.7,393.4c0,0.3-0.1,0.5-0.1,0.7c0,0.5,0.2,1,0.6,1.3c0.4,0.4,0.8,0.6,1.4,0.6
							c0.4,0,0.8-0.1,1.2-0.3c0.4-0.2,1-0.6,1.7-1.2l0.2,0.3c-1.4,1.4-2.7,2.1-4,2.1c-0.9,0-1.5-0.3-1.9-0.8
							c-0.4-0.5-0.7-1.1-0.7-1.8c0-0.9,0.3-1.8,0.8-2.7c0.5-0.9,1.2-1.6,2-2.1c0.8-0.5,1.7-0.8,2.5-0.8c0.6,0,1.1,0.1,1.4,0.4
							c0.3,0.3,0.5,0.6,0.5,0.9c0,0.5-0.2,1-0.6,1.4c-0.5,0.6-1.3,1.1-2.3,1.4C179.8,393.1,178.9,393.3,177.7,393.4z M177.8,393
							c0.9-0.1,1.6-0.3,2.1-0.5c0.7-0.3,1.3-0.7,1.6-1.2c0.4-0.5,0.5-0.9,0.5-1.3c0-0.2-0.1-0.4-0.2-0.6c-0.2-0.2-0.4-0.2-0.7-0.2
							c-0.6,0-1.2,0.3-1.9,1C178.6,390.8,178.1,391.8,177.8,393z"/>
						<path style="fill:#FFFFFF;" d="M186.7,388.1l-0.2,0.7h-2.7l0.2-0.7H186.7z"/>
					</g>
				</g>
				<g>
					<circle style="fill:#00D814;" cx="156.4" cy="392.6" r="9"/>
					<g>
						<path style="fill:#FFFFFF;" d="M152.7,393.4c0,0.3-0.1,0.5-0.1,0.7c0,0.5,0.2,1,0.6,1.3c0.4,0.4,0.8,0.6,1.4,0.6
							c0.4,0,0.8-0.1,1.2-0.3c0.4-0.2,1-0.6,1.7-1.2l0.2,0.3c-1.4,1.4-2.7,2.1-4,2.1c-0.9,0-1.5-0.3-1.9-0.8
							c-0.4-0.5-0.7-1.1-0.7-1.8c0-0.9,0.3-1.8,0.8-2.7c0.5-0.9,1.2-1.6,2-2.1c0.8-0.5,1.7-0.8,2.5-0.8c0.6,0,1.1,0.1,1.4,0.4
							c0.3,0.3,0.5,0.6,0.5,0.9c0,0.5-0.2,1-0.6,1.4c-0.5,0.6-1.3,1.1-2.3,1.4C154.8,393.1,153.9,393.3,152.7,393.4z M152.8,393
							c0.9-0.1,1.6-0.3,2.1-0.5c0.7-0.3,1.3-0.7,1.6-1.2c0.4-0.5,0.5-0.9,0.5-1.3c0-0.2-0.1-0.4-0.2-0.6c-0.2-0.2-0.4-0.2-0.7-0.2
							c-0.6,0-1.2,0.3-1.9,1C153.6,390.8,153.1,391.8,152.8,393z"/>
						<path style="fill:#FFFFFF;" d="M161.7,388.1l-0.2,0.7h-2.7l0.2-0.7H161.7z"/>
					</g>
				</g>
			</g>
			<g>
				<g>
					<circle style="fill:#00D814;" cx="256.4" cy="367.6" r="9"/>
					<g>
						<path style="fill:#FFFFFF;" d="M252.7,368.4c0,0.3-0.1,0.5-0.1,0.7c0,0.5,0.2,1,0.6,1.3c0.4,0.4,0.8,0.6,1.4,0.6
							c0.4,0,0.8-0.1,1.2-0.3c0.4-0.2,1-0.6,1.7-1.2l0.2,0.3c-1.4,1.4-2.7,2.1-4,2.1c-0.9,0-1.5-0.3-1.9-0.8
							c-0.4-0.5-0.7-1.1-0.7-1.8c0-0.9,0.3-1.8,0.8-2.7c0.5-0.9,1.2-1.6,2-2.1c0.8-0.5,1.7-0.8,2.5-0.8c0.6,0,1.1,0.1,1.4,0.4
							c0.3,0.3,0.5,0.6,0.5,0.9c0,0.5-0.2,1-0.6,1.4c-0.5,0.6-1.3,1.1-2.3,1.4C254.8,368.1,253.9,368.3,252.7,368.4z M252.8,368
							c0.9-0.1,1.6-0.3,2.1-0.5c0.7-0.3,1.3-0.7,1.6-1.2c0.4-0.5,0.5-0.9,0.5-1.3c0-0.2-0.1-0.4-0.2-0.6c-0.2-0.2-0.4-0.2-0.7-0.2
							c-0.6,0-1.2,0.3-1.9,1C253.6,365.8,253.1,366.8,252.8,368z"/>
						<path style="fill:#FFFFFF;" d="M261.7,363.1l-0.2,0.7h-2.7l0.2-0.7H261.7z"/>
					</g>
				</g>
				<g>
					<circle style="fill:#00D814;" cx="231.4" cy="367.6" r="9"/>
					<g>
						<path style="fill:#FFFFFF;" d="M227.7,368.4c0,0.3-0.1,0.5-0.1,0.7c0,0.5,0.2,1,0.6,1.3c0.4,0.4,0.8,0.6,1.4,0.6
							c0.4,0,0.8-0.1,1.2-0.3c0.4-0.2,1-0.6,1.7-1.2l0.2,0.3c-1.4,1.4-2.7,2.1-4,2.1c-0.9,0-1.5-0.3-1.9-0.8
							c-0.4-0.5-0.7-1.1-0.7-1.8c0-0.9,0.3-1.8,0.8-2.7c0.5-0.9,1.2-1.6,2-2.1c0.8-0.5,1.7-0.8,2.5-0.8c0.6,0,1.1,0.1,1.4,0.4
							c0.3,0.3,0.5,0.6,0.5,0.9c0,0.5-0.2,1-0.6,1.4c-0.5,0.6-1.3,1.1-2.3,1.4C229.8,368.1,228.9,368.3,227.7,368.4z M227.8,368
							c0.9-0.1,1.6-0.3,2.1-0.5c0.7-0.3,1.3-0.7,1.6-1.2c0.4-0.5,0.5-0.9,0.5-1.3c0-0.2-0.1-0.4-0.2-0.6c-0.2-0.2-0.4-0.2-0.7-0.2
							c-0.6,0-1.2,0.3-1.9,1C228.6,365.8,228.1,366.8,227.8,368z"/>
						<path style="fill:#FFFFFF;" d="M236.7,363.1l-0.2,0.7h-2.7l0.2-0.7H236.7z"/>
					</g>
				</g>
				<g>
					<circle style="fill:#00D814;" cx="206.4" cy="367.6" r="9"/>
					<g>
						<path style="fill:#FFFFFF;" d="M202.7,368.4c0,0.3-0.1,0.5-0.1,0.7c0,0.5,0.2,1,0.6,1.3c0.4,0.4,0.8,0.6,1.4,0.6
							c0.4,0,0.8-0.1,1.2-0.3c0.4-0.2,1-0.6,1.7-1.2l0.2,0.3c-1.4,1.4-2.7,2.1-4,2.1c-0.9,0-1.5-0.3-1.9-0.8
							c-0.4-0.5-0.7-1.1-0.7-1.8c0-0.9,0.3-1.8,0.8-2.7c0.5-0.9,1.2-1.6,2-2.1c0.8-0.5,1.7-0.8,2.5-0.8c0.6,0,1.1,0.1,1.4,0.4
							c0.3,0.3,0.5,0.6,0.5,0.9c0,0.5-0.2,1-0.6,1.4c-0.5,0.6-1.3,1.1-2.3,1.4C204.8,368.1,203.9,368.3,202.7,368.4z M202.8,368
							c0.9-0.1,1.6-0.3,2.1-0.5c0.7-0.3,1.3-0.7,1.6-1.2c0.4-0.5,0.5-0.9,0.5-1.3c0-0.2-0.1-0.4-0.2-0.6c-0.2-0.2-0.4-0.2-0.7-0.2
							c-0.6,0-1.2,0.3-1.9,1C203.6,365.8,203.1,366.8,202.8,368z"/>
						<path style="fill:#FFFFFF;" d="M211.7,363.1l-0.2,0.7h-2.7l0.2-0.7H211.7z"/>
					</g>
				</g>
				<g>
					<circle style="fill:#00D814;" cx="181.4" cy="367.6" r="9"/>
					<g>
						<path style="fill:#FFFFFF;" d="M177.7,368.4c0,0.3-0.1,0.5-0.1,0.7c0,0.5,0.2,1,0.6,1.3c0.4,0.4,0.8,0.6,1.4,0.6
							c0.4,0,0.8-0.1,1.2-0.3c0.4-0.2,1-0.6,1.7-1.2l0.2,0.3c-1.4,1.4-2.7,2.1-4,2.1c-0.9,0-1.5-0.3-1.9-0.8
							c-0.4-0.5-0.7-1.1-0.7-1.8c0-0.9,0.3-1.8,0.8-2.7c0.5-0.9,1.2-1.6,2-2.1c0.8-0.5,1.7-0.8,2.5-0.8c0.6,0,1.1,0.1,1.4,0.4
							c0.3,0.3,0.5,0.6,0.5,0.9c0,0.5-0.2,1-0.6,1.4c-0.5,0.6-1.3,1.1-2.3,1.4C179.8,368.1,178.9,368.3,177.7,368.4z M177.8,368
							c0.9-0.1,1.6-0.3,2.1-0.5c0.7-0.3,1.3-0.7,1.6-1.2c0.4-0.5,0.5-0.9,0.5-1.3c0-0.2-0.1-0.4-0.2-0.6c-0.2-0.2-0.4-0.2-0.7-0.2
							c-0.6,0-1.2,0.3-1.9,1C178.6,365.8,178.1,366.8,177.8,368z"/>
						<path style="fill:#FFFFFF;" d="M186.7,363.1l-0.2,0.7h-2.7l0.2-0.7H186.7z"/>
					</g>
				</g>
				<g>
					<circle style="fill:#00D814;" cx="156.4" cy="367.6" r="9"/>
					<g>
						<path style="fill:#FFFFFF;" d="M152.7,368.4c0,0.3-0.1,0.5-0.1,0.7c0,0.5,0.2,1,0.6,1.3c0.4,0.4,0.8,0.6,1.4,0.6
							c0.4,0,0.8-0.1,1.2-0.3c0.4-0.2,1-0.6,1.7-1.2l0.2,0.3c-1.4,1.4-2.7,2.1-4,2.1c-0.9,0-1.5-0.3-1.9-0.8
							c-0.4-0.5-0.7-1.1-0.7-1.8c0-0.9,0.3-1.8,0.8-2.7c0.5-0.9,1.2-1.6,2-2.1c0.8-0.5,1.7-0.8,2.5-0.8c0.6,0,1.1,0.1,1.4,0.4
							c0.3,0.3,0.5,0.6,0.5,0.9c0,0.5-0.2,1-0.6,1.4c-0.5,0.6-1.3,1.1-2.3,1.4C154.8,368.1,153.9,368.3,152.7,368.4z M152.8,368
							c0.9-0.1,1.6-0.3,2.1-0.5c0.7-0.3,1.3-0.7,1.6-1.2c0.4-0.5,0.5-0.9,0.5-1.3c0-0.2-0.1-0.4-0.2-0.6c-0.2-0.2-0.4-0.2-0.7-0.2
							c-0.6,0-1.2,0.3-1.9,1C153.6,365.8,153.1,366.8,152.8,368z"/>
						<path style="fill:#FFFFFF;" d="M161.7,363.1l-0.2,0.7h-2.7l0.2-0.7H161.7z"/>
					</g>
				</g>
			</g>
			<g>
				<g>
					<circle style="fill:#00D814;" cx="256.4" cy="342.6" r="9"/>
					<g>
						<path style="fill:#FFFFFF;" d="M252.7,343.4c0,0.3-0.1,0.5-0.1,0.7c0,0.5,0.2,1,0.6,1.3c0.4,0.4,0.8,0.6,1.4,0.6
							c0.4,0,0.8-0.1,1.2-0.3c0.4-0.2,1-0.6,1.7-1.2l0.2,0.3c-1.4,1.4-2.7,2.1-4,2.1c-0.9,0-1.5-0.3-1.9-0.8
							c-0.4-0.5-0.7-1.1-0.7-1.8c0-0.9,0.3-1.8,0.8-2.7c0.5-0.9,1.2-1.6,2-2.1c0.8-0.5,1.7-0.8,2.5-0.8c0.6,0,1.1,0.1,1.4,0.4
							c0.3,0.3,0.5,0.6,0.5,0.9c0,0.5-0.2,1-0.6,1.4c-0.5,0.6-1.3,1.1-2.3,1.4C254.8,343.1,253.9,343.3,252.7,343.4z M252.8,343
							c0.9-0.1,1.6-0.3,2.1-0.5c0.7-0.3,1.3-0.7,1.6-1.2c0.4-0.5,0.5-0.9,0.5-1.3c0-0.2-0.1-0.4-0.2-0.6c-0.2-0.2-0.4-0.2-0.7-0.2
							c-0.6,0-1.2,0.3-1.9,1C253.6,340.8,253.1,341.8,252.8,343z"/>
						<path style="fill:#FFFFFF;" d="M261.7,338.1l-0.2,0.7h-2.7l0.2-0.7H261.7z"/>
					</g>
				</g>
				<g>
					<circle style="fill:#00D814;" cx="231.4" cy="342.6" r="9"/>
					<g>
						<path style="fill:#FFFFFF;" d="M227.7,343.4c0,0.3-0.1,0.5-0.1,0.7c0,0.5,0.2,1,0.6,1.3c0.4,0.4,0.8,0.6,1.4,0.6
							c0.4,0,0.8-0.1,1.2-0.3c0.4-0.2,1-0.6,1.7-1.2l0.2,0.3c-1.4,1.4-2.7,2.1-4,2.1c-0.9,0-1.5-0.3-1.9-0.8
							c-0.4-0.5-0.7-1.1-0.7-1.8c0-0.9,0.3-1.8,0.8-2.7c0.5-0.9,1.2-1.6,2-2.1c0.8-0.5,1.7-0.8,2.5-0.8c0.6,0,1.1,0.1,1.4,0.4
							c0.3,0.3,0.5,0.6,0.5,0.9c0,0.5-0.2,1-0.6,1.4c-0.5,0.6-1.3,1.1-2.3,1.4C229.8,343.1,228.9,343.3,227.7,343.4z M227.8,343
							c0.9-0.1,1.6-0.3,2.1-0.5c0.7-0.3,1.3-0.7,1.6-1.2c0.4-0.5,0.5-0.9,0.5-1.3c0-0.2-0.1-0.4-0.2-0.6c-0.2-0.2-0.4-0.2-0.7-0.2
							c-0.6,0-1.2,0.3-1.9,1C228.6,340.8,228.1,341.8,227.8,343z"/>
						<path style="fill:#FFFFFF;" d="M236.7,338.1l-0.2,0.7h-2.7l0.2-0.7H236.7z"/>
					</g>
				</g>
				<g>
					<circle style="fill:#00D814;" cx="206.4" cy="342.6" r="9"/>
					<g>
						<path style="fill:#FFFFFF;" d="M202.7,343.4c0,0.3-0.1,0.5-0.1,0.7c0,0.5,0.2,1,0.6,1.3c0.4,0.4,0.8,0.6,1.4,0.6
							c0.4,0,0.8-0.1,1.2-0.3c0.4-0.2,1-0.6,1.7-1.2l0.2,0.3c-1.4,1.4-2.7,2.1-4,2.1c-0.9,0-1.5-0.3-1.9-0.8
							c-0.4-0.5-0.7-1.1-0.7-1.8c0-0.9,0.3-1.8,0.8-2.7c0.5-0.9,1.2-1.6,2-2.1c0.8-0.5,1.7-0.8,2.5-0.8c0.6,0,1.1,0.1,1.4,0.4
							c0.3,0.3,0.5,0.6,0.5,0.9c0,0.5-0.2,1-0.6,1.4c-0.5,0.6-1.3,1.1-2.3,1.4C204.8,343.1,203.9,343.3,202.7,343.4z M202.8,343
							c0.9-0.1,1.6-0.3,2.1-0.5c0.7-0.3,1.3-0.7,1.6-1.2c0.4-0.5,0.5-0.9,0.5-1.3c0-0.2-0.1-0.4-0.2-0.6c-0.2-0.2-0.4-0.2-0.7-0.2
							c-0.6,0-1.2,0.3-1.9,1C203.6,340.8,203.1,341.8,202.8,343z"/>
						<path style="fill:#FFFFFF;" d="M211.7,338.1l-0.2,0.7h-2.7l0.2-0.7H211.7z"/>
					</g>
				</g>
				<g>
					<circle style="fill:#00D814;" cx="181.4" cy="342.6" r="9"/>
					<g>
						<path style="fill:#FFFFFF;" d="M177.7,343.4c0,0.3-0.1,0.5-0.1,0.7c0,0.5,0.2,1,0.6,1.3c0.4,0.4,0.8,0.6,1.4,0.6
							c0.4,0,0.8-0.1,1.2-0.3c0.4-0.2,1-0.6,1.7-1.2l0.2,0.3c-1.4,1.4-2.7,2.1-4,2.1c-0.9,0-1.5-0.3-1.9-0.8
							c-0.4-0.5-0.7-1.1-0.7-1.8c0-0.9,0.3-1.8,0.8-2.7c0.5-0.9,1.2-1.6,2-2.1c0.8-0.5,1.7-0.8,2.5-0.8c0.6,0,1.1,0.1,1.4,0.4
							c0.3,0.3,0.5,0.6,0.5,0.9c0,0.5-0.2,1-0.6,1.4c-0.5,0.6-1.3,1.1-2.3,1.4C179.8,343.1,178.9,343.3,177.7,343.4z M177.8,343
							c0.9-0.1,1.6-0.3,2.1-0.5c0.7-0.3,1.3-0.7,1.6-1.2c0.4-0.5,0.5-0.9,0.5-1.3c0-0.2-0.1-0.4-0.2-0.6c-0.2-0.2-0.4-0.2-0.7-0.2
							c-0.6,0-1.2,0.3-1.9,1C178.6,340.8,178.1,341.8,177.8,343z"/>
						<path style="fill:#FFFFFF;" d="M186.7,338.1l-0.2,0.7h-2.7l0.2-0.7H186.7z"/>
					</g>
				</g>
				<g>
					<circle style="fill:#00D814;" cx="156.4" cy="342.6" r="9"/>
					<g>
						<path style="fill:#FFFFFF;" d="M152.7,343.4c0,0.3-0.1,0.5-0.1,0.7c0,0.5,0.2,1,0.6,1.3c0.4,0.4,0.8,0.6,1.4,0.6
							c0.4,0,0.8-0.1,1.2-0.3c0.4-0.2,1-0.6,1.7-1.2l0.2,0.3c-1.4,1.4-2.7,2.1-4,2.1c-0.9,0-1.5-0.3-1.9-0.8
							c-0.4-0.5-0.7-1.1-0.7-1.8c0-0.9,0.3-1.8,0.8-2.7c0.5-0.9,1.2-1.6,2-2.1c0.8-0.5,1.7-0.8,2.5-0.8c0.6,0,1.1,0.1,1.4,0.4
							c0.3,0.3,0.5,0.6,0.5,0.9c0,0.5-0.2,1-0.6,1.4c-0.5,0.6-1.3,1.1-2.3,1.4C154.8,343.1,153.9,343.3,152.7,343.4z M152.8,343
							c0.9-0.1,1.6-0.3,2.1-0.5c0.7-0.3,1.3-0.7,1.6-1.2c0.4-0.5,0.5-0.9,0.5-1.3c0-0.2-0.1-0.4-0.2-0.6c-0.2-0.2-0.4-0.2-0.7-0.2
							c-0.6,0-1.2,0.3-1.9,1C153.6,340.8,153.1,341.8,152.8,343z"/>
						<path style="fill:#FFFFFF;" d="M161.7,338.1l-0.2,0.7h-2.7l0.2-0.7H161.7z"/>
					</g>
				</g>
			</g>
			<g>
				<g>
					<circle style="fill:#00D814;" cx="256.4" cy="317.6" r="9"/>
					<g>
						<path style="fill:#FFFFFF;" d="M252.7,318.4c0,0.3-0.1,0.5-0.1,0.7c0,0.5,0.2,1,0.6,1.3c0.4,0.4,0.8,0.6,1.4,0.6
							c0.4,0,0.8-0.1,1.2-0.3c0.4-0.2,1-0.6,1.7-1.2l0.2,0.3c-1.4,1.4-2.7,2.1-4,2.1c-0.9,0-1.5-0.3-1.9-0.8
							c-0.4-0.5-0.7-1.1-0.7-1.8c0-0.9,0.3-1.8,0.8-2.7c0.5-0.9,1.2-1.6,2-2.1c0.8-0.5,1.7-0.8,2.5-0.8c0.6,0,1.1,0.1,1.4,0.4
							c0.3,0.3,0.5,0.6,0.5,0.9c0,0.5-0.2,1-0.6,1.4c-0.5,0.6-1.3,1.1-2.3,1.4C254.8,318.1,253.9,318.3,252.7,318.4z M252.8,318
							c0.9-0.1,1.6-0.3,2.1-0.5c0.7-0.3,1.3-0.7,1.6-1.2c0.4-0.5,0.5-0.9,0.5-1.3c0-0.2-0.1-0.4-0.2-0.6c-0.2-0.2-0.4-0.2-0.7-0.2
							c-0.6,0-1.2,0.3-1.9,1C253.6,315.8,253.1,316.8,252.8,318z"/>
						<path style="fill:#FFFFFF;" d="M261.7,313.1l-0.2,0.7h-2.7l0.2-0.7H261.7z"/>
					</g>
				</g>
				<g>
					<circle style="fill:#00D814;" cx="231.4" cy="317.6" r="9"/>
					<g>
						<path style="fill:#FFFFFF;" d="M227.7,318.4c0,0.3-0.1,0.5-0.1,0.7c0,0.5,0.2,1,0.6,1.3c0.4,0.4,0.8,0.6,1.4,0.6
							c0.4,0,0.8-0.1,1.2-0.3c0.4-0.2,1-0.6,1.7-1.2l0.2,0.3c-1.4,1.4-2.7,2.1-4,2.1c-0.9,0-1.5-0.3-1.9-0.8
							c-0.4-0.5-0.7-1.1-0.7-1.8c0-0.9,0.3-1.8,0.8-2.7c0.5-0.9,1.2-1.6,2-2.1c0.8-0.5,1.7-0.8,2.5-0.8c0.6,0,1.1,0.1,1.4,0.4
							c0.3,0.3,0.5,0.6,0.5,0.9c0,0.5-0.2,1-0.6,1.4c-0.5,0.6-1.3,1.1-2.3,1.4C229.8,318.1,228.9,318.3,227.7,318.4z M227.8,318
							c0.9-0.1,1.6-0.3,2.1-0.5c0.7-0.3,1.3-0.7,1.6-1.2c0.4-0.5,0.5-0.9,0.5-1.3c0-0.2-0.1-0.4-0.2-0.6c-0.2-0.2-0.4-0.2-0.7-0.2
							c-0.6,0-1.2,0.3-1.9,1C228.6,315.8,228.1,316.8,227.8,318z"/>
						<path style="fill:#FFFFFF;" d="M236.7,313.1l-0.2,0.7h-2.7l0.2-0.7H236.7z"/>
					</g>
				</g>
				<g>
					<circle style="fill:#00D814;" cx="206.4" cy="317.6" r="9"/>
					<g>
						<path style="fill:#FFFFFF;" d="M202.7,318.4c0,0.3-0.1,0.5-0.1,0.7c0,0.5,0.2,1,0.6,1.3c0.4,0.4,0.8,0.6,1.4,0.6
							c0.4,0,0.8-0.1,1.2-0.3c0.4-0.2,1-0.6,1.7-1.2l0.2,0.3c-1.4,1.4-2.7,2.1-4,2.1c-0.9,0-1.5-0.3-1.9-0.8
							c-0.4-0.5-0.7-1.1-0.7-1.8c0-0.9,0.3-1.8,0.8-2.7c0.5-0.9,1.2-1.6,2-2.1c0.8-0.5,1.7-0.8,2.5-0.8c0.6,0,1.1,0.1,1.4,0.4
							c0.3,0.3,0.5,0.6,0.5,0.9c0,0.5-0.2,1-0.6,1.4c-0.5,0.6-1.3,1.1-2.3,1.4C204.8,318.1,203.9,318.3,202.7,318.4z M202.8,318
							c0.9-0.1,1.6-0.3,2.1-0.5c0.7-0.3,1.3-0.7,1.6-1.2c0.4-0.5,0.5-0.9,0.5-1.3c0-0.2-0.1-0.4-0.2-0.6c-0.2-0.2-0.4-0.2-0.7-0.2
							c-0.6,0-1.2,0.3-1.9,1C203.6,315.8,203.1,316.8,202.8,318z"/>
						<path style="fill:#FFFFFF;" d="M211.7,313.1l-0.2,0.7h-2.7l0.2-0.7H211.7z"/>
					</g>
				</g>
				<g>
					<circle style="fill:#00D814;" cx="181.4" cy="317.6" r="9"/>
					<g>
						<path style="fill:#FFFFFF;" d="M177.7,318.4c0,0.3-0.1,0.5-0.1,0.7c0,0.5,0.2,1,0.6,1.3c0.4,0.4,0.8,0.6,1.4,0.6
							c0.4,0,0.8-0.1,1.2-0.3c0.4-0.2,1-0.6,1.7-1.2l0.2,0.3c-1.4,1.4-2.7,2.1-4,2.1c-0.9,0-1.5-0.3-1.9-0.8
							c-0.4-0.5-0.7-1.1-0.7-1.8c0-0.9,0.3-1.8,0.8-2.7c0.5-0.9,1.2-1.6,2-2.1c0.8-0.5,1.7-0.8,2.5-0.8c0.6,0,1.1,0.1,1.4,0.4
							c0.3,0.3,0.5,0.6,0.5,0.9c0,0.5-0.2,1-0.6,1.4c-0.5,0.6-1.3,1.1-2.3,1.4C179.8,318.1,178.9,318.3,177.7,318.4z M177.8,318
							c0.9-0.1,1.6-0.3,2.1-0.5c0.7-0.3,1.3-0.7,1.6-1.2c0.4-0.5,0.5-0.9,0.5-1.3c0-0.2-0.1-0.4-0.2-0.6c-0.2-0.2-0.4-0.2-0.7-0.2
							c-0.6,0-1.2,0.3-1.9,1C178.6,315.8,178.1,316.8,177.8,318z"/>
						<path style="fill:#FFFFFF;" d="M186.7,313.1l-0.2,0.7h-2.7l0.2-0.7H186.7z"/>
					</g>
				</g>
				<g>
					<circle style="fill:#00D814;" cx="156.4" cy="317.6" r="9"/>
					<g>
						<path style="fill:#FFFFFF;" d="M152.7,318.4c0,0.3-0.1,0.5-0.1,0.7c0,0.5,0.2,1,0.6,1.3c0.4,0.4,0.8,0.6,1.4,0.6
							c0.4,0,0.8-0.1,1.2-0.3c0.4-0.2,1-0.6,1.7-1.2l0.2,0.3c-1.4,1.4-2.7,2.1-4,2.1c-0.9,0-1.5-0.3-1.9-0.8
							c-0.4-0.5-0.7-1.1-0.7-1.8c0-0.9,0.3-1.8,0.8-2.7c0.5-0.9,1.2-1.6,2-2.1c0.8-0.5,1.7-0.8,2.5-0.8c0.6,0,1.1,0.1,1.4,0.4
							c0.3,0.3,0.5,0.6,0.5,0.9c0,0.5-0.2,1-0.6,1.4c-0.5,0.6-1.3,1.1-2.3,1.4C154.8,318.1,153.9,318.3,152.7,318.4z M152.8,318
							c0.9-0.1,1.6-0.3,2.1-0.5c0.7-0.3,1.3-0.7,1.6-1.2c0.4-0.5,0.5-0.9,0.5-1.3c0-0.2-0.1-0.4-0.2-0.6c-0.2-0.2-0.4-0.2-0.7-0.2
							c-0.6,0-1.2,0.3-1.9,1C153.6,315.8,153.1,316.8,152.8,318z"/>
						<path style="fill:#FFFFFF;" d="M161.7,313.1l-0.2,0.7h-2.7l0.2-0.7H161.7z"/>
					</g>
				</g>
			</g>
		</g>
		<g>
			<g>
				<g>
					<circle style="fill:none;stroke:#A34141;stroke-miterlimit:10;" cx="256.4" cy="292.6" r="9"/>
					<g>
						<path style="fill:#A34141;" d="M260.4,293.1h-3.5v3.5h-1v-3.5h-3.5v-1h3.5v-3.5h1v3.5h3.5V293.1z"/>
					</g>
				</g>
				<g>
					<circle style="fill:none;stroke:#A34141;stroke-miterlimit:10;" cx="231.4" cy="292.6" r="9"/>
					<g>
						<path style="fill:#A34141;" d="M235.4,293.1h-3.5v3.5h-1v-3.5h-3.5v-1h3.5v-3.5h1v3.5h3.5V293.1z"/>
					</g>
				</g>
				<g>
					<circle style="fill:none;stroke:#A34141;stroke-miterlimit:10;" cx="206.4" cy="292.6" r="9"/>
					<g>
						<path style="fill:#A34141;" d="M210.4,293.1h-3.5v3.5h-1v-3.5h-3.5v-1h3.5v-3.5h1v3.5h3.5V293.1z"/>
					</g>
				</g>
				<g>
					<circle style="fill:none;stroke:#A34141;stroke-miterlimit:10;" cx="181.4" cy="292.6" r="9"/>
					<g>
						<path style="fill:#A34141;" d="M185.4,293.1h-3.5v3.5h-1v-3.5h-3.5v-1h3.5v-3.5h1v3.5h3.5V293.1z"/>
					</g>
				</g>
				<g>
					<circle style="fill:none;stroke:#A34141;stroke-miterlimit:10;" cx="156.4" cy="292.6" r="9"/>
					<g>
						<path style="fill:#A34141;" d="M160.4,293.1h-3.5v3.5h-1v-3.5h-3.5v-1h3.5v-3.5h1v3.5h3.5V293.1z"/>
					</g>
				</g>
			</g>
			<g>
				<g>
					<circle style="fill:none;stroke:#A34141;stroke-miterlimit:10;" cx="256.4" cy="267.6" r="9"/>
					<g>
						<path style="fill:#A34141;" d="M260.4,268.1h-3.5v3.5h-1v-3.5h-3.5v-1h3.5v-3.5h1v3.5h3.5V268.1z"/>
					</g>
				</g>
				<g>
					<circle style="fill:none;stroke:#A34141;stroke-miterlimit:10;" cx="231.4" cy="267.6" r="9"/>
					<g>
						<path style="fill:#A34141;" d="M235.4,268.1h-3.5v3.5h-1v-3.5h-3.5v-1h3.5v-3.5h1v3.5h3.5V268.1z"/>
					</g>
				</g>
				<g>
					<circle style="fill:none;stroke:#A34141;stroke-miterlimit:10;" cx="206.4" cy="267.6" r="9"/>
					<g>
						<path style="fill:#A34141;" d="M210.4,268.1h-3.5v3.5h-1v-3.5h-3.5v-1h3.5v-3.5h1v3.5h3.5V268.1z"/>
					</g>
				</g>
				<g>
					<circle style="fill:none;stroke:#A34141;stroke-miterlimit:10;" cx="181.4" cy="267.6" r="9"/>
					<g>
						<path style="fill:#A34141;" d="M185.4,268.1h-3.5v3.5h-1v-3.5h-3.5v-1h3.5v-3.5h1v3.5h3.5V268.1z"/>
					</g>
				</g>
				<g>
					<circle style="fill:none;stroke:#A34141;stroke-miterlimit:10;" cx="156.4" cy="267.6" r="9"/>
					<g>
						<path style="fill:#A34141;" d="M160.4,268.1h-3.5v3.5h-1v-3.5h-3.5v-1h3.5v-3.5h1v3.5h3.5V268.1z"/>
					</g>
				</g>
			</g>
			<g>
				<g>
					<circle style="fill:none;stroke:#A34141;stroke-miterlimit:10;" cx="256.4" cy="242.6" r="9"/>
					<g>
						<path style="fill:#A34141;" d="M260.4,243.1h-3.5v3.5h-1v-3.5h-3.5v-1h3.5v-3.5h1v3.5h3.5V243.1z"/>
					</g>
				</g>
				<g>
					<circle style="fill:none;stroke:#A34141;stroke-miterlimit:10;" cx="231.4" cy="242.6" r="9"/>
					<g>
						<path style="fill:#A34141;" d="M235.4,243.1h-3.5v3.5h-1v-3.5h-3.5v-1h3.5v-3.5h1v3.5h3.5V243.1z"/>
					</g>
				</g>
				<g>
					<circle style="fill:none;stroke:#A34141;stroke-miterlimit:10;" cx="206.4" cy="242.6" r="9"/>
					<g>
						<path style="fill:#A34141;" d="M210.4,243.1h-3.5v3.5h-1v-3.5h-3.5v-1h3.5v-3.5h1v3.5h3.5V243.1z"/>
					</g>
				</g>
				<g>
					<circle style="fill:none;stroke:#A34141;stroke-miterlimit:10;" cx="181.4" cy="242.6" r="9"/>
					<g>
						<path style="fill:#A34141;" d="M185.4,243.1h-3.5v3.5h-1v-3.5h-3.5v-1h3.5v-3.5h1v3.5h3.5V243.1z"/>
					</g>
				</g>
				<g>
					<circle style="fill:none;stroke:#A34141;stroke-miterlimit:10;" cx="156.4" cy="242.6" r="9"/>
					<g>
						<path style="fill:#A34141;" d="M160.4,243.1h-3.5v3.5h-1v-3.5h-3.5v-1h3.5v-3.5h1v3.5h3.5V243.1z"/>
					</g>
				</g>
			</g>
		</g>
		<g>
			<g>
				<g>
					<circle style="fill:none;stroke:#86A040;stroke-miterlimit:10;" cx="256.4" cy="217.6" r="9"/>
					<g>
						<path style="fill:#86A040;" d="M260.4,218h-7.9v-1h7.9V218z"/>
					</g>
				</g>
				<g>
					<circle style="fill:none;stroke:#86A040;stroke-miterlimit:10;" cx="231.4" cy="217.6" r="9"/>
					<g>
						<path style="fill:#86A040;" d="M235.4,218h-7.9v-1h7.9V218z"/>
					</g>
				</g>
				<g>
					<circle style="fill:none;stroke:#86A040;stroke-miterlimit:10;" cx="206.4" cy="217.6" r="9"/>
					<g>
						<path style="fill:#86A040;" d="M210.4,218h-7.9v-1h7.9V218z"/>
					</g>
				</g>
				<g>
					<circle style="fill:none;stroke:#86A040;stroke-miterlimit:10;" cx="181.4" cy="217.6" r="9"/>
					<g>
						<path style="fill:#86A040;" d="M185.4,218h-7.9v-1h7.9V218z"/>
					</g>
				</g>
				<g>
					<circle style="fill:none;stroke:#86A040;stroke-miterlimit:10;" cx="156.4" cy="217.6" r="9"/>
					<g>
						<path style="fill:#86A040;" d="M160.4,218h-7.9v-1h7.9V218z"/>
					</g>
				</g>
			</g>
			<g>
				<g>
					<circle style="fill:none;stroke:#86A040;stroke-miterlimit:10;" cx="256.4" cy="192.6" r="9"/>
					<g>
						<path style="fill:#86A040;" d="M260.4,193h-7.9v-1h7.9V193z"/>
					</g>
				</g>
				<g>
					<circle style="fill:none;stroke:#86A040;stroke-miterlimit:10;" cx="231.4" cy="192.6" r="9"/>
					<g>
						<path style="fill:#86A040;" d="M235.4,193h-7.9v-1h7.9V193z"/>
					</g>
				</g>
				<g>
					<circle style="fill:none;stroke:#86A040;stroke-miterlimit:10;" cx="206.4" cy="192.6" r="9"/>
					<g>
						<path style="fill:#86A040;" d="M210.4,193h-7.9v-1h7.9V193z"/>
					</g>
				</g>
				<g>
					<circle style="fill:none;stroke:#86A040;stroke-miterlimit:10;" cx="181.4" cy="192.6" r="9"/>
					<g>
						<path style="fill:#86A040;" d="M185.4,193h-7.9v-1h7.9V193z"/>
					</g>
				</g>
				<g>
					<circle style="fill:none;stroke:#86A040;stroke-miterlimit:10;" cx="156.4" cy="192.6" r="9"/>
					<g>
						<path style="fill:#86A040;" d="M160.4,193h-7.9v-1h7.9V193z"/>
					</g>
				</g>
			</g>
			<g>
				<g>
					<circle style="fill:none;stroke:#86A040;stroke-miterlimit:10;" cx="256.4" cy="167.6" r="9"/>
					<g>
						<path style="fill:#86A040;" d="M260.4,168h-7.9v-1h7.9V168z"/>
					</g>
				</g>
				<g>
					<circle style="fill:none;stroke:#86A040;stroke-miterlimit:10;" cx="231.4" cy="167.6" r="9"/>
					<g>
						<path style="fill:#86A040;" d="M235.4,168h-7.9v-1h7.9V168z"/>
					</g>
				</g>
				<g>
					<circle style="fill:none;stroke:#86A040;stroke-miterlimit:10;" cx="206.4" cy="167.6" r="9"/>
					<g>
						<path style="fill:#86A040;" d="M210.4,168h-7.9v-1h7.9V168z"/>
					</g>
				</g>
				<g>
					<circle style="fill:none;stroke:#86A040;stroke-miterlimit:10;" cx="181.4" cy="167.6" r="9"/>
					<g>
						<path style="fill:#86A040;" d="M185.4,168h-7.9v-1h7.9V168z"/>
					</g>
				</g>
				<g>
					<circle style="fill:none;stroke:#86A040;stroke-miterlimit:10;" cx="156.4" cy="167.6" r="9"/>
					<g>
						<path style="fill:#86A040;" d="M160.4,168h-7.9v-1h7.9V168z"/>
					</g>
				</g>
			</g>
		</g>
	</g>
</g>
<polyline style="fill:none;stroke:#000000;stroke-width:2.835;stroke-miterlimit:10;" points="207.1,52.7 207.1,27.5 90.5,27.5 
	90.5,136.5 "/>
<polyline style="fill:none;stroke:#000000;stroke-width:2.835;stroke-miterlimit:10;" points="207.1,407.4 207.1,432.6 90.5,432.6 
	90.5,323.6 "/>
<g>
	<text transform="matrix(1 0 0 1 304.2834 122.0789)" style="font-family:'TimesNewRomanPS-ItalicMT'; font-size:39.685px;">p-type</text>
	<text transform="matrix(1 0 0 1 299.8904 358.8296)" style="font-family:'TimesNewRomanPS-ItalicMT'; font-size:39.685px;">n-type</text>
</g>
<line style="fill:none;stroke:#000000;stroke-width:1.4173;stroke-linecap:round;stroke-linejoin:round;stroke-miterlimit:10;" x1="142.4" y1="154.3" x2="331.5" y2="154.3"/>
<line style="fill:none;stroke:#000000;stroke-width:1.4173;stroke-linecap:round;stroke-linejoin:round;stroke-miterlimit:10;" x1="142.4" y1="305.4" x2="331.5" y2="305.4"/>
<g>
	<g>
		
			<line style="fill:none;stroke:#000000;stroke-width:1.4173;stroke-linecap:round;stroke-linejoin:round;" x1="300.7" y1="166.9" x2="300.7" y2="213.8"/>
		<g>
			<polygon points="296.6,169.7 300.7,154.3 304.8,169.7 			"/>
		</g>
	</g>
</g>
<g>
	<g>
		
			<line style="fill:none;stroke:#000000;stroke-width:1.4173;stroke-linecap:round;stroke-linejoin:round;" x1="300.7" y1="293.2" x2="300.7" y2="246.3"/>
		<g>
			<polygon points="304.8,290.4 300.7,305.7 296.6,290.4 			"/>
		</g>
	</g>
</g>
<text transform="matrix(1 0 0 1 288.0132 238.6047)" style="font-family:'TimesNewRomanPS-ItalicMT'; font-size:39.685px;">w</text>
</svg>
