<?xml version="1.0" encoding="utf-8"?>
<!-- Generator: Adobe Illustrator 27.0.0, SVG Export Plug-In . SVG Version: 6.00 Build 0)  -->
<svg version="1.1" id="Layer_1" xmlns="http://www.w3.org/2000/svg" xmlns:xlink="http://www.w3.org/1999/xlink" x="0px" y="0px"
	 width="359.4px" height="237.8px" viewBox="0 0 359.4 237.8" style="enable-background:new 0 0 359.4 237.8;" xml:space="preserve"
	>
<polyline style="fill:#F2F2F2;stroke:#000000;stroke-width:2.835;stroke-linecap:round;stroke-linejoin:round;stroke-miterlimit:10;" points="
	54,84.9 54,179.4 9,162.8 9,68.4 54,84.9 "/>
<polygon style="fill:#F2F2F2;stroke:#000000;stroke-width:2.835;stroke-linecap:round;stroke-linejoin:round;stroke-miterlimit:10;" points="
	351.6,84.9 306.6,68.4 9,68.4 54,84.9 "/>
<text transform="matrix(1 0 0 1 100.8146 214.5699)" style="font-family:'TimesNewRomanPS-ItalicMT'; font-size:34.0157px;">x</text>
<text transform="matrix(1 0 0 1 153.3676 29.1602)" style="font-family:'TimesNewRomanPS-ItalicMT'; font-size:34.0157px;">I = AJ</text>
<text transform="matrix(0.583 0 0 0.583 240.5331 40.4874)" style="font-family:'TimesNewRomanPS-ItalicMT'; font-size:34.0157px;">p diff</text>
<text transform="matrix(1 0 0 1 18.6463 135.7034)" style="font-family:'TimesNewRomanPS-ItalicMT'; font-size:34.0157px;">A</text>
<rect x="54" y="84.9" style="fill-rule:evenodd;clip-rule:evenodd;fill:#F2F2F2;stroke:#000000;stroke-width:2.835;stroke-linecap:round;stroke-linejoin:round;stroke-miterlimit:10;" width="297.6" height="94.5"/>
<g>
	<g>
		<line style="fill:none;stroke:#000000;stroke-width:2.835;stroke-miterlimit:10;" x1="55.4" y1="225" x2="145.8" y2="225"/>
		<g>
			<rect x="54" y="215.8" width="2.8" height="18.4"/>
		</g>
		<g>
			<polygon points="137.8,235.5 142.3,225 137.8,214.5 162.7,225 			"/>
		</g>
	</g>
</g>
<g>
	<circle style="fill:#F15A24;" cx="335.6" cy="98.7" r="9"/>
	<g>
		<path style="fill:#FFFFFF;" d="M339.6,99.2h-3.5v3.5h-1v-3.5h-3.5v-1h3.5v-3.5h1v3.5h3.5V99.2z"/>
	</g>
</g>
<g>
	<circle style="fill:#F15A24;" cx="319.9" cy="152.4" r="9"/>
	<g>
		<path style="fill:#FFFFFF;" d="M323.9,152.9h-3.5v3.5h-1v-3.5h-3.5v-1h3.5v-3.5h1v3.5h3.5V152.9z"/>
	</g>
</g>
<g>
	<circle style="fill:#F15A24;" cx="336.7" cy="166.6" r="9"/>
	<g>
		<path style="fill:#FFFFFF;" d="M340.7,167.1h-3.5v3.5h-1v-3.5h-3.5v-1h3.5v-3.5h1v3.5h3.5V167.1z"/>
	</g>
</g>
<g>
	<circle style="fill:#F15A24;" cx="321.6" cy="119.5" r="9"/>
	<g>
		<path style="fill:#FFFFFF;" d="M325.6,120h-3.5v3.5h-1V120h-3.5v-1h3.5v-3.5h1v3.5h3.5V120z"/>
	</g>
</g>
<g>
	<circle style="fill:#F15A24;" cx="336.7" cy="135.7" r="9"/>
	<g>
		<path style="fill:#FFFFFF;" d="M340.7,136.2h-3.5v3.5h-1v-3.5h-3.5v-1h3.5v-3.5h1v3.5h3.5V136.2z"/>
	</g>
</g>
<g>
	<circle style="fill:#F15A24;" cx="287.7" cy="136.7" r="9"/>
	<g>
		<path style="fill:#FFFFFF;" d="M291.7,137.2h-3.5v3.5h-1v-3.5h-3.5v-1h3.5v-3.5h1v3.5h3.5V137.2z"/>
	</g>
</g>
<g>
	<circle style="fill:#F15A24;" cx="296.7" cy="166.6" r="9"/>
	<g>
		<path style="fill:#FFFFFF;" d="M300.6,167.1h-3.5v3.5h-1v-3.5h-3.5v-1h3.5v-3.5h1v3.5h3.5V167.1z"/>
	</g>
</g>
<g>
	<circle style="fill:#F15A24;" cx="300.6" cy="102.2" r="9"/>
	<g>
		<path style="fill:#FFFFFF;" d="M304.6,102.7h-3.5v3.5h-1v-3.5h-3.5v-1h3.5v-3.5h1v3.5h3.5V102.7z"/>
	</g>
</g>
<g>
	<circle style="fill:#F15A24;" cx="259.2" cy="162.6" r="9"/>
	<g>
		<path style="fill:#FFFFFF;" d="M263.1,163.1h-3.5v3.5h-1v-3.5h-3.5v-1h3.5v-3.5h1v3.5h3.5V163.1z"/>
	</g>
</g>
<g>
	<circle style="fill:#F15A24;" cx="226.3" cy="140.7" r="9"/>
	<g>
		<path style="fill:#FFFFFF;" d="M230.3,141.2h-3.5v3.5h-1v-3.5h-3.5v-1h3.5v-3.5h1v3.5h3.5V141.2z"/>
	</g>
</g>
<g>
	<circle style="fill:#F15A24;" cx="156.7" cy="108.8" r="9"/>
	<g>
		<path style="fill:#FFFFFF;" d="M160.7,109.3h-3.5v3.5h-1v-3.5h-3.5v-1h3.5v-3.5h1v3.5h3.5V109.3z"/>
	</g>
</g>
<g>
	<circle style="fill:#F15A24;" cx="217.3" cy="102.7" r="9"/>
	<g>
		<path style="fill:#FFFFFF;" d="M221.3,103.2h-3.5v3.5h-1v-3.5h-3.5v-1h3.5v-3.5h1v3.5h3.5V103.2z"/>
	</g>
</g>
<g>
	<circle style="fill:#F15A24;" cx="261.1" cy="106.6" r="9"/>
	<g>
		<path style="fill:#FFFFFF;" d="M265,107.1h-3.5v3.5h-1v-3.5h-3.5v-1h3.5v-3.5h1v3.5h3.5V107.1z"/>
	</g>
</g>
<g>
	<circle style="fill:#F15A24;" cx="181.8" cy="161.4" r="9"/>
	<g>
		<path style="fill:#FFFFFF;" d="M185.8,161.9h-3.5v3.5h-1v-3.5h-3.5v-1h3.5v-3.5h1v3.5h3.5V161.9z"/>
	</g>
</g>
<g>
	<circle style="fill:#F15A24;" cx="112.6" cy="145.8" r="9"/>
	<g>
		<path style="fill:#FFFFFF;" d="M116.5,146.3H113v3.5h-1v-3.5h-3.5v-1h3.5v-3.5h1v3.5h3.5V146.3z"/>
	</g>
</g>
<g>
	<circle style="fill:#F15A24;" cx="70.8" cy="111.7" r="9"/>
	<g>
		<path style="fill:#FFFFFF;" d="M74.8,112.2h-3.5v3.5h-1v-3.5h-3.5v-1h3.5v-3.5h1v3.5h3.5V112.2z"/>
	</g>
</g>
<g>
	<g>
		<line style="fill:none;stroke:#F15A24;stroke-width:2.8346;stroke-miterlimit:10;" x1="146.3" y1="47.7" x2="222.4" y2="47.7"/>
		<g>
			<polygon style="fill:#F15A24;" points="215.3,57.1 219.3,47.7 215.3,38.2 237.7,47.7 			"/>
		</g>
	</g>
</g>
</svg>
