<?xml version="1.0" encoding="utf-8"?>
<!-- Generator: Adobe Illustrator 27.0.0, SVG Export Plug-In . SVG Version: 6.00 Build 0)  -->
<svg version="1.1" id="Layer_1" xmlns="http://www.w3.org/2000/svg" xmlns:xlink="http://www.w3.org/1999/xlink" x="0px" y="0px"
	 width="665.7px" height="511.7px" viewBox="0 0 665.7 511.7" style="enable-background:new 0 0 665.7 511.7;" xml:space="preserve"
	>
<text transform="matrix(1 0 0 1 96.9169 112.6045)" style="font-family:'TimesNewRomanPSMT'; font-size:39.685px;">Reverse</text>
<text transform="matrix(1 0 0 1 107.9335 160.2266)" style="font-family:'TimesNewRomanPSMT'; font-size:39.685px;">Active</text>
<text transform="matrix(1 0 0 1 53.1142 207.8487)" style="font-family:'TimesNewRomanPSMT'; font-size:39.685px;">V</text>
<text transform="matrix(0.583 0 0 0.583 81.7733 221.0635)" style="font-family:'TimesNewRomanPSMT'; font-size:39.685px;">C</text>
<text transform="matrix(1 0 0 1 97.205 207.8487)" style="font-family:'TimesNewRomanPSMT'; font-size:39.685px;"> &lt; V</text>
<text transform="matrix(0.583 0 0 0.583 168.0878 221.0635)" style="font-family:'TimesNewRomanPSMT'; font-size:39.685px;">B</text>
<text transform="matrix(1 0 0 1 183.5194 207.8487)" style="font-family:'TimesNewRomanPSMT'; font-size:39.685px;"> &lt; V</text>
<text transform="matrix(0.583 0 0 0.583 254.4023 221.0635)" style="font-family:'TimesNewRomanPSMT'; font-size:39.685px;">E</text>
<text transform="matrix(1 0 0 1 314.2751 40.4148)" style="font-family:'TimesNewRomanPSMT'; font-size:39.685px;">V</text>
<text transform="matrix(0.583 0 0 0.583 342.9343 53.6297)" style="font-family:'TimesNewRomanPSMT'; font-size:39.685px;">BC</text>
<text transform="matrix(1 0 0 1 599.02 228.5287)" style="font-family:'TimesNewRomanPSMT'; font-size:39.685px;">V</text>
<text transform="matrix(0.583 0 0 0.583 627.6792 241.7435)" style="font-family:'TimesNewRomanPSMT'; font-size:39.685px;">BE</text>
<text transform="matrix(1 0 0 1 98.0035 302.1761)" style="font-family:'TimesNewRomanPSMT'; font-size:39.685px;">Cut-Off</text>
<text transform="matrix(1 0 0 1 96.2721 349.7982)" style="font-family:'TimesNewRomanPSMT'; font-size:39.685px;">V</text>
<text transform="matrix(0.583 0 0 0.583 124.9313 363.0131)" style="font-family:'TimesNewRomanPSMT'; font-size:39.685px;">E</text>
<text transform="matrix(1 0 0 1 139.0641 349.7982)" style="font-family:'TimesNewRomanPSMT'; font-size:39.685px;"> &gt; V</text>
<text transform="matrix(0.583 0 0 0.583 209.9469 363.0131)" style="font-family:'TimesNewRomanPSMT'; font-size:39.685px;">B</text>
<text transform="matrix(1 0 0 1 95.6217 397.4203)" style="font-family:'TimesNewRomanPSMT'; font-size:39.685px;">V</text>
<text transform="matrix(0.583 0 0 0.583 124.2809 410.6351)" style="font-family:'TimesNewRomanPSMT'; font-size:39.685px;">C</text>
<text transform="matrix(1 0 0 1 139.7125 397.4203)" style="font-family:'TimesNewRomanPSMT'; font-size:39.685px;"> &gt; V</text>
<text transform="matrix(0.583 0 0 0.583 210.5953 410.6351)" style="font-family:'TimesNewRomanPSMT'; font-size:39.685px;">B</text>
<text transform="matrix(1 0 0 1 364.1931 112.6047)" style="font-family:'TimesNewRomanPSMT'; font-size:39.685px;">Saturation</text>
<text transform="matrix(1 0 0 1 381.2 160.2268)" style="font-family:'TimesNewRomanPSMT'; font-size:39.685px;">V</text>
<text transform="matrix(0.583 0 0 0.583 409.8592 173.4417)" style="font-family:'TimesNewRomanPSMT'; font-size:39.685px;">E</text>
<text transform="matrix(1 0 0 1 423.992 160.2268)" style="font-family:'TimesNewRomanPSMT'; font-size:39.685px;"> &lt; V</text>
<text transform="matrix(0.583 0 0 0.583 494.8748 173.4417)" style="font-family:'TimesNewRomanPSMT'; font-size:39.685px;">B</text>
<text transform="matrix(1 0 0 1 381.6443 207.8489)" style="font-family:'TimesNewRomanPSMT'; font-size:39.685px;">V</text>
<text transform="matrix(0.583 0 0 0.583 410.3035 221.0637)" style="font-family:'TimesNewRomanPSMT'; font-size:39.685px;">C</text>
<text transform="matrix(1 0 0 1 425.7351 207.8489)" style="font-family:'TimesNewRomanPSMT'; font-size:39.685px;"> &lt; C</text>
<text transform="matrix(0.583 0 0 0.583 494.4285 221.0637)" style="font-family:'TimesNewRomanPSMT'; font-size:39.685px;">B</text>
<text transform="matrix(1 0 0 1 373.5617 302.1761)" style="font-family:'TimesNewRomanPSMT'; font-size:39.685px;">Forward </text>
<text transform="matrix(1 0 0 1 387.9006 349.7982)" style="font-family:'TimesNewRomanPSMT'; font-size:39.685px;">Active </text>
<text transform="matrix(1 0 0 1 338.0422 397.4202)" style="font-family:'TimesNewRomanPSMT'; font-size:39.685px;">V</text>
<text transform="matrix(0.583 0 0 0.583 366.7014 410.6351)" style="font-family:'TimesNewRomanPSMT'; font-size:39.685px;">C</text>
<text transform="matrix(1 0 0 1 382.133 397.4202)" style="font-family:'TimesNewRomanPSMT'; font-size:39.685px;"> &gt; V</text>
<text transform="matrix(0.583 0 0 0.583 453.0158 410.6351)" style="font-family:'TimesNewRomanPSMT'; font-size:39.685px;">B</text>
<text transform="matrix(1 0 0 1 468.4474 397.4202)" style="font-family:'TimesNewRomanPSMT'; font-size:39.685px;"> &gt; V</text>
<text transform="matrix(0.583 0 0 0.583 539.3303 410.6351)" style="font-family:'TimesNewRomanPSMT'; font-size:39.685px;">E</text>
<g>
	<g>
		
			<line style="fill:none;stroke:#000000;stroke-width:2.835;stroke-linecap:round;stroke-linejoin:round;" x1="295.2" y1="36.5" x2="295.2" y2="511.7"/>
		<g>
			<path d="M281.6,55.9c0.7,0.4,1.5,0.2,2-0.4l11.7-18.3l11.7,18.3c0.4,0.7,1.3,0.9,2,0.4c0.7-0.4,0.8-1.3,0.4-2l-12.8-20.2
				c-0.3-0.4-0.7-0.7-1.2-0.7c-0.5,0-0.9,0.2-1.2,0.7l-12.8,20.2c-0.1,0.2-0.2,0.5-0.2,0.8C280.9,55.2,281.2,55.6,281.6,55.9z"/>
		</g>
	</g>
</g>
<g>
	<g>
		
			<line style="fill:none;stroke:#000000;stroke-width:2.835;stroke-linecap:round;stroke-linejoin:round;" x1="605.7" y1="241.2" x2="0" y2="241.2"/>
		<g>
			<path d="M586.3,227.6c-0.4,0.7-0.2,1.5,0.4,2l18.3,11.7l-18.3,11.7c-0.7,0.4-0.9,1.3-0.4,2s1.3,0.8,2,0.4l20.2-12.8
				c0.4-0.3,0.7-0.7,0.7-1.2s-0.2-0.9-0.7-1.2l-20.2-12.8c-0.2-0.1-0.5-0.2-0.8-0.2C587.1,227,586.6,227.2,586.3,227.6z"/>
		</g>
	</g>
</g>
</svg>
