<?xml version="1.0" encoding="utf-8"?>
<!-- Generator: Adobe Illustrator 27.0.0, SVG Export Plug-In . SVG Version: 6.00 Build 0)  -->
<svg version="1.1" id="Layer_1" xmlns="http://www.w3.org/2000/svg" xmlns:xlink="http://www.w3.org/1999/xlink" x="0px" y="0px"
	 width="694.3px" height="617.2px" viewBox="0 0 694.3 617.2" style="enable-background:new 0 0 694.3 617.2;" xml:space="preserve"
	>
<g>
	<g>
		<g>
			<line style="fill:none;stroke:#000000;stroke-width:2.835;stroke-miterlimit:10;" x1="138" y1="172.1" x2="138" y2="84.7"/>
			<g>
				<path d="M142.2,84.7c0-2.4-1.9-4.3-4.3-4.3c-2.4,0-4.3,1.9-4.3,4.3c0,2.4,1.9,4.3,4.3,4.3C140.3,89,142.2,87.1,142.2,84.7z"/>
			</g>
		</g>
	</g>
	<g>
		<g>
			<line style="fill:none;stroke:#000000;stroke-width:2.835;stroke-miterlimit:10;" x1="138" y1="302.8" x2="138" y2="234.5"/>
			<g>
				<path d="M142.2,302.8c0,2.4-1.9,4.3-4.3,4.3c-2.4,0-4.3-1.9-4.3-4.3c0-2.4,1.9-4.3,4.3-4.3C140.3,298.6,142.2,300.5,142.2,302.8
					z"/>
			</g>
		</g>
	</g>
	
		<circle style="fill-rule:evenodd;clip-rule:evenodd;fill:none;stroke:#000000;stroke-width:2.835;stroke-miterlimit:10;" cx="138" cy="203.3" r="31.2"/>
	<line style="fill:none;stroke:#000000;stroke-width:2.835;stroke-miterlimit:10;" x1="133.5" y1="188.8" x2="142.5" y2="188.8"/>
	<line style="fill:none;stroke:#000000;stroke-width:2.835;stroke-miterlimit:10;" x1="142.5" y1="217.2" x2="133.5" y2="217.2"/>
	<line style="fill:none;stroke:#000000;stroke-width:2.835;stroke-miterlimit:10;" x1="138" y1="193.3" x2="138" y2="184.3"/>
</g>
<text transform="matrix(1 0 0 1 83.2408 184.2898)" style="font-family:'TimesNewRomanPS-ItalicMT'; font-size:39.685px;">V</text>
<text transform="matrix(1 0 0 1 334.7842 466.3898)" style="font-family:'TimesNewRomanPS-ItalicMT'; font-size:39.685px;">V/R</text>
<g>
	<g>
		<polyline style="fill:none;stroke:#000000;stroke-width:2.835;stroke-miterlimit:10;" points="138,84.7 203.8,84.7 207.3,93.2 
			214.2,76.2 221.1,93.2 228,76.2 235,93.2 241.9,76.2 248.8,93.2 255.8,76.2 259.2,84.7 325.1,84.7 		"/>
		<g>
			<path d="M138,89c-2.4,0-4.3-1.9-4.3-4.3c0-2.4,1.9-4.3,4.3-4.3c2.4,0,4.3,1.9,4.3,4.3C142.2,87.1,140.3,89,138,89z"/>
		</g>
		<g>
			<path d="M325.1,89c2.4,0,4.3-1.9,4.3-4.3s-1.9-4.3-4.3-4.3c-2.4,0-4.3,1.9-4.3,4.3C320.8,87.1,322.7,89,325.1,89z"/>
		</g>
	</g>
</g>
<text transform="matrix(1 0 0 1 222.3497 61.4264)" style="font-family:'TimesNewRomanPS-ItalicMT'; font-size:34.0157px;">R</text>
<g>
	<g>
		<g>
			<line style="fill:none;stroke:#000000;stroke-width:2.835;stroke-miterlimit:10;" x1="325.1" y1="84.7" x2="325.1" y2="302.8"/>
			<g>
				<path d="M320.8,84.7c0-2.4,1.9-4.3,4.3-4.3c2.4,0,4.3,1.9,4.3,4.3s-1.9,4.3-4.3,4.3C322.7,89,320.8,87.1,320.8,84.7z"/>
			</g>
			<g>
				<path d="M320.8,302.8c0,2.4,1.9,4.3,4.3,4.3c2.4,0,4.3-1.9,4.3-4.3c0-2.4-1.9-4.3-4.3-4.3C322.7,298.6,320.8,300.5,320.8,302.8z
					"/>
			</g>
		</g>
	</g>
	<polyline style="fill-rule:evenodd;clip-rule:evenodd;" points="326.7,223.4 337.8,196.2 312.3,196.2 323.4,223.4 	"/>
	
		<rect x="312.3" y="222" transform="matrix(-1 -1.224647e-16 1.224647e-16 -1 650.1097 446.8234)" style="fill-rule:evenodd;clip-rule:evenodd;" width="25.5" height="2.8"/>
</g>
<line style="fill:none;stroke:#000000;stroke-width:2.835;stroke-miterlimit:10;" x1="325.1" y1="302.8" x2="138" y2="302.8"/>
<path style="fill:none;stroke:#000000;stroke-width:1.4173;stroke-miterlimit:10;stroke-dasharray:8.5039;" d="M277.3,345.8H25.6
	c-8,0-14.6-6.6-14.6-14.6V25.4c0-8,6.6-14.6,14.6-14.6h251.8c8,0,14.6,6.6,14.6,14.6v305.8C291.9,339.3,285.3,345.8,277.3,345.8z"/>
<text transform="matrix(0.583 0 0 0.583 19.9064 331.8816)" style="font-family:'TimesNewRomanPSMT'; font-size:39.685px;">Thevenin equivalent circuit</text>
<text transform="matrix(1 0 0 1 397.5689 224.8294)" style="font-family:'TimesNewRomanPS-ItalicMT'; font-size:39.685px;">V</text>
<text transform="matrix(0.583 0 0 0.583 421.8101 238.0443)" style="font-family:'TimesNewRomanPS-ItalicMT'; font-size:39.685px;">D</text>
<g>
	<line style="fill:none;stroke:#2189F9;stroke-width:2.8346;stroke-miterlimit:10;" x1="426.1" y1="167.1" x2="439.5" y2="167.1"/>
	<line style="fill:none;stroke:#2189F9;stroke-width:2.8346;stroke-miterlimit:10;" x1="432.8" y1="173.8" x2="432.8" y2="160.4"/>
</g>
<g>
	<g>
		<line style="fill:none;stroke:#2189F9;stroke-width:2.8346;stroke-miterlimit:10;" x1="411.7" y1="167.1" x2="325.1" y2="167.1"/>
		<g>
			<rect x="406" y="161.5" style="fill:#2189F9;" width="11.2" height="11.2"/>
		</g>
		<g>
			<path style="fill:#2189F9;" d="M325.1,162.8c-2.4,0-4.3,1.9-4.3,4.3c0,2.4,1.9,4.3,4.3,4.3c2.4,0,4.3-1.9,4.3-4.3
				C329.3,164.8,327.4,162.8,325.1,162.8z"/>
		</g>
	</g>
</g>
<g>
	<g>
		<line style="fill:none;stroke:#2189F9;stroke-width:2.8346;stroke-miterlimit:10;" x1="411.7" y1="256.6" x2="325.1" y2="256.6"/>
		<g>
			<rect x="406" y="251" style="fill:#2189F9;" width="11.2" height="11.2"/>
		</g>
		<g>
			<path style="fill:#2189F9;" d="M325.1,252.3c-2.4,0-4.3,1.9-4.3,4.3c0,2.4,1.9,4.3,4.3,4.3c2.4,0,4.3-1.9,4.3-4.3
				C329.3,254.2,327.4,252.3,325.1,252.3z"/>
		</g>
	</g>
</g>
<text transform="matrix(1 0 0 1 341.2552 133.2856)" style="font-family:'TimesNewRomanPS-ItalicMT'; font-size:39.685px;">I</text>
<text transform="matrix(0.583 0 0 0.583 354.471 146.5004)" style="font-family:'TimesNewRomanPS-ItalicMT'; font-size:39.685px;">D</text>
<g>
	<g>
		<line style="fill:none;stroke:#F15A24;stroke-width:2.8346;stroke-miterlimit:10;" x1="325.1" y1="97.6" x2="325.1" y2="129.2"/>
		<g>
			<polygon style="fill:#F15A24;" points="315.6,122 325.1,126 334.5,122 325.1,144.4 			"/>
		</g>
	</g>
</g>
<text transform="matrix(1 0 0 1 358.2885 364.6567)" style="font-family:'TimesNewRomanPS-ItalicMT'; font-size:39.685px;">I</text>
<text transform="matrix(0.583 0 0 0.583 371.5043 377.8715)" style="font-family:'TimesNewRomanPS-ItalicMT'; font-size:39.685px;">D</text>
<text transform="matrix(1 0 0 1 620.9389 588.5977)" style="font-family:'TimesNewRomanPS-ItalicMT'; font-size:39.685px;">V</text>
<text transform="matrix(0.583 0 0 0.583 645.1801 601.8126)" style="font-family:'TimesNewRomanPS-ItalicMT'; font-size:39.685px;">D</text>
<g>
	<g>
		<line style="fill:none;stroke:#000000;stroke-width:2.835;stroke-miterlimit:10;" x1="408.2" y1="368.1" x2="408.2" y2="605.3"/>
		<g>
			<path d="M394.6,387.4c0.7,0.4,1.5,0.2,2-0.4l11.7-18.3l11.7,18.3c0.4,0.7,1.3,0.9,2,0.4c0.7-0.4,0.9-1.3,0.4-2l-12.8-20.2
				c-0.3-0.4-0.7-0.7-1.2-0.7c-0.5,0-0.9,0.2-1.2,0.7l-12.8,20.2c-0.1,0.2-0.2,0.5-0.2,0.8C393.9,386.7,394.2,387.2,394.6,387.4z"/>
		</g>
	</g>
</g>
<g>
	<g>
		<line style="fill:none;stroke:#000000;stroke-width:2.835;stroke-miterlimit:10;" x1="189.7" y1="573.1" x2="605.8" y2="573.1"/>
		<g>
			<path d="M586.4,586.7c-0.4-0.7-0.2-1.5,0.4-2l18.3-11.7l-18.3-11.7c-0.7-0.4-0.9-1.3-0.4-2s1.3-0.8,2-0.4l20.2,12.8
				c0.4,0.3,0.7,0.7,0.7,1.2s-0.2,0.9-0.7,1.2l-20.2,12.8c-0.2,0.1-0.5,0.2-0.8,0.2C587.2,587.3,586.7,587.1,586.4,586.7z"/>
		</g>
	</g>
</g>
<path style="fill:none;stroke:#00B6FF;stroke-width:2.835;stroke-miterlimit:10;" d="M241.8,583.6c202.5,0,239,21.7,245.4-224.1"/>
<line style="fill:none;stroke:#FF2444;stroke-width:2.835;stroke-miterlimit:10;" x1="408.2" y1="455.1" x2="581.6" y2="521.7"/>
<text transform="matrix(1 0 0 1 557.9957 440.3986)" style="font-family:'TimesNewRomanPSMT'; font-size:34.0157px;">Q point</text>
<circle cx="477.5" cy="481.7" r="3.4"/>
<g>
	<g>
		<path style="fill:none;stroke:#000000;stroke-width:2.835;stroke-miterlimit:10;" d="M556.8,440.4c-25.4,25.4-30.4,4.4-56.9,23.5"
			/>
		<g>
			<polygon points="499.3,456.2 484.8,477.1 507.8,466.3 			"/>
		</g>
	</g>
</g>
<text transform="matrix(1 0 0 1 427.2061 350.6931)" style="fill:#00B6FF; font-family:'TimesNewRomanPSMT'; font-size:34.0157px;">I-V Characteristics</text>
<text transform="matrix(1 0 0 1 556.805 505.6205)" style="fill:#FF2444; font-family:'TimesNewRomanPSMT'; font-size:34.0157px;">Load line</text>
</svg>
