<?xml version="1.0" encoding="utf-8"?>
<!-- Generator: Adobe Illustrator 27.0.0, SVG Export Plug-In . SVG Version: 6.00 Build 0)  -->
<svg version="1.1" id="Layer_1" xmlns="http://www.w3.org/2000/svg" xmlns:xlink="http://www.w3.org/1999/xlink" x="0px" y="0px"
	 width="424.8px" height="342px" viewBox="0 0 424.8 342" style="enable-background:new 0 0 424.8 342;" xml:space="preserve">
<text transform="matrix(1 0 0 1 39.8945 238.688)" style="font-family:'TimesNewRomanPS-ItalicMT'; font-size:34.0157px;">V</text>
<text transform="matrix(0.583 0 0 0.583 60.6728 250.0152)" style="font-family:'TimesNewRomanPS-ItalicMT'; font-size:34.0157px;">D</text>
<text transform="matrix(1 0 0 1 74.9941 238.688)" style="font-family:'TimesNewRomanPS-ItalicMT'; font-size:34.0157px;"> &lt; 0</text>
<text transform="matrix(1 0 0 1 251.2768 229.0529)" style="font-family:'TimesNewRomanPS-ItalicMT'; font-size:34.0157px;">I</text>
<text transform="matrix(0.583 0 0 0.583 262.6039 240.38)" style="font-family:'TimesNewRomanPS-ItalicMT'; font-size:34.0157px;">D</text>
<text transform="matrix(1 0 0 1 276.9252 229.0529)" style="font-family:'TimesNewRomanPS-ItalicMT'; font-size:34.0157px;"> &gt; 0</text>
<text transform="matrix(1 0 0 1 139.5508 46.4839)" style="font-family:'TimesNewRomanPS-ItalicMT'; font-size:39.685px;">I</text>
<text transform="matrix(0.583 0 0 0.583 152.7666 59.6987)" style="font-family:'TimesNewRomanPS-ItalicMT'; font-size:39.685px;">D</text>
<text transform="matrix(1 0 0 1 370.3702 314.3462)" style="font-family:'TimesNewRomanPS-ItalicMT'; font-size:39.685px;">V</text>
<text transform="matrix(0.583 0 0 0.583 394.6115 327.561)" style="font-family:'TimesNewRomanPS-ItalicMT'; font-size:39.685px;">D</text>
<g>
	<line style="fill:none;stroke:#000000;stroke-width:2.835;stroke-miterlimit:10;" x1="17.6" y1="178.8" x2="59.6" y2="178.8"/>
	<g>
		<g>
			<line style="fill:none;stroke:#000000;stroke-width:2.835;stroke-miterlimit:10;" x1="59.6" y1="178.8" x2="94.1" y2="157.3"/>
			<g>
				<path d="M61.8,182.4c-2,1.2-4.6,0.6-5.9-1.4s-0.6-4.6,1.4-5.9c2-1.2,4.6-0.6,5.9,1.4S63.8,181.2,61.8,182.4z"/>
			</g>
		</g>
	</g>
	<g>
		<g>
			<line style="fill:none;stroke:#000000;stroke-width:2.835;stroke-miterlimit:10;" x1="100.2" y1="178.8" x2="142.2" y2="178.8"/>
			<g>
				<circle cx="100.2" cy="178.8" r="4.3"/>
			</g>
		</g>
	</g>
</g>
<g>
	<line style="fill:none;stroke:#000000;stroke-width:2.835;stroke-miterlimit:10;" x1="230.3" y1="178.8" x2="272.3" y2="178.8"/>
	<g>
		<g>
			<line style="fill:none;stroke:#000000;stroke-width:2.835;stroke-miterlimit:10;" x1="272.3" y1="178.8" x2="312.6" y2="173.5"/>
			<g>
				<path d="M272.8,183c-2.3,0.3-4.5-1.3-4.8-3.7c-0.3-2.3,1.3-4.5,3.7-4.8c2.3-0.3,4.5,1.3,4.8,3.7
					C276.8,180.6,275.1,182.7,272.8,183z"/>
			</g>
		</g>
	</g>
	<g>
		<g>
			<line style="fill:none;stroke:#000000;stroke-width:2.835;stroke-miterlimit:10;" x1="312.9" y1="178.8" x2="354.9" y2="178.8"/>
			<g>
				<path d="M312.9,183.1c-2.4,0-4.3-1.9-4.3-4.3s1.9-4.3,4.3-4.3c2.4,0,4.3,1.9,4.3,4.3S315.3,183.1,312.9,183.1z"/>
			</g>
		</g>
	</g>
</g>
<g>
	<g>
		<line style="fill:none;stroke:#000000;stroke-width:2.835;stroke-miterlimit:10;" x1="189.4" y1="49.9" x2="189.4" y2="331.2"/>
		<g>
			<path d="M175.8,69.3c0.7,0.4,1.5,0.2,2-0.4l11.7-18.3l11.7,18.3c0.4,0.7,1.3,0.9,2,0.4c0.7-0.4,0.8-1.3,0.4-2l-12.8-20.2
				c-0.3-0.4-0.7-0.7-1.2-0.7c-0.5,0-0.9,0.2-1.2,0.7l-12.8,20.2c-0.1,0.2-0.2,0.5-0.2,0.8C175.2,68.5,175.4,69,175.8,69.3z"/>
		</g>
	</g>
</g>
<g>
	<g>
		<line style="fill:none;stroke:#000000;stroke-width:2.835;stroke-miterlimit:10;" x1="7.5" y1="278.7" x2="365.8" y2="278.7"/>
		<g>
			<path d="M346.4,292.4c-0.4-0.7-0.2-1.5,0.4-2l18.3-11.7l-18.3-11.7c-0.7-0.4-0.9-1.3-0.4-2c0.4-0.7,1.3-0.8,2-0.4l20.2,12.8
				c0.4,0.3,0.7,0.7,0.7,1.2s-0.2,0.9-0.7,1.2l-20.2,12.8c-0.2,0.1-0.5,0.2-0.8,0.2C347.1,293,346.7,292.8,346.4,292.4z"/>
		</g>
	</g>
</g>
<polyline style="fill:none;stroke:#00B6FF;stroke-width:2.835;stroke-miterlimit:10;" points="7.5,278.7 189.4,278.7 189.4,57.7 "/>
</svg>
