<?xml version="1.0" encoding="utf-8"?>
<!-- Generator: Adobe Illustrator 27.0.0, SVG Export Plug-In . SVG Version: 6.00 Build 0)  -->
<svg version="1.1" id="Layer_1" xmlns="http://www.w3.org/2000/svg" xmlns:xlink="http://www.w3.org/1999/xlink" x="0px" y="0px"
	 width="455.4px" height="579.2px" viewBox="0 0 455.4 579.2" style="enable-background:new 0 0 455.4 579.2;" xml:space="preserve"
	>
<rect x="141.5" y="135" style="fill:#BDDBFF;" width="258.1" height="124.3"/>
<rect x="141.5" y="452.3" style="fill:#DAB0FF;" width="258.1" height="126.9"/>
<g>
	<g>
		<line style="fill:none;stroke:#333333;stroke-width:2.8346;stroke-miterlimit:10;" x1="141.5" y1="93.9" x2="141.5" y2="579.2"/>
		<g>
			<path style="fill:#333333;" d="M127.9,113.3c0.7,0.4,1.5,0.2,2-0.4l11.6-18.3l11.6,18.3c0.4,0.7,1.3,0.9,2,0.4
				c0.7-0.4,0.8-1.3,0.4-2l-12.8-20.2c-0.3-0.4-0.7-0.7-1.2-0.7c-0.5,0-0.9,0.2-1.2,0.7l-12.8,20.2c-0.1,0.2-0.2,0.5-0.2,0.8
				C127.2,112.6,127.5,113,127.9,113.3z"/>
		</g>
	</g>
</g>
<line style="fill:none;stroke:#333333;stroke-width:2.8346;stroke-miterlimit:10;" x1="141.5" y1="259.3" x2="92.2" y2="259.3"/>
<line style="fill:none;stroke:#333333;stroke-width:2.8346;stroke-miterlimit:10;" x1="141.5" y1="452.3" x2="92.2" y2="452.3"/>
<text transform="matrix(1 0 0 1 157.6021 90.5376)" style="font-family:'TimesNewRomanPSMT'; font-size:28.3465px;">E (eV)</text>
<g>
	<text transform="matrix(0.583 0 0 0.583 412.7476 363.128)" style="font-family:'TimesNewRomanPSMT'; font-size:50.1838px;">E</text>
	<text transform="matrix(0.583 0 0 0.583 432.0894 367.9737)" style="font-family:'TimesNewRomanPSMT'; font-size:35.4912px;">g</text>
</g>
<g>
	<g>
		<line style="fill:none;stroke:#000000;stroke-width:2.8346;stroke-miterlimit:10;" x1="399.6" y1="284.4" x2="399.6" y2="427.2"/>
		<g>
			<polygon points="391.3,290.1 399.6,259.3 407.8,290.1 			"/>
		</g>
		<g>
			<polygon points="391.3,421.6 399.6,452.3 407.8,421.6 			"/>
		</g>
	</g>
</g>
<text transform="matrix(1 0 0 1 170.8888 204.5996)" style="font-family:'TimesNewRomanPSMT'; font-size:28.3465px;">Conduction Band</text>
<text transform="matrix(1 0 0 1 192.1764 523.1544)" style="font-family:'TimesNewRomanPSMT'; font-size:28.3465px;">Valence Band</text>
<text transform="matrix(1 0 0 1 178.6865 30.7824)" style="font-family:'TimesNewRomanPS-BoldMT'; font-size:34.0157px;">N-type</text>
<g>
	<g>
		<line style="fill:none;stroke:#000000;stroke-width:2.8346;stroke-miterlimit:10;" x1="399.6" y1="355.8" x2="393.6" y2="355.8"/>
		
			<line style="fill:none;stroke:#000000;stroke-width:2.8346;stroke-miterlimit:10;stroke-dasharray:11.8129,11.8129;" x1="381.8" y1="355.8" x2="104.2" y2="355.8"/>
		<line style="fill:none;stroke:#000000;stroke-width:2.8346;stroke-miterlimit:10;" x1="98.2" y1="355.8" x2="92.2" y2="355.8"/>
	</g>
</g>
<g>
	<g>
		<line style="fill:none;stroke:#C1272D;stroke-width:2.8346;stroke-miterlimit:10;" x1="399.6" y1="305.6" x2="393.6" y2="305.6"/>
		
			<line style="fill:none;stroke:#C1272D;stroke-width:2.8346;stroke-miterlimit:10;stroke-dasharray:11.8129,11.8129;" x1="381.8" y1="305.6" x2="104.2" y2="305.6"/>
		<line style="fill:none;stroke:#C1272D;stroke-width:2.8346;stroke-miterlimit:10;" x1="98.2" y1="305.6" x2="92.2" y2="305.6"/>
	</g>
</g>
<text transform="matrix(1 0 0 1 57.4729 367.9489)" style="font-family:'TimesNewRomanPS-ItalicMT'; font-size:34.0157px;">E</text>
<text transform="matrix(0.583 0 0 0.583 78.2512 379.276)" style="font-family:'TimesNewRomanPS-ItalicMT'; font-size:34.0157px;">i</text>
<text transform="matrix(1 0 0 1 61.3451 316.4446)" style="font-family:'TimesNewRomanPS-ItalicMT'; font-size:34.0157px;">E</text>
<text transform="matrix(0.583 0 0 0.583 82.1235 327.7718)" style="font-family:'TimesNewRomanPS-ItalicMT'; font-size:34.0157px;">f</text>
<text transform="matrix(1 0 0 1 58.0527 265.6248)" style="font-family:'TimesNewRomanPS-ItalicMT'; font-size:34.0157px;">E</text>
<text transform="matrix(0.583 0 0 0.583 78.831 276.9519)" style="font-family:'TimesNewRomanPS-ItalicMT'; font-size:34.0157px;">c</text>
<text transform="matrix(1 0 0 1 58.0526 458.7366)" style="font-family:'TimesNewRomanPS-ItalicMT'; font-size:34.0157px;">E</text>
<text transform="matrix(0.583 0 0 0.583 78.8309 470.0638)" style="font-family:'TimesNewRomanPS-ItalicMT'; font-size:34.0157px;">v</text>
</svg>
