<?xml version="1.0" encoding="utf-8"?>
<!-- Generator: Adobe Illustrator 27.0.0, SVG Export Plug-In . SVG Version: 6.00 Build 0)  -->
<svg version="1.1" id="Layer_1" xmlns="http://www.w3.org/2000/svg" xmlns:xlink="http://www.w3.org/1999/xlink" x="0px" y="0px"
	 width="686.8px" height="493.4px" viewBox="0 0 686.8 493.4" style="enable-background:new 0 0 686.8 493.4;" xml:space="preserve"
	>
<style type="text/css">
	.st0{clip-path:url(#SVGID_00000065057915841436188580000014363877325640770993_);fill:#FFFFFF;}
	.st1{fill:#FFFFFF;}
	.st2{fill:none;stroke:#262626;stroke-width:0.6667;stroke-linecap:square;stroke-linejoin:round;stroke-miterlimit:10;}
	.st3{fill:#262626;}
	.st4{font-family:'ArialMT';}
	.st5{font-size:9.4526px;}
	.st6{fill:none;stroke:#0072BD;stroke-width:0.6667;stroke-linejoin:round;stroke-miterlimit:10;}
</style>
<g>
	<g>
		<g>
			<g>
				<defs>
					<rect id="SVGID_1_" x="-0.2" width="687" height="493.4"/>
				</defs>
				<clipPath id="SVGID_00000160191301988502113300000011708887124962765459_">
					<use xlink:href="#SVGID_1_"  style="overflow:visible;"/>
				</clipPath>
				
					<rect x="-0.2" style="clip-path:url(#SVGID_00000160191301988502113300000011708887124962765459_);fill:#FFFFFF;" width="687" height="493.4"/>
			</g>
		</g>
		<g>
			<rect x="-0.2" class="st1" width="687" height="493.4"/>
			<path class="st1" d="M89.2,438.8h532.4v-402H89.2V438.8z"/>
		</g>
		<g>
			<line class="st2" x1="89.2" y1="438.8" x2="621.6" y2="438.8"/>
			<line class="st2" x1="89.2" y1="36.9" x2="621.6" y2="36.9"/>
			<line class="st2" x1="113.4" y1="438.8" x2="113.4" y2="433.5"/>
			<line class="st2" x1="170.1" y1="438.8" x2="170.1" y2="433.5"/>
			<line class="st2" x1="226.8" y1="438.8" x2="226.8" y2="433.5"/>
			<line class="st2" x1="283.5" y1="438.8" x2="283.5" y2="433.5"/>
			<line class="st2" x1="340.2" y1="438.8" x2="340.2" y2="433.5"/>
			<line class="st2" x1="396.8" y1="438.8" x2="396.8" y2="433.5"/>
			<line class="st2" x1="453.5" y1="438.8" x2="453.5" y2="433.5"/>
			<line class="st2" x1="510.2" y1="438.8" x2="510.2" y2="433.5"/>
			<line class="st2" x1="566.9" y1="438.8" x2="566.9" y2="433.5"/>
			<line class="st2" x1="113.4" y1="36.9" x2="113.4" y2="42.2"/>
			<line class="st2" x1="170.1" y1="36.9" x2="170.1" y2="42.2"/>
			<line class="st2" x1="226.8" y1="36.9" x2="226.8" y2="42.2"/>
			<line class="st2" x1="283.5" y1="36.9" x2="283.5" y2="42.2"/>
			<line class="st2" x1="340.2" y1="36.9" x2="340.2" y2="42.2"/>
			<line class="st2" x1="396.8" y1="36.9" x2="396.8" y2="42.2"/>
			<line class="st2" x1="453.5" y1="36.9" x2="453.5" y2="42.2"/>
			<line class="st2" x1="510.2" y1="36.9" x2="510.2" y2="42.2"/>
			<line class="st2" x1="566.9" y1="36.9" x2="566.9" y2="42.2"/>
		</g>
		<g transform="translate(160.153,624.3333)">
			<text transform="matrix(1 0 0 1 -49.6036 -171.7907)" class="st3 st4 st5">4</text>
		</g>
		<g transform="translate(240.1194,624.3333)">
			<text transform="matrix(1 0 0 1 -72.8776 -171.7907)" class="st3 st4 st5">6</text>
		</g>
		<g transform="translate(320.0859,624.3333)">
			<text transform="matrix(1 0 0 1 -96.1527 -171.7907)" class="st3 st4 st5">8</text>
		</g>
		<g transform="translate(400.0524,624.3333)">
			<text transform="matrix(1 0 0 1 -121.9088 -171.7907)" class="st3 st4 st5">10</text>
		</g>
		<g transform="translate(480.0189,624.3333)">
			<text transform="matrix(1 0 0 1 -145.1833 -171.7907)" class="st3 st4 st5">12</text>
		</g>
		<g transform="translate(559.9854,624.3333)">
			<text transform="matrix(1 0 0 1 -168.4585 -171.7907)" class="st3 st4 st5">14</text>
		</g>
		<g transform="translate(639.9518,624.3333)">
			<text transform="matrix(1 0 0 1 -191.7325 -171.7907)" class="st3 st4 st5">16</text>
		</g>
		<g transform="translate(719.9183,624.3333)">
			<text transform="matrix(1 0 0 1 -215.0075 -171.7907)" class="st3 st4 st5">18</text>
		</g>
		<g transform="translate(799.8848,624.3333)">
			<text transform="matrix(1 0 0 1 -238.2817 -171.7907)" class="st3 st4 st5">20</text>
		</g>
		<g>
			<line class="st2" x1="89.2" y1="438.8" x2="89.2" y2="36.9"/>
			<line class="st2" x1="621.6" y1="438.8" x2="621.6" y2="36.9"/>
			<line class="st2" x1="89.2" y1="423.3" x2="94.5" y2="423.3"/>
			<line class="st2" x1="89.2" y1="356.5" x2="94.5" y2="356.5"/>
			<line class="st2" x1="89.2" y1="289.6" x2="94.5" y2="289.6"/>
			<line class="st2" x1="89.2" y1="222.7" x2="94.5" y2="222.7"/>
			<line class="st2" x1="89.2" y1="155.8" x2="94.5" y2="155.8"/>
			<line class="st2" x1="89.2" y1="89" x2="94.5" y2="89"/>
			<line class="st2" x1="621.6" y1="423.3" x2="616.3" y2="423.3"/>
			<line class="st2" x1="621.6" y1="356.5" x2="616.3" y2="356.5"/>
			<line class="st2" x1="621.6" y1="289.6" x2="616.3" y2="289.6"/>
			<line class="st2" x1="621.6" y1="222.7" x2="616.3" y2="222.7"/>
			<line class="st2" x1="621.6" y1="155.8" x2="616.3" y2="155.8"/>
			<line class="st2" x1="621.6" y1="89" x2="616.3" y2="89"/>
		</g>
		<g transform="translate(120.6667,597.1544)">
			<text transform="matrix(1 0 0 1 -48.7443 -169.9068)" class="st3 st4 st5">0.5</text>
		</g>
		<g transform="translate(120.6667,502.8197)">
			<text transform="matrix(1 0 0 1 -40.9464 -142.449)" class="st3 st4 st5">1</text>
		</g>
		<g transform="translate(120.6667,408.4851)">
			<text transform="matrix(1 0 0 1 -48.7443 -114.9933)" class="st3 st4 st5">1.5</text>
		</g>
		<g transform="translate(120.6667,314.1505)">
			<text transform="matrix(1 0 0 1 -40.9464 -87.5362)" class="st3 st4 st5">2</text>
		</g>
		<g transform="translate(120.6667,219.8159)">
			<text transform="matrix(1 0 0 1 -48.7443 -60.0795)" class="st3 st4 st5">2.5</text>
		</g>
		<g transform="translate(120.6667,125.4812)">
			<text transform="matrix(1 0 0 1 -40.9464 -32.6227)" class="st3 st4 st5">3</text>
		</g>
		<g>
			<path class="st6" d="M89.1,246.1l0.1-1.9l0,5.4l0-5.4l0.2,5.4h0l0,5.4h0.2h0l0-5.4l0.2,5.4l0-5.4l0.1,10.7l0-5.4h0l0-5.4l0,10.7
				l0.1-5.4h0l0,5.4l0-10.7l0.1,5.4h0l0,5.4l0-10.7l0.1,5.4h0l0,5.4l0.2-5.4h0l0,5.4l0-10.7l0.2,5.4h0l0,5.4l0.1-10.7l0.1,10.7h0
				l0-5.4h0.2h0l0,5.4l0.2-5.4l0,5.4l0-5.4l0.2,5.4h0l0-5.4l0.2,5.4h0l0-5.4l0,10.7l0.2-5.4h0l0,5.4H92l0-5.4l0.2,10.7l0-5.4h0
				l0-5.4l0.1,10.7l0-5.4h0l0,5.4l0-10.7l0.1,5.4l0,5.4l0-5.4h0.2h0l0,5.4l0.2-10.7l0,5.4h0l0,5.4l0-10.7h0.2l0,5.4l0-5.4l0.2,5.4h0
				l0-5.4l0.2,5.4h0l0-5.4l0.2,5.4h0l0-5.4l0.2,5.4h0l0-5.4l0.2,5.4l0-5.4l0,5.4h0.2h0l0-5.4l0.1,10.7l0-5.4h0l0-5.4l0,10.7l0.2-5.4
				h0l0-5.4l0.2,5.4h0l0-5.4l0.2,5.4h0l0-5.4H95h0l0,5.4l0.1-10.7l0.1,5.4h0l0-5.4h0.2h0l0,5.4l0.1-10.7l0,5.4h0l0-5.4l0.2,5.4h0
				l0-5.4h0.2h0l0,5.4l0.2-5.4h0l0,5.4l0.2-5.4h0l0,5.4l0.2-5.4h0l0.1,10.7l0.1-5.4l0,5.4l0-5.4l0.2,5.4h0l0-5.4l0,10.7l0.1-5.4h0
				l0,5.4h0.2h0l0-5.4l0,10.7l0.2-5.4h0l0,5.4h0.2h0l0-5.4h0.2l0,5.4l0-5.4l0.2,5.4l0-5.4l0,5.4H98h0l0-5.4l0.2,5.4h0l0-5.4l0.2,5.4
				h0l0-5.4l0.2,5.4h0l0-5.4l0.1,10.7l0-5.4l0,5.4l0-5.4l0.2,5.4h0l0-5.4l0.2,5.4h0l0,5.4h0.2h0l0-5.4l0.1,10.7l0.1-5.4l0,5.4l0-5.4
				l0.2,5.4h0l0-5.4l0,10.7l0.1-5.4l0,5.4l0-5.4l0.2,5.4l0-5.4l0,5.4l0.2-5.4h0l0,5.4l0.2-5.4h0l0,5.4l0.1-10.7l0.1,5.4l0-5.4l0,5.4
				l0.2-5.4h0l0,5.4l0.1-10.7l0.1,5.4h0l0-5.4h0.2h0l0,5.4l0.1-10.7l0.1,5.4h0l0-5.4h0.2h0l0,5.4h0.2l0-5.4l0,5.4l0.2-5.4l0,5.4
				l0-5.4l0.1,10.7l0.1-5.4h0l0,5.4l0.1-10.7l0,10.7l0-5.4l0,5.4h0.2h0l0-5.4l0.1,10.7l0.1-5.4l0,5.4l0-5.4l0.2,5.4l0-5.4l0,5.4h0.2
				l0-5.4l0,5.4l0.2-5.4h0l0,5.4l0.2-10.7l0,5.4h0l0-5.4l0.2,5.4h0l0.1-10.7l0,5.4l0-5.4l0,5.4l0.1-10.7l0,5.4h0l0,5.4l0.1-16.1
				l0,10.7l0-5.4l0-5.4h0.2h0l0-5.4h0.2h0l0.2-10.7l0,5.4h0l0,5.4l0.1-10.7h0.1h0l0,5.4l0.1-10.7l0.1,5.4l0-5.4l0.1,10.7h0.1l0-5.4
				l0.1,10.7h0.1h0l0.1,5.4h0.1h0l0-5.4l0,10.7h0.1h0l0-5.4l0.1,10.7h0.1l0-5.4l0.2,10.7l0-5.4h0l0,5.4h0.2h0l0-5.4l0.1,10.7
				l0.1-5.4l0,5.4l0-5.4l0.2,5.4h0l0-5.4l0.1,10.7l0.1-5.4l0,5.4l0-5.4l0.2,5.4h0l0,5.4h0.2h0l0-5.4l0.1,10.7l0.1-5.4l0,5.4l0-5.4
				l0.1,10.7l0-5.4h0l0,5.4h0.2l0-5.4l0.1,10.7l0.1-5.4h0l0,5.4l0.1-10.7l0.1,10.7h0l0-5.4l0.1,10.7l0-5.4h0l0,5.4l0.2-5.4h0
				l0.2,10.7l0-5.4h0l0-5.4l0.1,10.7h0.1h0l0-10.7l0.1,5.4h0l0,5.4h0.2h0l0-5.4l0.1,10.7l0-5.4h0l0,5.4l0-10.7l0.1,10.7h0l0-5.4
				l0.1,10.7l0.1-5.4h0l0.1,10.7h0.1h0l0-5.4l0.2,10.7l0-5.4h0l0,5.4h0.2h0l0-5.4l0,10.7l0.2-5.4h0l0.2,10.7l0-5.4h0l0-5.4l0,10.7
				h0.2h0l0-5.4l0.2,5.4l0-5.4l0,5.4l0.2-5.4l0,5.4l0-5.4h0.2l0,5.4l0-5.4h0.2h0l0,5.4l0.2-5.4h0l0,5.4l0.2-5.4h0l0,5.4h0.2h0l0-5.4
				l0.2,5.4h0l0-5.4l0,10.7l0.2-5.4h0l0,5.4h0.2h0l0-5.4l0.2,5.4h0l0-5.4l0,10.7l0.2-5.4h0l0,5.4h0.2h0l0-5.4l0.1,10.7l0.1-5.4h0
				l0,5.4l0-58.9l0.2,5.4h0l0,5.4h0.2l0-5.4l0.1,10.7l0-5.4h0l0-5.4l0,10.7l0.2-5.4h0l0,5.4h0.2l0-5.4l0,5.4h0.2h0l0.1-5.4l0.1,5.4
				h0l0-5.4l0,10.7l0.1-5.4h0l0-5.4l0,10.7l0.2-5.4h0l0-5.4l0,10.7l0.1-5.4h0l0,5.4l0-10.7l0.1,5.4h0l0-5.4l0,10.7l0.2-5.4h0l0,5.4
				l0.2-5.4h0l0,5.4l0.1-5.4h0l0,5.4l0.2-5.4h0l0,5.4l0.2-5.4h0l0,5.4h0.2h0l0-5.4h0.2h0l0,5.4h0.2h0l0-5.4l0.2,5.4l0-5.4l0,5.4
				l0.2-5.4h0l0,5.4h0.2l0-5.4l0,5.4l0.2-5.4h0l0,5.4l0.2-5.4l0,5.4l0-5.4h0.2l0,5.4l0-5.4l0.2,5.4l0-5.4l0,5.4h0.2h0l0-5.4l0,10.7
				l0.1-5.4h0l0,5.4l0-10.7l0.1,5.4h0l0,5.4h0.2h0l0-5.4h0.2l0,5.4l0-5.4l0.2,5.4h0l0-5.4h0.2l0,5.4l0-5.4l0.2,5.4h0l0-5.4l0.1,10.7
				l0-5.4h0l0-5.4l0,10.7l0.2-5.4h0l0-5.4l0.1,10.7l0.1-5.4h0l0-5.4l0.1,10.7l0.1-5.4h0l0-5.4l0.2,5.4l0-5.4l0,5.4h0.2h0l0-5.4
				l0,10.7l0.1-5.4h0l0,5.4l0.2-5.4l0,5.4l0-5.4l0.2,5.4h0l0-5.4l0.2,5.4h0l0-5.4l0,10.7l0.1-5.4h0l0,5.4l0.2-5.4h0l0,5.4h0.2l0-5.4
				l0,5.4l0.2-5.4h0l0,5.4h0.2h0l0-5.4h0.2h0l0,5.4l0.2-5.4h0l0,5.4l0.1-10.7l0.1,5.4h0l0,5.4l0.2-5.4h0l0,5.4l0-10.7l0.1,5.4h0
				l0,5.4l0-10.7l0.1,5.4h0l0-5.4l0,10.7l0.2-5.4h0l0,5.4l0.2-5.4l0,5.4l0-5.4l0.2,5.4h0l0-5.4l0.2,5.4h0l0-5.4l0.1,10.7l0-5.4h0
				l0-5.4l0,10.7l0.1-5.4h0l0,5.4l0.1-10.7l0.1,5.4l0,5.4l0-10.7l0.2,5.4h0l0,5.4l0-10.7l0.1,5.4l0,5.4l0.2-10.7l0,5.4h0l0,5.4
				l0.2-5.4h0l0,5.4l0.1-10.7l0.1,5.4h0l0,5.4l0.2-5.4h0l0,5.4l0.1-10.7l0.1,5.4h0l0,5.4l0.2-10.7l0,5.4h0l0,5.4l0.1-10.7l0.1,5.4h0
				l0-5.4l0.1,10.7l0.1-5.4l0,5.4l0-5.4l0,10.7h0.1h0l0-5.4l0.2,5.4h0l0-5.4l0.1,10.7l0.1-5.4h0l0-5.4h0.2l0,5.4l0.2-10.7l0,5.4h0
				l0-5.4l0,10.7l0.2-10.7h0l0,5.4l0.1-10.7l0.1,5.4h0l0.1-10.7l0.1,5.4h0l0-5.4l0.2,5.4l0-5.4l0,5.4l0.1-10.7l0.1,5.4h0l0-5.4h0.2
				h0l0,5.4l0.1-10.7l0.1,5.4h0l0-5.4l0,10.7l0.1-5.4h0l0-5.4l0,10.7l0.1-5.4h0l0-5.4l0,10.7l0.1-5.4h0l0-5.4l0.2,5.4h0l0-5.4
				l0,10.7l0.1-5.4h0l0-5.4l0.1,10.7l0.1-5.4h0l0-5.4l0.2,5.4h0l0-5.4l0.2,5.4l0-5.4l0,5.4h0.2h0l0-5.4l0.1,10.7l0-5.4h0l0-5.4
				l0.1,10.7l0.1-5.4h0l0-5.4l0,10.7h0.2l0-5.4l0,5.4h0.2h0l0-5.4l0.1,10.7l0.1-5.4h0l0,5.4h0.2h0l0-5.4l0.2,10.7l0-5.4h0l0,5.4
				l0.2-5.4h0l0,5.4h0.2l0-5.4l0,5.4h0.2h0l0-5.4l0.1,10.7l0.1-5.4h0l0-5.4l0.1,10.7l0.1-5.4h0l0,5.4l0.1-10.7l0.1,5.4h0l0,5.4
				l0.2-5.4l0,5.4l0-5.4l0.2,5.4h0l0-5.4l0.2,5.4h0l0,5.4l0-10.7l0.2,5.4h0l0,5.4l0-10.7l0.1,10.7h0l0-5.4h0.2l0,5.4l0-5.4l0.2,5.4
				l0-5.4l0,5.4h0.2h0l0-5.4l0.2,5.4h0l0-5.4l0.2,5.4h0l0-5.4h0.2h0l0,5.4h0.2l0-5.4l0,5.4l0.2-5.4h0l0,5.4h0.2l0-5.4l0,5.4l0.2-5.4
				l0,5.4l0-5.4h0.2h0l0,5.4h0.2h0l0-5.4l0.2,5.4h0l0-5.4l0.2,5.4h0l0-5.4h0.2h0l0,5.4h0.2h0l0-5.4l0.2,5.4l0-5.4l0,5.4l0.2-5.4h0
				l0,5.4l0.2-5.4h0l0,5.4l0.1-10.7l0.1,5.4h0l0-5.4l0.1,5.4l0-5.4l0,5.4h0.2h0l0-5.4l0.1,10.7l0.1-5.4h0l0-5.4l0,10.7l0.2-5.4h0
				l0,5.4h0.2l0-5.4l0,5.4h0.2l0,5.4l0-10.7l0.2,5.4h0l0,5.4h0.2h0l0,5.4l0-10.7l0.1,5.4h0l0,5.4h0.2h0l0-5.4l0,10.7l0.1-5.4h0
				l0-5.4l0,10.7l0.2-5.4l0,5.4l0-5.4l0.2,5.4h0l0-5.4l0.2,5.4h0l0-5.4l0,10.7l0.1-5.4h0l0-5.4l0,10.7l0.1-5.4h0l0,5.4l0.2-5.4h0
				l0,5.4h0.2h0l0-5.4l0,10.7l0.1-5.4h0l0.1,10.7l0.1-5.4l0-5.4l0,10.7h0.2h0l0-5.4l0.1,10.7l0.1-5.4l0,5.4l0-5.4l0.1,10.7l0-5.4h0
				l0,5.4l0.1-10.7l0.1,5.4l0,5.4l0-5.4l0.2,5.4h0l0-5.4l0.2,5.4l0-5.4l0,5.4h0.2h0l0-5.4l0,10.7l0.2-5.4l0,5.4l0-5.4l0.2,5.4l0-5.4
				l0,5.4h0.2h0l0-5.4l0.2,5.4h0l0-5.4l0.1,10.7l0-5.4h0l0-5.4l0.1,10.7h0.1h0l0-5.4h0.2h0l0,5.4h0.2h0l0-5.4l0.2,5.4h0l0-5.4
				l0,10.7l0.2-5.4h0l0-5.4l0,10.7l0.1-10.7h0l0,5.4l0.2-5.4h0l0,5.4l0-10.7h0.2h0l0,5.4l0.1-10.7l0.1,5.4h0l0.1-10.7h0.1h0l0,5.4
				l0.1-10.7h0.1h0l0,5.4l0.1-10.7h0.1h0l0,5.4l0-10.7h0.1h0l0,5.4l0-10.7h0.1h0l0,5.4l0.2-16.1l0,5.4h0l0-5.4h0.2h0l0.2-10.7l0,5.4
				h0l0-5.4h0.2h0l0,5.4l0.1-16.1l0,5.4h0l0,5.4l0-10.7h0.1l0,5.4l0.1-10.7l0.1,5.4h0l0,5.4l0-10.7h0.2l0,5.4l0.1-10.7l0.1,10.7
				l0-5.4l0,5.4l0.1-10.7l0.1,5.4h0l0,5.4l0-10.7l0.2,5.4h0l0-5.4l0.2,10.7l0-5.4h0l0-5.4l0.2,5.4h0l0-5.4l0,10.7l0.1-5.4h0l0,5.4
				l0-10.7l0.1,5.4h0l0,5.4l0-10.7l0.2,10.7h0l0-5.4l0.2,5.4h0l0-5.4l0.2,5.4h0l0-5.4l0.1,10.7l0.1-5.4h0l0,5.4l0.2-5.4l0,5.4l0-5.4
				l0.2,5.4h0l0-5.4l0,10.7h0.2l0-5.4l0,5.4h0.2h0l0-5.4l0.2,5.4h0l0,5.4l0.2-5.4h0l0,5.4h0.2h0l0-5.4l0.1,10.7l0-5.4h0l0,5.4
				l0-10.7l0.1,5.4h0l0,5.4l0-10.7l0.1,5.4h0l0,5.4l0.1-10.7l0.1,10.7l0-5.4l0,5.4l0-10.7l0.2,5.4h0l0,5.4l0.1-10.7l0.1,5.4h0l0,5.4
				l0.1-10.7l0.1,5.4h0l0,5.4l0.1-10.7l0,5.4h0l0,5.4l0.2-5.4h0l0,5.4l0.2-5.4h0l0,5.4h0.2h0l0-5.4h0.2h0l0,10.7l0.1-5.4h0l0,5.4
				l0.1-10.7l0.1,5.4h0l0,5.4l0-10.7l0.1,5.4h0l0.1-5.4l0,10.7l0-5.4h0l0-5.4l0,10.7l0.2-5.4l0-5.4l0,5.4h0.2l0-5.4l0,5.4l0.1-10.7
				l0.1,5.4l0,5.4l0-5.4h0.2h0l0,5.4l0.2-5.4h0l0,5.4l0.1-10.7l0.1,10.7l0-5.4l0,5.4l0.2-5.4h0l0,5.4h0.2l0-5.4l0,5.4h0.2h0l0-5.4
				h0.2l0,5.4l0-5.4l0.1,10.7l0-5.4h0l0.1-5.4l0,10.7l0.1-5.4h0l0-5.4l0,10.7l0.1-5.4h0l0-5.4l0.2,5.4h0l0-5.4l0,10.7l0.1-5.4h0
				l0-5.4l0.2,5.4h0l0-5.4l0.2,10.7l0-5.4h0l0,5.4l0.1-10.7l0,5.4l0,5.4l0-5.4h0.2h0l0,5.4l0-10.7l0.2,5.4h0l0,5.4h0.2h0l0-5.4h0.2
				l0,5.4l0-5.4l0.2,5.4h0l0-5.4l0,10.7l0.1-5.4h0l0-5.4l0.1,10.7l0.1-5.4h0l0-5.4l0.2,5.4h0l0-5.4l0.2,5.4h0l0-5.4h0.2l0,5.4l0-5.4
				h0.2h0l0,5.4l0.2-5.4l0,5.4l0-5.4l0.2,5.4h0l0-5.4l0.2,5.4h0l0-5.4l0,10.7l0.1-5.4h0l0-5.4l0,10.7l0.1-5.4h0l0-5.4l0.1,10.7
				l0.1-5.4h0l0,5.4l0-10.7l0.2,5.4h0l0,5.4l0.2-5.4h0l0,5.4h0.2h0l0-5.4l0.2,5.4h0l0-5.4l0.1,10.7l0-5.4h0l0,5.4l0-10.7l0.1,5.4h0
				l0-5.4l0,10.7l0.2-5.4h0l0-5.4l0.2,5.4h0l0-5.4l0.2,5.4h0l0-5.4h0.2h0l0,5.4l0.1-10.7l0.1,5.4h0l0-5.4l0,10.7l0.2-5.4h0l0.2-10.7
				l0,5.4h0l0-5.4h0.2h0l0,5.4l0.1-10.7h0.1h0l0,5.4l0.1-10.7l0.1,5.4l0-5.4l0,5.4l0.1-10.7l0.1,5.4l0-5.4l0,5.4l0-10.7h0.1l0-5.4
				l0,10.7l0.1-16.1l0,5.4h0l0.2-16.1l0,10.7l0.2-16.1l0,5.4h0l0.1-10.7h0.1h0l0.2-10.7l0,5.4l0-5.4l0,5.4l0.1-10.7h0.1h0l0,5.4
				l0-10.7h0.1h0l0,5.4l0-10.7l0.2,5.4l0-5.4l0,5.4l0.1-10.7l0.1,5.4l0-5.4l0,5.4l0.1-10.7l0.1,5.4h0l0-5.4l0.2,5.4h0l0-5.4l0.2,5.4
				h0l0-5.4l0.1,10.7l0-5.4h0l0,5.4l0.2-5.4h0l0,5.4h0.2l0-5.4l0.1,10.7l0.1-5.4h0l0,5.4l0.2-5.4l0,5.4l0-5.4l0,10.7l0.2-5.4l0,5.4
				l0-5.4l0.2,5.4l0-5.4l0,5.4l0.2-5.4h0l0,5.4h0.2h0l0-5.4l0.2,5.4h0l0.1,5.4l0.1-5.4h0l0,5.4l0.2-5.4h0l0,5.4h0.2h0l0-5.4l0,10.7
				l0.2-5.4h0l0,5.4h0.2h0l0-5.4l0.1,10.7l0.1-5.4h0l0,5.4l0.2-5.4l0,5.4l0-5.4l0.1,10.7h0.1l0-5.4l0,5.4h0.2h0l0-5.4l0,10.7
				l0.1-5.4h0l0,5.4l0-10.7l0.2,5.4h0l0,5.4l0.2-10.7l0,5.4h0l0-5.4l0,10.7l0.2-5.4h0l0,5.4l0-10.7h0.1l0,5.4l0-5.4l0,10.7l0.2-10.7
				h0l0,5.4h0.2l0-5.4l0,5.4l0.2-5.4h0l0,5.4l0.2-5.4h0l0,5.4h0.2l0-5.4l0,5.4h0.2l0-5.4l0.1,10.7l0-5.4h0l0-5.4l0,10.7l0.2-5.4h0
				l0,5.4l0.2-5.4h0l0,5.4h0.2h0l0-5.4l0.1,26.8h0.1l0-5.4l0,5.4h0.2h0l0-5.4l0.1,10.7l0.1-5.4h0l0,5.4h0.2h0l0-5.4l0.1,10.7
				l0.1-5.4h0l0,5.4l0.1-5.4l0,5.4l0-5.4l0.2,5.4l0,5.4l0-5.4l0.2,5.4l0-5.4l0,5.4h0.2h0l0-5.4l0.1,10.7l0-5.4l0,5.4l0-5.4h0.2h0
				l0,5.4h0.2h0l0-5.4l0.1,10.7l0.1-5.4h0l0,5.4h0.2l0-5.4l0,5.4h0.2h0l0-5.4l0.1,10.7l0.1-5.4h0l0,5.4l0.1-10.7l0.1,5.4h0l0,5.4
				l0.2-5.4h0l0,5.4h0.2h0l0-5.4l0.2,5.4h0l0-5.4l0.1,10.7l0.1-5.4h0l0-5.4l0,10.7l0.2-5.4h0l0,5.4l0.2-5.4l0,5.4l0-5.4l0.2,5.4h0
				l0-5.4l0.1,10.7l0.1-5.4l0,5.4l0-5.4l0.2,5.4h0l0-5.4l0.1,10.7l0.1-5.4l0,5.4l0-5.4l0.2,5.4h0l0-5.4l0,10.7l0.2-5.4h0l0.1,10.7
				h0.1h0l0-5.4l0.1,10.7l0.1-5.4h0l0,5.4l0-10.7l0.2,10.7h0l0-5.4l0.2,10.7l0-5.4h0l0,5.4l0.2-5.4h0l0,5.4l0.2-5.4h0l0,5.4l0-10.7
				l0.1,5.4h0l0-5.4h0.2l0,5.4l0.1-10.7l0.1,5.4h0l0.2-10.7h0l0,5.4l0,5.4l0-10.7h0.2h0l0.1-10.7l0.1,5.4h0l0.1-10.7h0.1h0l0,5.4
				l0.1-16.1l0,5.4h0l0.1-10.7h0.1h0l0.2-10.7l0,5.4h0l0.1-10.7h0.1h0l0,5.4l0.1-10.7h0.1h0l0,5.4l0-10.7h0.1h0l0,5.4l0-10.7h0.1h0
				l0,5.4l0-10.7h0.2h0l0,5.4l0.1-10.7h0.1h0l0,5.4l0.1-10.7h0.1l0,5.4l0-5.4h0.2h0l0,5.4l0.1-10.7l0.1,5.4h0l0-5.4h0.2h0l0,5.4h0.2
				l0-5.4l0,5.4l0.1-10.7l0.1,5.4h0l0,5.4l0-10.7l0.1,5.4h0l0,5.4l0.2-5.4l0,5.4l0-5.4h0.2h0l0,5.4l0.2-5.4l0,5.4l0-5.4l0.2,5.4h0
				l0-5.4l0,10.7l0.2-5.4h0l0,5.4l0.2-5.4h0l0.2,10.7l0-5.4h0l0-5.4l0.1,10.7l0.1-5.4h0l0-5.4l0,10.7l0.2-5.4h0l0,5.4l0.2-5.4h0
				l0,5.4h0.2h0l0-5.4l0.1,10.7l0.1-5.4h0l0-5.4l0,10.7l0.1-5.4h0l0,5.4h0.2h0l0-5.4l0.2,10.7l0-5.4h0l0,5.4l0-10.7l0.1,10.7l0-5.4
				l0,5.4h0.2h0l0,5.4l0-10.7l0.2,5.4h0l0,5.4h0.2h0l0-5.4l0.1,10.7l0-5.4h0l0,5.4l0.2-5.4h0l0,5.4h0.2h0l0-5.4l0.1,10.7l0.1-5.4h0
				l0,5.4l0-10.7l0.1,5.4h0l0,5.4l0.2-5.4h0l0,5.4l0.2-5.4h0l0,5.4h0.2l0-5.4l0,5.4h0.2h0l0-5.4l0.2,5.4h0l0-5.4l0.2,5.4h0l0,5.4
				l0-10.7l0.1,5.4h0l0,5.4l0.1-5.4h0l0,5.4h0.2h0l0-5.4l0.2,5.4h0l0-5.4l0,10.7l0.1-5.4h0l0,5.4l0.1-10.7l0.1,5.4l0,5.4l0-5.4
				l0.2,5.4h0l0-5.4l0.2,5.4h0l0-5.4l0.2,5.4h0l0-5.4l0.2,5.4l0-5.4l0.1,10.7l0-10.7l0,5.4l0-5.4l0,10.7l0.2-5.4h0l0-5.4l0,10.7
				l0.1-5.4h0l0-5.4l0,10.7l0.1-5.4h0l0,5.4l0.1-10.7l0.1,5.4h0l0,5.4l0.1-10.7l0.1,10.7l0-5.4l0,5.4l0.2-5.4h0l0,5.4h0.2l0-5.4
				l0,5.4h0.2h0l0-5.4l0.1,10.7l0.1-5.4h0l0-5.4l0.1,10.7l0.1-5.4l0,5.4l0-5.4l0.2,5.4l0-5.4l0,5.4h0.2h0l0-5.4l0.1,10.7h0.1l0-5.4
				l0,5.4h0.2h0l0-5.4l0.2,5.4h0l0-5.4l0,10.7l0.1-5.4l0,5.4l0-5.4l0.2,5.4l0-5.4l0,5.4l0.2-5.4l0,5.4l0-5.4l0.2,5.4h0l0-5.4l0,10.7
				l0.1-5.4h0l0,5.4h0.2l0-5.4l0,5.4l0.2-5.4h0l0,5.4h0.2h0l0-5.4l0.1,10.7l0-5.4h0l0-5.4l0,10.7l0.1-5.4h0l0,5.4l0.1-10.7l0,5.4
				l0,5.4l0-10.7l0.2,5.4h0l0,5.4l0.2-5.4h0l0,5.4l0.2-5.4h0l0,5.4l0.2-5.4h0l0,5.4l0.2-5.4h0l0,5.4h0.2l0-5.4l0,5.4l0.2-5.4h0
				l0,5.4h0.2l0-5.4l0,5.4l0.2-5.4h0l0,5.4h0.2h0l0-5.4l0.2,5.4h0l0-5.4l0.2,5.4h0l0-5.4l0.2,5.4h0l0-5.4l0.1,10.7l0.1-5.4h0l0-5.4
				l0,10.7l0.2-5.4l0-5.4l0,5.4h0.2h0l0-5.4h0.2h0l0-5.4l0,10.7l0.1-10.7h0l0,5.4l0.1-10.7l0.1,5.4h0l0.1-10.7l0,5.4h0l0.2-10.7h0h0
				l0,5.4l0.1-10.7h0.1l0,5.4l0.1-10.7l0.1,5.4h0l0.1-10.7h0.1h0l0,5.4l0-10.7h0.1h0L196,319l0,5.4h0l0.1-10.7h0.1h0l0,5.4l0-10.7
				h0.1h0l0,5.4l0.1-16.1l0,5.4h0l0.2-10.7l0,5.4h0l0-5.4h0.2h0l0,5.4l0.1-10.7l0.1,5.4h0l0-5.4l0.2,5.4h0l0-5.4h0.2l0,5.4l0-5.4
				l0.2,5.4l0-5.4l0,5.4h0.2h0l0-5.4l0.1,10.7l0.1-5.4h0l0,5.4h0.2h0l0-5.4l0.1,10.7l0.1-5.4h0l0,5.4l0.2-5.4l0,5.4l0-5.4l0.2,5.4h0
				l0,5.4l0-10.7l0.2,5.4h0l0-5.4l0,10.7l0.2-5.4h0l0-5.4l0,10.7l0.2-5.4l0-5.4l0,5.4l0.1-10.7l0,5.4h0l0-5.4h0.2l0,5.4l0.1-10.7
				l0,5.4h0l0-5.4l0.2,5.4h0l0-5.4h0.2h0l0,5.4l0.1-10.7l0.1,10.7l0-5.4l0,5.4h0.2l0-5.4l0,5.4l0-10.7l0.2,10.7h0l0-5.4l0,10.7h0.2
				l0-5.4L201,303h0.1l0-10.7l0.1,16.1l0.1-5.4h0l0.1,10.7l0.1-5.4h0l0.2,10.7h0l0-5.4l0,5.4h0.2h0l0-5.4l0,10.7h0.2l0-5.4l0.2,10.7
				l0-5.4h0l0,5.4l0-10.7l0.1,5.4h0l0,5.4l0.2-5.4h0l0,5.4l0.2-5.4h0l0,5.4h0.2h0l0-5.4l0.1,10.7l0.1-5.4h0l0,5.4l0.1-5.4h0l0,5.4
				h0.2h0l0,5.4h0.2h0l0-5.4l0.1,10.7l0.1-5.4h0l0,5.4l0.2-5.4l0,5.4l0-5.4l0,10.7l0.1-5.4h0l0,5.4h0.2h0l0-5.4l0,10.7h0.2l0-5.4
				l0,5.4l0.2-5.4l0,5.4l0-5.4l0.2,5.4h0l0-5.4l0.2,5.4h0l0-5.4h0.2h0l0,5.4l0.2-10.7l0,5.4h0l0-5.4h0.2l0,5.4l0-5.4l0.2,5.4h0
				l0-5.4l0.2,5.4l0-5.4l0,5.4h0.2l0-5.4l0.1,10.7l0.1-5.4h0l0,5.4l0.2-5.4l0,5.4l0-5.4l0.1,10.7l0.1-5.4h0l0,5.4h0.2h0l0-5.4
				l0.1,16.1l0-5.4h0l0-5.4l0,10.7h0.1h0l0-5.4l0.1,10.7h0l0-5.4l0,5.4l0.1-10.7l0,5.4h0l0,5.4l0.2-5.4h0l0,5.4l0.2-10.7l0,5.4h0
				l0,5.4l0.1-10.7l0.1,5.4h0l0-5.4h0.2h0l0,5.4l0.1-10.7l0,5.4h0l0-5.4l0,10.7l0.2-5.4h0l0-5.4l0.2,5.4h0l0-5.4l0.1,10.7l0.1-5.4h0
				l0,5.4l0.2-5.4l0,5.4l0-5.4l0.1,10.7h0.1l0-5.4l0.1,10.7l0.1-5.4h0l0.1,10.7l0.1-5.4h0l0.2,10.7l0-5.4h0l0.1,10.7l0.1-5.4h0
				l0-5.4l0,10.7l0.1-5.4h0l0,5.4h0.2l0-5.4l0,5.4l0.1-10.7l0,5.4h0l0,5.4l0.1-10.7l0.1,5.4h0l0-5.4l0,10.7l0.1-5.4l0-5.4l0,5.4
				l0.2-5.4h0l0,5.4l0-10.7l0.2,5.4h0l0-5.4l0.2,5.4h0l0-5.4l0.2,5.4h0l0,5.4l0-10.7l0.2,5.4h0l0-5.4l0,10.7l0.2-5.4h0l0,5.4h0.2h0
				l0-5.4l0.1,10.7l0.1-5.4l0,5.4l0-5.4h0.2l0,5.4l0-5.4l0,10.7l0.1-5.4h0l0-5.4h0.2h0l0,5.4l0.2-10.7l0,5.4l0,5.4l0-10.7h0.1h0
				l0,5.4l0.1-16.1h0l0,5.4l0.1-10.7l0,5.4h0l0.1-10.7h0.1h0l0,5.4l0.2-16.1l0,5.4h0l0.1-10.7h0l0,5.4l0.1-10.7l0.1,5.4l0-5.4l0,5.4
				l0-10.7h0.1h0l0,5.4l0.1-10.7l0.1,5.4h0l0.2-10.7l0,5.4h0l0,5.4l0-10.7h0.1h0l0,5.4l0.2-5.4h0l0,5.4l0.2-5.4h0l0,5.4l0-10.7h0.1
				l0,5.4l0-5.4h0.2h0l0,5.4l0.2-5.4h0l0-5.4l0.1,5.4h0l0-5.4h0.2h0l0,5.4l0.2-5.4h0l0-5.4l0,10.7l0.2-10.7h0l0,10.7l0.2-5.4h0
				l0,5.4l0-10.7l0.2,10.7l0-5.4l0,5.4h0.2h0l0,5.4h0.1h0l0-5.4l0,10.7h0.1h0l0-5.4l0,10.7h0.1h0l0-5.4l0.1,10.7l0.1-5.4l0,5.4
				l0-5.4l0.1,10.7l0-5.4h0l0,5.4h0.2h0l0-5.4l0.2,5.4h0l0-5.4l0.1,10.7l0.1-5.4h0l0,5.4l0-10.7l0.1,5.4h0l0-5.4l0,10.7l0.2-5.4h0
				l0-5.4l0,10.7l0.1-5.4h0l0-5.4l0.2,5.4h0l0-5.4l0.2,5.4h0l0-5.4l0.1,10.7l0.1-5.4h0l0,5.4h0.2h0l0-5.4l0.2,10.7l0-5.4h0l0,5.4
				h0.2h0l0-5.4l0.1,10.7h0.1l0-5.4l0,5.4h0.2h0l0-5.4l0,10.7l0.1-5.4h0l0,5.4l0.2-5.4l0,5.4l0-5.4h0.2h0l0,5.4l0.2-5.4h0l0,5.4h0.2
				l0-5.4l0,5.4h0.2h0l0-5.4h0.2h0l0,5.4l0.2-5.4h0l0,5.4l0.2-5.4h0l0,5.4l0.1-10.7l0,5.4h0l0,5.4l0.2-5.4h0l0,5.4h0.2h0l0-5.4
				l0.1,10.7l0.1-5.4h0l0,5.4h0.2h0l0-5.4l0.2,5.4h0l0-5.4l0.1,10.7l0-5.4h0l0-5.4l0.1,10.7l0.1-5.4h0l0,5.4l0.2-5.4h0l0,5.4h0.2
				l0-5.4l0,5.4h0.2h0l0-5.4l0.1,10.7l0.1-5.4h0l0-5.4l0,10.7h0.2l0-5.4l0,5.4h0.2h0l0-5.4l0.2,5.4h0l0,5.4l0-10.7l0.1,10.7l0-5.4
				l0,5.4h0.2h0l0-5.4l0.1,10.7l0.1-5.4h0l0,5.4h0.2h0l0-5.4l0.1,10.7l0.1-5.4h0l0,5.4h0.2h0l0-5.4l0,10.7l0.2-5.4h0l0,10.7l0.1-5.4
				h0l0,5.4l0.2-5.4l0,5.4l0-5.4l0.2,5.4h0l0-5.4l0.1,10.7l0.1-5.4h0l0-5.4l0,10.7l0.2-5.4h0l0,5.4l0.2-5.4h0l0,5.4h0.2h0l0-5.4
				l0.2,5.4h0l0-5.4l0.2,5.4h0l0-5.4h0.2h0l0,5.4l0.1-10.7l0.1,5.4h0l0-5.4l0.2,5.4h0l0.1-10.7h0.1h0l0,5.4l0-10.7h0.1h0l0,5.4
				l0.1-10.7h0.1h0l0,5.4l0-10.7h0.1h0l0,5.4l0-10.7h0.2h0l0,5.4l0.1-16.1l0,5.4h0l0-5.4h0.2h0l0,5.4l0.1-16.1l0.1,5.4h0l0,5.4
				l0-10.7h0.1h0l0,5.4l0-10.7h0.1l0,5.4l0.1-10.7h0l0,5.4l0.1-10.7l0.1,5.4h0l0.2-10.7l0,5.4h0l0,5.4l0-10.7h0.2h0l0,5.4l0-10.7
				h0.2h0l0,5.4l0.1-10.7h0.1h0l0,5.4l0-10.7l0.1,5.4h0l0-5.4l0.2,5.4h0l0-5.4h0.2h0l0-5.4l0.1,5.4h0l0-5.4l0.2,5.4h0l0-5.4h0.2
				l0,5.4l0-5.4l0.1,10.7l0.1-5.4h0l0,5.4l0.2-5.4h0l0,5.4h0.2l0-5.4l0,5.4h0.2h0l0-5.4l0.1,10.7l0-5.4h0l0-5.4l0.1,10.7l0.1-5.4h0
				l0,5.4l0.2-5.4h0l0,5.4l0.2-5.4l0,5.4l0-5.4l0.2,5.4l0-5.4l0.1,10.7l0.1-5.4h0l0,5.4l0-10.7l0.2,10.7h0l0-5.4l0.2,10.7h0l0-5.4
				l0,5.4l0-10.7l0.2,5.4h0l0,5.4l0.2-5.4l0,5.4l0-5.4l0.2,5.4h0l0-5.4l0.2,10.7l0-5.4h0l0,5.4l0-10.7l0.1,5.4h0l0,5.4l0.2-10.7
				l0,5.4h0l0,5.4l0.2-5.4h0l0,5.4h0.2h0l0-5.4l0.2,5.4h0l0-5.4l0.2,5.4h0l0-5.4l0.1,10.7l0.1-5.4h0l0,5.4l0-10.7l0.1,5.4h0l0,5.4
				h0.2h0l0-5.4l0.2,10.7l0-5.4h0l0,5.4l0.1-5.4h0l0,5.4l0.2-5.4l0,5.4l0-5.4l0.2,5.4h0l0-5.4l0.2,10.7l0-5.4h0l0-5.4l0,10.7
				l0.1-5.4h0l0,5.4l0.1-10.7l0.1,10.7l0-5.4l0,5.4h0.2l0-5.4l0,5.4l0.2-5.4l0,5.4l0-5.4l0.2,5.4l0-5.4l0.1,10.7l0-5.4h0l0-5.4
				l0.1,10.7l0.1-5.4h0l0-5.4l0,10.7h0.2l0-5.4l0,5.4l0.2-5.4h0l0,5.4h0.2h0l0-5.4l0.2,10.7l0-5.4l0-5.4l0,10.7l0.1-5.4h0l0,5.4h0.2
				h0l0-5.4l0.2,5.4h0l0-5.4l0.1,10.7l0.1-5.4h0l0-5.4l0,10.7l0.1-5.4h0l0,5.4l0.2-5.4h0l0,5.4l0.2-5.4h0l0,5.4l0.2-5.4h0l0,5.4
				l0.1-10.7l0,5.4h0l0,5.4l0-10.7l0.1,5.4h0l0,5.4l0.1-10.7l0.1,5.4h0l0.2,5.4l0-5.4h0l0,5.4l0-10.7l0.1,5.4h0l0,5.4h0.2h0l0-5.4
				l0.2,5.4h0l0-5.4l0.1,10.7l0.1-5.4h0l0,5.4l0.1-10.7l0.1,5.4h0l0,5.4h0.2h0l0-5.4l0.2,5.4l0-5.4l0,5.4h0.2h0l0-5.4l0.2,5.4l0-5.4
				l0,5.4l0.2-5.4h0l0-5.4l0,10.7l0.1-5.4h0l0-5.4l0,10.7l0.2-5.4h0l0-5.4l0.2,5.4l0-5.4l0,5.4l0.2-5.4h0l0,5.4l0.2-5.4h0l0,5.4
				l0.2-5.4h0l0,5.4l0.2-5.4h0l0,5.4l0.1-10.7l0,5.4h0l0-5.4h0.2h0l0-5.4h0.2h0l0,5.4l0.1-16.1l0,5.4h0l0.1-10.7l0,5.4h0l0-10.7
				l0.1,5.4l0-5.4l0.1-10.7l0,5.4h0l0.1-10.7h0.1h0l0,5.4l0.1-16.1h0l0,5.4l0.1-10.7l0.1,5.4l0-5.4l0,5.4l0-10.7h0.2h0l0,5.4
				l0.1-10.7l0.1,5.4h0l0-5.4h0.2h0l0,5.4l0-10.7l0.2,5.4h0l0-5.4l0,10.7l0.1-5.4h0l0-5.4l0,10.7l0.1-5.4h0l0-5.4l0,10.7l0.2-10.7
				l0,5.4l0,5.4l0-10.7l0.2,5.4h0l0-5.4l0,10.7l0.1-5.4h0l0-5.4h0.2l0,5.4l0.2-10.7l0,5.4h0l0,5.4l0.1-10.7l0.1,5.4h0l0-5.4h0.2h0
				l0,5.4l0.2-5.4l0,5.4l0-10.7l0.2,5.4h0l0,5.4l0.2-5.4h0l0,5.4h0.2h0l0-5.4l0.1,10.7l0-5.4h0l0,5.4h0.2h0l0-5.4l0.1,10.7l0.1-5.4
				h0l0,5.4l0.2-5.4l0,5.4l0-5.4l0.1,10.7l0.1-5.4h0l0,5.4h0.2h0l0-5.4l0.2,5.4h0l0-5.4l0,10.7l0.1-5.4l0-5.4l0,5.4l0.2-5.4h0l0,5.4
				l0.1-10.7l0.1,5.4h0l0-5.4l0.2,5.4h0l0-5.4l0.2,5.4h0l0-5.4l0.2,5.4h0l0-5.4l0,10.7l0.2-5.4h0l0.1,5.4l0.1-5.4h0l0,5.4l0.2-5.4
				l0,5.4l0-5.4l0.2,5.4h0l0-5.4l0,10.7l0.1-5.4h0l0,5.4h0.2l0-5.4l0,5.4l0-10.7l0.1,5.4h0l0,5.4l0-10.7l0.2,5.4h0l0-5.4l0,10.7
				l0.2-5.4h0l0-5.4l0,10.7l0.2-5.4h0l0-5.4l0,10.7l0.1-10.7l0,5.4l0-5.4l0.1,10.7l0.1-5.4h0l0-5.4l0.2,10.7l0-5.4h0l0-5.4l0,10.7
				l0.2-5.4h0l0-5.4l0.1,16.1l0-5.4h0l0-5.4l0.1,10.7h0.1h0l0-5.4l0.2,5.4h0l0,5.4l0.2-5.4l0,5.4l0-5.4l0,10.7l0.1-5.4l0,5.4l0-5.4
				l0.2,10.7l0-5.4h0l0,5.4h0.2h0l0-5.4l0.1,10.7l0-5.4h0l0,5.4l0-10.7l0.1,5.4h0l0,5.4l0-10.7l0.1,5.4h0l0,5.4l0-10.7l0.2,5.4h0
				l0-5.4l0,10.7l0.2-10.7l0,5.4l0-5.4l0.2,5.4h0l0-5.4l0.2,5.4h0l0-5.4l0.1,10.7l0.1-5.4h0l0-5.4l0.1,10.7l0.1-5.4l0,5.4l0-5.4h0.2
				h0l0,5.4h0.2h0l0,5.4l0.1-5.4l0,5.4l0-5.4l0.2,5.4h0l0-5.4l0,10.7l0.1-5.4h0l0,5.4l0.2-5.4h0l0,5.4l0.2-5.4h0l0,5.4l0.1-10.7
				l0.1,5.4h0l0-5.4l0,10.7l0.2-5.4h0l0-5.4l0.2,5.4l0-5.4l0,5.4l0.2-5.4l0,5.4l0-10.7l0.2,5.4h0l0-5.4l0.1,5.4h0l0-5.4l0.1,5.4h0
				l0,5.4l0-10.7l0.1,5.4h0l0,5.4l0-10.7l0.1,10.7h0l0-5.4l0.1,10.7l0-5.4h0l0-5.4l0,10.7l0.1-5.4h0l0,5.4h0.2h0l0-5.4l0,10.7
				l0.1-5.4l0,5.4l0-5.4l0.2,5.4h0l0-5.4h0.2l0,5.4l0-5.4h0.2h0l0,5.4l0.1-10.7l0.1,5.4h0l0-5.4h0.2h0l0,5.4l0-10.7h0.1l0,5.4
				l0.1-10.7h0.1h0l0,5.4l0.1-10.7h0.1h0l0,5.4l0.1-10.7h0.1h0l0,5.4l0.1-10.7h0.1h0l0,5.4l0.1-10.7h0.1h0l0,5.4l0.1-10.7l0.1,5.4h0
				l0.2-10.7l0,5.4h0l0-5.4h0.2h0l0,5.4l0.1-10.7l0.1,5.4h0l0.1-10.7l0.1,5.4l0-5.4l0,5.4l0.1-10.7l0,5.4h0l0.1-10.7l0.1,5.4l0-5.4
				l0,5.4l0.1-10.7h0.1l0,5.4l0.1-10.7l0.1,5.4h0l0.2-10.7l0,5.4h0l0.2-10.7l0,5.4h0l0-5.4l0,10.7l0.2-10.7h0l0,5.4l0.1-10.7
				l0.1,5.4h0l0-5.4h0.2l0,5.4l0-5.4l0.2,5.4h0l0-5.4l0.2,5.4h0l0-5.4l0.2,5.4h0l0-5.4l0.2,5.4h0l0-5.4l0.2,5.4h0l0-5.4l0.1,10.7
				l0.1-5.4h0l0-5.4l0,10.7l0.2-5.4h0l0,5.4l0.2-5.4h0l0,5.4h0.2l0-5.4l0.2,10.7l0-5.4h0l0-5.4l0.2,5.4h0l0-5.4l0,10.7l0.1-5.4
				l0,5.4l0-5.4l0.2,5.4h0l0-5.4l0.1,10.7l0.1-5.4h0l0,5.4h0.2h0l0-5.4l0,10.7h0.2h0l0,5.4l0-10.7l0.2,5.4l0,5.4l0-5.4l0.1,10.7
				l0.1-5.4h0l0.1,10.7l0.1-5.4h0l0,5.4l0.2-5.4h0l0,5.4h0.2l0-5.4l0.1,10.7l0.1-5.4l0-5.4l0,5.4h0.2h0l0-5.4h0.2l0,5.4l0.1-10.7
				l0.1,5.4h0l0,5.4l0-10.7l0.2,5.4h0l0-5.4l0.2,5.4h0l0-5.4l0.2,5.4h0l0-5.4h0.2l0,5.4l0-5.4l0.2,5.4h0l0,5.4l0.1-5.4h0l0,5.4h0.2
				h0l0-5.4l0.1,10.7l0.1-5.4h0l0,5.4h0.2l0-5.4l0,5.4h0.2h0l0-5.4l0.2,10.7l0-5.4h0l0-5.4l0,10.7l0.1-5.4h0l0,5.4l0-10.7l0.2,5.4h0
				l0,5.4l0.2-5.4l0,5.4l0-5.4l0.2,5.4l0-5.4l0.2,10.7l0-5.4h0l0-5.4l0,10.7h0.2h0l0-5.4l0.1,10.7l0.1-5.4h0l0-5.4l0.1,16.1l0-5.4h0
				l0-5.4l0.1,10.7l0.1-5.4l0,5.4l0-5.4l0.1,10.7h0.1l0-5.4l0.1,10.7l0.1-5.4h0l0-5.4l0,10.7h0.1h0l0-5.4l0,10.7l0.1-5.4l0,5.4
				l0-5.4l0.2,5.4h0l0-5.4l0.1,10.7l0.1-5.4h0l0,5.4l0.2-5.4l0,5.4l0-5.4l0.1,10.7l0-5.4h0l0-5.4l0,10.7h0.1l0-5.4l0,5.4h0.2h0
				l0-5.4l0,10.7h0.1h0l0-5.4l0.2,5.4h0l0-5.4l0,10.7l0.2-5.4h0l0.1,10.7l0.1-5.4h0l0,5.4h0.2h0l0-5.4l0.1,10.7l0.1-5.4h0l0,5.4
				l0.2-5.4h0l0,5.4h0.2h0l0-5.4l0.2,5.4h0l0,5.4l0-10.7l0.1,5.4h0l0-5.4l0.1,10.7l0.1-5.4h0l0,5.4l0.2-5.4h0l0,5.4l0.2-5.4l0,5.4
				l0-5.4l0.2,5.4h0l0-5.4l0,10.7l0.2-5.4h0l0,5.4l0.2-5.4h0l0,5.4h0.2h0l0-5.4h0.2l0,5.4l0-5.4h0.2l0,5.4l0.1-10.7l0.1,5.4h0l0-5.4
				h0.2h0l0,5.4l0-10.7h0.1h0l0,5.4l0.1-10.7h0.1h0l0,5.4l0-10.7h0.1h0l0,5.4l0.1-16.1l0.1,5.4h0l0.2-10.7l0,5.4h0l0.1-10.7h0.1
				l0,5.4l0.1-10.7l0.1,5.4l0-5.4l0,5.4l0.2-16.1l0,5.4h0l0,5.4l0-10.7h0.1h0l0,5.4l0.1-10.7h0.1h0l0,5.4l0.2-5.4h0l0,5.4l0.1-10.7
				l0.1,5.4h0l0-5.4l0.2,5.4l0-5.4l0,5.4l0.2-10.7l0,5.4h0l0,5.4l0.1-10.7l0,5.4h0l0,5.4l0.1-10.7l0.1,5.4h0l0-5.4L281,319l0.1-5.4
				h0l0-5.4l0,10.7l0.1-10.7l0,5.4l0,5.4l0-10.7l0.2,5.4h0l0-5.4l0.1,10.7l0.1-5.4h0l0-5.4l0.1,10.7l0.1-5.4h0l0,5.4l0-10.7L282,319
				h0l0-5.4l0.2,10.7l0-5.4h0l0-5.4l0.1,32.1h0h0l0-5.4l0.2,5.4h0l0,5.4h0.2h0l0,5.4l0-10.7l0.2,10.7h0l0-5.4l0.2,5.4l0-5.4
				l0.1,10.7l0.1-5.4h0l0,5.4l0.1-5.4h0l0,5.4l0.2-5.4h0l0,5.4l0.2-5.4h0l0,5.4l0.1-10.7l0.1,5.4h0l0-5.4l0,10.7l0.1-5.4h0l0-5.4
				l0.2,5.4h0l0-5.4l0.2,5.4h0l0-5.4l0.1,10.7l0.1-5.4h0l0-5.4l0.2,5.4h0l0.1,5.4l0.1-5.4h0l0,5.4l0.2-5.4h0l0,5.4h0.2h0l0-5.4
				l0.2,5.4h0l0-5.4l0.1,10.7l0.1-5.4h0l0-5.4l0.1,10.7l0.1-5.4h0l0-5.4l0,10.7l0.1-5.4h0l0-5.4l0,10.7l0.1-5.4h0l0-5.4l0.1,10.7
				l0.1-5.4h0l0-5.4h0.2l0,5.4l0-5.4l0.2,5.4l0-5.4l0,5.4h0.2h0l0-5.4l0.1,10.7h0.1l0-5.4l0,5.4h0.2h0l0-5.4l0.1,10.7l0.1-5.4l0,5.4
				l0-5.4l0.2,5.4h0l0-5.4l0,10.7l0.1-5.4l0,5.4l0-5.4l0.2,5.4h0l0,5.4l0.1-5.4l0,5.4l0-5.4h0.2h0l0,5.4h0.2l0,5.4l0-10.7l0.2,5.4
				l0-5.4l0,10.7l0.2-5.4h0l0-5.4l0.1,10.7l0.1-5.4l0-5.4l0,10.7l0.2-5.4l0,5.4l0-10.7l0.2,10.7l0-5.4l0.2,10.7l0-5.4h0l0,5.4h0.2h0
				l0-5.4l0.1,10.7l0-5.4h0l0,5.4h0.2h0l0-5.4l0.1,10.7l0.1-5.4h0l0,5.4h0.2l0-5.4l0,5.4l0.2-5.4l0,5.4l0-5.4l0.2,5.4h0l0-5.4h0.2
				l0,5.4l0-5.4h0.2l0,5.4l0.1-10.7h0.1l0,5.4l0-5.4h0.2h0l0,5.4l0-10.7h0.1h0l0,5.4l0.1-10.7l0,5.4l0-5.4l0,5.4l0.1-10.7l0.1,5.4h0
				l0-5.4h0.2h0l0,5.4l0.1-10.7l0.1,5.4l0-5.4l0,5.4l0.1-10.7h0.1h0l0,5.4l0.1-10.7l0.1,5.4h0l0.1-10.7l0.1,5.4h0l0.1-10.7l0,5.4h0
				l0.1-10.7h0.1h0l0,5.4l0.1-10.7h0.1h0l0,5.4l0.1-16.1l0,5.4h0l0.1-10.7l0.1,5.4h0L294,319l0.1,5.4l0-5.4l0,5.4l0.1-10.7l0.1,5.4
				l0-5.4l0,5.4l0.1-10.7h0.1h0l0,5.4l0.2-5.4h0l0,5.4l0-10.7l0.1,5.4h0l0-5.4l0.2,5.4h0l0-5.4l0.1,10.7l0-5.4h0l0,5.4l0.2-5.4h0
				l0.1,10.7l0.1-5.4h0l0.1,10.7l0-5.4h0l0,5.4h0.2h0l0-5.4l0,10.7l0.1-5.4l0,5.4l0-5.4l0.2,5.4h0l0-5.4l0,10.7l0.1-5.4h0l0,5.4
				l0-10.7l0.2,5.4h0l0,5.4l0.2-5.4l0,5.4l0-5.4l0.2,5.4l0-5.4l0,5.4h0.2l0-5.4l0,5.4h0.2h0l0-5.4l0.1,10.7h0.1h0l0-5.4l0.2,5.4h0
				l0-5.4l0.1,10.7l0.1-5.4h0l0,5.4h0.1h0l0-5.4l0.1,10.7l0-5.4h0l0.1,10.7l0-5.4l0-5.4l0.1,10.7l0.1-5.4h0l0,5.4h0.2h0l0-5.4
				l0.2,5.4h0l0-5.4h0.2h0l0,5.4l0.2-5.4h0l0,5.4l0.2-5.4h0l0-5.4l0,10.7l0.2-5.4h0l0-5.4h0.2l0,5.4l0-5.4l0.2,5.4l0-5.4l0,5.4
				l0.2-5.4h0l0.1,5.4l0.1-10.7l0.1,5.4h0l0,5.4l0.2-5.4l0,5.4l0-5.4l0.1,10.7l0.1-5.4h0l0,5.4h0.2h0l0-5.4l0.1,10.7l0.1-5.4h0
				l0,5.4h0.2l0-5.4l0.1,10.7h0.1h0l0-5.4l0.2,5.4l0-5.4l0,5.4h0.2h0l0,5.4l0-10.7l0.1,5.4h0l0,5.4l0-10.7l0.2,5.4h0l0,5.4h0.2
				l0-5.4l0.2,10.7l0-5.4h0l0-5.4l0.1,10.7l0.1-5.4h0l0,5.4l0.2-5.4l0,5.4l0-5.4l0.2,5.4l0-5.4l0,5.4h0.2h0l0-5.4l0.2,5.4h0l0,5.4
				l0.2-5.4h0l0,5.4l0.2-5.4h0l0,5.4l0.2-5.4h0l0,5.4h0.2h0l0-5.4h0.2l0,5.4l0-5.4h0.2l0,5.4l0-5.4h0.2h0l0,5.4l0.2-5.4h0l0,5.4
				l0.1-10.7l0,5.4h0l0-5.4l0.2,5.4h0l0-5.4l0.2,5.4l0-5.4l0,5.4l0.2-5.4h0l0,5.4l0.1-10.7l0.1,5.4h0l0,5.4l0-10.7l0.1,5.4h0l0-5.4
				l0,10.7l0.1-5.4h0l0-5.4l0.1,10.7l0.1-5.4h0l0,5.4h0.2h0l0-5.4l0.2,5.4h0l0-5.4l0,10.7l0.1-5.4h0l0.2,10.7l0-5.4h0l0,5.4l0-10.7
				l0.2,10.7l0-5.4l0,5.4h0.2h0l0-5.4l0.2,10.7l0-5.4h0l0,5.4l0-10.7l0.1,5.4h0l0-5.4l0.1,5.4h0l0-5.4l0.2,5.4l0-5.4l0,5.4l0.1-10.7
				l0.1,5.4h0l0.1-10.7l0.1,5.4h0l0.1-10.7l0.1,5.4h0l0.1-10.7h0.1h0l0,5.4l0-10.7h0.1h0l0,5.4l0.2-16.1l0,5.4h0l0,5.4l0.2-16.1
				l0,5.4h0l0.2-10.7l0,5.4h0l0-5.4h0.2h0l0.1-10.7l0,5.4h0l0.2-10.7l0,5.4h0l0.1-10.7h0.1l0,5.4l0.1-10.7h0.1h0l0,5.4l0.1-10.7h0.1
				h0l0,5.4l0.1-10.7h0.1h0l0,5.4l0-10.7l0.1,5.4h0l0.1-10.7h0.1h0l0,5.4l0.1-10.7l0.1,5.4h0l0-5.4l0.2,5.4h0l0-5.4h0.2h0l0,5.4
				l0.2-5.4h0l0,5.4l0.2-5.4l0,5.4l0-5.4l0.1,10.7l0.1-5.4h0l0-5.4l0,10.7l0.1-5.4l0,5.4l0-5.4l0.2,5.4h0l0-5.4l0.2,10.7l0-5.4
				l0,5.4l0-5.4l0.2,5.4h0l0-5.4l0.2,5.4h0l0-5.4l0.1,10.7l0.1-5.4h0l0,5.4l0-10.7l0.2,5.4h0l0,5.4l0.2-5.4l0,5.4l0-5.4l0.1,10.7
				l0-5.4h0l0,5.4l0-10.7l0.1,5.4h0l0,5.4h0.2h0l0.1,5.4l0.1-5.4h0l0,5.4h0.2h0l0-5.4l0.1,10.7l0.1-5.4h0l0-5.4l0,10.7l0.1-5.4h0
				l0,5.4l0-10.7l0.1,5.4h0l0,5.4l0-10.7l0.1,5.4h0l0,5.4l0-10.7l0.1,5.4h0l0-5.4l0,10.7l0.2-5.4h0l0-5.4l0,10.7l0.1-5.4l0-5.4
				l0,5.4h0.2l0-5.4l0,5.4l0.2-5.4h0l0,5.4l0.2-5.4h0l0.1,5.4l0.1-10.7l0,5.4h0l0.1,5.4l0-5.4h0l0,5.4l0.2-5.4h0l0,5.4l0.2-5.4h0
				l0.2,10.7l0-5.4h0l0-5.4L317,319l0.1-5.4h0l0-5.4l0,10.7l0.1-5.4h0l0,5.4l0.2-5.4h0l0,5.4h0.2h0l0-5.4l0.2,5.4l0-5.4l0,5.4
				l0.2-5.4h0l0,5.4l0.1-10.7l0,5.4h0l0-5.4l0,10.7l0.1-5.4h0l0-5.4l0,10.7l0.1-10.7l0,5.4l0-5.4l0,10.7l0.1-10.7l0,5.4l0-5.4
				l0.2,5.4h0l0-5.4l0,10.7l0.2-5.4h0l0-5.4l0,10.7l0.2-5.4h0l0,5.4l0.2-5.4h0l0,5.4h0.2h0l0-5.4h0.2h0l0,5.4l0.2-5.4h0l0,5.4
				l0-10.7l0.1,5.4h0l0-5.4l0,10.7l0.2-5.4h0l0-5.4h0.2h0l0,5.4l0.2-5.4h0l0,5.4l0.2-5.4h0l0.1,5.4l0.1-5.4h0l0.1,5.4l0.1-5.4h0
				l0,5.4l0.2-5.4h0l0,5.4l0.2-5.4l0,5.4l0-5.4l0.1,10.7l0.1-5.4h0l0-5.4l0,10.7h0.2l0-5.4l0.1,10.7l0.1-5.4l0,5.4l0-5.4l0.2,5.4h0
				l0-5.4l0.1,10.7l0.1-5.4h0l0.1,10.7l0-5.4h0l0-5.4l0,10.7l0.2-5.4h0l0.2,10.7l0-5.4h0l0,5.4l0-10.7l0.1,5.4h0l0.2,10.7l0-5.4h0
				l0-5.4l0.2,5.4h0l0-5.4l0.1,10.7l0-5.4h0l0,5.4l0.2-5.4h0l0,5.4l0-10.7l0.1,5.4h0l0,5.4l0-10.7h0.1l0,5.4l0-5.4h0.2l0,5.4l0-10.7
				l0.1,5.4l0-5.4l0,5.4l0.1-10.7h0.1h0l0,5.4l0.1-10.7h0.1l0,5.4l0.1-10.7h0.1h0l0.2-10.7l0,5.4h0l0.1-10.7h0.1l0,5.4l0.1-10.7h0.1
				h0l0,5.4l0-10.7h0.1h0l0-5.4h0.2h0l0,5.4l0-10.7h0.1h0l0,5.4l0.1-10.7l0.1,5.4l0-5.4l0,5.4l0.1-10.7l0.1,5.4h0l0-5.4h0.2h0l0,5.4
				l0.1-10.7l0.1,5.4h0l0-5.4h0.2h0l0,5.4l0.1-10.7l0.1,5.4h0l0.1-5.4l0,10.7l0.1-5.4h0l0,5.4l0-10.7l0.1,5.4h0l0,5.4l0.2-5.4h0
				l0,5.4h0.2h0l0-5.4l0.2,5.4h0l0-5.4l0.2,10.7l0-5.4h0l0-5.4l0.1,10.7h0l0-5.4l0,5.4l0.2-5.4h0l0,5.4h0.2h0l0-5.4l0.2,10.7l0-5.4
				h0l0,5.4l0-10.7l0.1,5.4l0,5.4l0-5.4l0.2,10.7l0-5.4h0l0,5.4h0.2h0l0-5.4l0,10.7l0.1-5.4h0l0.2,10.7l0-5.4h0l0,5.4l0-10.7
				l0.2,10.7h0l0-5.4l0.1,10.7h0.1l0-5.4l0.1,10.7l0-5.4h0l0,5.4h0.2h0l0-5.4l0.1,10.7l0-5.4l0-5.4l0,10.7l0.2-5.4h0l0,5.4l0.1-10.7
				l0.1,5.4l0,5.4l0-5.4h0.2l0,5.4l0-5.4l0.2,5.4h0l0-5.4l0.2,5.4l0-5.4l0,5.4h0.2l0-5.4l0,5.4h0.2h0l0,5.4l0-10.7l0.1,5.4h0l0,5.4
				l0.2-5.4l0,5.4l0-5.4l0.1,10.7l0-5.4h0l0-5.4l0.1,10.7l0.1-5.4h0l0,5.4h0.2h0l0-5.4l0.1,10.7h0.1l0-5.4l0,5.4l0.1-10.7l0.1,10.7
				l0-5.4l0,5.4h0.2l0-5.4l0,5.4h0.2h0l0-5.4l0.1,10.7l0-5.4h0l0-5.4l0.1,5.4h0l0-5.4l0.2,5.4l0-5.4l0,5.4l0.2-5.4l0,5.4l0-5.4h0.2
				h0l0,5.4l0.2-5.4l0,5.4l0-5.4h0.2h0l0,5.4h0.2h0l0-5.4l0.1,10.7l0.1-5.4h0l0.1,10.7l0.1-5.4h0l0-5.4l0.1,10.7h0.1l0-5.4l0.2,10.7
				l0-5.4h0l0,5.4l0-10.7l0.1,10.7l0-5.4l0,5.4h0.2h0l0-5.4l0.2,10.7l0-5.4h0l0-5.4l0.2,5.4h0l0-5.4l0.1,10.7l0-5.4h0l0-5.4
				l0.1,10.7l0.1-10.7h0l0,5.4h0.2l0-5.4l0,5.4h0.2h0l0-5.4l0,10.7l0.1-5.4h0l0,5.4h0.2h0l0-5.4l0.2,10.7l0-5.4h0l0,5.4h0.2h0l0-5.4
				l0.1,10.7h0.1h0l0-5.4l0.1,10.7h0.1h0l0-5.4l0.2,5.4h0l0,5.4h0.2h0l0-5.4h0.2h0l0,5.4l0.1-42.8h0.1l0,5.4l0-5.4l0.1,10.7l0.1-5.4
				h0l0,5.4h0.2h0l0-5.4l0.2,5.4h0l0-5.4l0.1,10.7l0.1-5.4h0l0-5.4l0.2,10.7l0-5.4h0l0-5.4l0.1,10.7l0.1-5.4h0l0,5.4l0.2-5.4h0
				l0,5.4l0.1-10.7l0,5.4h0l0,5.4l0-10.7l0.1,5.4l0-5.4l0,5.4h0.2h0l0-5.4l0.1,10.7l0.1-5.4h0l0-5.4l0.1,10.7l0.1-5.4h0l0-5.4
				l0.2,5.4h0l0-5.4l0.1,10.7l0.1-5.4h0l0-5.4l0,10.7h0.1l0-5.4l0,5.4l0.1-5.4h0l0,5.4h0.2h0l0-5.4l0.2,5.4l0-5.4l0,5.4l0.2-5.4h0
				l0,5.4h0.2h0l0-5.4h0.2l0,5.4l0-5.4h0.2h0l0,5.4l0.2-5.4h0l0,5.4h0.2l0-5.4l0,5.4h0.2h0l0-5.4l0.2,5.4h0l0-5.4l0.2,5.4l0-5.4
				l0.1,10.7l0.1-5.4h0l0,5.4l0.2-5.4h0l0,5.4h0.2h0l0-5.4l0.1,10.7h0l0-5.4l0,5.4l0.1-10.7l0.1,5.4h0l0,5.4l0.2-5.4h0l0.1,10.7
				l0-5.4h0l0-5.4l0,10.7l0.2-5.4h0l0,5.4l0.2-5.4h0l0,5.4h0.2h0l0,5.4h0.2l0-5.4l0,5.4h0.2h0l0-5.4l0,10.7l0.2-5.4h0l0,5.4h0.2h0
				l0-5.4l0.1,10.7l0-5.4h0l0,5.4l0-10.7l0.2,5.4h0l0,5.4l0.2-5.4h0l0,5.4h0.2h0l0-5.4l0.2,5.4h0l0-5.4l0.1,10.7l0.1-5.4h0l0-5.4
				h0.2l0,5.4l0-5.4l0,10.7l0.1-5.4h0l0-5.4l0.2,5.4h0l0-5.4l0.2,5.4h0l0-5.4h0.2h0l0,5.4l0.2-5.4h0l0,5.4l0.1-10.7l0.1,5.4h0l0-5.4
				h0.2h0l0,5.4l0-10.7h0.1h0l0,5.4l0.1-10.7h0.1h0l0,5.4l0.1-10.7h0.1h0l0,5.4l0-10.7h0.2h0l0.2-10.7h0l0,5.4l0.1-10.7h0.1h0l0,5.4
				l0.1-10.7h0.1l0,5.4l0.2-16.1l0,5.4h0l0,5.4l0-10.7h0.1h0l0,5.4l0.1-10.7h0.1l0,5.4l0.1-10.7l0.1,5.4h0l0,5.4l0-10.7l0.2,5.4
				l0-5.4l0,5.4h0.2l0-5.4l0,5.4l0.2-5.4h0l0,5.4l0.2-5.4h0l0,5.4l0.2-5.4h0l0,5.4l0.2-5.4l0,5.4l0-5.4h0.2l0,5.4l0-5.4h0.2l0,5.4
				l0-5.4l0.2,5.4h0l0-5.4l0.1,10.7l0.1-5.4h0l0-5.4l0.1,10.7l0-10.7l0,5.4l0-5.4l0,10.7l0.1-5.4h0l0,5.4h0.2l0-5.4l0.2,10.7l0-5.4
				l0,5.4l0-5.4l0.2,5.4h0l0-5.4l0.1,10.7l0.1-5.4l0,5.4l0-5.4l0.1,10.7h0.1l0-5.4l0.1,10.7l0.1-5.4h0l0,5.4l0-10.7l0.1,10.7h0
				l0-5.4l0.1,10.7l0.1-5.4l0,5.4l0-5.4l0.2,5.4h0l0-5.4l0.1,10.7l0-5.4h0l0-5.4l0,10.7l0.2-5.4h0l0-5.4l0.2,5.4h0l0-5.4h0.2h0
				l0,5.4l0.2-5.4h0l0,5.4l0-10.7l0.1,5.4h0l0-5.4h0.2l0,5.4l0-5.4h0.2l0,5.4l0-5.4h0.2h0l0,5.4h0.2l0-5.4l0-5.4l0,10.7l0.2-5.4h0
				l0-5.4l0.2,5.4h0l0-5.4h0.2h0l0,5.4l0.2-5.4h0l0,5.4l0.1-10.7l0,5.4h0l0-5.4l0.1,10.7l0.1-5.4h0l0-5.4l0.2,5.4l0-5.4l0,5.4
				l0.2-5.4h0l0,5.4h0.2l0-5.4l0,10.7l0.2-5.4h0l0,5.4h0.2h0l0.2,10.7l0-5.4l0-5.4l0,10.7h0.2h0l0-5.4l0.2,16.1l0-5.4h0l0,5.4h0.2h0
				l0.2,10.7l0-5.4h0l0-5.4l0,10.7h0.2h0l0-5.4l0,10.7l0.1-5.4h0l0.1,10.7l0.1-5.4h0l0-5.4l0,10.7l0.2-5.4l0,5.4l0-5.4h0.2l0,5.4
				l0-5.4l0.2,5.4h0l0-5.4l0.2,5.4h0l0-5.4h0.2h0l0,5.4l0.2-5.4h0l0,5.4h0.2l0-5.4l0,5.4l0.2-5.4l0,5.4l0-5.4h0.2l0,5.4l0-5.4
				l0.2,10.7l0-5.4h0l0-5.4l0.2,5.4h0l0-5.4l0,10.7l0.1-5.4h0l0,5.4l0-10.7l0.2,5.4h0l0-5.4l0,10.7l0.1-5.4h0l0,5.4l0-10.7l0.2,5.4
				h0l0-5.4l0,10.7l0.2-5.4h0l0-5.4l0.1,10.7l0.1-5.4h0l0-5.4l0,10.7l0.1-10.7h0l0.1,10.7l0-5.4h0l0,5.4l0-10.7l0.2,5.4h0l0.2,10.7
				l0-5.4h0l0-5.4l0,10.7l0.1-5.4h0l0-5.4l0.1,10.7l0.1-5.4h0l0,5.4l0.2-5.4h0l0,5.4h0.2h0l0-5.4l0.2,5.4h0l0-5.4l0.2,5.4h0l0-5.4
				l0.2,5.4h0l0-5.4h0.2l0,5.4l0.1-10.7l0.1,5.4h0l0-5.4h0.2h0l0,5.4l0.1-10.7l0.1,5.4h0l0.1-10.7h0l0,5.4l0-5.4l0.2,5.4l0-5.4
				l0,5.4l0.1-10.7l0.1,5.4h0l0-5.4h0.2l0,5.4l0.1-10.7l0.1,5.4h0l0-5.4h0.2l0,5.4l0-5.4h0.2h0l0,5.4l0.2-5.4h0l0,5.4h0.2h0l0-5.4
				l0.2,5.4h0l0-5.4l0.1,10.7l0.1-5.4h0l0,5.4l0-10.7l0.2,5.4h0l0,5.4l0.2-5.4h0l0,5.4h0.2l0-5.4l0,5.4h0.2h0l0-5.4l0.2,5.4h0l0,5.4
				l0.1-5.4l0,5.4l0-5.4h0.2l0,5.4l0-5.4l0.2,5.4h0l0-5.4l0,10.7h0.2h0l0-5.4l0.2,10.7l0-5.4h0l0,5.4l0.2-5.4l0,5.4l0-5.4l0.1,10.7
				l0.1-5.4l0,5.4l0-5.4l0.2,5.4h0l0-5.4l0.2,10.7l0-5.4h0l0-5.4l0,10.7l0.2-5.4h0l0,5.4l0.2-5.4l0,5.4l0-5.4h0.2h0l0,5.4l0.1-10.7
				l0.1,5.4h0l0-5.4l0.2,5.4l0-5.4l0,5.4l0.1-10.7l0,5.4h0l0,5.4l0-10.7l0.2,5.4h0l0-5.4l0.2,5.4h0l0-5.4l0.2,5.4h0l0-5.4l0.2,5.4h0
				l0-5.4l0.1,10.7l0.1-5.4h0l0,5.4h0.2h0l0-5.4l0.1,10.7l0-5.4h0l0,5.4h0.2l0-5.4l0.1,10.7l0.1-5.4h0l0-5.4l0,10.7l0.2-5.4h0l0,5.4
				l0.2-5.4h0l0,5.4h0.2h0l0-5.4l0.2,5.4h0l0-5.4h0.2h0l0,5.4l0.1-10.7l0.1,5.4h0l0,5.4l0-10.7h0.2h0l0,5.4l0.2-5.4l0,5.4l0-5.4h0.2
				h0l0,5.4l0.2-5.4h0l0,5.4l0.2-5.4h0l0,5.4l0.1-10.7l0.1,5.4h0l0,5.4l0.2-5.4h0l0,5.4l0.2-5.4h0l0,5.4l0.2-5.4l0,5.4l0-5.4h0.2h0
				l0,5.4l0.2-5.4h0l0,5.4l0.2-5.4h0l0,5.4l0.2-5.4h0l0-5.4l0,10.7l0.1-5.4h0l0-5.4l0.1,5.4h0l0-5.4l0.2,5.4h0l0-5.4l0.2,5.4h0
				l0-5.4l0,10.7l0.1-5.4h0l0,5.4h0.2l0-5.4l0.1,10.7l0.1-5.4l0,5.4l0-5.4l0.1,10.7l0-5.4h0l0,5.4h0.2h0l0-5.4l0.1,10.7l0.1-5.4h0
				l0,5.4h0.2h0l0-5.4l0.2,5.4h0l0-5.4l0.2,5.4h0l0-5.4l0.2,5.4h0l0-5.4h0.2l0,5.4l0-5.4h0.2l0,5.4l0-5.4l0.2,5.4h0l0-5.4h0.2l0,5.4
				l0-5.4h0.2h0l0,5.4l0-10.7l0.1,5.4h0l0,5.4l0.2-5.4h0l0,5.4l0-10.7l0.2,5.4h0l0,5.4l0-10.7h0.1h0l0,5.4l0.1-10.7l0,5.4h0
				l0.1-10.7h0.1l0,5.4l0.1-10.7l0,5.4h0l0.1-10.7h0.1h0l0.1-10.7h0h0l0,5.4l0.1-10.7h0.1h0l0.2-10.7l0,5.4h0l0.1-10.7h0.1h0l0,5.4
				l0.1-10.7h0.1h0l0,5.4l0-10.7h0.1h0l0,5.4l0.1-10.7l0.1,5.4h0l0.2-10.7l0,5.4h0l0-5.4l0,10.7l0.2-5.4h0l0-5.4h0.2l0,5.4l0.2-10.7
				l0,5.4h0l0,5.4l0-10.7l0.1,5.4h0l0-5.4h0.2h0l0,5.4h0.2l0-5.4l0,5.4l0.2-5.4h0l0,5.4l0.2-5.4l0,5.4l0-5.4h0.2h0l0,5.4l0.2-5.4h0
				l0.2,10.7l0-5.4l0-5.4l0,10.7h0.1l0-5.4l0.1,10.7l0.1-5.4l0,5.4l0-5.4l0.2,5.4h0l0.2,10.7l0-5.4h0l0-5.4l0,10.7h0.1h0l0-5.4
				l0,10.7h0.1h0l0-5.4l0,10.7h0.1l0-5.4l0,5.4h0.2h0l0-5.4l0,10.7l0.1-5.4h0l0,5.4l0.1-10.7l0.1,5.4h0l0,5.4l0-10.7l0.1,5.4h0
				l0-5.4h0.2h0l0,5.4l0.1-10.7l0,5.4h0l0,5.4l0-10.7l0.2,5.4h0l0.2-10.7l0,5.4h0l0,5.4l0.1-10.7l0.1,5.4h0l0-5.4l0,10.7l0.2-5.4h0
				l0-5.4l0.2,5.4h0l0-5.4l0.2,5.4h0l0-5.4l0,10.7l0.2-5.4h0l0-5.4l0,10.7l0.1-5.4h0l0,5.4l0-10.7l0.2,5.4h0l0,5.4h0.2h0l0-5.4
				l0.2,5.4h0l0-5.4l0.2,5.4h0l0-5.4l0.2,5.4h0l0-5.4l0.2,5.4h0l0-5.4l0.2,5.4l0-5.4l0.1,10.7l0-5.4h0l0-5.4l0.1,10.7l0.1-5.4h0
				l0,5.4l0.2-5.4h0l0,5.4h0.2h0l0-5.4l0.1,10.7l0.1-5.4h0l0,5.4l0-10.7l0.2,5.4l0,5.4l0-5.4l0.1,10.7h0.1l0-5.4l0,5.4l0-10.7
				l0.1,10.7l0-5.4l0,5.4h0.2h0l0-5.4l0.1,10.7l0.1-5.4h0l0,5.4l0-10.7l0.1,5.4h0l0,5.4l0.1-10.7l0.1,5.4h0l0-5.4l0.2,5.4h0l0-5.4
				h0.2l0,5.4l0-5.4l0.2,5.4h0l0-5.4l0.2,5.4h0l0-5.4l0.2,5.4h0l0-5.4l0.2,5.4h0l0,5.4l0-10.7l0.2,5.4h0l0,5.4h0.2l0-5.4l0,5.4h0.2
				h0l0-5.4l0,10.7l0.1-5.4h0l0,5.4h0.2l0-5.4l0.1,10.7l0.1-5.4h0l0,5.4l0.2-5.4h0l0,5.4l0.2-10.7l0,5.4l0,5.4l0-10.7l0.2,5.4h0
				l0,5.4h0.2h0l0-5.4l0.2,5.4h0l0-5.4l0.2,5.4l0-5.4l0.1,10.7l0-5.4h0l0,5.4l0-10.7l0.1,5.4h0l0-5.4l0,10.7l0.2-5.4h0l0,5.4
				l0.1-10.7h0.1l0,5.4l0,5.4l0-10.7l0.2,5.4l0-5.4l0,5.4l0.1-10.7l0.1,5.4h0l0,5.4l0.1-80.3h0h0l0,5.4l0.2-5.4l0,5.4l0-5.4
				l0.2,10.7l0-5.4h0l0-5.4l0,10.7h0.2h0l0-5.4l0.2,5.4h0l0-5.4l0.1,10.7l0-5.4h0l0,5.4h0.2h0l0-5.4l0.1,10.7l0-5.4h0l0,5.4l0.2-5.4
				l0,5.4l0-5.4l0.1,10.7l0.1-5.4h0l0.1,10.7l0.1-5.4h0l0.2,10.7l0-5.4h0l0,5.4h0.2h0l0-5.4l0,10.7h0.1h0l0-5.4l0,10.7l0.1-5.4
				l0,5.4l0-5.4l0.1,10.7l0.1-5.4h0l0,5.4l0.2-5.4l0,5.4l0-5.4l0.2,5.4h0l0-5.4l0.1,10.7l0-5.4h0l0-5.4l0.1,10.7l0.1-5.4h0l0,5.4
				l0.1-10.7l0,5.4h0l0,5.4l0.2-5.4h0l0,5.4l0.2-5.4l0,5.4l0-5.4l0.2,5.4h0l0,5.4l0.1-10.7l0.1,5.4h0l0,5.4h0.2l0-5.4l0.1,10.7
				l0-5.4h0l0,5.4h0.2h0l0-5.4l0,10.7l0.2-5.4h0l0,5.4h0.2h0l0-5.4l0,10.7l0.1-5.4h0l0,5.4l0.2-5.4h0l0,5.4l0.2-5.4h0l0,5.4l0.2-5.4
				l0,5.4l0-5.4h0.2h0l0,5.4l0.2-5.4h0l0,5.4h0.2h0l0-5.4l0.2,5.4h0l0-5.4l0,10.7h0.1l0-5.4l0,5.4h0.2l0-5.4l0.2,10.7l0-5.4h0l0,5.4
				l0.2-5.4l0,5.4l0-5.4l0.2,5.4l0-5.4l0.1,10.7l0.1-5.4h0l0-5.4l0,10.7l0.2-5.4l0,5.4l0-5.4l0.2,5.4l0-5.4l0,5.4h0.2h0l0-5.4
				l0.2,5.4h0l0-5.4l0.2,5.4h0l0-5.4l0.1,10.7h0.1l0-5.4l0-5.4l0,10.7l0.2-5.4h0l0,5.4l0.2-5.4h0l0.1,10.7l0.1-5.4l0,5.4l0-5.4
				l0.2,5.4l0-5.4l0.1,10.7l0.1-5.4h0l0,5.4h0.2h0l0-5.4l0.2,10.7l0-5.4h0l0-5.4l0.1,10.7l0.1-5.4h0l0,5.4l0.2-5.4h0l0,5.4l0.2-5.4
				l0,5.4l0-5.4h0.2h0l0,5.4h0.2l0-5.4l0,5.4h0.2l0-5.4l0,5.4h0.2h0l0-5.4l0.2,5.4h0l0-5.4l0.1,10.7l0.1-5.4h0l0,5.4h0.2l0-5.4
				l0,5.4h0.2h0l0-5.4l0,10.7l0.1-5.4h0l0,5.4h0.2h0l0-5.4l0.2,5.4h0l0-5.4l0.2,5.4h0l0-5.4L408,426l0-5.4h0l0-5.4l0.1,5.4h0l0-5.4
				l0.2,5.4h0l0-5.4h0.2h0l0,5.4l0.1-10.7l0,5.4l0-5.4l0,5.4l0.2-10.7l0,5.4h0l0,5.4l0-10.7h0.2h0l0.1,5.4l0.1-16.1l0,5.4h0l0-5.4
				h0.1h0l0.1-10.7h0h0l0,5.4l0.1-10.7h0.1h0l0,5.4l0-10.7h0.1h0l0.1-10.7l0.1,5.4l0-5.4l0,5.4l0-10.7h0.1h0l0.1-10.7l0,5.4h0
				l0-10.7h0.1h0l0,5.4l0.1-16.1l0,5.4h0l0.1-10.7h0.1h0l0,5.4l0-10.7h0.1h0l0,5.4l0-10.7h0.1h0l0,5.4l0.1-10.7l0.1,5.4l0-5.4l0,5.4
				l0.2-5.4l0,5.4l0-5.4h0.2h0l0,5.4l0.2-5.4h0l0,5.4l0.2-5.4h0l0,5.4h0.2l0-5.4l0,5.4l0.2-5.4l0,5.4l0-5.4l0.1,10.7l0.1-5.4h0
				l0-5.4l0,10.7h0.2l0-5.4l0,5.4l0.2-5.4h0l0,5.4h0.2l0-5.4l0,5.4l0.2-5.4h0l0,5.4h0.2h0l0-5.4l0.1,10.7l0.1-5.4h0l0-5.4l0,10.7
				l0.2-5.4h0l0,5.4h0.2h0l0,5.4l0.1-5.4l0,5.4l0-5.4l0.2,5.4h0l0-5.4l0,10.7h0.2l0-5.4l0,5.4h0.2h0l0-5.4l0.1,10.7l0.1-5.4h0l0,5.4
				l0-10.7l0.2,5.4h0l0,5.4l0.1-10.7l0,5.4h0l0,5.4l0-10.7l0.2,5.4h0l0,5.4l0-10.7h0.2h0l0,5.4l0.2-5.4h0l0,5.4l0-10.7l0.1,5.4h0
				l0-5.4l0.1,5.4h0l0-5.4l0.2,5.4h0l0-5.4l0.2,5.4h0l0-5.4l0,10.7l0.2-5.4h0l0-5.4l0.1,10.7l0-5.4h0l0,5.4l0-10.7l0.2,10.7l0-5.4
				l0,5.4h0.2l0-5.4l0,5.4h0.2h0l0-5.4l0,10.7l0.1-5.4h0l0,5.4h0.2l0-5.4l0,5.4l0.2-5.4h0l0,5.4h0.2h0l0-5.4h0.2l0,5.4l0-5.4
				l0.2,5.4h0l0-5.4l0.2,5.4h0l0-5.4l0.2,10.7l0-5.4h0l0-5.4l0,10.7l0.1-5.4h0l0,5.4h0.2h0l0-5.4l0,10.7l0.1-5.4h0l0,5.4h0.2h0
				l0-5.4l0,10.7h0.2l0-5.4l0.2,10.7l0-5.4h0l0,5.4l0.2-5.4h0l0,5.4h0.2h0l0-5.4l0.1,10.7l0.1-5.4h0l0-5.4l0,10.7l0.2-5.4h0l0,5.4
				l0-10.7l0.2,10.7l0-5.4l0-5.4l0,10.7l0.2-5.4h0l0.1-5.4l0,10.7l0-5.4h0l0-5.4h0.2l0,5.4l0-5.4l0.2,5.4h0l0-5.4l0.2,5.4l0-5.4
				l0,5.4l0.2-5.4h0l0,5.4h0.2h0l0-5.4l0.1,10.7l0.1-5.4h0l0,5.4l0.2-5.4h0l0,10.7l0.2-5.4h0l0-5.4l0.1,10.7l0.1-5.4h0l0,5.4
				l0.2-5.4l0,5.4l0-5.4l0.2,5.4h0l0-5.4l0.2,5.4h0l0-5.4h0.2l0,5.4l0-5.4l0.2,5.4h0l0-5.4h0.2l0,5.4l0-5.4l0.2,10.7l0-5.4h0l0-5.4
				l0.1,10.7l0.1-5.4h0l0,5.4h0.2h0l0,5.4l0.1-5.4h0l0,5.4h0.2h0l0,5.4l0-10.7l0.2,5.4h0l0-5.4l0,10.7l0.1-5.4h0l0,5.4l0-10.7
				l0.1,10.7l0-5.4l0,5.4l0.2-5.4h0l0,5.4h0.2h0l0-5.4l0.2,5.4l0-5.4l0,5.4l0.2-5.4h0l0,5.4h0.2l0-5.4l0,5.4l0.2-5.4h0l0-5.4l0,10.7
				l0.2-10.7l0,5.4l0-5.4h0.2h0l0,5.4l0.1-10.7l0.1,5.4h0l0.1-10.7l0.1,5.4h0l0-5.4h0.2h0l0,5.4l0.1-10.7l0.1,5.4h0l0.1-10.7
				l0.1,5.4h0l0-5.4h0.2h0l0-5.4h0.2l0,5.4l0.2-10.7h0l0,5.4l0-5.4h0.2h0l0,5.4l0-10.7l0.2,5.4h0l0.1-10.7l0,5.4h0l0-5.4l0.2,5.4
				l0-5.4l0,5.4l0.1-10.7l0.1,5.4h0l0-5.4l0.2,5.4l0-5.4l0,5.4l0.1-10.7l0,5.4h0l0,5.4l0-10.7l0.1,5.4h0l0,5.4l0-10.7l0.2,5.4h0
				l0-5.4l0,10.7l0.1-5.4h0l0-5.4l0.2,5.4h0l0-5.4l0,10.7l0.2-5.4h0l0-5.4l0.2,5.4l0-5.4l0,5.4l0.2-5.4h0l0,5.4l0.2-5.4h0l0,5.4
				L431,319l0,5.4h0l0,5.4l0.2-5.4h0l0,5.4l0-10.7l0.2,5.4h0l0-5.4l0.2,5.4h0l0-5.4l0.2,5.4h0l0-5.4l0.2,5.4h0l0-5.4l0.1,10.7
				l0.1-5.4h0l0,5.4h0.2h0l0-5.4l0,10.7l0.2-5.4h0l0,5.4h0.2h0l0-5.4l0,10.7l0.1-5.4h0l0.1,10.7l0-5.4h0l0,5.4l0.2-5.4l0,5.4l0-5.4
				h0.2h0l0,5.4h0.2h0l0-5.4l0,10.7l0.2-5.4h0l0-5.4h0.2l0,5.4l0-5.4l0.2,5.4l0-5.4l0,5.4l0.2-5.4h0l0,5.4h0.2h0l0-5.4l0,10.7
				l0.1-5.4h0l0,5.4l0.2-5.4h0l0.1,10.7l0-5.4l0,5.4l0-5.4l0.2,5.4h0l0-5.4l0,10.7h0.1h0l0-5.4l0.2,10.7l0-5.4h0l0,5.4h0.2h0l0-5.4
				l0.1,10.7h0.1l0-5.4l0.1,10.7l0.1-5.4h0l0,5.4l0.2-5.4l0,5.4l0-5.4l0.2,10.7l0-5.4h0l0,5.4l0.2-5.4h0l0.1,10.7l0.1-5.4h0l0-5.4
				l0,10.7l0.2-5.4h0l0,5.4h0.2h0l0-5.4l0.1,10.7l0-5.4h0l0,5.4l0-10.7l0.1,5.4h0l0,5.4h0.2l0-5.4l0,5.4l0-10.7l0.2,10.7l0-5.4
				l0.1,10.7l0-5.4h0l0-5.4l0.1,10.7l0.1-5.4h0l0-5.4l0,10.7l0.1-5.4h0l0-5.4l0,10.7l0.2-5.4l0-5.4l0,5.4l0.2-5.4h0l0,5.4l0.1-10.7
				l0.1,5.4h0l0.2-10.7l0,5.4h0l0-5.4l0,10.7l0.2-10.7h0l0,5.4l0.2-10.7l0,5.4h0l0,5.4l0-10.7h0.2h0l0,5.4l0.2-5.4h0l0,5.4l0.1-10.7
				l0.1,5.4h0l0-5.4l0.1,10.7l0.1-5.4h0l0-5.4l0.2,5.4h0l0-5.4l0.1,10.7l0.1-5.4l0,5.4l0-5.4l0.2,5.4h0l0-5.4l0.1,10.7l0.1-5.4
				l0,5.4l0-5.4h0.2l0,5.4l0-5.4l0.2,5.4l0-5.4l0.2,10.7l0-5.4h0l0-5.4l0.2,10.7l0-5.4h0l0-5.4h0.2l0,5.4l0-5.4h0.2h0l0,5.4l0.2-5.4
				h0l0,5.4l0.2-5.4h0l0,5.4l0.2-5.4h0l0,5.4l0.2-5.4h0l0,5.4h0.2l0-5.4l0.1,10.7l0-5.4h0l0-5.4l0,10.7h0.2h0l0-5.4l0.1,10.7
				l0.1-5.4h0l0,5.4h0.2h0l0-5.4l0.1,10.7h0.1h0l0-5.4l0.2,5.4h0l0-5.4l0.2,5.4h0l0-5.4l0.1,10.7l0.1-10.7l0,5.4l0-5.4l0.2,5.4
				l0-5.4l0,5.4l0.2-10.7l0,5.4h0l0.2-10.7l0,5.4h0l0-5.4l0,10.7l0.2-10.7l0,5.4l0-10.7h0.2h0l0,5.4l0-10.7h0.1h0l0,5.4l0.1-10.7
				h0.1h0l0,5.4l0.1-10.7l0.1,5.4l0-5.4l0,5.4l0.1-10.7h0.1h0l0,5.4l0.1-10.7l0.1,5.4h0l0.1-10.7l0,5.4h0l0.1-10.7l0,5.4h0l0-5.4
				h0.2h0l0-5.4h0.1h0l0,5.4l0.1-10.7h0.1h0l0,5.4l0.1-10.7l0.1,5.4l0-5.4l0,5.4l0.1-10.7l0,5.4h0l0-5.4l0.2,5.4l0-5.4l0,5.4
				l0.1-10.7l0,5.4h0l0-5.4l0.2,5.4l0-5.4l0,5.4l0.2-5.4h0l0,5.4h0.2l0-5.4l0.1,10.7l0.1-5.4h0l0,5.4h0.2l0-5.4l0,5.4h0.2h0l0-5.4
				l0,10.7h0.2h0l0-5.4l0.1,10.7l0.1-5.4h0l0,5.4h0.2l0-5.4l0.1,10.7h0.1l0-5.4l0,5.4h0.2h0l0-5.4l0,10.7l0.2-5.4h0l0,5.4h0.2h0
				l0,5.4h0.2h0l0-5.4l0.1,10.7l0.1-5.4h0l0,5.4h0.2h0l0,5.4l0.1-5.4l0,5.4l0-5.4l0.1,10.7l0-5.4h0l0,5.4h0.2h0l0-5.4l0.1,10.7
				l0.1-5.4h0l0,5.4h0.2l0-5.4l0,5.4h0.2h0l0,5.4l0-10.7l0.1,5.4h0l0,5.4l0.1-16.1l0,5.4h0l0,5.4l0-10.7l0.2,5.4h0l0-5.4h0.2h0
				l0,5.4l0.1-10.7h0.1h0l0,5.4l0.1-10.7h0.1l0,5.4l0.1-10.7l0.1,5.4h0l0.1-10.7h0.1h0l0,5.4l0-10.7l0.2,5.4l0-5.4l0,5.4l0.1-10.7
				l0.1,5.4h0l0.1-10.7h0.1l0,5.4l0-5.4h0.2h0l0.1-5.4l0.1,5.4h0l0-10.7l0.1,5.4h0l0-5.4l0,10.7l0.2-10.7h0l0,5.4l0-10.7l0.1,5.4h0
				l0,5.4l0-10.7h0.2h0l0,5.4l0.2-5.4h0l0,5.4l0-10.7l0.1,5.4l0-5.4l0,5.4l0.2-5.4l0,5.4l0-5.4h0.2l0,5.4l0-5.4h0.2h0l0,5.4
				l0.1-10.7l0.1,5.4l0,5.4l0-5.4l0.2,5.4l0-5.4l0,5.4h0.2h0l0-5.4l0,10.7l0.1-5.4l0,5.4l0-5.4l0.2,10.7l0-5.4h0l0,5.4h0.2h0l0-5.4
				l0,10.7l0.2-5.4h0l0.2,10.7l0-5.4h0l0,5.4h0.2h0l0-5.4l0.1,10.7l0.1-5.4h0l0,5.4h0.2h0l0-5.4l0.1,10.7l0.1-5.4h0l0,5.4l0.2-5.4h0
				l0,5.4h0.2h0l0-5.4l0.2,5.4l0-5.4l0,5.4h0.2h0l0-5.4l0.2,5.4h0l0-5.4l0.2,5.4h0l0-5.4l0.2,10.7l0-5.4h0l0-5.4l0.1,10.7l0.1-5.4h0
				l0,5.4l0.1-10.7l0.1,5.4h0l0,5.4l0-10.7l0.2,5.4h0l0,5.4l0.2-5.4h0l0,5.4l0.2-5.4h0l0,5.4l0.2-5.4l0,5.4l0-5.4h0.2h0l0,5.4
				l0.2-5.4h0l0,5.4l0.2-5.4h0l0,5.4l0.2-5.4h0l0,5.4l0.2-5.4l0,5.4l0.2-10.7l0,5.4h0l0,5.4l0-10.7l0.2,5.4h0l0-5.4l0,10.7l0.2-5.4
				h0l0,5.4l0.1-10.7h0l0,5.4l0-5.4l0.1,10.7l0.1-5.4h0l0,5.4l0-10.7l0.1,10.7h0l0-5.4l0.2,5.4h0l0-5.4l0.2,5.4h0l0,5.4l0.1-5.4
				l0,5.4l0-5.4l0.2,5.4h0l0-5.4l0.1,10.7l0-5.4h0l0,5.4l0-10.7l0.2,5.4h0l0,5.4h0.2l0-5.4l0.1,10.7l0.1-5.4h0l0,5.4l0.2-5.4l0,5.4
				l0-5.4l0.2,10.7l0-5.4l0,5.4l0-5.4l0.2,5.4l0-5.4l0,5.4h0.2h0l0,5.4l0.1-10.7l0.1,10.7l0-5.4l0,5.4h0.2l0-5.4l0.1,10.7l0.1-5.4h0
				l0,5.4h0.2h0l0-5.4l0.2,5.4h0l0,5.4h0.2h0l0-5.4l0,10.7h0.1l0-5.4l0,5.4h0.2h0l0,5.4h0.2h0l0-5.4l0.1,10.7l0.1-5.4h0l0,5.4h0.2
				l0-5.4l0,5.4h0.2h0l0-5.4l0.2,10.7l0-5.4h0l0-5.4l0.1,10.7l0.1-5.4l0-5.4l0,5.4h0.2l0-5.4l0,5.4l0.2-5.4h0l0,5.4l0-10.7h0.1h0
				l0,5.4l0.1-10.7l0,5.4h0l0-5.4h0.2h0l0,5.4l0-10.7h0.2h0l0,5.4l0.1-10.7l0.1,5.4h0l0.1-10.7h0l0,5.4l0.1-10.7l0,5.4h0l0.2-10.7
				l0,5.4h0l0,5.4l0.2-16.1l0,5.4h0l0.1-10.7l0.1,5.4h0l0.1-10.7l0,5.4h0l0.1-10.7l0.1,5.4h0l0-10.7h0.1h0l0,5.4l0.1-10.7h0.1l0,5.4
				l0.1-10.7h0.1h0l0,5.4l0.1-10.7h0.1h0l0,5.4l0.1-10.7l0.1,5.4h0l0-5.4h0.2h0l0,5.4L470,303l0,5.4l0-5.4l0,5.4l0.2-5.4l0,5.4
				l0-5.4l0.2,5.4l0-5.4l0,5.4h0.2h0l0-5.4l0.2,5.4h0l0-5.4l0.2,5.4h0l0,5.4l0-10.7l0.1,5.4h0l0,5.4l0.1-10.7l0.1,5.4h0l0,5.4
				l0.2-5.4h0l0,5.4h0.2h0l0-5.4l0.2,5.4l0-5.4l0,5.4l0.2-5.4h0l0,5.4l0.2-5.4h0l0,5.4l0.2-5.4h0l0,5.4l0.2-5.4h0l0,5.4l0.2-5.4h0
				l0,5.4l0.2-5.4h0l0,5.4l0.2-5.4h0l0,5.4h0.2l0-5.4l0,5.4h0.2l0-5.4l0,5.4h0.2h0l0-5.4l0,10.7l0.2-5.4h0l0-5.4l0.2,10.7l0-5.4h0
				l0-5.4l0.1,10.7l0.1-5.4h0l0-5.4l0.2,5.4h0l0-5.4l0.1,10.7l0.1-5.4l0-5.4l0,5.4l0.2-5.4l0,5.4l0-5.4h0.2h0l0,5.4l0.2-5.4l0,5.4
				l0-5.4l0.2,5.4h0l0-5.4l0.2,10.7l0-5.4h0l0-5.4l0.1,10.7l0.1-5.4h0l0,5.4h0.2h0l0-5.4l0,10.7l0.1-5.4h0l0,5.4h0.2h0l0-5.4l0,10.7
				l0.1-5.4h0l0,5.4h0.2h0l0,5.4l0-10.7l0.1,5.4h0l0,5.4h0.2h0l0-5.4l0.2,5.4h0l0,5.4l0-10.7l0.2,5.4h0l0-5.4l0,10.7l0.1-5.4h0
				l0-5.4l0.1,10.7l0.1-5.4h0l0,5.4l0.2-5.4h0l0,5.4h0.2l0-5.4l0,5.4h0.2h0l0-5.4l0.2,5.4h0l0-5.4l0,10.7l0.2-5.4l0,5.4l0-5.4
				l0.2,5.4h0l0-5.4l0,10.7l0.1-5.4h0l0,5.4h0.2h0l0-5.4l0.1,10.7l0-5.4h0l0,5.4l0.2-5.4h0l0,5.4l0.2-5.4l0,5.4l0-5.4l0.2,5.4h0
				l0-5.4h0.2h0l0,5.4l0.2-5.4h0l0,5.4l0.2-5.4h0l0,5.4l0.2-5.4h0l0,5.4l0.2-5.4h0l0,5.4l0.2-5.4h0l0,5.4l0.1-10.7l0.1,10.7l0-5.4
				l0,5.4h0.2l0-5.4l0,5.4l0.2-5.4h0l0,5.4l0.2-5.4h0l0,5.4h0.2h0l0-5.4l0.2,5.4h0l0-5.4l0.2,5.4h0l0-5.4h0.2h0l0,5.4l0.1-10.7
				l0.1,5.4l0-5.4l0,5.4l0.2-5.4h0l0-5.4h0.2h0l0.1-10.7h0.1h0l0,5.4l0.1-16.1h0.1h0l0,5.4l0.2-21.4l0,5.4h0l0.1-16.1h0.1h0l0,5.4
				l0.1-16.1h0.1l0,5.4l0.1-10.7h0.1h0l0,5.4l0-10.7h0.2h0l0,5.4l0-10.7h0.1h0l0,5.4l0-10.7h0.1l0,5.4l0-5.4h0.2h0l0,5.4l0.2-5.4h0
				l0-5.4l0.1,10.7l0.1-5.4h0l0-5.4l0,10.7l0.1-5.4h0l0-5.4l0,10.7l0.1-5.4h0l0,5.4h0.2h0l0-5.4l0.2,5.4h0l0-5.4l0,10.7h0.2h0l0-5.4
				l0.1,10.7h0.1h0l0.2,10.7l0-5.4h0l0.1,10.7l0-5.4h0l0.2,10.7l0-5.4h0l0,5.4h0.2h0l0.2,10.7l0-5.4h0l0-5.4l0.1,10.7l0.1-5.4l0,5.4
				l0-5.4l0.2,5.4l0-5.4l0.1,10.7l0.1-5.4h0l0,5.4h0.2h0l0-5.4l0.1,10.7l0.1-5.4l0,5.4l0-5.4l0.2,10.7l0-5.4h0l0-5.4l0,10.7h0.2h0
				l0-5.4l0.1,10.7l0.1-5.4h0l0.2,10.7l0-5.4h0l0,5.4l0-10.7l0.2,10.7h0l0-5.4l0,10.7h0.1h0l0-5.4l0.1,10.7l0-5.4h0l0,5.4l0-10.7
				l0.2,5.4l0,5.4l0-5.4l0.2,5.4h0l0-5.4l0.1,10.7l0-5.4h0l0,5.4l0-10.7l0.1,5.4h0l0,5.4l0-10.7l0.2,5.4h0l0-5.4h0.2l0,5.4l0-5.4
				h0.2h0l0,5.4l0.2-5.4h0l0,5.4l0.1-10.7l0,5.4h0l0,5.4l0.1-10.7l0.1,5.4h0l0,5.4h0.2h0l0-5.4l0.1,10.7l0.1-5.4h0l0,5.4h0.2l0-5.4
				l0.1,10.7l0.1-5.4h0l0,5.4l0-10.7l0.1,10.7h0l0-5.4h0.2l0,5.4l0-5.4l0.2,5.4h0l0-5.4l0.2,5.4l0-5.4l0,5.4h0.2l0-5.4l0,5.4
				l0.1-10.7l0,5.4h0l0-5.4l0,10.7h0.2l0-5.4l0,5.4h0.2l0-5.4l0,5.4h0.2h0l0-5.4l0,10.7h0.1h0l0-5.4l0.2,5.4h0l0,5.4l0.2-5.4l0,5.4
				l0-5.4l0.1,10.7l0-5.4h0l0,5.4h0.2h0l0-5.4l0.1,10.7l0.1-5.4h0l0,5.4h0.2l0-5.4l0,5.4l0.2-5.4h0l0,5.4l0.2-5.4h0l0,5.4l0.2-5.4
				l0,5.4l0-5.4h0.2h0l0,5.4l0.2-5.4l0,5.4l0-5.4l0.2,5.4l0-5.4l0,5.4l0.2-5.4h0l0,5.4h0.2l0-5.4l0,5.4h0.2h0l0.1,5.4l0.1-5.4h0
				l0,5.4l0.2-5.4h0l0,10.7l0.2-5.4h0l0,5.4l0.2-5.4l0,5.4l0-5.4l0.1,10.7l0-5.4h0l0-5.4l0.1,10.7l0.1-5.4h0l0-5.4l0,10.7l0.1-5.4h0
				l0,5.4l0-10.7l0.2,5.4h0l0,5.4l0.1-10.7l0.1,5.4h0l0-5.4l0.1,10.7l0.1-5.4l0-5.4l0,5.4l0.1-10.7l0.1,5.4h0l0,5.4l0-10.7h0.2h0
				l0,5.4l0.1-10.7l0,5.4h0l0-5.4l0,10.7l0.2-10.7h0l0-5.4l0,10.7l0.1-5.4h0l0.1-10.7l0.1,5.4h0l0.1-10.7l0,5.4h0l0.1-10.7l0,5.4h0
				l0.1-10.7l0.1,5.4h0l0.2-10.7l0,5.4l0-5.4l0,5.4l0.1-10.7h0l0,5.4l0.1-10.7h0.1h0l0,5.4l0.1-10.7h0.1h0l0,5.4l0.1-10.7l0.1,5.4h0
				l0.1-10.7h0.1h0l0,5.4l0.1-10.7l0.1,5.4h0l0.1-10.7l0.1,5.4h0l0.1-10.7l0,5.4h0l0-5.4h0.2h0l0,5.4l0-10.7l0.1,5.4l0-5.4l0,5.4
				l0.2-5.4l0,5.4l0.2-10.7l0,5.4h0l0,5.4l0-10.7l0.1,5.4h0l0-5.4l0.1,10.7l0-5.4h0l0,5.4h0.2l0-5.4l0,5.4h0.2l0-5.4l0.2,10.7l0-5.4
				h0l0-5.4l0,10.7h0.2h0l0-5.4l0,10.7h0.1l0-5.4l0,5.4h0.2h0l0,5.4l0.1-5.4h0l0,5.4l0.2-5.4h0l0,5.4h0.2h0l0-5.4h0.2h0l0,5.4h0.2h0
				l0,5.4l0-10.7l0.2,5.4h0l0,5.4h0.2h0l0-5.4l0.2,5.4h0l0-5.4l0,10.7l0.1-5.4h0l0-5.4l0,10.7h0.2l0-5.4l0,5.4l0.2-5.4h0l0,5.4h0.2
				h0l0-5.4l0.1,10.7l0.1-5.4h0l0-5.4l0,10.7h0.1l0-5.4l0,5.4l0.2-5.4h0l0,5.4l0.2-5.4l0,5.4l0-5.4l0.2,5.4l0-5.4l0.2,10.7l0-5.4
				l0,5.4l0-10.7l0.2,5.4h0l0-5.4l0.1,10.7l0.1-5.4h0l0-5.4l0.2,5.4h0l0-5.4h0.2h0l0,5.4h0.2h0l0-5.4l0.2,5.4l0-5.4l0,5.4h0.2h0
				l0-5.4l0,10.7h0.2h0l0-5.4l0.2,5.4h0l0-5.4l0.2,10.7l0-5.4h0l0-5.4l0,10.7l0.1-5.4h0l0,5.4h0.2l0-5.4l0.1,21.4l0-5.4h0l0,5.4
				l0-10.7l0.2,5.4h0l0,5.4h0.2h0l0-5.4l0.1,10.7l0.1-5.4h0l0,5.4h0.2l0-5.4l0,5.4h0.2h0l0-5.4l0,10.7l0.2-5.4h0l0-5.4l0,10.7
				l0.2-5.4h0l0,5.4h0.2l0-5.4l0,5.4h0.2l0-5.4l0,5.4l0.2-5.4l0,5.4l0-5.4l0.2,5.4h0l0-5.4l0.1,10.7l0.1-5.4h0l0,5.4l0-10.7l0.1,5.4
				l0,5.4l0-5.4l0.1,10.7l0-5.4h0l0,5.4l0.1-10.7l0.1,10.7h0l0-5.4l0.2,10.7l0-5.4h0l0,5.4h0.2h0l0-5.4l0.1,10.7l0.1-5.4h0l0,5.4
				l0.2-5.4h0l0,5.4h0.2l0-5.4l0,5.4l0.2-5.4h0l0,5.4l0-10.7l0.2,5.4h0l0-5.4l0,10.7l0.2-5.4h0l0-5.4h0.2h0l0,5.4l0.2-5.4h0l0-5.4
				h0.1l0,5.4l0-5.4h0.2l0,5.4l0-5.4l0.2,5.4h0l0-5.4l0.1,10.7l0.1-5.4h0l0,5.4l0.2-5.4h0l0.1,10.7l0.1-5.4h0l0.2,10.7l0-5.4h0
				l0-5.4l0,10.7l0.1-5.4l0,5.4l0-5.4l0.2,5.4l0-5.4l0.2,10.7l0-5.4h0l0-5.4l0.1,10.7l0.1-5.4h0l0-5.4l0.1,10.7l0.1-5.4l0-5.4l0,5.4
				l0.2-5.4h0l0,5.4l0.1-10.7h0.1l0,5.4l0.1-10.7l0.1,5.4h0l0-5.4h0.2h0l0-5.4h0.1h0l0,5.4l0-10.7l0.1,5.4h0l0-10.7h0.1h0l0-5.4h0.2
				h0l0-5.4h0.1h0l0,5.4l0-10.7h0.2h0l0.2-10.7l0,5.4l0-5.4l0,5.4l0.1-10.7l0,5.4h0l0.1-10.7l0.1,5.4h0l0.1-10.7l0,5.4h0l0.1-10.7
				l0.1,5.4h0l0.2-10.7h0l0,5.4l0-5.4l0.2,5.4l0-5.4l0,5.4L518,303l0.1,5.4h0l0-5.4l0.2,5.4l0-5.4l0,5.4l0-10.7l0.2,5.4h0l0,5.4
				l0-10.7l0.2,5.4h0l0-5.4h0.2h0l0,5.4h0.2h0l0-5.4l0,10.7l0.2-5.4h0l0-5.4l0.1,10.7l0.1-5.4h0l0,5.4l0-10.7l0.1,5.4h0l0,5.4h0.2
				l0-5.4l0,5.4h0.2h0l0-5.4l0.1,10.7l0.1-5.4h0l0,5.4h0.2h0l0-5.4l0.1,10.7l0.1-5.4h0l0-5.4l0.1,10.7l0.1-5.4h0l0,5.4h0.2h0l0-5.4
				l0.1,10.7l0-5.4h0l0-5.4l0,10.7h0.2l0-5.4l0.1,10.7l0-5.4h0l0.1-5.4l0.1,10.7l0-5.4h0l0,5.4h0.2l0-5.4l0,5.4h0.2l0-5.4l0,10.7
				l0.2-5.4h0l0,5.4l0.2-5.4h0l0,5.4l0.2-5.4h0l0,5.4l0.2-5.4l0,5.4l0-5.4h0.2h0l0,5.4l0.2-10.7l0,5.4h0l0,5.4l0.2-5.4h0l0,5.4
				l0.2-5.4h0l0,5.4l0.2-5.4h0l0,5.4l0.2-5.4l0,5.4l0.1-10.7l0.1,5.4h0l0,5.4l0-10.7l0.1,5.4l0,5.4l0.1-10.7l0.1,5.4h0l0,5.4l0-10.7
				l0.1,5.4h0l0,5.4l0.2-5.4h0l0,5.4h0.2l0-5.4l0,5.4l0.2-5.4h0l0,5.4l0.2-5.4l0,5.4l0-5.4l0.2,5.4h0l0-5.4h0.2h0l0,5.4l0.2-5.4h0
				l0,5.4l0.2-5.4l0,5.4l0-5.4h0.2h0l0,5.4l0.2-5.4h0l0,5.4l0.2-5.4l0,5.4l0-5.4l0.2,5.4l0,5.4l0-10.7l0.2,5.4h0l0-5.4l0,10.7
				l0.1-5.4l0-5.4l0,10.7l0.2-5.4h0l0,5.4l0.2-5.4h0l0,5.4h0.2h0l0-5.4l0.1,10.7l0.1-5.4h0l0-5.4l0.1,10.7l0.1-5.4h0l0,5.4h0.2
				l0-5.4l0,5.4h0.2h0l0-5.4l0.1,10.7l0-5.4h0l0-5.4l0,10.7l0.2-5.4h0l0,5.4h0.2h0l0-5.4l0,10.7l0.2-5.4h0l0,5.4l0.1-10.7l0.1,10.7
				l0-5.4l0,5.4h0.2h0l0-5.4l0.2,10.7l0-5.4h0l0,5.4l0.2-5.4l0,5.4l0-5.4l0.2,5.4h0l0-5.4l0.2,5.4h0l0-5.4l0.1,10.7l0.1-5.4h0l0,5.4
				l0-10.7l0.1,5.4l0,5.4l0-5.4l0.2,5.4l0-5.4l0.2,10.7l0-5.4h0l0,5.4l0-10.7l0.2,5.4l0,5.4l0-5.4h0.2l0,5.4l0-5.4h0.2l0,5.4l0-5.4
				l0.1,10.7l0.1-5.4h0l0,5.4l0-10.7l0.1,5.4h0l0,5.4l0-10.7l0.1,5.4h0l0-5.4l0,10.7l0.1-5.4h0l0-5.4l0.2,5.4l0-5.4l0,5.4l0.2-5.4h0
				l0,5.4l0.1-10.7l0.1,5.4h0l0.2-10.7l0,5.4h0l0-5.4h0.2h0l0,5.4l0-10.7h0.1h0l0,5.4l0-10.7h0.1h0l0,5.4l0.1-10.7l0.1,5.4l0-5.4
				l0,5.4l0.1-10.7h0.1l0,5.4l0.1-10.7h0.1h0l0,5.4l0.1-10.7l0.1,5.4h0l0.1-10.7l0.1,5.4h0l0.2-10.7l0,5.4h0l0.2-10.7l0,5.4h0l0,5.4
				l0-10.7h0.2h0l0,5.4l0.2-5.4h0l0,5.4l0-10.7l0.1,5.4h0l0-5.4h0.2h0l0,5.4l0-10.7h0.2l0,5.4l0.1-10.7l0.1,5.4h0l0-5.4l0.2,5.4
				l0-5.4l0,5.4l0.2-5.4h0l0,5.4l0-10.7l0.1,5.4h0l0-5.4l0.2,10.7l0-5.4h0l0-5.4l0.2,5.4h0l0-5.4l0.1,10.7l0.1-5.4h0l0,5.4l0.2-5.4
				h0l0,5.4h0.2h0l0-5.4l0.1,10.7l0.1-5.4h0l0.2,10.7l0-5.4h0l0-5.4l0,10.7h0.1h0l0-5.4l0.1,10.7h0.1l0-5.4l0.1,10.7l0.1-5.4h0
				l0.1,10.7h0.1h0l0-5.4l0.2,5.4h0l0-5.4l0,10.7l0.1-5.4l0,5.4l0-5.4l0.2,5.4h0l0-5.4l0,10.7l0.2-5.4h0l0,5.4l0-10.7l0.2,5.4h0
				l0,5.4h0.2h0l0-5.4l0.2,5.4h0l0,5.4l0-10.7l0.1,5.4l0,5.4l0-10.7l0.2,5.4h0l0,5.4h0.2l0-5.4l0,5.4h0.2h0l0-5.4h0.2l0,5.4l0-5.4
				l0.2,5.4h0l0-5.4l0.1,10.7l0.1-5.4h0l0-5.4l0.1,10.7l0.1-5.4l0,5.4l0-5.4h0.2l0,5.4l0-5.4l0.2,5.4l0-5.4l0,5.4l0.2-5.4l0,5.4
				l0-5.4l0.2,5.4h0l0-5.4l0.2,5.4h0l0-5.4h0.2l0,5.4l0-5.4l0.2,5.4h0l0-5.4l0.2,5.4h0l0-5.4l0,10.7l0.1-5.4h0l0,5.4l0.2-5.4h0
				l0,5.4h0.2l0-5.4l0.2,10.7l0-5.4h0l0,5.4l0-10.7l0.2,10.7l0-5.4l0,5.4l0.2-5.4h0l0,5.4h0.2h0l0-5.4l0.2,10.7l0-5.4h0l0-5.4
				l0.1,10.7l0.1-5.4h0l0,5.4l0.2-5.4h0l0,5.4h0.2h0l0-5.4l0.2,5.4h0l0-5.4l0,10.7l0.2-5.4h0l0,5.4l0.2-5.4h0l0,5.4l0.2-5.4l0,5.4
				l0-5.4l0.2,5.4h0l0-5.4l0,10.7h0.1l0-5.4l0,5.4h0.2h0l0-5.4l0.1,10.7l0.1-5.4h0l0-5.4l0,10.7h0.1l0-5.4l0,5.4l0.2-5.4h0l0,5.4
				h0.2l0-5.4l0,5.4l0.2-5.4l0,5.4l0-5.4l0.2,5.4l0-5.4l0.1,10.7l0-5.4h0l0,5.4l0-10.7l0.1,5.4h0l0,5.4l0.1-5.4h0l0,5.4l0.2-5.4h0
				l0,5.4h0.2h0l0-5.4l0.1,10.7l0.1-5.4h0l0,5.4h0.2l0-5.4l0,5.4l0.2-5.4l0,5.4l0-5.4l0.1,10.7l0.1-5.4h0l0,5.4l0-10.7l0.2,5.4h0
				l0,5.4l0-10.7h0.1h0l0,10.7l0.2-10.7l0,5.4l0.1-10.7h0.1l0,5.4l0.2-10.7l0,5.4l0-5.4l0,5.4l0.2-10.7h0l0,5.4l0.1-10.7l0.1,5.4
				l0-5.4l0,5.4l0.1-10.7h0.1h0l0,5.4l0.1-10.7h0.1h0l0,5.4l0.1-16.1l0,5.4h0l0.2-10.7l0,5.4h0l0,5.4l0.1-16.1l0,5.4h0l0.1-10.7h0h0
				l0,5.4l0.2-5.4h0l0.2-10.7l0,5.4l0,5.4l0.1-10.7h0.1h0l0,5.4l0-10.7h0.1h0l0,5.4l0.1-10.7h0.1l0,5.4l0.1-10.7l0.1,5.4h0l0-5.4
				h0.2h0l0,5.4l0-10.7l0.2,5.4l0-5.4l0,5.4l0.1-10.7l0.1,5.4h0l0-5.4h0.2h0l0-5.4h0.2l0,5.4l0-5.4h0.2h0l0,5.4l0.1-10.7l0.1,5.4h0
				l0,5.4l0-10.7l0.1,5.4h0l0,5.4h0.2h0l0-5.4l0.1,10.7l0.1-5.4h0l0,5.4h0.2h0l0-5.4l0.1,10.7l0.1-5.4h0l0,5.4h0.2h0l0-5.4l0,10.7
				l0.1-5.4h0l0.1,10.7l0.1-5.4h0l0,5.4l0-10.7l0.2,10.7l0-5.4l0,5.4h0.2h0l0-5.4l0.1,10.7h0.1l0-5.4l0,5.4l0.2-5.4h0l0,5.4h0.2h0
				l0-5.4l0,10.7h0.1h0l0-5.4h0.2l0,5.4l0-5.4l0.1,10.7l0.1-5.4h0l0,5.4l0-10.7l0.2,5.4l0,5.4l0-5.4l0.2,5.4h0l0-5.4l0.1,10.7
				l0.1-5.4h0l0,5.4l0.2-5.4l0,5.4l0-5.4l0.2,5.4h0l0-5.4l0.2,5.4h0l0,5.4l0.1-10.7l0.1,5.4h0l0,5.4l0.2-5.4h0l0,5.4l0.2-5.4h0
				l0,5.4h0.2l0-5.4l0,5.4l0.2-5.4h0l0,5.4h0.2h0l0-5.4l0.2,5.4h0l0-5.4l0,10.7l0.1-5.4h0l0,5.4l0.1-10.7l0.1,5.4h0l0,5.4l0.2-5.4h0
				l0,5.4l0.2-5.4h0l0,5.4h0.2h0l0-5.4l0.2,5.4l0-5.4l0,5.4h0.2h0l0-5.4l0.2,5.4h0l0-5.4l0.2,5.4h0l0-5.4l0.1,10.7l0.1-5.4h0l0-5.4
				l0.1,10.7l0.1-5.4h0l0,5.4l0-10.7l0.2,10.7l0-5.4l0,5.4l0.2-5.4h0l0,5.4h0.2h0l0-5.4l0.1,10.7l0.1-10.7l0,5.4l0,5.4l0.1-5.4
				l0,5.4l0-5.4l0.2,5.4h0l0-5.4l0.1,10.7l0.1-5.4h0l0,5.4l0.2-5.4l0,5.4l0-5.4l0.2,5.4l0-5.4l0,5.4h0.2h0l0-5.4l0.2,5.4h0l0-5.4
				l0.1,10.7l0.1-5.4h0l0-5.4l0,10.7l0.2-10.7l0,5.4l0-5.4l0.2,5.4h0l0-5.4l0.2,5.4h0l0-5.4l0.2,5.4h0l0-5.4l0.2,5.4h0l0-5.4l0,10.7
				l0.2-5.4l0,5.4l0-5.4l0.2,10.7l0-5.4h0l0.1-5.4l0,10.7h0.1l0-5.4l0.1,10.7h0.1l0-5.4l0,5.4h0.2h0l0,5.4l0-10.7l0.1,10.7h0l0-5.4
				l0.1,10.7l0.1-5.4h0l0,5.4l0.2-5.4l0,5.4l0-5.4l0.2,5.4h0l0-5.4l0.1,10.7l0.1-5.4h0l0-5.4h0.2h0l0,5.4l0-10.7h0.1h0l0,5.4
				l0.1-240.8h0h0l0.2-21.4l0,5.4h0l0.2-26.8h0l0,5.4l0.1-16.1l0,5.4h0l0,5.4l0.1-21.4h0h0l0.1-10.7l0.1,5.4h0l0,5.4l0-10.7l0.2,5.4
				h0l0-5.4l0.1,16.1l0.1-10.7h0l0,10.7l0.1-5.4h0l0.1-5.4l0,16.1l0.1-16.1h0l0.1,10.7l0.1-10.7l0,5.4l0-10.7l0,16.1l0.1-10.7h0
				l0-5.4l0,10.7h0.1h0l0.2-16.1l0,5.4h0l0,5.4l0.2-5.4h0l0.2,10.7l0-5.4h0l0-5.4l0.2,16.1h0l0-10.7h0.2h0l0,5.4h0.2l0-5.4l0,5.4
				l0.2-5.4h0l0,5.4l0.1-10.7l0.1,5.4h0l0-5.4l0,10.7l0.2-5.4h0l0-5.4l0.1,10.7l0.1-5.4h0l0-5.4l0.1,10.7l0.1-5.4h0l0-5.4h0.2h0
				l0,5.4l0.1-10.7l0,5.4h0l0,5.4l0.2-5.4h0l0,5.4l0.1-10.7l0,5.4h0l0,5.4l0.1-10.7l0,5.4l0,5.4l0-5.4h0.2l0,5.4l0-5.4h0.2h0l0,5.4
				l0.1-10.7l0.1,5.4h0l0,5.4l0.1-10.7l0.1,5.4h0l0.1,5.4l0-10.7l0.1,5.4h0l0.1-10.7l0,5.4h0l0,5.4h0.2h0l0-5.4l0.2,21.4l0-5.4h0
				l0.2,91h0h0l0.2,230.1l0-5.4h0l0.1,50.3"/>
			<path class="st6" d="M571.6,438.9l0-355.3h0h0l0.1-21.4l0.1,5.4h0l0-5.4l0,10.7l0.1-5.4h0l0,5.4h0.2h0l0-5.4l0.2,5.4h0l0.2,37.5
				l0-5.4l0,5.4l0.2,192.6h0h0l0.2,112.4l0-5.4h0l0.1,28.9"/>
			<path class="st6" d="M573,438.9l0-7.5h0L573,438.9"/>
			<path class="st6" d="M573.1,438.9l0.1-7.5L573.1,438.9"/>
			<path class="st6" d="M573.2,438.9l0-18.2L573.2,438.9"/>
			<path class="st6" d="M573.5,438.9l0.1-34.3l0,21.4h0l0.1-26.8l0,39.6"/>
			<path class="st6" d="M573.7,438.9l0-7.5h0l0.1-37.5l0.1,45"/>
			<path class="st6" d="M574,438.9l0-12.9L574,438.9"/>
			<path class="st6" d="M574.1,438.9l0-2.2L574.1,438.9"/>
			<path class="st6" d="M574.6,438.9l0-2.2L574.6,438.9"/>
			<path class="st6" d="M574.8,438.9l0-2.2L574.8,438.9"/>
			<path class="st6" d="M575,438.9l0-2.2L575,438.9"/>
			<path class="st6" d="M621.1,438.9l0-71.7l0.1,5.4h0l0,5.4l0-10.7l0.2,5.4h0l0-5.4l0,10.7l0.1-5.4h0l0-5.4l0.1,8.5"/>
		</g>
	</g>
	<g>
		<line class="st2" x1="179.4" y1="286.9" x2="179.4" y2="206.3"/>
		<line class="st2" x1="162.8" y1="260.2" x2="162.8" y2="222.7"/>
		<line class="st2" x1="197.3" y1="286.9" x2="197.3" y2="222.7"/>
		<line class="st2" x1="216.4" y1="313.7" x2="216.4" y2="206.3"/>
		<line class="st2" x1="231.7" y1="319" x2="231.7" y2="222.7"/>
		<line class="st2" x1="248.5" y1="286.9" x2="248.5" y2="206.3"/>
		<line class="st2" x1="265.7" y1="260.2" x2="265.7" y2="222.7"/>
		<line class="st2" x1="281.8" y1="308.3" x2="281.8" y2="206.3"/>
		<line class="st2" x1="295" y1="303" x2="295" y2="222.7"/>
		<line class="st2" x1="311.3" y1="281.6" x2="311.3" y2="206.3"/>
		<line class="st2" x1="327.1" y1="254.8" x2="327.1" y2="222.7"/>
		<line class="st2" x1="338.8" y1="324.4" x2="338.8" y2="206.3"/>
		<g>
			<text transform="matrix(1 0 0 1 153.6289 219.8184)" class="st3 st4 st5">5.74</text>
		</g>
		<text transform="matrix(1 0 0 1 170.2288 203.5307)" class="st4 st5">6.33</text>
		<text transform="matrix(1 0 0 1 188.0894 219.9317)" class="st4 st5">6.96</text>
		<text transform="matrix(1 0 0 1 222.4726 220.0449)" class="st4 st5">8.17</text>
		<text transform="matrix(1 0 0 1 256.5133 220.0449)" class="st4 st5">9.37</text>
		<text transform="matrix(1 0 0 1 283.1231 219.9316)" class="st4 st5">10.41</text>
		<text transform="matrix(1 0 0 1 315.3206 220.0449)" class="st4 st5">11.54</text>
		<text transform="matrix(1 0 0 1 207.2298 203.5313)" class="st4 st5">7.64</text>
		<text transform="matrix(1 0 0 1 239.3336 203.5312)" class="st4 st5">8.77</text>
		<text transform="matrix(1 0 0 1 272.6459 203.5314)" class="st4 st5">9.94</text>
		<text transform="matrix(1 0 0 1 299.4249 203.5312)" class="st4 st5">10.98</text>
		<text transform="matrix(1 0 0 1 326.9652 203.8714)" class="st4 st5">11.95</text>
	</g>
</g>
</svg>
