<?xml version="1.0" encoding="utf-8"?>
<!-- Generator: Adobe Illustrator 26.5.0, SVG Export Plug-In . SVG Version: 6.00 Build 0)  -->
<svg version="1.1" id="Layer_1" xmlns="http://www.w3.org/2000/svg" xmlns:xlink="http://www.w3.org/1999/xlink" x="0px" y="0px"
	 width="774.1px" height="472px" viewBox="0 0 774.1 472" style="enable-background:new 0 0 774.1 472;" xml:space="preserve">
<style type="text/css">
	.st0{fill:none;stroke:#000000;stroke-width:2.8346;stroke-miterlimit:10;}
	.st1{fill:none;stroke:#000000;stroke-width:2.835;stroke-miterlimit:10;}
	.st2{fill-rule:evenodd;clip-rule:evenodd;fill:none;stroke:#000000;stroke-width:2.835;stroke-miterlimit:10;}
	.st3{fill-rule:evenodd;clip-rule:evenodd;}
	.st4{fill:none;stroke:#F96616;stroke-width:2.8346;stroke-miterlimit:10;}
	.st5{fill:#F96616;}
	.st6{fill:none;stroke:#2189F9;stroke-width:2.8346;stroke-miterlimit:10;}
	.st7{fill:#2189F9;}
	.st8{font-family:'Times-Bold';}
	.st9{font-size:20.5945px;}
	.st10{font-family:'Times-BoldItalic';}
	.st11{opacity:0.5;}
	.st12{opacity:0.5;fill:none;stroke:#000000;stroke-width:2.8346;stroke-miterlimit:10;}
	.st13{fill:none;stroke:#CD41EF;stroke-width:2.8346;stroke-miterlimit:10;}
	.st14{fill:#CD41EF;}
	.st15{fill:none;stroke:#0BD35C;stroke-width:2.8346;stroke-miterlimit:10;}
	.st16{fill:#0BD35C;}
</style>
<g>
	<g>
		<g>
			<g>
				<g>
					<line class="st0" x1="497.9" y1="176.5" x2="497.9" y2="87.2"/>
					<g>
						<path d="M502.1,87.2c0-2.4-1.9-4.3-4.3-4.3c-2.4,0-4.3,1.9-4.3,4.3c0,2.4,1.9,4.3,4.3,4.3C500.2,91.4,502.1,89.5,502.1,87.2z"
							/>
					</g>
				</g>
			</g>
			<g>
				<g>
					<line class="st0" x1="497.9" y1="274.2" x2="497.9" y2="185"/>
					<g>
						<path d="M502.1,274.2c0,2.4-1.9,4.3-4.3,4.3c-2.4,0-4.3-1.9-4.3-4.3c0-2.4,1.9-4.3,4.3-4.3C500.2,270,502.1,271.9,502.1,274.2
							z"/>
					</g>
				</g>
			</g>
			<rect x="480.8" y="183.5" class="st3" width="34" height="2.8"/>
			<rect x="480.8" y="175" class="st3" width="34" height="2.8"/>
		</g>
		<line class="st0" x1="519.1" y1="166.2" x2="519.1" y2="174.7"/>
		<line class="st0" x1="514.9" y1="170.5" x2="523.4" y2="170.5"/>
	</g>
	<g>
		<g>
			<g>
				<line class="st1" x1="30.2" y1="180.7" x2="123.7" y2="87.2"/>
				<g>
					<path d="M33.2,183.7c-1.7,1.7-4.4,1.7-6,0s-1.7-4.4,0-6c1.7-1.7,4.4-1.7,6,0S34.9,182.1,33.2,183.7z"/>
				</g>
				<g>
					<path d="M126.8,90.2c1.7-1.7,1.7-4.4,0-6s-4.4-1.7-6,0c-1.7,1.7-1.7,4.4,0,6S125.1,91.8,126.8,90.2z"/>
				</g>
			</g>
		</g>
		<polyline class="st3" points="85.8,122.8 58.7,134.2 76.7,152.2 88.1,125.1 		"/>
		
			<rect x="74.2" y="122.5" transform="matrix(0.7071 0.7071 -0.7071 0.7071 113.1074 -25.1878)" class="st3" width="25.5" height="2.8"/>
	</g>
	<g>
		<g>
			<g>
				<line class="st1" x1="123.7" y1="274.2" x2="30.2" y2="180.7"/>
				<g>
					<path d="M126.8,271.2c1.7,1.7,1.7,4.4,0,6s-4.4,1.7-6,0s-1.7-4.4,0-6S125.1,269.6,126.8,271.2z"/>
				</g>
				<g>
					<path d="M33.2,177.7c-1.7-1.7-4.4-1.7-6,0s-1.7,4.4,0,6c1.7,1.7,4.4,1.7,6,0S34.9,179.4,33.2,177.7z"/>
				</g>
			</g>
		</g>
		<polyline class="st3" points="68.1,216.3 95.3,227.7 77.2,245.8 65.8,218.6 		"/>
		
			<rect x="54.2" y="216.1" transform="matrix(-0.7071 0.7071 -0.7071 -0.7071 268.1212 323.9049)" class="st3" width="25.5" height="2.8"/>
	</g>
	<g>
		<g>
			<g>
				<line class="st1" x1="123.7" y1="274.2" x2="217.3" y2="180.7"/>
				<g>
					<path d="M126.8,277.3c-1.7,1.7-4.4,1.7-6,0s-1.7-4.4,0-6c1.7-1.7,4.4-1.7,6,0S128.4,275.6,126.8,277.3z"/>
				</g>
				<g>
					<path d="M220.3,183.7c1.7-1.7,1.7-4.4,0-6s-4.4-1.7-6,0c-1.7,1.7-1.7,4.4,0,6S218.6,185.4,220.3,183.7z"/>
				</g>
			</g>
		</g>
		<polyline class="st3" points="179.3,216.3 152.2,227.7 170.2,245.8 181.7,218.6 		"/>
		
			<rect x="167.7" y="216.1" transform="matrix(0.7071 0.7071 -0.7071 0.7071 206.6508 -63.9347)" class="st3" width="25.5" height="2.8"/>
	</g>
	<g>
		<g>
			<g>
				<line class="st1" x1="217.3" y1="180.7" x2="123.7" y2="87.2"/>
				<g>
					<path d="M220.3,177.7c1.7,1.7,1.7,4.4,0,6s-4.4,1.7-6,0c-1.7-1.7-1.7-4.4,0-6S218.6,176,220.3,177.7z"/>
				</g>
				<g>
					<path d="M126.8,84.1c-1.7-1.7-4.4-1.7-6,0s-1.7,4.4,0,6c1.7,1.7,4.4,1.7,6,0S128.4,85.8,126.8,84.1z"/>
				</g>
			</g>
		</g>
		<polyline class="st3" points="161.7,122.8 188.8,134.2 170.8,152.2 159.4,125.1 		"/>
		
			<rect x="147.8" y="122.5" transform="matrix(-0.7071 0.7071 -0.7071 -0.7071 361.6645 98.0714)" class="st3" width="25.5" height="2.8"/>
	</g>
	<line class="st0" x1="310.8" y1="87.2" x2="123.7" y2="87.2"/>
	<path class="st0" d="M217.3,367.8v-84.7c0,0,4.6-2.1,4.6-8.8c0-6.7-4.6-9.3-4.6-9.3v-84.2"/>
	<line class="st0" x1="30.2" y1="367.8" x2="30.2" y2="180.7"/>
	<line class="st0" x1="497.9" y1="87.2" x2="310.8" y2="87.2"/>
	<line class="st0" x1="310.8" y1="274.2" x2="123.7" y2="274.2"/>
	<line class="st0" x1="497.9" y1="274.2" x2="310.8" y2="274.2"/>
	<g>
		<g>
			<g>
				<line class="st1" x1="86.6" y1="367.8" x2="30.2" y2="367.8"/>
				<g>
					<path d="M30.2,363.5c-2.4,0-4.3,1.9-4.3,4.3s1.9,4.3,4.3,4.3s4.3-1.9,4.3-4.3S32.6,363.5,30.2,363.5z"/>
				</g>
			</g>
		</g>
		<g>
			<g>
				<line class="st1" x1="217.3" y1="367.8" x2="148.9" y2="367.8"/>
				<g>
					<circle cx="217.3" cy="367.8" r="4.3"/>
				</g>
			</g>
		</g>
		<circle class="st2" cx="117.8" cy="367.8" r="31.2"/>
		<path class="st2" d="M146.1,355c-6.9,0-12,25-18.9,25c-6.9,0-12-25-18.9-25c-6.9,0-12,25-18.9,25"/>
	</g>
	<text transform="matrix(1 0 0 1 95.2739 186.3723)" class="st8 st9">1N914</text>
	<g>
		<g>
			<polyline class="st1" points="310.8,274.2 310.8,208.4 319.3,205 302.3,198 319.3,191.1 302.3,184.2 319.3,177.2 302.3,170.3 
				319.3,163.4 302.3,156.5 310.8,153 310.8,87.2 			"/>
			<g>
				<path d="M315.1,274.2c0,2.4-1.9,4.3-4.3,4.3s-4.3-1.9-4.3-4.3c0-2.4,1.9-4.3,4.3-4.3S315.1,271.9,315.1,274.2z"/>
			</g>
			<g>
				<path d="M315.1,87.2c0-2.4-1.9-4.3-4.3-4.3s-4.3,1.9-4.3,4.3c0,2.4,1.9,4.3,4.3,4.3S315.1,89.5,315.1,87.2z"/>
			</g>
		</g>
	</g>
	<text transform="matrix(1 0 0 1 519.1113 199.0781)" class="st10 st9">3.3μF</text>
	<g class="st11">
		<g>
			<g>
				<g>
					<line class="st0" x1="684.9" y1="176.5" x2="684.9" y2="87.2"/>
					<g>
						<path d="M689.2,87.2c0-2.4-1.9-4.3-4.3-4.3c-2.4,0-4.3,1.9-4.3,4.3c0,2.4,1.9,4.3,4.3,4.3C687.3,91.4,689.2,89.5,689.2,87.2z"
							/>
					</g>
				</g>
			</g>
			<g>
				<g>
					<line class="st0" x1="684.9" y1="274.2" x2="684.9" y2="185"/>
					<g>
						<path d="M689.2,274.2c0,2.4-1.9,4.3-4.3,4.3c-2.4,0-4.3-1.9-4.3-4.3c0-2.4,1.9-4.3,4.3-4.3C687.3,270,689.2,271.9,689.2,274.2
							z"/>
					</g>
				</g>
			</g>
			<rect x="667.9" y="183.5" class="st3" width="34" height="2.8"/>
			<rect x="667.9" y="175" class="st3" width="34" height="2.8"/>
		</g>
		<line class="st0" x1="706.2" y1="166.2" x2="706.2" y2="174.7"/>
		<line class="st0" x1="701.9" y1="170.5" x2="710.4" y2="170.5"/>
	</g>
	<line class="st12" x1="684.9" y1="87.2" x2="497.9" y2="87.2"/>
	<line class="st12" x1="684.9" y1="274.2" x2="497.9" y2="274.2"/>
	<text transform="matrix(1 0 0 1 706.1675 199.0782)" class="st11 st10 st9">3.3μF</text>
	<text transform="matrix(1 0 0 1 331.7203 185.303)" class="st10 st9">C</text>
	<g>
		<g>
			<line class="st4" x1="497.9" y1="329.7" x2="497.9" y2="274.2"/>
			<g>
				<rect x="492.2" y="324.1" class="st5" width="11.2" height="11.2"/>
			</g>
			<g>
				<path class="st5" d="M502.1,274.2c0-2.4-1.9-4.3-4.3-4.3c-2.4,0-4.3,1.9-4.3,4.3c0,2.4,1.9,4.3,4.3,4.3
					C500.2,278.5,502.1,276.6,502.1,274.2z"/>
			</g>
		</g>
	</g>
	<g>
		<g>
			<line class="st6" x1="217.3" y1="423.2" x2="217.3" y2="367.8"/>
			<g>
				<rect x="211.7" y="417.6" class="st7" width="11.2" height="11.2"/>
			</g>
			<g>
				<path class="st7" d="M221.5,367.8c0-2.4-1.9-4.3-4.3-4.3c-2.4,0-4.3,1.9-4.3,4.3s1.9,4.3,4.3,4.3
					C219.6,372.1,221.5,370.1,221.5,367.8z"/>
			</g>
		</g>
	</g>
	<g>
		<g>
			<g>
				<line class="st4" x1="497.9" y1="31.7" x2="497.9" y2="87.2"/>
				<g>
					<rect x="492.2" y="26.1" class="st5" width="11.2" height="11.2"/>
				</g>
				<g>
					<path class="st5" d="M493.6,87.2c0,2.4,1.9,4.3,4.3,4.3c2.4,0,4.3-1.9,4.3-4.3c0-2.4-1.9-4.3-4.3-4.3
						C495.5,82.9,493.6,84.8,493.6,87.2z"/>
				</g>
			</g>
		</g>
		<g>
			<line class="st4" x1="488.1" y1="17.6" x2="488.1" y2="26.2"/>
			<line class="st4" x1="492.3" y1="21.9" x2="483.8" y2="21.9"/>
		</g>
	</g>
	<g>
		<g>
			<g>
				<line class="st6" x1="30.2" y1="423.2" x2="30.2" y2="367.8"/>
				<g>
					<rect x="24.6" y="417.6" class="st7" width="11.2" height="11.2"/>
				</g>
				<g>
					<path class="st7" d="M34.5,367.8c0-2.4-1.9-4.3-4.3-4.3c-2.4,0-4.3,1.9-4.3,4.3c0,2.4,1.9,4.3,4.3,4.3
						C32.6,372,34.5,370.1,34.5,367.8z"/>
				</g>
			</g>
		</g>
		<g>
			<line class="st6" x1="20.4" y1="437.3" x2="20.4" y2="428.8"/>
			<line class="st6" x1="24.7" y1="433" x2="16.2" y2="433"/>
		</g>
	</g>
	<text transform="matrix(1 0 0 1 96.3504 423.2178)"><tspan x="0" y="0" class="st10 st9">10Vpp</tspan><tspan x="0" y="24.7" class="st10 st9">100Hz</tspan></text>
</g>
</svg>
