<?xml version="1.0" encoding="utf-8"?>
<!-- Generator: Adobe Illustrator 26.5.0, SVG Export Plug-In . SVG Version: 6.00 Build 0)  -->
<svg version="1.1" id="Layer_1" xmlns="http://www.w3.org/2000/svg" xmlns:xlink="http://www.w3.org/1999/xlink" x="0px" y="0px"
	 width="548.7px" height="266.1px" viewBox="0 0 548.7 266.1" style="enable-background:new 0 0 548.7 266.1;" xml:space="preserve"
	>
<style type="text/css">
	.st0{fill:none;stroke:#000000;stroke-width:2.8346;stroke-miterlimit:10;}
	.st1{fill:none;stroke:#000000;stroke-width:2.835;stroke-miterlimit:10;}
	.st2{fill-rule:evenodd;clip-rule:evenodd;fill:none;stroke:#000000;stroke-width:2.835;stroke-miterlimit:10;}
	.st3{fill-rule:evenodd;clip-rule:evenodd;}
	.st4{font-family:'Times-Bold';}
	.st5{font-size:20.5945px;}
	.st6{font-family:'Times-BoldItalic';}
	.st7{fill:none;stroke:#F96616;stroke-width:2.8346;stroke-miterlimit:10;}
	.st8{fill:#F96616;}
	.st9{fill:none;stroke:#2189F9;stroke-width:2.8346;stroke-miterlimit:10;}
	.st10{fill:#2189F9;}
	.st11{opacity:0.5;}
	.st12{opacity:0.5;fill:none;stroke:#000000;stroke-width:2.8346;stroke-miterlimit:10;}
	.st13{fill:none;stroke:#CD41EF;stroke-width:2.8346;stroke-miterlimit:10;}
	.st14{fill:#CD41EF;}
	.st15{fill:none;stroke:#0BD35C;stroke-width:2.8346;stroke-miterlimit:10;}
	.st16{fill:#0BD35C;}
</style>
<g>
	<text transform="matrix(1 0 0 1 198.911 41.7393)" class="st4 st5">1N914</text>
	<g>
		<g>
			<g>
				<line class="st1" x1="87.4" y1="54.5" x2="274.4" y2="54.5"/>
				<g>
					<path d="M87.4,58.8c-2.4,0-4.3-1.9-4.3-4.3c0-2.4,1.9-4.3,4.3-4.3c2.4,0,4.3,1.9,4.3,4.3C91.6,56.8,89.7,58.8,87.4,58.8z"/>
				</g>
				<g>
					<path d="M274.4,58.8c2.4,0,4.3-1.9,4.3-4.3c0-2.4-1.9-4.3-4.3-4.3c-2.4,0-4.3,1.9-4.3,4.3C270.2,56.8,272.1,58.8,274.4,58.8z"
						/>
				</g>
			</g>
		</g>
		<polyline class="st3" points="195,52.9 167.8,41.7 167.8,67.2 195,56.1 		"/>
		
			<rect x="182.3" y="53.1" transform="matrix(-1.836970e-16 1 -1 -1.836970e-16 249.5175 -140.5296)" class="st3" width="25.5" height="2.8"/>
	</g>
	<g>
		<g>
			<g>
				<g>
					<line class="st0" x1="461.4" y1="143.5" x2="461.4" y2="54.2"/>
					<g>
						<path d="M465.6,54.2c0-2.4-1.9-4.3-4.3-4.3c-2.4,0-4.3,1.9-4.3,4.3c0,2.4,1.9,4.3,4.3,4.3C463.7,58.5,465.6,56.6,465.6,54.2z"
							/>
					</g>
				</g>
			</g>
			<g>
				<g>
					<line class="st0" x1="461.4" y1="241.3" x2="461.4" y2="152"/>
					<g>
						<path d="M465.6,241.3c0,2.4-1.9,4.3-4.3,4.3c-2.4,0-4.3-1.9-4.3-4.3c0-2.4,1.9-4.3,4.3-4.3C463.7,237.1,465.6,239,465.6,241.3
							z"/>
					</g>
				</g>
			</g>
			<rect x="444.4" y="150.6" class="st3" width="34" height="2.8"/>
			<rect x="444.4" y="142.1" class="st3" width="34" height="2.8"/>
		</g>
		<line class="st0" x1="482.6" y1="133.3" x2="482.6" y2="141.8"/>
		<line class="st0" x1="478.4" y1="137.5" x2="486.9" y2="137.5"/>
	</g>
	<line class="st0" x1="461.5" y1="241.6" x2="274.4" y2="241.6"/>
	<line class="st0" x1="461.5" y1="54.5" x2="274.4" y2="54.5"/>
	<line class="st0" x1="274.4" y1="241.6" x2="87.4" y2="241.6"/>
	<g>
		<g>
			<g>
				<line class="st1" x1="87.4" y1="110.9" x2="87.4" y2="54.5"/>
				<g>
					<path d="M91.6,54.5c0-2.4-1.9-4.3-4.3-4.3s-4.3,1.9-4.3,4.3c0,2.4,1.9,4.3,4.3,4.3S91.6,56.8,91.6,54.5z"/>
				</g>
			</g>
		</g>
		<g>
			<g>
				<line class="st1" x1="87.4" y1="241.6" x2="87.4" y2="173.2"/>
				<g>
					<path d="M91.6,241.6c0,2.4-1.9,4.3-4.3,4.3s-4.3-1.9-4.3-4.3c0-2.4,1.9-4.3,4.3-4.3S91.6,239.2,91.6,241.6z"/>
				</g>
			</g>
		</g>
		<circle class="st2" cx="87.4" cy="142.1" r="31.2"/>
		<path class="st2" d="M115.9,129.5c-6.9,0-12,25-18.9,25s-12-25-18.9-25c-6.9,0-12,25-18.9,25"/>
	</g>
	<text transform="matrix(1 0 0 1 482.6284 166.5537)" class="st6 st5">C</text>
	<text transform="matrix(1 0 0 1 291.2115 150.6179)" class="st6 st5">R</text>
	<text transform="matrix(1 0 0 1 129.2938 135.5078)"><tspan x="0" y="0" class="st6 st5">10Vpp</tspan><tspan x="0" y="24.7" class="st6 st5">100Hz</tspan></text>
	<g>
		<g>
			<polyline class="st1" points="274.4,241.6 274.4,175.8 282.9,172.3 265.9,165.4 282.9,158.4 265.9,151.5 282.9,144.6 
				265.9,137.6 282.9,130.7 265.9,123.8 274.4,120.3 274.4,54.5 			"/>
			<g>
				<path d="M278.7,241.6c0,2.4-1.9,4.3-4.3,4.3s-4.3-1.9-4.3-4.3c0-2.4,1.9-4.3,4.3-4.3S278.7,239.2,278.7,241.6z"/>
			</g>
			<g>
				<path d="M278.7,54.5c0-2.4-1.9-4.3-4.3-4.3s-4.3,1.9-4.3,4.3c0,2.4,1.9,4.3,4.3,4.3S278.7,56.8,278.7,54.5z"/>
			</g>
		</g>
	</g>
	<g>
		<g>
			<line class="st7" x1="516.8" y1="241.3" x2="461.4" y2="241.3"/>
			<g>
				<rect x="511.2" y="235.7" class="st8" width="11.2" height="11.2"/>
			</g>
			<g>
				<path class="st8" d="M461.4,237.1c-2.4,0-4.3,1.9-4.3,4.3c0,2.4,1.9,4.3,4.3,4.3c2.4,0,4.3-1.9,4.3-4.3
					C465.6,239,463.7,237.1,461.4,237.1z"/>
			</g>
		</g>
	</g>
	<g>
		<g>
			<line class="st9" x1="31.9" y1="241.6" x2="87.4" y2="241.6"/>
			<g>
				<rect x="26.3" y="236" class="st10" width="11.2" height="11.2"/>
			</g>
			<g>
				<path class="st10" d="M87.4,245.8c2.4,0,4.3-1.9,4.3-4.3s-1.9-4.3-4.3-4.3c-2.4,0-4.3,1.9-4.3,4.3S85,245.8,87.4,245.8z"/>
			</g>
		</g>
	</g>
	<g>
		<g>
			<g>
				<line class="st9" x1="31.9" y1="54.5" x2="87.4" y2="54.5"/>
				<g>
					<rect x="26.3" y="48.9" class="st10" width="11.2" height="11.2"/>
				</g>
				<g>
					<path class="st10" d="M87.4,58.8c2.4,0,4.3-1.9,4.3-4.3c0-2.4-1.9-4.3-4.3-4.3c-2.4,0-4.3,1.9-4.3,4.3
						C83.1,56.8,85,58.8,87.4,58.8z"/>
				</g>
			</g>
		</g>
		<g>
			<line class="st9" x1="17.8" y1="44.7" x2="26.3" y2="44.7"/>
			<line class="st9" x1="22.1" y1="49" x2="22.1" y2="40.5"/>
		</g>
	</g>
	<g>
		<g>
			<g>
				<line class="st7" x1="516.8" y1="54.2" x2="461.4" y2="54.2"/>
				<g>
					<rect x="511.2" y="48.6" class="st8" width="11.2" height="11.2"/>
				</g>
				<g>
					<path class="st8" d="M461.4,50c-2.4,0-4.3,1.9-4.3,4.3s1.9,4.3,4.3,4.3c2.4,0,4.3-1.9,4.3-4.3S463.7,50,461.4,50z"/>
				</g>
			</g>
		</g>
		<g>
			<line class="st7" x1="530.9" y1="44.5" x2="522.4" y2="44.5"/>
			<line class="st7" x1="526.6" y1="48.7" x2="526.6" y2="40.2"/>
		</g>
	</g>
</g>
</svg>
