<?xml version="1.0" encoding="utf-8"?>
<!-- Generator: Adobe Illustrator 26.5.0, SVG Export Plug-In . SVG Version: 6.00 Build 0)  -->
<svg version="1.1" id="Layer_1" xmlns="http://www.w3.org/2000/svg" xmlns:xlink="http://www.w3.org/1999/xlink" x="0px" y="0px"
	 width="745.4px" height="292.1px" viewBox="0 0 745.4 292.1" style="enable-background:new 0 0 745.4 292.1;" xml:space="preserve"
	>
<style type="text/css">
	.st0{fill:none;stroke:#000000;stroke-width:2.8346;stroke-miterlimit:10;}
	.st1{fill:none;stroke:#000000;stroke-width:2.835;stroke-miterlimit:10;}
	.st2{fill-rule:evenodd;clip-rule:evenodd;fill:none;stroke:#000000;stroke-width:2.835;stroke-miterlimit:10;}
	.st3{fill-rule:evenodd;clip-rule:evenodd;}
	.st4{fill:none;stroke:#F96616;stroke-width:2.8346;stroke-miterlimit:10;}
	.st5{fill:#F96616;}
	.st6{fill:none;stroke:#2189F9;stroke-width:2.8346;stroke-miterlimit:10;}
	.st7{fill:#2189F9;}
	.st8{opacity:0.5;}
	.st9{opacity:0.5;fill:none;stroke:#000000;stroke-width:2.8346;stroke-miterlimit:10;}
	.st10{font-family:'Times-BoldItalic';}
	.st11{font-size:20.5945px;}
	.st12{font-family:'Times-Bold';}
	.st13{fill:none;stroke:#CD41EF;stroke-width:2.8346;stroke-miterlimit:10;}
	.st14{fill:#CD41EF;}
	.st15{fill:none;stroke:#0BD35C;stroke-width:2.8346;stroke-miterlimit:10;}
	.st16{fill:#0BD35C;}
</style>
<g>
	<g>
		<g>
			<g>
				<g>
					<line class="st0" x1="171.7" y1="71.8" x2="82.4" y2="71.8"/>
					<g>
						<path d="M82.4,67.5c-2.4,0-4.3,1.9-4.3,4.3c0,2.4,1.9,4.3,4.3,4.3c2.4,0,4.3-1.9,4.3-4.3C86.7,69.4,84.8,67.5,82.4,67.5z"/>
					</g>
				</g>
			</g>
			<g>
				<g>
					<line class="st0" x1="269.5" y1="71.8" x2="180.2" y2="71.8"/>
					<g>
						<path d="M269.5,67.5c2.4,0,4.3,1.9,4.3,4.3c0,2.4-1.9,4.3-4.3,4.3c-2.4,0-4.3-1.9-4.3-4.3C265.3,69.4,267.2,67.5,269.5,67.5z"
							/>
					</g>
				</g>
			</g>
			
				<rect x="163.2" y="70.3" transform="matrix(6.123234e-17 -1 1 6.123234e-17 108.4768 251.9887)" class="st3" width="34" height="2.8"/>
			
				<rect x="154.7" y="70.3" transform="matrix(6.123234e-17 -1 1 6.123234e-17 99.9728 243.4848)" class="st3" width="34" height="2.8"/>
		</g>
		<line class="st0" x1="161.5" y1="50.5" x2="170" y2="50.5"/>
		<line class="st0" x1="165.7" y1="54.7" x2="165.7" y2="46.2"/>
	</g>
	<g>
		<g>
			<g>
				<g>
					<line class="st0" x1="358.8" y1="258.8" x2="269.5" y2="258.8"/>
					<g>
						<path d="M269.5,254.6c-2.4,0-4.3,1.9-4.3,4.3c0,2.4,1.9,4.3,4.3,4.3c2.4,0,4.3-1.9,4.3-4.3
							C273.8,256.5,271.9,254.6,269.5,254.6z"/>
					</g>
				</g>
			</g>
			<g>
				<g>
					<line class="st0" x1="456.6" y1="258.8" x2="367.3" y2="258.8"/>
					<g>
						<path d="M456.6,254.6c2.4,0,4.3,1.9,4.3,4.3c0,2.4-1.9,4.3-4.3,4.3c-2.4,0-4.3-1.9-4.3-4.3
							C452.3,256.5,454.3,254.6,456.6,254.6z"/>
					</g>
				</g>
			</g>
			
				<rect x="350.3" y="257.4" transform="matrix(6.123234e-17 -1 1 6.123234e-17 108.4768 626.162)" class="st3" width="34" height="2.8"/>
			
				<rect x="341.8" y="257.4" transform="matrix(6.123234e-17 -1 1 6.123234e-17 99.9728 617.658)" class="st3" width="34" height="2.8"/>
		</g>
		<line class="st0" x1="348.6" y1="237.6" x2="357.1" y2="237.6"/>
		<line class="st0" x1="352.8" y1="241.8" x2="352.8" y2="233.3"/>
	</g>
	<g>
		<g>
			<g>
				<g>
					<line class="st0" x1="545.9" y1="71.8" x2="456.6" y2="71.8"/>
					<g>
						<path d="M456.6,67.5c-2.4,0-4.3,1.9-4.3,4.3c0,2.4,1.9,4.3,4.3,4.3c2.4,0,4.3-1.9,4.3-4.3C460.8,69.4,458.9,67.5,456.6,67.5z"
							/>
					</g>
				</g>
			</g>
			<g>
				<g>
					<line class="st0" x1="643.7" y1="71.8" x2="554.4" y2="71.8"/>
					<g>
						<path d="M643.7,67.5c2.4,0,4.3,1.9,4.3,4.3c0,2.4-1.9,4.3-4.3,4.3c-2.4,0-4.3-1.9-4.3-4.3C639.4,69.4,641.3,67.5,643.7,67.5z"
							/>
					</g>
				</g>
			</g>
			
				<rect x="537.4" y="70.3" transform="matrix(6.123234e-17 -1 1 6.123234e-17 482.6193 626.1313)" class="st3" width="34" height="2.8"/>
			
				<rect x="528.9" y="70.3" transform="matrix(6.123234e-17 -1 1 6.123234e-17 474.1154 617.6273)" class="st3" width="34" height="2.8"/>
		</g>
		<line class="st0" x1="535.6" y1="50.5" x2="544.1" y2="50.5"/>
		<line class="st0" x1="539.9" y1="54.7" x2="539.9" y2="46.2"/>
	</g>
	<g>
		<g>
			<g>
				<line class="st1" x1="269.5" y1="71.8" x2="269.5" y2="258.8"/>
				<g>
					<path d="M265.3,71.8c0-2.4,1.9-4.3,4.3-4.3c2.4,0,4.3,1.9,4.3,4.3c0,2.4-1.9,4.3-4.3,4.3C267.2,76,265.3,74.1,265.3,71.8z"/>
				</g>
				<g>
					<path d="M265.3,258.8c0,2.4,1.9,4.3,4.3,4.3c2.4,0,4.3-1.9,4.3-4.3c0-2.4-1.9-4.3-4.3-4.3C267.2,254.6,265.3,256.5,265.3,258.8
						z"/>
				</g>
			</g>
		</g>
		<polyline class="st3" points="271.2,179.4 282.3,152.2 256.8,152.2 267.9,179.4 		"/>
		
			<rect x="256.8" y="178" transform="matrix(-1 -1.224647e-16 1.224647e-16 -1 539.0493 358.8587)" class="st3" width="25.5" height="2.8"/>
	</g>
	<g>
		<g>
			<g>
				<line class="st1" x1="643.7" y1="71.8" x2="643.7" y2="258.8"/>
				<g>
					<path d="M639.4,71.8c0-2.4,1.9-4.3,4.3-4.3s4.3,1.9,4.3,4.3c0,2.4-1.9,4.3-4.3,4.3S639.4,74.1,639.4,71.8z"/>
				</g>
				<g>
					<path d="M639.4,258.8c0,2.4,1.9,4.3,4.3,4.3s4.3-1.9,4.3-4.3c0-2.4-1.9-4.3-4.3-4.3S639.4,256.5,639.4,258.8z"/>
				</g>
			</g>
		</g>
		<polyline class="st3" points="645.3,179.4 656.4,152.2 630.9,152.2 642,179.4 		"/>
		
			<rect x="630.9" y="178" transform="matrix(-1 -1.224647e-16 1.224647e-16 -1 1287.3344 358.8587)" class="st3" width="25.5" height="2.8"/>
	</g>
	<g>
		<g>
			<g>
				<line class="st1" x1="456.6" y1="258.8" x2="456.6" y2="71.8"/>
				<g>
					<path d="M460.9,258.8c0,2.4-1.9,4.3-4.3,4.3c-2.4,0-4.3-1.9-4.3-4.3c0-2.4,1.9-4.3,4.3-4.3C459,254.6,460.9,256.5,460.9,258.8z
						"/>
				</g>
				<g>
					<path d="M460.9,71.8c0-2.4-1.9-4.3-4.3-4.3c-2.4,0-4.3,1.9-4.3,4.3c0,2.4,1.9,4.3,4.3,4.3C459,76,460.9,74.1,460.9,71.8z"/>
				</g>
			</g>
		</g>
		<polyline class="st3" points="455,151.2 443.9,178.4 469.4,178.4 458.2,151.2 		"/>
		<rect x="443.9" y="149.8" class="st3" width="25.5" height="2.8"/>
	</g>
	<line class="st0" x1="456.6" y1="71.8" x2="269.5" y2="71.8"/>
	<line class="st0" x1="643.7" y1="258.8" x2="456.6" y2="258.8"/>
	<line class="st0" x1="269.5" y1="258.8" x2="82.4" y2="258.8"/>
	<g>
		<g>
			<g>
				<line class="st1" x1="82.4" y1="128.1" x2="82.4" y2="71.8"/>
				<g>
					<path d="M86.7,71.8c0-2.4-1.9-4.3-4.3-4.3s-4.3,1.9-4.3,4.3c0,2.4,1.9,4.3,4.3,4.3S86.7,74.1,86.7,71.8z"/>
				</g>
			</g>
		</g>
		<g>
			<g>
				<line class="st1" x1="82.4" y1="258.8" x2="82.4" y2="190.5"/>
				<g>
					<path d="M86.7,258.8c0,2.4-1.9,4.3-4.3,4.3s-4.3-1.9-4.3-4.3c0-2.4,1.9-4.3,4.3-4.3S86.7,256.5,86.7,258.8z"/>
				</g>
			</g>
		</g>
		<circle class="st2" cx="82.4" cy="159.3" r="31.2"/>
		<path class="st2" d="M111,146.8c-6.9,0-12,25-18.9,25s-12-25-18.9-25c-6.9,0-12,25-18.9,25"/>
	</g>
	<text transform="matrix(1 0 0 1 184.7809 53.9916)" class="st10 st11">10μF</text>
	<text transform="matrix(1 0 0 1 287.6088 171.8353)" class="st12 st11">1N914</text>
	<text transform="matrix(1 0 0 1 476.6755 171.8353)" class="st12 st11">1N914</text>
	<text transform="matrix(1 0 0 1 662.3523 171.8353)" class="st12 st11">1N914</text>
	<text transform="matrix(1 0 0 1 373.1774 241.7779)" class="st10 st11">10μF</text>
	<text transform="matrix(1 0 0 1 559.3472 53.9921)" class="st10 st11">10μF</text>
	<g>
		<g>
			<line class="st6" x1="27" y1="258.8" x2="82.4" y2="258.8"/>
			<g>
				<rect x="21.4" y="253.2" class="st7" width="11.2" height="11.2"/>
			</g>
			<g>
				<path class="st7" d="M82.4,263.1c2.4,0,4.3-1.9,4.3-4.3c0-2.4-1.9-4.3-4.3-4.3c-2.4,0-4.3,1.9-4.3,4.3
					C78.2,261.2,80.1,263.1,82.4,263.1z"/>
			</g>
		</g>
	</g>
	<g>
		<g>
			<line class="st4" x1="82.4" y1="16.3" x2="82.4" y2="71.8"/>
			<g>
				<rect x="76.8" y="10.7" class="st5" width="11.2" height="11.2"/>
			</g>
			<g>
				<path class="st5" d="M78.2,71.8c0,2.4,1.9,4.3,4.3,4.3c2.4,0,4.3-1.9,4.3-4.3c0-2.4-1.9-4.3-4.3-4.3
					C80.1,67.5,78.2,69.4,78.2,71.8z"/>
			</g>
		</g>
	</g>
	<g>
		<g>
			<g>
				<line class="st6" x1="27" y1="71.8" x2="82.4" y2="71.8"/>
				<g>
					<rect x="21.4" y="66.1" class="st7" width="11.2" height="11.2"/>
				</g>
				<g>
					<path class="st7" d="M82.4,76c2.4,0,4.3-1.9,4.3-4.3c0-2.4-1.9-4.3-4.3-4.3c-2.4,0-4.3,1.9-4.3,4.3C78.2,74.1,80.1,76,82.4,76z
						"/>
				</g>
			</g>
		</g>
	</g>
	<g>
		<g>
			<g>
				<line class="st4" x1="643.7" y1="16.3" x2="643.7" y2="71.8"/>
				<g>
					<rect x="638.1" y="10.7" class="st5" width="11.2" height="11.2"/>
				</g>
				<g>
					<path class="st5" d="M639.4,71.8c0,2.4,1.9,4.3,4.3,4.3s4.3-1.9,4.3-4.3c0-2.4-1.9-4.3-4.3-4.3S639.4,69.4,639.4,71.8z"/>
				</g>
			</g>
		</g>
	</g>
	<text transform="matrix(1 0 0 1 127.0831 152.5867)"><tspan x="0" y="0" class="st10 st11">4Vpp</tspan><tspan x="0" y="24.7" class="st10 st11">100Hz</tspan></text>
</g>
</svg>
