<?xml version="1.0" encoding="utf-8"?>
<!-- Generator: Adobe Illustrator 26.5.0, SVG Export Plug-In . SVG Version: 6.00 Build 0)  -->
<svg version="1.1" id="Layer_1" xmlns="http://www.w3.org/2000/svg" xmlns:xlink="http://www.w3.org/1999/xlink" x="0px" y="0px"
	 width="745.4px" height="292.1px" viewBox="0 0 745.4 292.1" style="enable-background:new 0 0 745.4 292.1;" xml:space="preserve"
	>
<style type="text/css">
	.st0{fill:none;stroke:#000000;stroke-width:2.8346;stroke-miterlimit:10;}
	.st1{fill-rule:evenodd;clip-rule:evenodd;}
	.st2{fill:none;stroke:#000000;stroke-width:2.835;stroke-miterlimit:10;}
	.st3{fill-rule:evenodd;clip-rule:evenodd;fill:none;stroke:#000000;stroke-width:2.835;stroke-miterlimit:10;}
	.st4{fill:none;stroke:#F96616;stroke-width:2.8346;stroke-miterlimit:10;}
	.st5{fill:#F96616;}
	.st6{fill:none;stroke:#2189F9;stroke-width:2.8346;stroke-miterlimit:10;}
	.st7{fill:#2189F9;}
	.st8{opacity:0.5;}
	.st9{opacity:0.5;fill:none;stroke:#000000;stroke-width:2.8346;stroke-miterlimit:10;}
	.st10{font-family:'Times-BoldItalic';}
	.st11{font-size:20.5946px;}
	.st12{font-family:'Times-Bold';}
</style>
<g>
	<g>
		<g>
			<g>
				<g>
					<line class="st0" x1="177.5" y1="62.6" x2="88.2" y2="62.6"/>
					<g>
						<path d="M88.2,58.4c-2.4,0-4.3,1.9-4.3,4.3s1.9,4.3,4.3,4.3c2.4,0,4.3-1.9,4.3-4.3S90.6,58.4,88.2,58.4z"/>
					</g>
				</g>
			</g>
			<g>
				<g>
					<line class="st0" x1="275.3" y1="62.6" x2="186" y2="62.6"/>
					<g>
						<path d="M275.3,58.4c2.4,0,4.3,1.9,4.3,4.3s-1.9,4.3-4.3,4.3c-2.4,0-4.3-1.9-4.3-4.3S273,58.4,275.3,58.4z"/>
					</g>
				</g>
			</g>
			
				<rect x="169" y="61.2" transform="matrix(6.123234e-17 -1 1 6.123234e-17 123.4182 248.6632)" class="st1" width="34" height="2.8"/>
			
				<rect x="160.5" y="61.2" transform="matrix(6.123234e-17 -1 1 6.123234e-17 114.9142 240.1593)" class="st1" width="34" height="2.8"/>
		</g>
		<line class="st0" x1="167.3" y1="41.4" x2="175.8" y2="41.4"/>
		<line class="st0" x1="171.6" y1="45.6" x2="171.6" y2="37.1"/>
	</g>
	<g>
		<g>
			<g>
				<g>
					<line class="st0" x1="364.7" y1="250" x2="275.4" y2="250"/>
					<g>
						<path d="M275.4,245.7c-2.4,0-4.3,1.9-4.3,4.3s1.9,4.3,4.3,4.3c2.4,0,4.3-1.9,4.3-4.3S277.7,245.7,275.4,245.7z"/>
					</g>
				</g>
			</g>
			<g>
				<g>
					<line class="st0" x1="462.5" y1="250" x2="373.2" y2="250"/>
					<g>
						<path d="M462.5,245.7c2.4,0,4.3,1.9,4.3,4.3s-1.9,4.3-4.3,4.3c-2.4,0-4.3-1.9-4.3-4.3S460.1,245.7,462.5,245.7z"/>
					</g>
				</g>
			</g>
			
				<rect x="356.2" y="248.5" transform="matrix(6.123234e-17 -1 1 6.123234e-17 123.1942 623.125)" class="st1" width="34" height="2.8"/>
			
				<rect x="347.6" y="248.5" transform="matrix(6.123234e-17 -1 1 6.123234e-17 114.6903 614.621)" class="st1" width="34" height="2.8"/>
		</g>
		<line class="st0" x1="354.4" y1="228.7" x2="362.9" y2="228.7"/>
		<line class="st0" x1="358.7" y1="233" x2="358.7" y2="224.5"/>
	</g>
	<g>
		<g>
			<g>
				<g>
					<line class="st0" x1="551.7" y1="62.6" x2="462.4" y2="62.6"/>
					<g>
						<path d="M462.4,58.4c-2.4,0-4.3,1.9-4.3,4.3s1.9,4.3,4.3,4.3c2.4,0,4.3-1.9,4.3-4.3S464.7,58.4,462.4,58.4z"/>
					</g>
				</g>
			</g>
			<g>
				<g>
					<line class="st0" x1="649.5" y1="62.6" x2="560.2" y2="62.6"/>
					<g>
						<path d="M649.5,58.4c2.4,0,4.3,1.9,4.3,4.3s-1.9,4.3-4.3,4.3c-2.4,0-4.3-1.9-4.3-4.3S647.1,58.4,649.5,58.4z"/>
					</g>
				</g>
			</g>
			
				<rect x="543.2" y="61.2" transform="matrix(6.123234e-17 -1 1 6.123234e-17 497.5607 622.8058)" class="st1" width="34" height="2.8"/>
			
				<rect x="534.7" y="61.2" transform="matrix(6.123234e-17 -1 1 6.123234e-17 489.0568 614.3019)" class="st1" width="34" height="2.8"/>
		</g>
		<line class="st0" x1="541.4" y1="41.4" x2="549.9" y2="41.4"/>
		<line class="st0" x1="545.7" y1="45.6" x2="545.7" y2="37.1"/>
	</g>
	<g>
		<g>
			<g>
				<line class="st2" x1="275.4" y1="62.9" x2="275.4" y2="250"/>
				<g>
					<path d="M271.1,62.9c0-2.4,1.9-4.3,4.3-4.3s4.3,1.9,4.3,4.3c0,2.4-1.9,4.3-4.3,4.3S271.1,65.2,271.1,62.9z"/>
				</g>
				<g>
					<path d="M271.1,250c0,2.4,1.9,4.3,4.3,4.3s4.3-1.9,4.3-4.3c0-2.4-1.9-4.3-4.3-4.3S271.1,247.6,271.1,250z"/>
				</g>
			</g>
		</g>
		<polyline class="st1" points="277,170.6 288.1,143.3 262.6,143.3 273.7,170.6 		"/>
		
			<rect x="262.6" y="169.1" transform="matrix(-1 -1.224647e-16 1.224647e-16 -1 550.7298 341.1043)" class="st1" width="25.5" height="2.8"/>
	</g>
	<g>
		<g>
			<g>
				<line class="st2" x1="649.5" y1="62.4" x2="649.5" y2="249.5"/>
				<g>
					<path d="M645.2,62.4c0-2.4,1.9-4.3,4.3-4.3s4.3,1.9,4.3,4.3c0,2.4-1.9,4.3-4.3,4.3S645.2,64.7,645.2,62.4z"/>
				</g>
				<g>
					<path d="M645.2,249.5c0,2.4,1.9,4.3,4.3,4.3s4.3-1.9,4.3-4.3c0-2.4-1.9-4.3-4.3-4.3S645.2,247.1,645.2,249.5z"/>
				</g>
			</g>
		</g>
		<polyline class="st1" points="651.1,170.1 662.3,142.8 636.7,142.8 647.9,170.1 		"/>
		
			<rect x="636.7" y="168.6" transform="matrix(-1 -1.224647e-16 1.224647e-16 -1 1298.9988 340.1042)" class="st1" width="25.5" height="2.8"/>
	</g>
	<g>
		<g>
			<g>
				<line class="st2" x1="462.4" y1="250" x2="462.4" y2="62.9"/>
				<g>
					<path d="M466.7,250c0,2.4-1.9,4.3-4.3,4.3s-4.3-1.9-4.3-4.3c0-2.4,1.9-4.3,4.3-4.3S466.7,247.6,466.7,250z"/>
				</g>
				<g>
					<path d="M466.7,62.9c0-2.4-1.9-4.3-4.3-4.3s-4.3,1.9-4.3,4.3c0,2.4,1.9,4.3,4.3,4.3S466.7,65.2,466.7,62.9z"/>
				</g>
			</g>
		</g>
		<polyline class="st1" points="460.8,142.3 449.7,169.6 475.2,169.6 464.1,142.3 		"/>
		<rect x="449.7" y="140.9" class="st1" width="25.5" height="2.8"/>
	</g>
	<line class="st0" x1="462.4" y1="62.6" x2="275.3" y2="62.6"/>
	<line class="st0" x1="649.5" y1="250" x2="462.4" y2="250"/>
	<line class="st0" x1="275.4" y1="250.2" x2="88.3" y2="250.2"/>
	<g>
		<g>
			<g>
				<line class="st2" x1="88.2" y1="119.8" x2="88.2" y2="63.4"/>
				<g>
					<path d="M92.5,63.4c0-2.4-1.9-4.3-4.3-4.3S84,61,84,63.4c0,2.4,1.9,4.3,4.3,4.3S92.5,65.7,92.5,63.4z"/>
				</g>
			</g>
		</g>
		<g>
			<g>
				<line class="st2" x1="88.2" y1="250.5" x2="88.2" y2="182.1"/>
				<g>
					<path d="M92.5,250.5c0,2.4-1.9,4.3-4.3,4.3s-4.3-1.9-4.3-4.3s1.9-4.3,4.3-4.3S92.5,248.1,92.5,250.5z"/>
				</g>
			</g>
		</g>
		<circle class="st3" cx="88.2" cy="150.9" r="31.2"/>
		<path class="st3" d="M116.8,138.4c-6.9,0-12,25-18.9,25c-6.9,0-12-25-18.9-25c-6.9,0-12,25-18.9,25"/>
	</g>
	<text transform="matrix(1 0 0 1 190.5888 45.6144)" class="st10 st11">10μF</text>
	<text transform="matrix(1 0 0 1 293.4167 163.4581)" class="st12 st11">1N914</text>
	<text transform="matrix(1 0 0 1 482.4835 163.4581)" class="st12 st11">1N914</text>
	<text transform="matrix(1 0 0 1 668.1603 163.4581)" class="st12 st11">1N914</text>
	<text transform="matrix(1 0 0 1 378.9854 233.4007)" class="st10 st11">10μF</text>
	<text transform="matrix(1 0 0 1 565.1552 45.6149)" class="st10 st11">10μF</text>
	<g>
		<g>
			<line class="st6" x1="32.8" y1="250.5" x2="88.2" y2="250.5"/>
			<g>
				<rect x="27.2" y="244.9" class="st7" width="11.2" height="11.2"/>
			</g>
			<g>
				<path class="st7" d="M88.2,254.7c2.4,0,4.3-1.9,4.3-4.3c0-2.4-1.9-4.3-4.3-4.3c-2.4,0-4.3,1.9-4.3,4.3
					C84,252.8,85.9,254.7,88.2,254.7z"/>
			</g>
		</g>
	</g>
	<g>
		<g>
			<line class="st4" x1="704.8" y1="250.2" x2="649.4" y2="250.2"/>
			<g>
				<rect x="699.2" y="244.6" class="st5" width="11.2" height="11.2"/>
			</g>
			<g>
				<path class="st5" d="M649.4,245.9c-2.4,0-4.3,1.9-4.3,4.3c0,2.4,1.9,4.3,4.3,4.3c2.4,0,4.3-1.9,4.3-4.3
					C653.6,247.9,651.7,245.9,649.4,245.9z"/>
			</g>
		</g>
	</g>
	<g>
		<g>
			<g>
				<line class="st6" x1="32.8" y1="63.4" x2="88.2" y2="63.4"/>
				<g>
					<rect x="27.2" y="57.8" class="st7" width="11.2" height="11.2"/>
				</g>
				<g>
					<path class="st7" d="M88.2,67.6c2.4,0,4.3-1.9,4.3-4.3c0-2.4-1.9-4.3-4.3-4.3c-2.4,0-4.3,1.9-4.3,4.3
						C84,65.7,85.9,67.6,88.2,67.6z"/>
				</g>
			</g>
		</g>
		<g>
			<line class="st6" x1="18.7" y1="53.6" x2="27.2" y2="53.6"/>
			<line class="st6" x1="23" y1="57.8" x2="23" y2="49.3"/>
		</g>
	</g>
	<g>
		<g>
			<g>
				<line class="st4" x1="704.9" y1="63.4" x2="649.4" y2="63.4"/>
				<g>
					<rect x="699.3" y="57.8" class="st5" width="11.2" height="11.2"/>
				</g>
				<g>
					<path class="st5" d="M649.4,59.1c-2.4,0-4.3,1.9-4.3,4.3c0,2.4,1.9,4.3,4.3,4.3c2.4,0,4.3-1.9,4.3-4.3
						C653.7,61,651.8,59.1,649.4,59.1z"/>
				</g>
			</g>
		</g>
		<g>
			<line class="st4" x1="719" y1="53.6" x2="710.5" y2="53.6"/>
			<line class="st4" x1="714.7" y1="57.8" x2="714.7" y2="49.3"/>
		</g>
	</g>
</g>
</svg>
