  0
SECTION
  2
HEADER
  9
$ACADVER
  1
AC1009
  9
$FILLMODE
 70
0
  9
$EXTMIN
 10
-0.3302
 20
-0.2540
 30
0.0000
  9
$EXTMAX
 10
57.4802
 20
29.5402
 30
0.0000
  0
ENDSEC
  0
SECTION
  2
TABLES
  0
TABLE
  2
LTYPE
 70
1
  0
LTYPE
  2
CONTINUOUS
 70
64
  3
Solid line
 72
65
 73
0
 40
0
  0
ENDTAB
  0
TABLE
  2
LAYER
 70
255
  0
LAYER
  2
1
 70
64
 62
12
  6
CONTINUOUS
  0
LAYER
  2
16
 70
64
 62
132
  6
CONTINUOUS
  0
LAYER
  2
17
 70
64
 62
110
  6
CONTINUOUS
  0
LAYER
  2
18
 70
64
 62
110
  6
CONTINUOUS
  0
LAYER
  2
19
 70
64
 62
53
  6
CONTINUOUS
  0
LAYER
  2
20
 70
64
 62
31
  6
CONTINUOUS
  0
LAYER
  2
21
 70
64
 62
253
  6
CONTINUOUS
  0
LAYER
  2
22
 70
64
 62
253
  6
CONTINUOUS
  0
LAYER
  2
23
 70
64
 62
53
  6
CONTINUOUS
  0
LAYER
  2
24
 70
64
 62
53
  6
CONTINUOUS
  0
LAYER
  2
25
 70
64
 62
253
  6
CONTINUOUS
  0
LAYER
  2
26
 70
64
 62
253
  6
CONTINUOUS
  0
LAYER
  2
27
 70
64
 62
253
  6
CONTINUOUS
  0
LAYER
  2
28
 70
64
 62
253
  6
CONTINUOUS
  0
LAYER
  2
40
 70
64
 62
132
  6
CONTINUOUS
  0
LAYER
  2
42
 70
64
 62
132
  6
CONTINUOUS
  0
LAYER
  2
43
 70
64
 62
110
  6
CONTINUOUS
  0
LAYER
  2
48
 70
64
 62
253
  6
CONTINUOUS
  0
LAYER
  2
49
 70
64
 62
253
  6
CONTINUOUS
  0
LAYER
  2
51
 70
64
 62
253
  6
CONTINUOUS
  0
LAYER
  2
52
 70
64
 62
253
  6
CONTINUOUS
  0
ENDTAB
  0
ENDSEC
  0
SECTION
  2
BLOCKS
  0
BLOCK
  8
0
  2
RECT
 70
64
 10
0.0000
 20
0.0000
 30
0.0000
  3
RECT
  0
SOLID
  8
0
 10
-0.5000
 20
-0.5000
 30
0.0000
 11
0.5000
 21
-0.5000
 31
0.0000
 12
-0.5000
 22
0.5000
 32
0.0000
 13
0.5000
 23
0.5000
 33
0.0000
  0
ENDBLK
  8
0
  0
BLOCK
  8
0
  2
PIE
 70
64
 10
0.0000
 20
0.0000
 30
0.0000
  3
PIE
  0
CIRCLE
  8
0
 10
0.0000
 20
0.0000
 30
0.0000
 40
0.5000
  0
ENDBLK
  8
0
  0
BLOCK
  8
0
  2
OCTAGONP
 70
64
 10
0.0000
 20
0.0000
 30
0.0000
  3
OCTAGONP
  0
POLYLINE
  8
0
 66
1
 10
0.0000
 20
0.0000
 30
0.0000
 40
0.0000
 41
0.0000
 70
1
  0
VERTEX
  8
0
 10
-0.5000
 20
-0.2071
 30
0.0000
  0
VERTEX
  8
0
 10
-0.5000
 20
0.2071
 30
0.0000
  0
VERTEX
  8
0
 10
-0.2071
 20
0.5000
 30
0.0000
  0
VERTEX
  8
0
 10
0.2071
 20
0.5000
 30
0.0000
  0
VERTEX
  8
0
 10
0.5000
 20
0.2071
 30
0.0000
  0
VERTEX
  8
0
 10
0.5000
 20
-0.2071
 30
0.0000
  0
VERTEX
  8
0
 10
0.2071
 20
-0.5000
 30
0.0000
  0
VERTEX
  8
0
 10
-0.2071
 20
-0.5000
 30
0.0000
  0
SEQEND
  8
0
  0
ENDBLK
  8
0
  0
BLOCK
  8
0
  2
SQUAREP
 70
64
 10
0.0000
 20
0.0000
 30
0.0000
  3
SQUAREP
  0
SOLID
  8
0
 10
-0.5000
 20
-0.5000
 30
0.0000
 11
0.5000
 21
-0.5000
 31
0.0000
 12
-0.5000
 22
0.5000
 32
0.0000
 13
0.5000
 23
0.5000
 33
0.0000
  0
ENDBLK
  8
0
  0
BLOCK
  8
0
  2
ROUNDP
 70
64
 10
0.0000
 20
0.0000
 30
0.0000
  3
ROUNDP
  0
CIRCLE
  8
0
 10
0.0000
 20
0.0000
 30
0.0000
 40
0.5000
  0
ENDBLK
  8
0
  0
BLOCK
  8
0
  2
ANNULUSP
 70
64
 10
0.0000
 20
0.0000
 30
0.0000
  3
ANNULUSP
  0
CIRCLE
  8
0
 10
0.0000
 20
0.0000
 30
0.0000
 40
0.5000
  0
ENDBLK
  8
0
  0
BLOCK
  8
0
  2
THERMALP
 70
64
 10
0.0000
 20
0.0000
 30
0.0000
  3
THERMALP
  0
LINE
  8
0
 10
-0.2379
 20
0.4500
 30
0.0000
 11
0.2379
 21
0.4500
 31
0.0000
  0
LINE
  8
0
 10
0.4500
 20
0.2379
 30
0.0000
 11
0.4500
 21
-0.2379
 31
0.0000
  0
LINE
  8
0
 10
0.2379
 20
-0.4500
 30
0.0000
 11
-0.2379
 21
-0.4500
 31
0.0000
  0
LINE
  8
0
 10
-0.4500
 20
-0.2379
 30
0.0000
 11
-0.4500
 21
0.2379
 31
0.0000
  0
ENDBLK
  8
0
  0
BLOCK
  8
0
  2
OCTAGONV
 70
64
 10
0.0000
 20
0.0000
 30
0.0000
  3
OCTAGONV
  0
POLYLINE
  8
0
 66
1
 10
0.0000
 20
0.0000
 30
0.0000
 40
0.0000
 41
0.0000
 70
1
  0
VERTEX
  8
0
 10
-0.5000
 20
-0.2071
 30
0.0000
  0
VERTEX
  8
0
 10
-0.5000
 20
0.2071
 30
0.0000
  0
VERTEX
  8
0
 10
-0.2071
 20
0.5000
 30
0.0000
  0
VERTEX
  8
0
 10
0.2071
 20
0.5000
 30
0.0000
  0
VERTEX
  8
0
 10
0.5000
 20
0.2071
 30
0.0000
  0
VERTEX
  8
0
 10
0.5000
 20
-0.2071
 30
0.0000
  0
VERTEX
  8
0
 10
0.2071
 20
-0.5000
 30
0.0000
  0
VERTEX
  8
0
 10
-0.2071
 20
-0.5000
 30
0.0000
  0
SEQEND
  8
0
  0
ENDBLK
  8
0
  0
BLOCK
  8
0
  2
SQUAREV
 70
64
 10
0.0000
 20
0.0000
 30
0.0000
  3
SQUAREV
  0
SOLID
  8
0
 10
-0.5000
 20
-0.5000
 30
0.0000
 11
0.5000
 21
-0.5000
 31
0.0000
 12
-0.5000
 22
0.5000
 32
0.0000
 13
0.5000
 23
0.5000
 33
0.0000
  0
ENDBLK
  8
0
  0
BLOCK
  8
0
  2
ROUNDV
 70
64
 10
0.0000
 20
0.0000
 30
0.0000
  3
ROUNDV
  0
CIRCLE
  8
0
 10
0.0000
 20
0.0000
 30
0.0000
 40
0.5000
  0
ENDBLK
  8
0
  0
BLOCK
  8
0
  2
ANNULUSV
 70
64
 10
0.0000
 20
0.0000
 30
0.0000
  3
ANNULUSV
  0
CIRCLE
  8
0
 10
0.0000
 20
0.0000
 30
0.0000
 40
0.5000
  0
ENDBLK
  8
0
  0
BLOCK
  8
0
  2
THERMALV
 70
64
 10
0.0000
 20
0.0000
 30
0.0000
  3
THERMALV
  0
LINE
  8
0
 10
-0.2379
 20
0.4500
 30
0.0000
 11
0.2379
 21
0.4500
 31
0.0000
  0
LINE
  8
0
 10
0.4500
 20
0.2379
 30
0.0000
 11
0.4500
 21
-0.2379
 31
0.0000
  0
LINE
  8
0
 10
0.2379
 20
-0.4500
 30
0.0000
 11
-0.2379
 21
-0.4500
 31
0.0000
  0
LINE
  8
0
 10
-0.4500
 20
-0.2379
 30
0.0000
 11
-0.4500
 21
0.2379
 31
0.0000
  0
ENDBLK
  8
0
  0
BLOCK
  8
0
  2
LONGP100
 70
64
 10
0.0000
 20
0.0000
 30
0.0000
  3
LONGP100
  0
POLYLINE
  8
0
 66
1
 10
0.0000
 20
0.0000
 30
0.0000
 40
0.0000
 41
0.0000
 70
1
  0
VERTEX
  8
0
 10
-0.5000
 20
-0.5000
 30
0.0000
  0
VERTEX
  8
0
 10
0.5000
 20
-0.5000
 30
0.0000
 42
1.0000
  0
VERTEX
  8
0
 10
0.5000
 20
0.5000
 30
0.0000
  0
VERTEX
  8
0
 10
-0.5000
 20
0.5000
 30
0.0000
 42
1.0000
  0
SEQEND
  8
0
  0
ENDBLK
  8
0
  0
ENDSEC
  0
SECTION
  2
ENTITIES
  0
LINE
  8
20
 10
0.0000
 20
8.8900
 30
0.0000
 11
0.0000
 21
5.0800
 31
0.0000
  0
ARC
  8
20
 10
5.0800
 20
5.0800
 30
0.0000
 40
5.0800
 50
180.0000
 51
270.0000
  0
LINE
  8
20
 10
5.0800
 20
0.0000
 30
0.0000
 11
52.0700
 21
0.0000
 31
0.0000
  0
ARC
  8
20
 10
52.0700
 20
5.0800
 30
0.0000
 40
5.0800
 50
270.0000
 51
0.0000
  0
LINE
  8
20
 10
57.1500
 20
5.0800
 30
0.0000
 11
57.1500
 21
8.8900
 31
0.0000
  0
LINE
  8
20
 10
0.0000
 20
24.1300
 30
0.0000
 11
0.0000
 21
20.3200
 31
0.0000
  0
ARC
  8
20
 10
5.0800
 20
20.3200
 30
0.0000
 40
5.0800
 50
180.0000
 51
270.0000
  0
LINE
  8
20
 10
5.0800
 20
15.2400
 30
0.0000
 11
5.8420
 21
15.2400
 31
0.0000
  0
LINE
  8
20
 10
5.8420
 20
15.2400
 30
0.0000
 11
5.8420
 21
13.9700
 31
0.0000
  0
LINE
  8
20
 10
6.3500
 20
13.9700
 30
0.0000
 11
6.3500
 21
15.2400
 31
0.0000
  0
LINE
  8
20
 10
6.3500
 20
15.2400
 30
0.0000
 11
50.8000
 21
15.2400
 31
0.0000
  0
LINE
  8
20
 10
50.8000
 20
15.2400
 30
0.0000
 11
50.8000
 21
13.9700
 31
0.0000
  0
LINE
  8
20
 10
51.3080
 20
13.9700
 30
0.0000
 11
51.3080
 21
15.2400
 31
0.0000
  0
LINE
  8
20
 10
51.3080
 20
15.2400
 30
0.0000
 11
52.0700
 21
15.2400
 31
0.0000
  0
ARC
  8
20
 10
52.0700
 20
20.3200
 30
0.0000
 40
5.0800
 50
270.0000
 51
0.0000
  0
LINE
  8
20
 10
57.1500
 20
20.3200
 30
0.0000
 11
57.1500
 21
24.1300
 31
0.0000
  0
ARC
  8
20
 10
52.0700
 20
24.1300
 30
0.0000
 40
5.0800
 50
0.0000
 51
90.0000
  0
LINE
  8
20
 10
52.0700
 20
29.2100
 30
0.0000
 11
5.0800
 21
29.2100
 31
0.0000
  0
ARC
  8
20
 10
5.0800
 20
24.1300
 30
0.0000
 40
5.0800
 50
90.0000
 51
180.0000
  0
ARC
  8
20
 10
52.0700
 20
8.8900
 30
0.0000
 40
5.0800
 50
0.0000
 51
90.0000
  0
LINE
  8
20
 10
52.0700
 20
13.9700
 30
0.0000
 11
51.3080
 21
13.9700
 31
0.0000
  0
LINE
  8
20
 10
50.8000
 20
13.9700
 30
0.0000
 11
6.3500
 21
13.9700
 31
0.0000
  0
LINE
  8
20
 10
5.8420
 20
13.9700
 30
0.0000
 11
5.0800
 21
13.9700
 31
0.0000
  0
ARC
  8
20
 10
5.0800
 20
8.8900
 30
0.0000
 40
5.0800
 50
90.0000
 51
180.0000
  0
LINE
  8
21
 10
10.5000
 20
8.6300
 30
0.0000
 11
5.0000
 21
8.6300
 31
0.0000
  0
LINE
  8
21
 10
5.0000
 20
8.6300
 30
0.0000
 11
5.0000
 21
4.1300
 31
0.0000
  0
LINE
  8
21
 10
5.0000
 20
4.1300
 30
0.0000
 11
10.5000
 21
4.1300
 31
0.0000
  0
LINE
  8
21
 10
10.5000
 20
4.1300
 30
0.0000
 11
10.5000
 21
4.8800
 31
0.0000
  0
LINE
  8
21
 10
10.5000
 20
7.8800
 30
0.0000
 11
10.5000
 21
8.6300
 31
0.0000
  0
LINE
  8
21
 10
10.5000
 20
7.8800
 30
0.0000
 11
11.4325
 21
7.8800
 31
0.0000
  0
LINE
  8
21
 10
11.4325
 20
7.8800
 30
0.0000
 11
11.4325
 21
7.3800
 31
0.0000
  0
LINE
  8
21
 10
11.4325
 20
7.3800
 30
0.0000
 11
10.5000
 21
7.3800
 31
0.0000
  0
LINE
  8
21
 10
10.5000
 20
7.8800
 30
0.0000
 11
10.5000
 21
7.3800
 31
0.0000
  0
LINE
  8
21
 10
10.5000
 20
7.3800
 30
0.0000
 11
10.5000
 21
5.3800
 31
0.0000
  0
LINE
  8
21
 10
10.5000
 20
5.3800
 30
0.0000
 11
11.4325
 21
5.3800
 31
0.0000
  0
LINE
  8
21
 10
11.4325
 20
5.3800
 30
0.0000
 11
11.4325
 21
4.8800
 31
0.0000
  0
LINE
  8
21
 10
11.4325
 20
4.8800
 30
0.0000
 11
10.5000
 21
4.8800
 31
0.0000
  0
LINE
  8
21
 10
10.5000
 20
4.8800
 30
0.0000
 11
10.5000
 21
5.3800
 31
0.0000
  0
LINE
  8
21
 10
9.6520
 20
23.1140
 30
0.0000
 11
7.1120
 21
23.1140
 31
0.0000
  0
LINE
  8
21
 10
7.1120
 20
23.1140
 30
0.0000
 11
6.6040
 21
22.6060
 31
0.0000
  0
LINE
  8
21
 10
6.6040
 20
22.6060
 30
0.0000
 11
6.6040
 21
20.5740
 31
0.0000
  0
LINE
  8
21
 10
6.6040
 20
20.5740
 30
0.0000
 11
7.1120
 21
20.0660
 31
0.0000
  0
LINE
  8
21
 10
7.1120
 20
20.0660
 30
0.0000
 11
9.6520
 21
20.0660
 31
0.0000
  0
LINE
  8
21
 10
9.6520
 20
20.0660
 30
0.0000
 11
9.6520
 21
20.5740
 31
0.0000
  0
LINE
  8
21
 10
9.6520
 20
20.5740
 30
0.0000
 11
9.6520
 21
21.0820
 31
0.0000
  0
LINE
  8
21
 10
9.6520
 20
22.0980
 30
0.0000
 11
9.6520
 21
22.6060
 31
0.0000
  0
LINE
  8
21
 10
9.6520
 20
22.6060
 30
0.0000
 11
9.6520
 21
23.1140
 31
0.0000
  0
LINE
  8
21
 10
9.6520
 20
22.6060
 30
0.0000
 11
10.1600
 21
22.6060
 31
0.0000
  0
LINE
  8
21
 10
10.1600
 20
22.6060
 30
0.0000
 11
10.1600
 21
23.1140
 31
0.0000
  0
LINE
  8
21
 10
10.1600
 20
23.1140
 30
0.0000
 11
11.4300
 21
23.1140
 31
0.0000
  0
LINE
  8
21
 10
11.4300
 20
23.1140
 30
0.0000
 11
11.4300
 21
22.6060
 31
0.0000
  0
LINE
  8
21
 10
11.4300
 20
22.6060
 30
0.0000
 11
10.6680
 21
22.6060
 31
0.0000
  0
LINE
  8
21
 10
10.6680
 20
22.6060
 30
0.0000
 11
10.6680
 21
22.0980
 31
0.0000
  0
LINE
  8
21
 10
10.6680
 20
22.0980
 30
0.0000
 11
9.6520
 21
22.0980
 31
0.0000
  0
LINE
  8
21
 10
9.6520
 20
22.0980
 30
0.0000
 11
9.6520
 21
21.0820
 31
0.0000
  0
LINE
  8
21
 10
9.6520
 20
21.0820
 30
0.0000
 11
10.6680
 21
21.0820
 31
0.0000
  0
LINE
  8
21
 10
10.6680
 20
21.0820
 30
0.0000
 11
10.6680
 21
20.5740
 31
0.0000
  0
LINE
  8
21
 10
10.6680
 20
20.5740
 30
0.0000
 11
11.6840
 21
20.5740
 31
0.0000
  0
LINE
  8
21
 10
11.6840
 20
20.5740
 30
0.0000
 11
11.6840
 21
20.0660
 31
0.0000
  0
LINE
  8
21
 10
11.6840
 20
20.0660
 30
0.0000
 11
10.1600
 21
20.0660
 31
0.0000
  0
LINE
  8
21
 10
10.1600
 20
20.0660
 30
0.0000
 11
10.1600
 21
20.5740
 31
0.0000
  0
LINE
  8
21
 10
10.1600
 20
20.5740
 30
0.0000
 11
9.6520
 21
20.5740
 31
0.0000
  0
CIRCLE
  8
21
 10
6.5000
 20
6.3800
 30
0.0000
 40
0.5000
  0
CIRCLE
  8
21
 10
7.6200
 20
21.5900
 30
0.0000
 40
0.2540
  0
POINT
  8
23
 10
31.1150
 20
8.8900
 30
0.0000
  0
LINE
  8
51
 10
31.9650
 20
8.2900
 30
0.0000
 11
30.2650
 21
8.2900
 31
0.0000
  0
LINE
  8
51
 10
30.2650
 20
8.2900
 30
0.0000
 11
30.2650
 21
9.4900
 31
0.0000
  0
LINE
  8
51
 10
30.2650
 20
9.4900
 30
0.0000
 11
31.9650
 21
9.4900
 31
0.0000
  0
LINE
  8
51
 10
31.9650
 20
9.4900
 30
0.0000
 11
31.9650
 21
8.2900
 31
0.0000
  0
INSERT
  8
51
  2
RECT
 10
32.0525
 20
8.8900
 30
0.0000
 41
0.1250
 42
0.9000
 43
1.0000
 50
180.0000
  0
INSERT
  8
51
  2
RECT
 10
30.1775
 20
8.8900
 30
0.0000
 41
0.1250
 42
0.9000
 43
1.0000
 50
180.0000
  0
INSERT
  8
51
  2
RECT
 10
30.7150
 20
8.8900
 30
0.0000
 41
0.2000
 42
1.2500
 43
1.0000
 50
180.0000
  0
INSERT
  8
1
  2
RECT
 10
29.9400
 20
8.8900
 30
0.0000
 41
1.5500
 42
1.8000
 43
1.0000
 50
180.0000
  0
INSERT
  8
1
  2
RECT
 10
32.2900
 20
8.8900
 30
0.0000
 41
1.5500
 42
1.8000
 43
1.0000
 50
180.0000
  0
LINE
  8
27
 10
25.8801
 20
9.2075
 30
0.0000
 11
26.1976
 21
9.4615
 31
0.0000
  0
LINE
  8
27
 10
26.1976
 20
9.4615
 30
0.0000
 11
26.1976
 21
8.3185
 31
0.0000
  0
LINE
  8
27
 10
25.8801
 20
8.3185
 30
0.0000
 11
26.5151
 21
8.3185
 31
0.0000
  0
ARC
  8
27
 10
27.9650
 20
8.8900
 30
0.0000
 40
0.9419
 50
154.0108
 51
180.0000
  0
ARC
  8
27
 10
27.3406
 20
9.2265
 30
0.0000
 40
0.2350
 50
90.0000
 51
161.0754
  0
ARC
  8
27
 10
27.3406
 20
9.2265
 30
0.0000
 40
0.2350
 50
18.9246
 51
90.0000
  0
ARC
  8
27
 10
26.7161
 20
8.8900
 30
0.0000
 40
0.9419
 50
360.0000
 51
25.9892
  0
ARC
  8
27
 10
27.9650
 20
8.8900
 30
0.0000
 40
0.9419
 50
180.0000
 51
205.9892
  0
ARC
  8
27
 10
27.3406
 20
8.5534
 30
0.0000
 40
0.2350
 50
198.9246
 51
270.0000
  0
ARC
  8
27
 10
26.7161
 20
8.8900
 30
0.0000
 40
0.9419
 50
334.0108
 51
0.0000
  0
ARC
  8
27
 10
27.3406
 20
8.5534
 30
0.0000
 40
0.2350
 50
270.0000
 51
341.0754
  0
LINE
  8
27
 10
27.0866
 20
8.5725
 30
0.0000
 11
27.5946
 21
9.2075
 31
0.0000
  0
LINE
  8
27
 10
28.1915
 20
9.0805
 30
0.0000
 11
28.1915
 21
8.5090
 31
0.0000
  0
ARC
  8
27
 10
28.3820
 20
8.5090
 30
0.0000
 40
0.1905
 50
180.0000
 51
270.0000
  0
LINE
  8
27
 10
28.3820
 20
8.3185
 30
0.0000
 11
28.6995
 21
8.3185
 31
0.0000
  0
LINE
  8
27
 10
28.6995
 20
8.3185
 30
0.0000
 11
28.6995
 21
9.0805
 31
0.0000
  0
LINE
  8
27
 10
29.2735
 20
8.3185
 30
0.0000
 11
29.2735
 21
9.4615
 31
0.0000
  0
LINE
  8
27
 10
29.2735
 20
9.4615
 30
0.0000
 11
29.7815
 21
9.4615
 31
0.0000
  0
LINE
  8
27
 10
29.2735
 20
8.9535
 30
0.0000
 11
29.7815
 21
8.9535
 31
0.0000
  0
POINT
  8
23
 10
38.1000
 20
8.8900
 30
0.0000
  0
LINE
  8
21
 10
39.6240
 20
11.0490
 30
0.0000
 11
39.6240
 21
6.7310
 31
0.0000
  0
LINE
  8
21
 10
36.5760
 20
6.7310
 30
0.0000
 11
36.5760
 21
11.0490
 31
0.0000
  0
LINE
  8
21
 10
39.3700
 20
6.4770
 30
0.0000
 11
36.8300
 21
6.4770
 31
0.0000
  0
LINE
  8
21
 10
39.3700
 20
11.3030
 30
0.0000
 11
36.8300
 21
11.3030
 31
0.0000
  0
ARC
  8
21
 10
39.3700
 20
6.7310
 30
0.0000
 40
0.2540
 50
270.0000
 51
0.0000
  0
ARC
  8
21
 10
39.3700
 20
11.0490
 30
0.0000
 40
0.2540
 50
0.0000
 51
90.0000
  0
ARC
  8
21
 10
36.8300
 20
6.7310
 30
0.0000
 40
0.2540
 50
180.0000
 51
270.0000
  0
ARC
  8
21
 10
36.8300
 20
11.0490
 30
0.0000
 40
0.2540
 50
90.0000
 51
180.0000
  0
LINE
  8
51
 10
38.1000
 20
7.6200
 30
0.0000
 11
38.1000
 21
8.5090
 31
0.0000
  0
LINE
  8
21
 10
38.1000
 20
8.5090
 30
0.0000
 11
38.1000
 21
8.6360
 31
0.0000
  0
LINE
  8
21
 10
38.1000
 20
8.6360
 30
0.0000
 11
38.8620
 21
8.6360
 31
0.0000
  0
LINE
  8
21
 10
38.1000
 20
8.6360
 30
0.0000
 11
37.3380
 21
8.6360
 31
0.0000
  0
LINE
  8
21
 10
38.8620
 20
9.1440
 30
0.0000
 11
38.1000
 21
9.1440
 31
0.0000
  0
LINE
  8
21
 10
38.1000
 20
9.1440
 30
0.0000
 11
37.3380
 21
9.1440
 31
0.0000
  0
LINE
  8
21
 10
38.1000
 20
9.1440
 30
0.0000
 11
38.1000
 21
9.2710
 31
0.0000
  0
LINE
  8
51
 10
38.1000
 20
9.2710
 30
0.0000
 11
38.1000
 21
10.1600
 31
0.0000
  0
INSERT
  8
17
  2
OCTAGONP
 10
38.1000
 20
10.1600
 30
0.0000
 41
1.6002
 42
1.6002
 43
1.0000
 50
270.0000
  0
INSERT
  8
17
  2
OCTAGONP
 10
38.1000
 20
10.1600
 30
0.0000
 41
1.6002
 42
1.6002
 43
1.0000
 50
270.0000
  0
INSERT
  8
17
  2
OCTAGONP
 10
38.1000
 20
7.6200
 30
0.0000
 41
1.6002
 42
1.6002
 43
1.0000
 50
270.0000
  0
INSERT
  8
17
  2
OCTAGONP
 10
38.1000
 20
7.6200
 30
0.0000
 41
1.6002
 42
1.6002
 43
1.0000
 50
270.0000
  0
LINE
  8
27
 10
37.1475
 20
12.6365
 30
0.0000
 11
36.8935
 21
11.7475
 31
0.0000
  0
LINE
  8
27
 10
36.8935
 20
11.7475
 30
0.0000
 11
37.5285
 21
11.7475
 31
0.0000
  0
LINE
  8
27
 10
37.3380
 20
12.0015
 30
0.0000
 11
37.3380
 21
11.4935
 31
0.0000
  0
LINE
  8
27
 10
38.0365
 20
12.5095
 30
0.0000
 11
38.0365
 21
12.6365
 31
0.0000
  0
LINE
  8
27
 10
38.0365
 20
12.6365
 30
0.0000
 11
38.6715
 21
12.6365
 31
0.0000
  0
LINE
  8
27
 10
38.6715
 20
12.6365
 30
0.0000
 11
38.3540
 21
11.4935
 31
0.0000
  0
ARC
  8
27
 10
40.1214
 20
12.0650
 30
0.0000
 40
0.9419
 50
154.0108
 51
180.0000
  0
ARC
  8
27
 10
39.4970
 20
12.4016
 30
0.0000
 40
0.2350
 50
90.0000
 51
161.0754
  0
ARC
  8
27
 10
39.4970
 20
12.4016
 30
0.0000
 40
0.2350
 50
18.9246
 51
90.0000
  0
ARC
  8
27
 10
38.8726
 20
12.0650
 30
0.0000
 40
0.9419
 50
360.0000
 51
25.9892
  0
ARC
  8
27
 10
40.1214
 20
12.0650
 30
0.0000
 40
0.9419
 50
180.0000
 51
205.9892
  0
ARC
  8
27
 10
39.4970
 20
11.7285
 30
0.0000
 40
0.2350
 50
198.9246
 51
270.0000
  0
ARC
  8
27
 10
38.8726
 20
12.0650
 30
0.0000
 40
0.9419
 50
334.0108
 51
0.0000
  0
ARC
  8
27
 10
39.4970
 20
11.7285
 30
0.0000
 40
0.2350
 50
270.0000
 51
341.0754
  0
LINE
  8
27
 10
39.2430
 20
11.7475
 30
0.0000
 11
39.7510
 21
12.3825
 31
0.0000
  0
LINE
  8
27
 10
40.3479
 20
11.4935
 30
0.0000
 11
40.3479
 21
12.2555
 31
0.0000
  0
LINE
  8
27
 10
40.3479
 20
12.2555
 30
0.0000
 11
40.6654
 21
12.2555
 31
0.0000
  0
ARC
  8
27
 10
40.6654
 20
12.0650
 30
0.0000
 40
0.1905
 50
0.0000
 51
90.0000
  0
LINE
  8
27
 10
40.8559
 20
12.0650
 30
0.0000
 11
40.8559
 21
11.4935
 31
0.0000
  0
LINE
  8
27
 10
41.4299
 20
11.4935
 30
0.0000
 11
41.4299
 21
12.6365
 31
0.0000
  0
LINE
  8
27
 10
41.4299
 20
12.6365
 30
0.0000
 11
41.9379
 21
12.6365
 31
0.0000
  0
LINE
  8
27
 10
41.4299
 20
12.1285
 30
0.0000
 11
41.9379
 21
12.1285
 31
0.0000
  0
POINT
  8
23
 10
21.5900
 20
6.3500
 30
0.0000
  0
LINE
  8
51
 10
25.4000
 20
6.3500
 30
0.0000
 11
24.5110
 21
6.3500
 31
0.0000
  0
LINE
  8
51
 10
17.7800
 20
6.3500
 30
0.0000
 11
18.6690
 21
6.3500
 31
0.0000
  0
LINE
  8
21
 10
20.9550
 20
6.3500
 30
0.0000
 11
21.5900
 21
6.3500
 31
0.0000
  0
LINE
  8
21
 10
22.6060
 20
6.9850
 30
0.0000
 11
22.6060
 21
5.7150
 31
0.0000
  0
LINE
  8
21
 10
22.6060
 20
5.7150
 30
0.0000
 11
21.5900
 21
6.3500
 31
0.0000
  0
LINE
  8
21
 10
21.5900
 20
6.3500
 30
0.0000
 11
23.1140
 21
6.3500
 31
0.0000
  0
LINE
  8
21
 10
21.5900
 20
6.3500
 30
0.0000
 11
22.6060
 21
6.9850
 31
0.0000
  0
LINE
  8
21
 10
21.5900
 20
6.9850
 30
0.0000
 11
21.5900
 21
6.3500
 31
0.0000
  0
LINE
  8
21
 10
21.5900
 20
6.3500
 30
0.0000
 11
21.5900
 21
5.7150
 31
0.0000
  0
ARC
  8
21
 10
23.6220
 20
7.1120
 30
0.0000
 40
0.2540
 50
0.0000
 51
90.0000
  0
LINE
  8
21
 10
23.8760
 20
7.1120
 30
0.0000
 11
23.8760
 21
5.5880
 31
0.0000
  0
ARC
  8
21
 10
23.6220
 20
5.5880
 30
0.0000
 40
0.2540
 50
270.0000
 51
0.0000
  0
ARC
  8
21
 10
19.5580
 20
7.1120
 30
0.0000
 40
0.2540
 50
90.0000
 51
180.0000
  0
ARC
  8
21
 10
19.5580
 20
5.5880
 30
0.0000
 40
0.2540
 50
180.0000
 51
270.0000
  0
LINE
  8
21
 10
19.5580
 20
5.3340
 30
0.0000
 11
23.6220
 21
5.3340
 31
0.0000
  0
LINE
  8
21
 10
19.3040
 20
7.1120
 30
0.0000
 11
19.3040
 21
5.5880
 31
0.0000
  0
LINE
  8
21
 10
19.5580
 20
7.3660
 30
0.0000
 11
23.6220
 21
7.3660
 31
0.0000
  0
INSERT
  8
21
  2
RECT
 10
19.9390
 20
6.3500
 30
0.0000
 41
0.5080
 42
2.0320
 43
1.0000
 50
0.0000
  0
INSERT
  8
21
  2
RECT
 10
24.1935
 20
6.3500
 30
0.0000
 41
0.6350
 42
0.5080
 43
1.0000
 50
0.0000
  0
INSERT
  8
21
  2
RECT
 10
18.9865
 20
6.3500
 30
0.0000
 41
0.6350
 42
0.5080
 43
1.0000
 50
0.0000
  0
INSERT
  8
17
  2
LONGP100
 10
25.4000
 20
6.3500
 30
0.0000
 41
1.3208
 42
1.3208
 43
1.0000
 50
0.0000
  0
INSERT
  8
17
  2
LONGP100
 10
25.4000
 20
6.3500
 30
0.0000
 41
1.3208
 42
1.3208
 43
1.0000
 50
0.0000
  0
INSERT
  8
17
  2
LONGP100
 10
17.7800
 20
6.3500
 30
0.0000
 41
1.3208
 42
1.3208
 43
1.0000
 50
0.0000
  0
INSERT
  8
17
  2
LONGP100
 10
17.7800
 20
6.3500
 30
0.0000
 41
1.3208
 42
1.3208
 43
1.0000
 50
0.0000
  0
POINT
  8
23
 10
21.5900
 20
11.4300
 30
0.0000
  0
LINE
  8
51
 10
17.7800
 20
11.4300
 30
0.0000
 11
18.6690
 21
11.4300
 31
0.0000
  0
LINE
  8
51
 10
25.4000
 20
11.4300
 30
0.0000
 11
24.5110
 21
11.4300
 31
0.0000
  0
LINE
  8
21
 10
22.2250
 20
11.4300
 30
0.0000
 11
21.5900
 21
11.4300
 31
0.0000
  0
LINE
  8
21
 10
20.5740
 20
10.7950
 30
0.0000
 11
20.5740
 21
12.0650
 31
0.0000
  0
LINE
  8
21
 10
20.5740
 20
12.0650
 30
0.0000
 11
21.5900
 21
11.4300
 31
0.0000
  0
LINE
  8
21
 10
21.5900
 20
11.4300
 30
0.0000
 11
20.0660
 21
11.4300
 31
0.0000
  0
LINE
  8
21
 10
21.5900
 20
11.4300
 30
0.0000
 11
20.5740
 21
10.7950
 31
0.0000
  0
LINE
  8
21
 10
21.5900
 20
10.7950
 30
0.0000
 11
21.5900
 21
11.4300
 31
0.0000
  0
LINE
  8
21
 10
21.5900
 20
11.4300
 30
0.0000
 11
21.5900
 21
12.0650
 31
0.0000
  0
ARC
  8
21
 10
19.5580
 20
10.6680
 30
0.0000
 40
0.2540
 50
180.0000
 51
270.0000
  0
LINE
  8
21
 10
19.3040
 20
10.6680
 30
0.0000
 11
19.3040
 21
12.1920
 31
0.0000
  0
ARC
  8
21
 10
19.5580
 20
12.1920
 30
0.0000
 40
0.2540
 50
90.0000
 51
180.0000
  0
ARC
  8
21
 10
23.6220
 20
10.6680
 30
0.0000
 40
0.2540
 50
270.0000
 51
0.0000
  0
ARC
  8
21
 10
23.6220
 20
12.1920
 30
0.0000
 40
0.2540
 50
0.0000
 51
90.0000
  0
LINE
  8
21
 10
23.6220
 20
12.4460
 30
0.0000
 11
19.5580
 21
12.4460
 31
0.0000
  0
LINE
  8
21
 10
23.8760
 20
10.6680
 30
0.0000
 11
23.8760
 21
12.1920
 31
0.0000
  0
LINE
  8
21
 10
23.6220
 20
10.4140
 30
0.0000
 11
19.5580
 21
10.4140
 31
0.0000
  0
INSERT
  8
21
  2
RECT
 10
23.2410
 20
11.4300
 30
0.0000
 41
0.5080
 42
2.0320
 43
1.0000
 50
180.0000
  0
INSERT
  8
21
  2
RECT
 10
18.9865
 20
11.4300
 30
0.0000
 41
0.6350
 42
0.5080
 43
1.0000
 50
180.0000
  0
INSERT
  8
21
  2
RECT
 10
24.1935
 20
11.4300
 30
0.0000
 41
0.6350
 42
0.5080
 43
1.0000
 50
180.0000
  0
INSERT
  8
17
  2
LONGP100
 10
17.7800
 20
11.4300
 30
0.0000
 41
1.3208
 42
1.3208
 43
1.0000
 50
180.0000
  0
INSERT
  8
17
  2
LONGP100
 10
17.7800
 20
11.4300
 30
0.0000
 41
1.3208
 42
1.3208
 43
1.0000
 50
180.0000
  0
INSERT
  8
17
  2
LONGP100
 10
25.4000
 20
11.4300
 30
0.0000
 41
1.3208
 42
1.3208
 43
1.0000
 50
180.0000
  0
INSERT
  8
17
  2
LONGP100
 10
25.4000
 20
11.4300
 30
0.0000
 41
1.3208
 42
1.3208
 43
1.0000
 50
180.0000
  0
POINT
  8
23
 10
44.4500
 20
6.3500
 30
0.0000
  0
LINE
  8
21
 10
47.3710
 20
1.2700
 30
0.0000
 11
47.3710
 21
11.4300
 31
0.0000
  0
LINE
  8
21
 10
41.5290
 20
11.4300
 30
0.0000
 11
41.5290
 21
1.2700
 31
0.0000
  0
LINE
  8
21
 10
47.3710
 20
1.2700
 30
0.0000
 11
41.5290
 21
1.2700
 31
0.0000
  0
LINE
  8
21
 10
47.3710
 20
11.4300
 30
0.0000
 11
45.4660
 21
11.4300
 31
0.0000
  0
LINE
  8
21
 10
41.5290
 20
11.4300
 30
0.0000
 11
43.4340
 21
11.4300
 31
0.0000
  0
ARC
  8
21
 10
44.4500
 20
11.4300
 30
0.0000
 40
1.0160
 50
180.0000
 51
0.0000
  0
INSERT
  8
17
  2
ROUNDP
 10
40.6400
 20
10.1600
 30
0.0000
 41
1.3208
 42
1.3208
 43
1.0000
 50
0.0000
  0
INSERT
  8
17
  2
ROUNDP
 10
40.6400
 20
10.1600
 30
0.0000
 41
1.3208
 42
1.3208
 43
1.0000
 50
0.0000
  0
INSERT
  8
17
  2
ROUNDP
 10
40.6400
 20
7.6200
 30
0.0000
 41
1.3208
 42
1.3208
 43
1.0000
 50
0.0000
  0
INSERT
  8
17
  2
ROUNDP
 10
40.6400
 20
7.6200
 30
0.0000
 41
1.3208
 42
1.3208
 43
1.0000
 50
0.0000
  0
INSERT
  8
17
  2
ROUNDP
 10
40.6400
 20
5.0800
 30
0.0000
 41
1.3208
 42
1.3208
 43
1.0000
 50
0.0000
  0
INSERT
  8
17
  2
ROUNDP
 10
40.6400
 20
5.0800
 30
0.0000
 41
1.3208
 42
1.3208
 43
1.0000
 50
0.0000
  0
INSERT
  8
17
  2
ROUNDP
 10
40.6400
 20
2.5400
 30
0.0000
 41
1.3208
 42
1.3208
 43
1.0000
 50
0.0000
  0
INSERT
  8
17
  2
ROUNDP
 10
40.6400
 20
2.5400
 30
0.0000
 41
1.3208
 42
1.3208
 43
1.0000
 50
0.0000
  0
INSERT
  8
17
  2
ROUNDP
 10
48.2600
 20
2.5400
 30
0.0000
 41
1.3208
 42
1.3208
 43
1.0000
 50
0.0000
  0
INSERT
  8
17
  2
ROUNDP
 10
48.2600
 20
2.5400
 30
0.0000
 41
1.3208
 42
1.3208
 43
1.0000
 50
0.0000
  0
INSERT
  8
17
  2
ROUNDP
 10
48.2600
 20
5.0800
 30
0.0000
 41
1.3208
 42
1.3208
 43
1.0000
 50
0.0000
  0
INSERT
  8
17
  2
ROUNDP
 10
48.2600
 20
5.0800
 30
0.0000
 41
1.3208
 42
1.3208
 43
1.0000
 50
0.0000
  0
INSERT
  8
17
  2
ROUNDP
 10
48.2600
 20
7.6200
 30
0.0000
 41
1.3208
 42
1.3208
 43
1.0000
 50
0.0000
  0
INSERT
  8
17
  2
ROUNDP
 10
48.2600
 20
7.6200
 30
0.0000
 41
1.3208
 42
1.3208
 43
1.0000
 50
0.0000
  0
INSERT
  8
17
  2
ROUNDP
 10
48.2600
 20
10.1600
 30
0.0000
 41
1.3208
 42
1.3208
 43
1.0000
 50
0.0000
  0
INSERT
  8
17
  2
ROUNDP
 10
48.2600
 20
10.1600
 30
0.0000
 41
1.3208
 42
1.3208
 43
1.0000
 50
0.0000
  0
LINE
  8
27
 10
43.8785
 20
3.4188
 30
0.0000
 11
45.0215
 21
3.4188
 31
0.0000
  0
LINE
  8
27
 10
45.0215
 20
3.4188
 30
0.0000
 11
45.0215
 21
3.9268
 31
0.0000
  0
LINE
  8
27
 10
45.0215
 20
4.4196
 30
0.0000
 11
43.8785
 21
4.4196
 31
0.0000
  0
LINE
  8
27
 10
43.8785
 20
4.4196
 30
0.0000
 11
44.5135
 21
4.8006
 31
0.0000
  0
LINE
  8
27
 10
44.5135
 20
4.8006
 30
0.0000
 11
43.8785
 21
5.1816
 31
0.0000
  0
LINE
  8
27
 10
43.8785
 20
5.1816
 30
0.0000
 11
45.0215
 21
5.1816
 31
0.0000
  0
LINE
  8
27
 10
45.0215
 20
5.7404
 30
0.0000
 11
45.0215
 21
6.0579
 31
0.0000
  0
ARC
  8
27
 10
44.7040
 20
6.0579
 30
0.0000
 40
0.3175
 50
0.0000
 51
180.0000
  0
LINE
  8
27
 10
43.8785
 20
5.7404
 30
0.0000
 11
43.8785
 21
6.1214
 31
0.0000
  0
ARC
  8
27
 10
44.1325
 20
6.1214
 30
0.0000
 40
0.2540
 50
0.0000
 51
180.0000
  0
LINE
  8
27
 10
44.3865
 20
6.1214
 30
0.0000
 11
44.3865
 21
5.8674
 31
0.0000
  0
LINE
  8
27
 10
45.0215
 20
6.8834
 30
0.0000
 11
45.0215
 21
7.2644
 31
0.0000
  0
ARC
  8
27
 10
44.7675
 20
7.2644
 30
0.0000
 40
0.2540
 50
0.0000
 51
90.0000
  0
LINE
  8
27
 10
44.7675
 20
7.5184
 30
0.0000
 11
44.6405
 21
7.5184
 31
0.0000
  0
ARC
  8
27
 10
44.6405
 20
7.2644
 30
0.0000
 40
0.2540
 50
90.0000
 51
180.0000
  0
LINE
  8
27
 10
44.3865
 20
7.2644
 30
0.0000
 11
44.3865
 21
6.8834
 31
0.0000
  0
LINE
  8
27
 10
44.3865
 20
6.8834
 30
0.0000
 11
43.8785
 21
6.8834
 31
0.0000
  0
LINE
  8
27
 10
43.8785
 20
6.8834
 30
0.0000
 11
43.8785
 21
7.5184
 31
0.0000
  0
ARC
  8
27
 10
44.7040
 20
8.3439
 30
0.0000
 40
0.3175
 50
90.0000
 51
270.0000
  0
ARC
  8
27
 10
44.7040
 20
8.3439
 30
0.0000
 40
0.3175
 50
270.0000
 51
90.0000
  0
ARC
  8
27
 10
44.1325
 20
8.3439
 30
0.0000
 40
0.2540
 50
90.0000
 51
270.0000
  0
ARC
  8
27
 10
44.1325
 20
8.3439
 30
0.0000
 40
0.2540
 50
270.0000
 51
90.0000
  0
LINE
  8
27
 10
45.0215
 20
9.2075
 30
0.0000
 11
43.8785
 21
9.2075
 31
0.0000
  0
LINE
  8
27
 10
43.8785
 20
9.2075
 30
0.0000
 11
45.0215
 21
9.8425
 31
0.0000
  0
LINE
  8
27
 10
45.0215
 20
9.8425
 30
0.0000
 11
43.8785
 21
9.8425
 31
0.0000
  0
POINT
  8
23
 10
11.4300
 20
21.5900
 30
0.0000
  0
LINE
  8
21
 10
10.5410
 20
19.3040
 30
0.0000
 11
10.5410
 21
19.8120
 31
0.0000
  0
LINE
  8
51
 10
10.5410
 20
19.8120
 30
0.0000
 11
10.5410
 21
20.8280
 31
0.0000
  0
LINE
  8
21
 10
10.5410
 20
20.8280
 30
0.0000
 11
10.5410
 21
22.2250
 31
0.0000
  0
LINE
  8
51
 10
10.5410
 20
22.2250
 30
0.0000
 11
10.5410
 21
23.3680
 31
0.0000
  0
LINE
  8
21
 10
10.5410
 20
23.3680
 30
0.0000
 11
10.5410
 21
23.8760
 31
0.0000
  0
LINE
  8
21
 10
10.5410
 20
23.8760
 30
0.0000
 11
12.3190
 21
23.8760
 31
0.0000
  0
LINE
  8
21
 10
12.3190
 20
19.3040
 30
0.0000
 11
12.3190
 21
19.8120
 31
0.0000
  0
LINE
  8
51
 10
12.3190
 20
19.8120
 30
0.0000
 11
12.3190
 21
20.8280
 31
0.0000
  0
LINE
  8
21
 10
12.3190
 20
20.8280
 30
0.0000
 11
12.3190
 21
22.3520
 31
0.0000
  0
LINE
  8
51
 10
12.3190
 20
22.3520
 30
0.0000
 11
12.3190
 21
23.3680
 31
0.0000
  0
LINE
  8
21
 10
12.3190
 20
23.3680
 30
0.0000
 11
12.3190
 21
23.8760
 31
0.0000
  0
LINE
  8
21
 10
12.3190
 20
19.3040
 30
0.0000
 11
10.5410
 21
19.3040
 31
0.0000
  0
ARC
  8
21
 10
12.3190
 20
21.5900
 30
0.0000
 40
0.7620
 50
270.0000
 51
90.0000
  0
LINE
  8
21
 10
12.8270
 20
21.3360
 30
0.0000
 11
12.8270
 21
21.8440
 31
0.0000
  0
LINE
  8
21
 10
12.5730
 20
21.0820
 30
0.0000
 11
12.5730
 21
22.0980
 31
0.0000
  0
INSERT
  8
17
  2
OCTAGONP
 10
11.4300
 20
22.8600
 30
0.0000
 41
1.3208
 42
1.3208
 43
1.0000
 50
180.0000
  0
INSERT
  8
17
  2
OCTAGONP
 10
11.4300
 20
22.8600
 30
0.0000
 41
1.3208
 42
1.3208
 43
1.0000
 50
180.0000
  0
INSERT
  8
17
  2
OCTAGONP
 10
11.4300
 20
20.3200
 30
0.0000
 41
1.3208
 42
1.3208
 43
1.0000
 50
180.0000
  0
INSERT
  8
17
  2
OCTAGONP
 10
11.4300
 20
20.3200
 30
0.0000
 41
1.3208
 42
1.3208
 43
1.0000
 50
180.0000
  0
LINE
  8
25
 10
7.8657
 20
24.6380
 30
0.0000
 11
7.8657
 21
23.4950
 31
0.0000
  0
LINE
  8
25
 10
7.7387
 20
23.4950
 30
0.0000
 11
7.9927
 21
23.4950
 31
0.0000
  0
LINE
  8
25
 10
7.7387
 20
24.6380
 30
0.0000
 11
7.9927
 21
24.6380
 31
0.0000
  0
LINE
  8
25
 10
8.5090
 20
23.4950
 30
0.0000
 11
8.5090
 21
24.6380
 31
0.0000
  0
LINE
  8
25
 10
8.5090
 20
24.6380
 30
0.0000
 11
8.8265
 21
24.6380
 31
0.0000
  0
ARC
  8
25
 10
8.8265
 20
24.3205
 30
0.0000
 40
0.3175
 50
270.0000
 51
90.0000
  0
LINE
  8
25
 10
8.8265
 20
24.0030
 30
0.0000
 11
8.5090
 21
24.0030
 31
0.0000
  0
LINE
  8
25
 10
9.1440
 20
23.4950
 30
0.0000
 11
8.8900
 21
24.0030
 31
0.0000
  0
POINT
  8
23
 10
31.7500
 20
6.3500
 30
0.0000
  0
LINE
  8
51
 10
27.9400
 20
6.3500
 30
0.0000
 11
28.3210
 21
6.3500
 31
0.0000
  0
ARC
  8
21
 10
28.8290
 20
7.2390
 30
0.0000
 40
0.2540
 50
90.0000
 51
180.0000
  0
ARC
  8
21
 10
28.8290
 20
5.4610
 30
0.0000
 40
0.2540
 50
180.0000
 51
270.0000
  0
ARC
  8
21
 10
34.6710
 20
5.4610
 30
0.0000
 40
0.2540
 50
270.0000
 51
0.0000
  0
ARC
  8
21
 10
34.6710
 20
7.2390
 30
0.0000
 40
0.2540
 50
0.0000
 51
90.0000
  0
LINE
  8
51
 10
28.5750
 20
5.4610
 30
0.0000
 11
28.5750
 21
7.2390
 31
0.0000
  0
LINE
  8
21
 10
28.8290
 20
7.4930
 30
0.0000
 11
29.2100
 21
7.4930
 31
0.0000
  0
LINE
  8
21
 10
29.3370
 20
7.3660
 30
0.0000
 11
29.2100
 21
7.4930
 31
0.0000
  0
LINE
  8
21
 10
28.8290
 20
5.2070
 30
0.0000
 11
29.2100
 21
5.2070
 31
0.0000
  0
LINE
  8
21
 10
29.3370
 20
5.3340
 30
0.0000
 11
29.2100
 21
5.2070
 31
0.0000
  0
LINE
  8
21
 10
34.1630
 20
7.3660
 30
0.0000
 11
34.2900
 21
7.4930
 31
0.0000
  0
LINE
  8
21
 10
34.1630
 20
7.3660
 30
0.0000
 11
29.3370
 21
7.3660
 31
0.0000
  0
LINE
  8
21
 10
34.1630
 20
5.3340
 30
0.0000
 11
34.2900
 21
5.2070
 31
0.0000
  0
LINE
  8
21
 10
34.1630
 20
5.3340
 30
0.0000
 11
29.3370
 21
5.3340
 31
0.0000
  0
LINE
  8
21
 10
34.6710
 20
7.4930
 30
0.0000
 11
34.2900
 21
7.4930
 31
0.0000
  0
LINE
  8
21
 10
34.6710
 20
5.2070
 30
0.0000
 11
34.2900
 21
5.2070
 31
0.0000
  0
LINE
  8
51
 10
34.9250
 20
5.4610
 30
0.0000
 11
34.9250
 21
7.2390
 31
0.0000
  0
LINE
  8
51
 10
35.1790
 20
6.3500
 30
0.0000
 11
35.5600
 21
6.3500
 31
0.0000
  0
INSERT
  8
51
  2
RECT
 10
28.4480
 20
6.3500
 30
0.0000
 41
0.2540
 42
0.6096
 43
1.0000
 50
0.0000
  0
INSERT
  8
51
  2
RECT
 10
35.0520
 20
6.3500
 30
0.0000
 41
0.2540
 42
0.6096
 43
1.0000
 50
0.0000
  0
INSERT
  8
17
  2
OCTAGONP
 10
27.9400
 20
6.3500
 30
0.0000
 41
1.3208
 42
1.3208
 43
1.0000
 50
0.0000
  0
INSERT
  8
17
  2
OCTAGONP
 10
27.9400
 20
6.3500
 30
0.0000
 41
1.3208
 42
1.3208
 43
1.0000
 50
0.0000
  0
INSERT
  8
17
  2
OCTAGONP
 10
35.5600
 20
6.3500
 30
0.0000
 41
1.3208
 42
1.3208
 43
1.0000
 50
0.0000
  0
INSERT
  8
17
  2
OCTAGONP
 10
35.5600
 20
6.3500
 30
0.0000
 41
1.3208
 42
1.3208
 43
1.0000
 50
0.0000
  0
LINE
  8
25
 10
30.5435
 20
5.7785
 30
0.0000
 11
30.5435
 21
6.9215
 31
0.0000
  0
LINE
  8
25
 10
30.5435
 20
6.9215
 30
0.0000
 11
30.8610
 21
6.9215
 31
0.0000
  0
ARC
  8
25
 10
30.8610
 20
6.6040
 30
0.0000
 40
0.3175
 50
270.0000
 51
90.0000
  0
LINE
  8
25
 10
30.8610
 20
6.2865
 30
0.0000
 11
30.5435
 21
6.2865
 31
0.0000
  0
LINE
  8
25
 10
31.1785
 20
5.7785
 30
0.0000
 11
30.9245
 21
6.2865
 31
0.0000
  0
LINE
  8
25
 10
31.6782
 20
6.6675
 30
0.0000
 11
31.9957
 21
6.9215
 31
0.0000
  0
LINE
  8
25
 10
31.9957
 20
6.9215
 30
0.0000
 11
31.9957
 21
5.7785
 31
0.0000
  0
LINE
  8
25
 10
31.6782
 20
5.7785
 30
0.0000
 11
32.3132
 21
5.7785
 31
0.0000
  0
POINT
  8
23
 10
31.7500
 20
11.4300
 30
0.0000
  0
LINE
  8
51
 10
27.9400
 20
11.4300
 30
0.0000
 11
28.3210
 21
11.4300
 31
0.0000
  0
ARC
  8
21
 10
28.8290
 20
12.3190
 30
0.0000
 40
0.2540
 50
90.0000
 51
180.0000
  0
ARC
  8
21
 10
28.8290
 20
10.5410
 30
0.0000
 40
0.2540
 50
180.0000
 51
270.0000
  0
ARC
  8
21
 10
34.6710
 20
10.5410
 30
0.0000
 40
0.2540
 50
270.0000
 51
0.0000
  0
ARC
  8
21
 10
34.6710
 20
12.3190
 30
0.0000
 40
0.2540
 50
0.0000
 51
90.0000
  0
LINE
  8
51
 10
28.5750
 20
10.5410
 30
0.0000
 11
28.5750
 21
12.3190
 31
0.0000
  0
LINE
  8
21
 10
28.8290
 20
12.5730
 30
0.0000
 11
29.2100
 21
12.5730
 31
0.0000
  0
LINE
  8
21
 10
29.3370
 20
12.4460
 30
0.0000
 11
29.2100
 21
12.5730
 31
0.0000
  0
LINE
  8
21
 10
28.8290
 20
10.2870
 30
0.0000
 11
29.2100
 21
10.2870
 31
0.0000
  0
LINE
  8
21
 10
29.3370
 20
10.4140
 30
0.0000
 11
29.2100
 21
10.2870
 31
0.0000
  0
LINE
  8
21
 10
34.1630
 20
12.4460
 30
0.0000
 11
34.2900
 21
12.5730
 31
0.0000
  0
LINE
  8
21
 10
34.1630
 20
12.4460
 30
0.0000
 11
29.3370
 21
12.4460
 31
0.0000
  0
LINE
  8
21
 10
34.1630
 20
10.4140
 30
0.0000
 11
34.2900
 21
10.2870
 31
0.0000
  0
LINE
  8
21
 10
34.1630
 20
10.4140
 30
0.0000
 11
29.3370
 21
10.4140
 31
0.0000
  0
LINE
  8
21
 10
34.6710
 20
12.5730
 30
0.0000
 11
34.2900
 21
12.5730
 31
0.0000
  0
LINE
  8
21
 10
34.6710
 20
10.2870
 30
0.0000
 11
34.2900
 21
10.2870
 31
0.0000
  0
LINE
  8
51
 10
34.9250
 20
10.5410
 30
0.0000
 11
34.9250
 21
12.3190
 31
0.0000
  0
LINE
  8
51
 10
35.1790
 20
11.4300
 30
0.0000
 11
35.5600
 21
11.4300
 31
0.0000
  0
INSERT
  8
51
  2
RECT
 10
28.4480
 20
11.4300
 30
0.0000
 41
0.2540
 42
0.6096
 43
1.0000
 50
0.0000
  0
INSERT
  8
51
  2
RECT
 10
35.0520
 20
11.4300
 30
0.0000
 41
0.2540
 42
0.6096
 43
1.0000
 50
0.0000
  0
INSERT
  8
17
  2
OCTAGONP
 10
27.9400
 20
11.4300
 30
0.0000
 41
1.3208
 42
1.3208
 43
1.0000
 50
0.0000
  0
INSERT
  8
17
  2
OCTAGONP
 10
27.9400
 20
11.4300
 30
0.0000
 41
1.3208
 42
1.3208
 43
1.0000
 50
0.0000
  0
INSERT
  8
17
  2
OCTAGONP
 10
35.5600
 20
11.4300
 30
0.0000
 41
1.3208
 42
1.3208
 43
1.0000
 50
0.0000
  0
INSERT
  8
17
  2
OCTAGONP
 10
35.5600
 20
11.4300
 30
0.0000
 41
1.3208
 42
1.3208
 43
1.0000
 50
0.0000
  0
LINE
  8
25
 10
30.5435
 20
10.8585
 30
0.0000
 11
30.5435
 21
12.0015
 31
0.0000
  0
LINE
  8
25
 10
30.5435
 20
12.0015
 30
0.0000
 11
30.8610
 21
12.0015
 31
0.0000
  0
ARC
  8
25
 10
30.8610
 20
11.6840
 30
0.0000
 40
0.3175
 50
270.0000
 51
90.0000
  0
LINE
  8
25
 10
30.8610
 20
11.3665
 30
0.0000
 11
30.5435
 21
11.3665
 31
0.0000
  0
LINE
  8
25
 10
31.1785
 20
10.8585
 30
0.0000
 11
30.9245
 21
11.3665
 31
0.0000
  0
ARC
  8
25
 10
32.0275
 20
11.7157
 30
0.0000
 40
0.2858
 50
0.0000
 51
90.0000
  0
ARC
  8
25
 10
32.0275
 20
11.6344
 30
0.0000
 40
0.3671
 50
90.0000
 51
162.0547
  0
ARC
  8
25
 10
32.0063
 20
11.7157
 30
0.0000
 40
0.3069
 50
313.6027
 51
0.0001
  0
LINE
  8
25
 10
32.2180
 20
11.4935
 30
0.0000
 11
31.6782
 21
10.8585
 31
0.0000
  0
LINE
  8
25
 10
31.6782
 20
10.8585
 30
0.0000
 11
32.3132
 21
10.8585
 31
0.0000
  0
POINT
  8
23
 10
31.7500
 20
2.5400
 30
0.0000
  0
LINE
  8
51
 10
31.3400
 20
3.1750
 30
0.0000
 11
32.1600
 21
3.1750
 31
0.0000
  0
LINE
  8
51
 10
31.3400
 20
1.9050
 30
0.0000
 11
32.1600
 21
1.9050
 31
0.0000
  0
INSERT
  8
51
  2
RECT
 10
32.4814
 20
2.5415
 30
0.0000
 41
0.6500
 42
1.4000
 43
1.0000
 50
0.0000
  0
INSERT
  8
51
  2
RECT
 10
31.0082
 20
2.5415
 30
0.0000
 41
0.6500
 42
1.4000
 43
1.0000
 50
0.0000
  0
INSERT
  8
1
  2
RECT
 10
30.8000
 20
2.5400
 30
0.0000
 41
1.3000
 42
1.5000
 43
1.0000
 50
0.0000
  0
INSERT
  8
1
  2
RECT
 10
32.7000
 20
2.5400
 30
0.0000
 41
1.3000
 42
1.5000
 43
1.0000
 50
0.0000
  0
LINE
  8
27
 10
28.3210
 20
2.8575
 30
0.0000
 11
28.6385
 21
3.1115
 31
0.0000
  0
LINE
  8
27
 10
28.6385
 20
3.1115
 30
0.0000
 11
28.6385
 21
1.9685
 31
0.0000
  0
LINE
  8
27
 10
28.3210
 20
1.9685
 30
0.0000
 11
28.9560
 21
1.9685
 31
0.0000
  0
LINE
  8
27
 10
29.5046
 20
1.9685
 30
0.0000
 11
29.5046
 21
3.1115
 31
0.0000
  0
LINE
  8
27
 10
30.0126
 20
2.7305
 30
0.0000
 11
29.5046
 21
2.3495
 31
0.0000
  0
LINE
  8
27
 10
30.0126
 20
1.9685
 30
0.0000
 11
29.7269
 21
2.5083
 31
0.0000
  0
POINT
  8
23
 10
21.5900
 20
2.5400
 30
0.0000
  0
LINE
  8
51
 10
25.4000
 20
2.5400
 30
0.0000
 11
25.0190
 21
2.5400
 31
0.0000
  0
ARC
  8
21
 10
24.5110
 20
1.6510
 30
0.0000
 40
0.2540
 50
270.0000
 51
0.0000
  0
ARC
  8
21
 10
24.5110
 20
3.4290
 30
0.0000
 40
0.2540
 50
0.0000
 51
90.0000
  0
ARC
  8
21
 10
18.6690
 20
3.4290
 30
0.0000
 40
0.2540
 50
90.0000
 51
180.0000
  0
ARC
  8
21
 10
18.6690
 20
1.6510
 30
0.0000
 40
0.2540
 50
180.0000
 51
270.0000
  0
LINE
  8
51
 10
24.7650
 20
3.4290
 30
0.0000
 11
24.7650
 21
1.6510
 31
0.0000
  0
LINE
  8
21
 10
24.5110
 20
1.3970
 30
0.0000
 11
24.1300
 21
1.3970
 31
0.0000
  0
LINE
  8
21
 10
24.0030
 20
1.5240
 30
0.0000
 11
24.1300
 21
1.3970
 31
0.0000
  0
LINE
  8
21
 10
24.5110
 20
3.6830
 30
0.0000
 11
24.1300
 21
3.6830
 31
0.0000
  0
LINE
  8
21
 10
24.0030
 20
3.5560
 30
0.0000
 11
24.1300
 21
3.6830
 31
0.0000
  0
LINE
  8
21
 10
19.1770
 20
1.5240
 30
0.0000
 11
19.0500
 21
1.3970
 31
0.0000
  0
LINE
  8
21
 10
19.1770
 20
1.5240
 30
0.0000
 11
24.0030
 21
1.5240
 31
0.0000
  0
LINE
  8
21
 10
19.1770
 20
3.5560
 30
0.0000
 11
19.0500
 21
3.6830
 31
0.0000
  0
LINE
  8
21
 10
19.1770
 20
3.5560
 30
0.0000
 11
24.0030
 21
3.5560
 31
0.0000
  0
LINE
  8
21
 10
18.6690
 20
1.3970
 30
0.0000
 11
19.0500
 21
1.3970
 31
0.0000
  0
LINE
  8
21
 10
18.6690
 20
3.6830
 30
0.0000
 11
19.0500
 21
3.6830
 31
0.0000
  0
LINE
  8
51
 10
18.4150
 20
3.4290
 30
0.0000
 11
18.4150
 21
1.6510
 31
0.0000
  0
LINE
  8
51
 10
18.1610
 20
2.5400
 30
0.0000
 11
17.7800
 21
2.5400
 31
0.0000
  0
INSERT
  8
51
  2
RECT
 10
24.8920
 20
2.5400
 30
0.0000
 41
0.2540
 42
0.6096
 43
1.0000
 50
180.0000
  0
INSERT
  8
51
  2
RECT
 10
18.2880
 20
2.5400
 30
0.0000
 41
0.2540
 42
0.6096
 43
1.0000
 50
180.0000
  0
INSERT
  8
17
  2
OCTAGONP
 10
25.4000
 20
2.5400
 30
0.0000
 41
1.3208
 42
1.3208
 43
1.0000
 50
180.0000
  0
INSERT
  8
17
  2
OCTAGONP
 10
25.4000
 20
2.5400
 30
0.0000
 41
1.3208
 42
1.3208
 43
1.0000
 50
180.0000
  0
INSERT
  8
17
  2
OCTAGONP
 10
17.7800
 20
2.5400
 30
0.0000
 41
1.3208
 42
1.3208
 43
1.0000
 50
180.0000
  0
INSERT
  8
17
  2
OCTAGONP
 10
17.7800
 20
2.5400
 30
0.0000
 41
1.3208
 42
1.3208
 43
1.0000
 50
180.0000
  0
LINE
  8
27
 10
19.7587
 20
3.1115
 30
0.0000
 11
19.5047
 21
2.2225
 31
0.0000
  0
LINE
  8
27
 10
19.5047
 20
2.2225
 30
0.0000
 11
20.1397
 21
2.2225
 31
0.0000
  0
LINE
  8
27
 10
19.9492
 20
2.4765
 30
0.0000
 11
19.9492
 21
1.9685
 31
0.0000
  0
LINE
  8
27
 10
20.5905
 20
1.9685
 30
0.0000
 11
20.5905
 21
2.0320
 31
0.0000
  0
LINE
  8
27
 10
20.5905
 20
2.0320
 30
0.0000
 11
20.6540
 21
2.0320
 31
0.0000
  0
LINE
  8
27
 10
20.6540
 20
2.0320
 30
0.0000
 11
20.6540
 21
1.9685
 31
0.0000
  0
LINE
  8
27
 10
20.6540
 20
1.9685
 30
0.0000
 11
20.5905
 21
1.9685
 31
0.0000
  0
LINE
  8
27
 10
21.1049
 20
2.9845
 30
0.0000
 11
21.1049
 21
3.1115
 31
0.0000
  0
LINE
  8
27
 10
21.1049
 20
3.1115
 30
0.0000
 11
21.7399
 21
3.1115
 31
0.0000
  0
LINE
  8
27
 10
21.7399
 20
3.1115
 30
0.0000
 11
21.4224
 21
1.9685
 31
0.0000
  0
LINE
  8
27
 10
22.2885
 20
1.9685
 30
0.0000
 11
22.2885
 21
3.1115
 31
0.0000
  0
LINE
  8
27
 10
22.7965
 20
2.7305
 30
0.0000
 11
22.2885
 21
2.3495
 31
0.0000
  0
LINE
  8
27
 10
22.7965
 20
1.9685
 30
0.0000
 11
22.5108
 21
2.5083
 31
0.0000
  0
POINT
  8
23
 10
15.2400
 20
6.3500
 30
0.0000
  0
LINE
  8
51
 10
15.2400
 20
2.5400
 30
0.0000
 11
15.2400
 21
2.9210
 31
0.0000
  0
ARC
  8
21
 10
14.3510
 20
3.4290
 30
0.0000
 40
0.2540
 50
180.0000
 51
270.0000
  0
ARC
  8
21
 10
16.1290
 20
3.4290
 30
0.0000
 40
0.2540
 50
270.0000
 51
0.0000
  0
ARC
  8
21
 10
16.1290
 20
9.2710
 30
0.0000
 40
0.2540
 50
0.0000
 51
90.0000
  0
ARC
  8
21
 10
14.3510
 20
9.2710
 30
0.0000
 40
0.2540
 50
90.0000
 51
180.0000
  0
LINE
  8
51
 10
16.1290
 20
3.1750
 30
0.0000
 11
14.3510
 21
3.1750
 31
0.0000
  0
LINE
  8
21
 10
14.0970
 20
3.4290
 30
0.0000
 11
14.0970
 21
3.8100
 31
0.0000
  0
LINE
  8
21
 10
14.2240
 20
3.9370
 30
0.0000
 11
14.0970
 21
3.8100
 31
0.0000
  0
LINE
  8
21
 10
16.3830
 20
3.4290
 30
0.0000
 11
16.3830
 21
3.8100
 31
0.0000
  0
LINE
  8
21
 10
16.2560
 20
3.9370
 30
0.0000
 11
16.3830
 21
3.8100
 31
0.0000
  0
LINE
  8
21
 10
14.2240
 20
8.7630
 30
0.0000
 11
14.0970
 21
8.8900
 31
0.0000
  0
LINE
  8
21
 10
14.2240
 20
8.7630
 30
0.0000
 11
14.2240
 21
3.9370
 31
0.0000
  0
LINE
  8
21
 10
16.2560
 20
8.7630
 30
0.0000
 11
16.3830
 21
8.8900
 31
0.0000
  0
LINE
  8
21
 10
16.2560
 20
8.7630
 30
0.0000
 11
16.2560
 21
3.9370
 31
0.0000
  0
LINE
  8
21
 10
14.0970
 20
9.2710
 30
0.0000
 11
14.0970
 21
8.8900
 31
0.0000
  0
LINE
  8
21
 10
16.3830
 20
9.2710
 30
0.0000
 11
16.3830
 21
8.8900
 31
0.0000
  0
LINE
  8
51
 10
16.1290
 20
9.5250
 30
0.0000
 11
14.3510
 21
9.5250
 31
0.0000
  0
LINE
  8
51
 10
15.2400
 20
9.7790
 30
0.0000
 11
15.2400
 21
10.1600
 31
0.0000
  0
INSERT
  8
51
  2
RECT
 10
15.2400
 20
3.0480
 30
0.0000
 41
0.2540
 42
0.6096
 43
1.0000
 50
90.0000
  0
INSERT
  8
51
  2
RECT
 10
15.2400
 20
9.6520
 30
0.0000
 41
0.2540
 42
0.6096
 43
1.0000
 50
90.0000
  0
INSERT
  8
17
  2
OCTAGONP
 10
15.2400
 20
2.5400
 30
0.0000
 41
1.3208
 42
1.3208
 43
1.0000
 50
90.0000
  0
INSERT
  8
17
  2
OCTAGONP
 10
15.2400
 20
2.5400
 30
0.0000
 41
1.3208
 42
1.3208
 43
1.0000
 50
90.0000
  0
INSERT
  8
17
  2
OCTAGONP
 10
15.2400
 20
10.1600
 30
0.0000
 41
1.3208
 42
1.3208
 43
1.0000
 50
90.0000
  0
INSERT
  8
17
  2
OCTAGONP
 10
15.2400
 20
10.1600
 30
0.0000
 41
1.3208
 42
1.3208
 43
1.0000
 50
90.0000
  0
ARC
  8
27
 10
14.9543
 20
4.8578
 30
0.0000
 40
0.2858
 50
90.0000
 51
180.0000
  0
ARC
  8
27
 10
15.0356
 20
4.8578
 30
0.0000
 40
0.3671
 50
180.0000
 51
252.0547
  0
ARC
  8
27
 10
14.9543
 20
4.8366
 30
0.0000
 40
0.3069
 50
43.6027
 51
90.0001
  0
LINE
  8
27
 10
15.1765
 20
5.0483
 30
0.0000
 11
15.8115
 21
4.5085
 31
0.0000
  0
LINE
  8
27
 10
15.8115
 20
4.5085
 30
0.0000
 11
15.8115
 21
5.1435
 31
0.0000
  0
ARC
  8
27
 10
14.9543
 20
6.0008
 30
0.0000
 40
0.2858
 50
90.0000
 51
180.0000
  0
ARC
  8
27
 10
15.0356
 20
6.0008
 30
0.0000
 40
0.3671
 50
180.0000
 51
252.0547
  0
ARC
  8
27
 10
14.9543
 20
5.9796
 30
0.0000
 40
0.3069
 50
43.6027
 51
90.0001
  0
LINE
  8
27
 10
15.1765
 20
6.1913
 30
0.0000
 11
15.8115
 21
5.6515
 31
0.0000
  0
LINE
  8
27
 10
15.8115
 20
5.6515
 30
0.0000
 11
15.8115
 21
6.2865
 31
0.0000
  0
LINE
  8
27
 10
15.8115
 20
6.8351
 30
0.0000
 11
14.6685
 21
6.8351
 31
0.0000
  0
LINE
  8
27
 10
15.0495
 20
7.3431
 30
0.0000
 11
15.4305
 21
6.8351
 31
0.0000
  0
LINE
  8
27
 10
15.8115
 20
7.3431
 30
0.0000
 11
15.2718
 21
7.0574
 31
0.0000
  0
POINT
  8
23
 10
20.6375
 20
25.4000
 30
0.0000
  0
LINE
  8
51
 10
21.0475
 20
24.7650
 30
0.0000
 11
20.2275
 21
24.7650
 31
0.0000
  0
LINE
  8
51
 10
21.0475
 20
26.0350
 30
0.0000
 11
20.2275
 21
26.0350
 31
0.0000
  0
INSERT
  8
51
  2
RECT
 10
19.9061
 20
25.3985
 30
0.0000
 41
0.6500
 42
1.4000
 43
1.0000
 50
180.0000
  0
INSERT
  8
51
  2
RECT
 10
21.3793
 20
25.3985
 30
0.0000
 41
0.6500
 42
1.4000
 43
1.0000
 50
180.0000
  0
INSERT
  8
1
  2
RECT
 10
21.5875
 20
25.4000
 30
0.0000
 41
1.3000
 42
1.5000
 43
1.0000
 50
180.0000
  0
INSERT
  8
1
  2
RECT
 10
19.6875
 20
25.4000
 30
0.0000
 41
1.3000
 42
1.5000
 43
1.0000
 50
180.0000
  0
LINE
  8
27
 10
18.7496
 20
27.5463
 30
0.0000
 11
19.0671
 21
27.8003
 31
0.0000
  0
LINE
  8
27
 10
19.0671
 20
27.8003
 30
0.0000
 11
19.0671
 21
26.6573
 31
0.0000
  0
LINE
  8
27
 10
18.7496
 20
26.6573
 30
0.0000
 11
19.3846
 21
26.6573
 31
0.0000
  0
ARC
  8
27
 10
20.8345
 20
27.2288
 30
0.0000
 40
0.9419
 50
154.0108
 51
180.0000
  0
ARC
  8
27
 10
20.2101
 20
27.5654
 30
0.0000
 40
0.2350
 50
90.0000
 51
161.0754
  0
ARC
  8
27
 10
20.2101
 20
27.5654
 30
0.0000
 40
0.2350
 50
18.9246
 51
90.0000
  0
ARC
  8
27
 10
19.5857
 20
27.2288
 30
0.0000
 40
0.9419
 50
360.0000
 51
25.9892
  0
ARC
  8
27
 10
20.8345
 20
27.2288
 30
0.0000
 40
0.9419
 50
180.0000
 51
205.9892
  0
ARC
  8
27
 10
20.2101
 20
26.8923
 30
0.0000
 40
0.2350
 50
198.9246
 51
270.0000
  0
ARC
  8
27
 10
19.5857
 20
27.2288
 30
0.0000
 40
0.9419
 50
334.0108
 51
0.0000
  0
ARC
  8
27
 10
20.2101
 20
26.8923
 30
0.0000
 40
0.2350
 50
270.0000
 51
341.0754
  0
LINE
  8
27
 10
19.9561
 20
26.9113
 30
0.0000
 11
20.4641
 21
27.5463
 31
0.0000
  0
ARC
  8
27
 10
21.9775
 20
27.2288
 30
0.0000
 40
0.9419
 50
154.0108
 51
180.0000
  0
ARC
  8
27
 10
21.3531
 20
27.5654
 30
0.0000
 40
0.2350
 50
90.0000
 51
161.0754
  0
ARC
  8
27
 10
21.3531
 20
27.5654
 30
0.0000
 40
0.2350
 50
18.9246
 51
90.0000
  0
ARC
  8
27
 10
20.7287
 20
27.2288
 30
0.0000
 40
0.9419
 50
360.0000
 51
25.9892
  0
ARC
  8
27
 10
21.9775
 20
27.2288
 30
0.0000
 40
0.9419
 50
180.0000
 51
205.9892
  0
ARC
  8
27
 10
21.3531
 20
26.8923
 30
0.0000
 40
0.2350
 50
198.9246
 51
270.0000
  0
ARC
  8
27
 10
20.7287
 20
27.2288
 30
0.0000
 40
0.9419
 50
334.0108
 51
0.0000
  0
ARC
  8
27
 10
21.3531
 20
26.8923
 30
0.0000
 40
0.2350
 50
270.0000
 51
341.0754
  0
LINE
  8
27
 10
21.0991
 20
26.9113
 30
0.0000
 11
21.6071
 21
27.5463
 31
0.0000
  0
LINE
  8
27
 10
22.2250
 20
26.6573
 30
0.0000
 11
22.2250
 21
27.8003
 31
0.0000
  0
LINE
  8
27
 10
22.2250
 20
27.8003
 30
0.0000
 11
22.5425
 21
27.8003
 31
0.0000
  0
ARC
  8
27
 10
22.5425
 20
27.4828
 30
0.0000
 40
0.3175
 50
270.0000
 51
90.0000
  0
LINE
  8
27
 10
22.5425
 20
27.1653
 30
0.0000
 11
22.2250
 21
27.1653
 31
0.0000
  0
LINE
  8
27
 10
22.8600
 20
26.6573
 30
0.0000
 11
22.6060
 21
27.1653
 31
0.0000
  0
POINT
  8
23
 10
20.6375
 20
22.8600
 30
0.0000
  0
LINE
  8
51
 10
21.0475
 20
22.2250
 30
0.0000
 11
20.2275
 21
22.2250
 31
0.0000
  0
LINE
  8
51
 10
21.0475
 20
23.4950
 30
0.0000
 11
20.2275
 21
23.4950
 31
0.0000
  0
INSERT
  8
51
  2
RECT
 10
19.9061
 20
22.8585
 30
0.0000
 41
0.6500
 42
1.4000
 43
1.0000
 50
180.0000
  0
INSERT
  8
51
  2
RECT
 10
21.3793
 20
22.8585
 30
0.0000
 41
0.6500
 42
1.4000
 43
1.0000
 50
180.0000
  0
INSERT
  8
1
  2
RECT
 10
21.5875
 20
22.8600
 30
0.0000
 41
1.3000
 42
1.5000
 43
1.0000
 50
180.0000
  0
INSERT
  8
1
  2
RECT
 10
19.6875
 20
22.8600
 30
0.0000
 41
1.3000
 42
1.5000
 43
1.0000
 50
180.0000
  0
LINE
  8
27
 10
18.4321
 20
21.1963
 30
0.0000
 11
18.7496
 21
21.4503
 31
0.0000
  0
LINE
  8
27
 10
18.7496
 20
21.4503
 30
0.0000
 11
18.7496
 21
20.3073
 31
0.0000
  0
LINE
  8
27
 10
18.4321
 20
20.3073
 30
0.0000
 11
19.0671
 21
20.3073
 31
0.0000
  0
ARC
  8
27
 10
20.5170
 20
20.8788
 30
0.0000
 40
0.9419
 50
154.0108
 51
180.0000
  0
ARC
  8
27
 10
19.8926
 20
21.2154
 30
0.0000
 40
0.2350
 50
90.0000
 51
161.0754
  0
ARC
  8
27
 10
19.8926
 20
21.2154
 30
0.0000
 40
0.2350
 50
18.9246
 51
90.0000
  0
ARC
  8
27
 10
19.2682
 20
20.8788
 30
0.0000
 40
0.9419
 50
360.0000
 51
25.9892
  0
ARC
  8
27
 10
20.5170
 20
20.8788
 30
0.0000
 40
0.9419
 50
180.0000
 51
205.9892
  0
ARC
  8
27
 10
19.8926
 20
20.5422
 30
0.0000
 40
0.2350
 50
198.9246
 51
270.0000
  0
ARC
  8
27
 10
19.2682
 20
20.8788
 30
0.0000
 40
0.9419
 50
334.0108
 51
0.0000
  0
ARC
  8
27
 10
19.8926
 20
20.5422
 30
0.0000
 40
0.2350
 50
270.0000
 51
341.0754
  0
LINE
  8
27
 10
19.6386
 20
20.5613
 30
0.0000
 11
20.1466
 21
21.1963
 31
0.0000
  0
ARC
  8
27
 10
21.6600
 20
20.8788
 30
0.0000
 40
0.9419
 50
154.0108
 51
180.0000
  0
ARC
  8
27
 10
21.0356
 20
21.2154
 30
0.0000
 40
0.2350
 50
90.0000
 51
161.0754
  0
ARC
  8
27
 10
21.0356
 20
21.2154
 30
0.0000
 40
0.2350
 50
18.9246
 51
90.0000
  0
ARC
  8
27
 10
20.4112
 20
20.8788
 30
0.0000
 40
0.9419
 50
360.0000
 51
25.9892
  0
ARC
  8
27
 10
21.6600
 20
20.8788
 30
0.0000
 40
0.9419
 50
180.0000
 51
205.9892
  0
ARC
  8
27
 10
21.0356
 20
20.5422
 30
0.0000
 40
0.2350
 50
198.9246
 51
270.0000
  0
ARC
  8
27
 10
20.4112
 20
20.8788
 30
0.0000
 40
0.9419
 50
334.0108
 51
0.0000
  0
ARC
  8
27
 10
21.0356
 20
20.5422
 30
0.0000
 40
0.2350
 50
270.0000
 51
341.0754
  0
LINE
  8
27
 10
20.7816
 20
20.5613
 30
0.0000
 11
21.2896
 21
21.1963
 31
0.0000
  0
LINE
  8
27
 10
21.9075
 20
20.3073
 30
0.0000
 11
21.9075
 21
21.4503
 31
0.0000
  0
LINE
  8
27
 10
21.9075
 20
21.4503
 30
0.0000
 11
22.2250
 21
21.4503
 31
0.0000
  0
ARC
  8
27
 10
22.2250
 20
21.1328
 30
0.0000
 40
0.3175
 50
270.0000
 51
90.0000
  0
LINE
  8
27
 10
22.2250
 20
20.8153
 30
0.0000
 11
21.9075
 21
20.8153
 31
0.0000
  0
LINE
  8
27
 10
22.5425
 20
20.3073
 30
0.0000
 11
22.2885
 21
20.8153
 31
0.0000
  0
POINT
  8
23
 10
5.7150
 20
21.5900
 30
0.0000
  0
ARC
  8
51
 10
5.7150
 20
20.6108
 30
0.0000
 40
0.3542
 50
8.8027
 51
171.1973
  0
ARC
  8
51
 10
5.7150
 20
22.5692
 30
0.0000
 40
0.3542
 50
188.8027
 51
351.1973
  0
LINE
  8
51
 10
5.1400
 20
21.0650
 30
0.0000
 11
5.1400
 21
22.1150
 31
0.0000
  0
LINE
  8
51
 10
6.2900
 20
22.0900
 30
0.0000
 11
6.2900
 21
20.6650
 31
0.0000
  0
CIRCLE
  8
51
 10
6.1650
 20
20.7400
 30
0.0000
 40
0.1030
  0
INSERT
  8
51
  2
RECT
 10
5.2525
 20
20.8400
 30
0.0000
 41
0.3250
 42
0.5000
 43
1.0000
 50
180.0000
  0
INSERT
  8
51
  2
RECT
 10
5.9650
 20
20.9650
 30
0.0000
 41
0.1500
 42
0.2500
 43
1.0000
 50
180.0000
  0
INSERT
  8
51
  2
RECT
 10
5.4650
 20
20.9650
 30
0.0000
 41
0.1500
 42
0.2500
 43
1.0000
 50
180.0000
  0
INSERT
  8
51
  2
RECT
 10
5.7150
 20
21.0025
 30
0.0000
 41
0.4000
 42
0.1750
 43
1.0000
 50
180.0000
  0
INSERT
  8
51
  2
RECT
 10
5.2525
 20
22.3400
 30
0.0000
 41
0.3250
 42
0.5000
 43
1.0000
 50
180.0000
  0
INSERT
  8
51
  2
RECT
 10
6.1775
 20
22.3400
 30
0.0000
 41
0.3250
 42
0.5000
 43
1.0000
 50
180.0000
  0
INSERT
  8
51
  2
RECT
 10
5.4650
 20
22.2150
 30
0.0000
 41
0.1500
 42
0.2500
 43
1.0000
 50
180.0000
  0
INSERT
  8
51
  2
RECT
 10
5.9650
 20
22.2150
 30
0.0000
 41
0.1500
 42
0.2500
 43
1.0000
 50
180.0000
  0
INSERT
  8
51
  2
RECT
 10
5.7150
 20
22.1775
 30
0.0000
 41
0.4000
 42
0.1750
 43
1.0000
 50
180.0000
  0
INSERT
  8
21
  2
RECT
 10
5.7150
 20
21.4900
 30
0.0000
 41
0.2000
 42
0.2000
 43
1.0000
 50
180.0000
  0
INSERT
  8
51
  2
RECT
 10
6.1650
 20
20.9400
 30
0.0000
 41
0.3000
 42
0.3000
 43
1.0000
 50
180.0000
  0
INSERT
  8
51
  2
RECT
 10
6.1775
 20
20.6275
 30
0.0000
 41
0.3250
 42
0.0750
 43
1.0000
 50
180.0000
  0
INSERT
  8
1
  2
RECT
 10
5.7150
 20
22.6400
 30
0.0000
 41
1.2000
 42
1.2000
 43
1.0000
 50
180.0000
  0
INSERT
  8
1
  2
RECT
 10
5.7150
 20
20.5400
 30
0.0000
 41
1.2000
 42
1.2000
 43
1.0000
 50
180.0000
  0
LINE
  8
25
 10
4.7625
 20
20.6331
 30
0.0000
 11
3.6195
 21
20.6331
 31
0.0000
  0
LINE
  8
25
 10
3.6195
 20
20.6331
 30
0.0000
 11
3.6195
 21
20.9506
 31
0.0000
  0
ARC
  8
25
 10
3.9370
 20
20.9506
 30
0.0000
 40
0.3175
 50
0.0000
 51
180.0000
  0
LINE
  8
25
 10
4.2545
 20
20.9506
 30
0.0000
 11
4.2545
 21
20.6331
 31
0.0000
  0
LINE
  8
25
 10
4.7625
 20
21.2681
 30
0.0000
 11
4.2545
 21
21.0141
 31
0.0000
  0
LINE
  8
25
 10
4.7625
 20
22.3164
 30
0.0000
 11
4.7625
 21
21.8084
 31
0.0000
  0
LINE
  8
25
 10
4.7625
 20
21.8084
 30
0.0000
 11
3.6195
 21
21.8084
 31
0.0000
  0
LINE
  8
25
 10
3.6195
 20
21.8084
 30
0.0000
 11
3.6195
 21
22.3164
 31
0.0000
  0
LINE
  8
25
 10
4.1275
 20
21.8084
 30
0.0000
 11
4.1275
 21
22.1894
 31
0.0000
  0
LINE
  8
25
 10
4.7625
 20
22.7965
 30
0.0000
 11
3.6195
 21
22.7965
 31
0.0000
  0
LINE
  8
25
 10
3.6195
 20
22.7965
 30
0.0000
 11
3.6195
 21
23.1140
 31
0.0000
  0
ARC
  8
25
 10
3.9370
 20
23.1140
 30
0.0000
 40
0.3175
 50
90.0000
 51
180.0000
  0
LINE
  8
25
 10
3.9370
 20
23.4315
 30
0.0000
 11
4.4450
 21
23.4315
 31
0.0000
  0
ARC
  8
25
 10
4.4450
 20
23.1140
 30
0.0000
 40
0.3175
 50
0.0000
 51
90.0000
  0
LINE
  8
25
 10
4.7625
 20
23.1140
 30
0.0000
 11
4.7625
 21
22.7965
 31
0.0000
  0
POINT
  8
23
 10
52.0700
 20
7.6200
 30
0.0000
  0
LINE
  8
21
 10
50.8000
 20
4.4450
 30
0.0000
 11
50.8000
 21
5.7150
 31
0.0000
  0
LINE
  8
21
 10
50.8000
 20
5.7150
 30
0.0000
 11
51.4350
 21
6.3500
 31
0.0000
  0
LINE
  8
21
 10
52.7050
 20
6.3500
 30
0.0000
 11
53.3400
 21
5.7150
 31
0.0000
  0
LINE
  8
21
 10
51.4350
 20
6.3500
 30
0.0000
 11
50.8000
 21
6.9850
 31
0.0000
  0
LINE
  8
21
 10
50.8000
 20
6.9850
 30
0.0000
 11
50.8000
 21
8.2550
 31
0.0000
  0
LINE
  8
21
 10
50.8000
 20
8.2550
 30
0.0000
 11
51.4350
 21
8.8900
 31
0.0000
  0
LINE
  8
21
 10
52.7050
 20
8.8900
 30
0.0000
 11
53.3400
 21
8.2550
 31
0.0000
  0
LINE
  8
21
 10
53.3400
 20
8.2550
 30
0.0000
 11
53.3400
 21
6.9850
 31
0.0000
  0
LINE
  8
21
 10
53.3400
 20
6.9850
 30
0.0000
 11
52.7050
 21
6.3500
 31
0.0000
  0
LINE
  8
21
 10
51.4350
 20
3.8100
 30
0.0000
 11
52.7050
 21
3.8100
 31
0.0000
  0
LINE
  8
21
 10
50.8000
 20
4.4450
 30
0.0000
 11
51.4350
 21
3.8100
 31
0.0000
  0
LINE
  8
21
 10
52.7050
 20
3.8100
 30
0.0000
 11
53.3400
 21
4.4450
 31
0.0000
  0
LINE
  8
21
 10
53.3400
 20
5.7150
 30
0.0000
 11
53.3400
 21
4.4450
 31
0.0000
  0
LINE
  8
21
 10
51.4350
 20
8.8900
 30
0.0000
 11
50.8000
 21
9.5250
 31
0.0000
  0
LINE
  8
21
 10
50.8000
 20
9.5250
 30
0.0000
 11
50.8000
 21
10.7950
 31
0.0000
  0
LINE
  8
21
 10
50.8000
 20
10.7950
 30
0.0000
 11
51.4350
 21
11.4300
 31
0.0000
  0
LINE
  8
21
 10
52.7050
 20
11.4300
 30
0.0000
 11
53.3400
 21
10.7950
 31
0.0000
  0
LINE
  8
21
 10
53.3400
 20
10.7950
 30
0.0000
 11
53.3400
 21
9.5250
 31
0.0000
  0
LINE
  8
21
 10
53.3400
 20
9.5250
 30
0.0000
 11
52.7050
 21
8.8900
 31
0.0000
  0
LINE
  8
21
 10
51.4350
 20
11.4300
 30
0.0000
 11
52.7050
 21
11.4300
 31
0.0000
  0
LINE
  8
21
 10
51.7525
 20
2.6035
 30
0.0000
 11
51.4985
 21
2.9210
 31
0.0000
  0
LINE
  8
21
 10
51.4985
 20
2.9210
 30
0.0000
 11
52.6415
 21
2.9210
 31
0.0000
  0
LINE
  8
21
 10
52.6415
 20
2.6035
 30
0.0000
 11
52.6415
 21
3.2385
 31
0.0000
  0
INSERT
  8
51
  2
RECT
 10
52.0700
 20
7.6200
 30
0.0000
 41
0.5080
 42
0.5080
 43
1.0000
 50
90.0000
  0
INSERT
  8
51
  2
RECT
 10
52.0700
 20
5.0800
 30
0.0000
 41
0.5080
 42
0.5080
 43
1.0000
 50
90.0000
  0
INSERT
  8
51
  2
RECT
 10
52.0700
 20
10.1600
 30
0.0000
 41
0.5080
 42
0.5080
 43
1.0000
 50
90.0000
  0
INSERT
  8
17
  2
LONGP100
 10
52.0700
 20
5.0800
 30
0.0000
 41
1.5240
 42
1.5240
 43
1.0000
 50
180.0000
  0
INSERT
  8
17
  2
LONGP100
 10
52.0700
 20
5.0800
 30
0.0000
 41
1.5240
 42
1.5240
 43
1.0000
 50
180.0000
  0
INSERT
  8
17
  2
LONGP100
 10
52.0700
 20
7.6200
 30
0.0000
 41
1.5240
 42
1.5240
 43
1.0000
 50
180.0000
  0
INSERT
  8
17
  2
LONGP100
 10
52.0700
 20
7.6200
 30
0.0000
 41
1.5240
 42
1.5240
 43
1.0000
 50
180.0000
  0
INSERT
  8
17
  2
LONGP100
 10
52.0700
 20
10.1600
 30
0.0000
 41
1.5240
 42
1.5240
 43
1.0000
 50
180.0000
  0
INSERT
  8
17
  2
LONGP100
 10
52.0700
 20
10.1600
 30
0.0000
 41
1.5240
 42
1.5240
 43
1.0000
 50
180.0000
  0
POINT
  8
23
 10
52.0700
 20
22.8600
 30
0.0000
  0
LINE
  8
21
 10
50.8000
 20
19.6850
 30
0.0000
 11
50.8000
 21
20.9550
 31
0.0000
  0
LINE
  8
21
 10
50.8000
 20
20.9550
 30
0.0000
 11
51.4350
 21
21.5900
 31
0.0000
  0
LINE
  8
21
 10
52.7050
 20
21.5900
 30
0.0000
 11
53.3400
 21
20.9550
 31
0.0000
  0
LINE
  8
21
 10
51.4350
 20
21.5900
 30
0.0000
 11
50.8000
 21
22.2250
 31
0.0000
  0
LINE
  8
21
 10
50.8000
 20
22.2250
 30
0.0000
 11
50.8000
 21
23.4950
 31
0.0000
  0
LINE
  8
21
 10
50.8000
 20
23.4950
 30
0.0000
 11
51.4350
 21
24.1300
 31
0.0000
  0
LINE
  8
21
 10
52.7050
 20
24.1300
 30
0.0000
 11
53.3400
 21
23.4950
 31
0.0000
  0
LINE
  8
21
 10
53.3400
 20
23.4950
 30
0.0000
 11
53.3400
 21
22.2250
 31
0.0000
  0
LINE
  8
21
 10
53.3400
 20
22.2250
 30
0.0000
 11
52.7050
 21
21.5900
 31
0.0000
  0
LINE
  8
21
 10
51.4350
 20
19.0500
 30
0.0000
 11
52.7050
 21
19.0500
 31
0.0000
  0
LINE
  8
21
 10
50.8000
 20
19.6850
 30
0.0000
 11
51.4350
 21
19.0500
 31
0.0000
  0
LINE
  8
21
 10
52.7050
 20
19.0500
 30
0.0000
 11
53.3400
 21
19.6850
 31
0.0000
  0
LINE
  8
21
 10
53.3400
 20
20.9550
 30
0.0000
 11
53.3400
 21
19.6850
 31
0.0000
  0
LINE
  8
21
 10
51.4350
 20
24.1300
 30
0.0000
 11
50.8000
 21
24.7650
 31
0.0000
  0
LINE
  8
21
 10
50.8000
 20
24.7650
 30
0.0000
 11
50.8000
 21
26.0350
 31
0.0000
  0
LINE
  8
21
 10
50.8000
 20
26.0350
 30
0.0000
 11
51.4350
 21
26.6700
 31
0.0000
  0
LINE
  8
21
 10
52.7050
 20
26.6700
 30
0.0000
 11
53.3400
 21
26.0350
 31
0.0000
  0
LINE
  8
21
 10
53.3400
 20
26.0350
 30
0.0000
 11
53.3400
 21
24.7650
 31
0.0000
  0
LINE
  8
21
 10
53.3400
 20
24.7650
 30
0.0000
 11
52.7050
 21
24.1300
 31
0.0000
  0
LINE
  8
21
 10
51.4350
 20
26.6700
 30
0.0000
 11
52.7050
 21
26.6700
 31
0.0000
  0
LINE
  8
21
 10
51.7525
 20
17.8435
 30
0.0000
 11
51.4985
 21
18.1610
 31
0.0000
  0
LINE
  8
21
 10
51.4985
 20
18.1610
 30
0.0000
 11
52.6415
 21
18.1610
 31
0.0000
  0
LINE
  8
21
 10
52.6415
 20
17.8435
 30
0.0000
 11
52.6415
 21
18.4785
 31
0.0000
  0
INSERT
  8
51
  2
RECT
 10
52.0700
 20
22.8600
 30
0.0000
 41
0.5080
 42
0.5080
 43
1.0000
 50
90.0000
  0
INSERT
  8
51
  2
RECT
 10
52.0700
 20
20.3200
 30
0.0000
 41
0.5080
 42
0.5080
 43
1.0000
 50
90.0000
  0
INSERT
  8
51
  2
RECT
 10
52.0700
 20
25.4000
 30
0.0000
 41
0.5080
 42
0.5080
 43
1.0000
 50
90.0000
  0
INSERT
  8
17
  2
LONGP100
 10
52.0700
 20
20.3200
 30
0.0000
 41
1.5240
 42
1.5240
 43
1.0000
 50
180.0000
  0
INSERT
  8
17
  2
LONGP100
 10
52.0700
 20
20.3200
 30
0.0000
 41
1.5240
 42
1.5240
 43
1.0000
 50
180.0000
  0
INSERT
  8
17
  2
LONGP100
 10
52.0700
 20
22.8600
 30
0.0000
 41
1.5240
 42
1.5240
 43
1.0000
 50
180.0000
  0
INSERT
  8
17
  2
LONGP100
 10
52.0700
 20
22.8600
 30
0.0000
 41
1.5240
 42
1.5240
 43
1.0000
 50
180.0000
  0
INSERT
  8
17
  2
LONGP100
 10
52.0700
 20
25.4000
 30
0.0000
 41
1.5240
 42
1.5240
 43
1.0000
 50
180.0000
  0
INSERT
  8
17
  2
LONGP100
 10
52.0700
 20
25.4000
 30
0.0000
 41
1.5240
 42
1.5240
 43
1.0000
 50
180.0000
  0
POINT
  8
23
 10
12.3825
 20
6.3500
 30
0.0000
  0
LINE
  8
21
 10
13.2715
 20
8.6360
 30
0.0000
 11
11.4935
 21
8.6360
 31
0.0000
  0
LINE
  8
21
 10
11.4935
 20
4.0640
 30
0.0000
 11
11.4935
 21
8.6360
 31
0.0000
  0
LINE
  8
21
 10
11.4935
 20
4.0640
 30
0.0000
 11
13.2715
 21
4.0640
 31
0.0000
  0
LINE
  8
21
 10
13.2715
 20
8.6360
 30
0.0000
 11
13.2715
 21
4.0640
 31
0.0000
  0
ARC
  8
21
 10
13.2715
 20
6.3500
 30
0.0000
 40
0.8890
 50
270.0000
 51
90.0000
  0
INSERT
  8
17
  2
OCTAGONP
 10
12.3825
 20
7.6200
 30
0.0000
 41
1.3208
 42
1.3208
 43
1.0000
 50
180.0000
  0
INSERT
  8
17
  2
OCTAGONP
 10
12.3825
 20
7.6200
 30
0.0000
 41
1.3208
 42
1.3208
 43
1.0000
 50
180.0000
  0
INSERT
  8
17
  2
OCTAGONP
 10
12.3825
 20
5.0800
 30
0.0000
 41
1.3208
 42
1.3208
 43
1.0000
 50
180.0000
  0
INSERT
  8
17
  2
OCTAGONP
 10
12.3825
 20
5.0800
 30
0.0000
 41
1.3208
 42
1.3208
 43
1.0000
 50
180.0000
  0
LINE
  8
1
 10
52.0700
 20
13.9700
 30
0.0000
 11
5.0800
 21
13.9700
 31
0.0000
  0
ARC
  8
1
 10
5.0800
 20
8.8900
 30
0.0000
 40
5.0800
 50
90.0000
 51
180.0000
  0
LINE
  8
1
 10
0.0000
 20
8.8900
 30
0.0000
 11
0.0000
 21
5.0800
 31
0.0000
  0
ARC
  8
1
 10
5.0800
 20
5.0800
 30
0.0000
 40
5.0800
 50
180.0000
 51
270.0000
  0
LINE
  8
1
 10
5.0800
 20
0.0000
 30
0.0000
 11
52.0700
 21
0.0000
 31
0.0000
  0
ARC
  8
1
 10
52.0700
 20
5.0800
 30
0.0000
 40
5.0800
 50
270.0000
 51
0.0000
  0
LINE
  8
1
 10
57.1500
 20
5.0800
 30
0.0000
 11
57.1500
 21
8.8900
 31
0.0000
  0
ARC
  8
1
 10
52.0700
 20
8.8900
 30
0.0000
 40
5.0800
 50
0.0000
 51
90.0000
  0
LINE
  8
16
 10
30.4800
 20
13.9700
 30
0.0000
 11
5.0800
 21
13.9700
 31
0.0000
  0
ARC
  8
16
 10
5.0800
 20
8.8900
 30
0.0000
 40
5.0800
 50
90.0000
 51
180.0000
  0
LINE
  8
16
 10
0.0000
 20
8.8900
 30
0.0000
 11
0.0000
 21
6.3500
 31
0.0000
  0
LINE
  8
16
 10
0.0000
 20
6.3500
 30
0.0000
 11
0.0000
 21
5.0800
 31
0.0000
  0
ARC
  8
16
 10
5.0800
 20
5.0800
 30
0.0000
 40
5.0800
 50
180.0000
 51
270.0000
  0
LINE
  8
16
 10
5.0800
 20
0.0000
 30
0.0000
 11
30.4800
 21
0.0000
 31
0.0000
  0
LINE
  8
16
 10
30.4800
 20
0.0000
 30
0.0000
 11
52.0700
 21
0.0000
 31
0.0000
  0
ARC
  8
16
 10
52.0700
 20
5.0800
 30
0.0000
 40
5.0800
 50
270.0000
 51
0.0000
  0
LINE
  8
16
 10
57.1500
 20
5.0800
 30
0.0000
 11
57.1500
 21
6.3500
 31
0.0000
  0
LINE
  8
16
 10
57.1500
 20
6.3500
 30
0.0000
 11
57.1500
 21
8.8900
 31
0.0000
  0
ARC
  8
16
 10
52.0700
 20
8.8900
 30
0.0000
 40
5.0800
 50
0.0000
 51
90.0000
  0
LINE
  8
16
 10
52.0700
 20
13.9700
 30
0.0000
 11
30.4800
 21
13.9700
 31
0.0000
  0
LINE
  8
1
 10
52.0700
 20
5.0800
 30
0.0000
 11
50.8000
 21
3.8100
 31
0.0000
  0
LINE
  8
1
 10
50.8000
 20
3.8100
 30
0.0000
 11
43.1800
 21
3.8100
 31
0.0000
  0
LINE
  8
1
 10
43.1800
 20
3.8100
 30
0.0000
 11
41.9100
 21
2.5400
 31
0.0000
  0
LINE
  8
1
 10
41.9100
 20
2.5400
 30
0.0000
 11
40.6400
 21
2.5400
 31
0.0000
  0
LINE
  8
1
 10
52.0700
 20
22.8600
 30
0.0000
 11
21.5875
 21
22.8600
 31
0.0000
  0
LINE
  8
1
 10
0.0000
 20
20.3200
 30
0.0000
 11
0.0000
 21
24.1300
 31
0.0000
  0
ARC
  8
1
 10
5.0800
 20
24.1300
 30
0.0000
 40
5.0800
 50
90.0000
 51
180.0000
  0
LINE
  8
1
 10
5.0800
 20
29.2100
 30
0.0000
 11
52.0700
 21
29.2100
 31
0.0000
  0
ARC
  8
1
 10
52.0700
 20
24.1300
 30
0.0000
 40
5.0800
 50
0.0000
 51
90.0000
  0
LINE
  8
1
 10
57.1500
 20
24.1300
 30
0.0000
 11
57.1500
 21
20.3200
 31
0.0000
  0
ARC
  8
1
 10
52.0700
 20
20.3200
 30
0.0000
 40
5.0800
 50
270.0000
 51
0.0000
  0
LINE
  8
1
 10
52.0700
 20
15.2400
 30
0.0000
 11
5.0800
 21
15.2400
 31
0.0000
  0
ARC
  8
1
 10
5.0800
 20
20.3200
 30
0.0000
 40
5.0800
 50
180.0000
 51
270.0000
  0
LINE
  8
16
 10
0.0000
 20
20.3200
 30
0.0000
 11
0.0000
 21
24.1300
 31
0.0000
  0
ARC
  8
16
 10
5.0800
 20
24.1300
 30
0.0000
 40
5.0800
 50
90.0000
 51
180.0000
  0
LINE
  8
16
 10
5.0800
 20
29.2100
 30
0.0000
 11
52.0700
 21
29.2100
 31
0.0000
  0
ARC
  8
16
 10
52.0700
 20
24.1300
 30
0.0000
 40
5.0800
 50
0.0000
 51
90.0000
  0
LINE
  8
16
 10
57.1500
 20
24.1300
 30
0.0000
 11
57.1500
 21
20.3200
 31
0.0000
  0
ARC
  8
16
 10
52.0700
 20
20.3200
 30
0.0000
 40
5.0800
 50
270.0000
 51
0.0000
  0
LINE
  8
16
 10
52.0700
 20
15.2400
 30
0.0000
 11
5.0800
 21
15.2400
 31
0.0000
  0
ARC
  8
16
 10
5.0800
 20
20.3200
 30
0.0000
 40
5.0800
 50
180.0000
 51
270.0000
  0
LINE
  8
1
 10
52.0700
 20
20.3200
 30
0.0000
 11
46.9900
 21
20.3200
 31
0.0000
  0
LINE
  8
1
 10
5.7150
 20
20.5400
 30
0.0000
 11
5.9350
 21
20.3200
 31
0.0000
  0
LINE
  8
1
 10
11.4300
 20
20.3200
 30
0.0000
 11
5.9350
 21
20.3200
 31
0.0000
  0
LINE
  8
1
 10
46.9900
 20
20.3200
 30
0.0000
 11
11.4300
 21
20.3200
 31
0.0000
  0
LINE
  8
1
 10
40.6400
 20
5.0800
 30
0.0000
 11
39.3700
 21
6.3500
 31
0.0000
  0
LINE
  8
1
 10
39.3700
 20
6.3500
 30
0.0000
 11
35.5600
 21
6.3500
 31
0.0000
  0
LINE
  8
1
 10
32.2900
 20
8.8900
 30
0.0000
 11
33.0200
 21
8.8900
 31
0.0000
  0
LINE
  8
1
 10
33.0200
 20
8.8900
 30
0.0000
 11
35.5600
 21
6.3500
 31
0.0000
  0
LINE
  8
1
 10
5.7150
 20
22.6400
 30
0.0000
 11
5.7150
 21
25.4000
 31
0.0000
  0
LINE
  8
1
 10
5.7150
 20
25.4000
 30
0.0000
 11
19.6875
 21
25.4000
 31
0.0000
  0
LINE
  8
1
 10
40.6400
 20
7.6200
 30
0.0000
 11
38.1000
 21
7.6200
 31
0.0000
  0
LINE
  8
1
 10
36.8300
 20
7.6200
 30
0.0000
 11
38.1000
 21
7.6200
 31
0.0000
  0
LINE
  8
1
 10
27.9400
 20
11.4300
 30
0.0000
 11
33.0200
 21
11.4300
 31
0.0000
  0
LINE
  8
1
 10
33.0200
 20
11.4300
 30
0.0000
 11
36.8300
 21
7.6200
 31
0.0000
  0
LINE
  8
1
 10
39.6850
 20
3.8100
 30
0.0000
 11
38.4150
 21
2.5400
 31
0.0000
  0
LINE
  8
1
 10
32.7000
 20
2.5400
 30
0.0000
 11
38.4150
 21
2.5400
 31
0.0000
  0
LINE
  8
1
 10
39.6850
 20
3.8100
 30
0.0000
 11
41.9100
 21
3.8100
 31
0.0000
  0
LINE
  8
1
 10
41.9100
 20
3.8100
 30
0.0000
 11
42.5450
 21
4.4450
 31
0.0000
  0
LINE
  8
1
 10
42.5450
 20
4.4450
 30
0.0000
 11
42.5450
 21
6.9850
 31
0.0000
  0
LINE
  8
1
 10
42.5450
 20
6.9850
 30
0.0000
 11
41.9100
 21
7.6200
 31
0.0000
  0
LINE
  8
1
 10
41.9100
 20
7.6200
 30
0.0000
 11
40.6400
 21
7.6200
 31
0.0000
  0
LINE
  8
16
 10
17.7800
 20
11.4300
 30
0.0000
 11
17.7800
 21
6.3500
 31
0.0000
  0
LINE
  8
1
 10
19.6875
 20
22.8600
 30
0.0000
 11
11.4300
 21
22.8600
 31
0.0000
  0
LINE
  8
1
 10
25.4000
 20
6.3500
 30
0.0000
 11
25.4000
 21
2.5400
 31
0.0000
  0
LINE
  8
1
 10
30.8000
 20
2.5400
 30
0.0000
 11
25.4000
 21
2.5400
 31
0.0000
  0
LINE
  8
1
 10
27.9400
 20
6.3500
 30
0.0000
 11
25.4000
 21
6.3500
 31
0.0000
  0
LINE
  8
1
 10
21.5875
 20
25.4000
 30
0.0000
 11
52.0700
 21
25.4000
 31
0.0000
  0
LINE
  8
1
 10
40.6400
 20
10.1600
 30
0.0000
 11
38.1000
 21
10.1600
 31
0.0000
  0
LINE
  8
1
 10
38.1000
 20
10.1600
 30
0.0000
 11
36.8300
 21
11.4300
 31
0.0000
  0
LINE
  8
1
 10
36.8300
 20
11.4300
 30
0.0000
 11
35.5600
 21
11.4300
 31
0.0000
  0
LINE
  8
1
 10
45.7200
 20
10.1600
 30
0.0000
 11
46.9900
 21
11.4300
 31
0.0000
  0
LINE
  8
1
 10
46.9900
 20
11.4300
 30
0.0000
 11
50.8000
 21
11.4300
 31
0.0000
  0
LINE
  8
1
 10
50.8000
 20
11.4300
 30
0.0000
 11
52.0700
 21
10.1600
 31
0.0000
  0
LINE
  8
1
 10
40.6400
 20
10.1600
 30
0.0000
 11
45.7200
 21
10.1600
 31
0.0000
  0
LINE
  8
1
 10
13.6525
 20
10.1600
 30
0.0000
 11
15.2400
 21
10.1600
 31
0.0000
  0
LINE
  8
1
 10
13.6525
 20
10.1600
 30
0.0000
 11
12.3825
 21
8.8900
 31
0.0000
  0
LINE
  8
1
 10
12.3825
 20
8.8900
 30
0.0000
 11
12.3825
 21
7.6200
 31
0.0000
  0
LINE
  8
1
 10
16.6243
 20
8.7757
 30
0.0000
 11
15.2400
 21
10.1600
 31
0.0000
  0
LINE
  8
1
 10
29.8257
 20
8.7757
 30
0.0000
 11
16.6243
 21
8.7757
 31
0.0000
  0
LINE
  8
1
 10
29.8257
 20
8.7757
 30
0.0000
 11
29.9400
 21
8.8900
 31
0.0000
  0
LINE
  8
16
 10
48.2600
 20
10.1600
 30
0.0000
 11
41.9100
 21
3.8100
 31
0.0000
  0
LINE
  8
16
 10
41.9100
 20
3.8100
 30
0.0000
 11
19.0500
 21
3.8100
 31
0.0000
  0
LINE
  8
1
 10
52.0700
 20
7.6200
 30
0.0000
 11
50.8000
 21
7.6200
 31
0.0000
  0
LINE
  8
1
 10
50.8000
 20
7.6200
 30
0.0000
 11
48.2600
 21
10.1600
 31
0.0000
  0
LINE
  8
16
 10
17.7800
 20
2.5400
 30
0.0000
 11
15.2400
 21
2.5400
 31
0.0000
  0
LINE
  8
16
 10
19.0500
 20
3.8100
 30
0.0000
 11
17.7800
 21
2.5400
 31
0.0000
  0
ENDSEC
  0
EOF
